<?xml version="1.0" encoding="UTF-8" standalone="no"?>
<svg width="71px" height="72px" viewBox="0 0 71 72" version="1.1" xmlns="http://www.w3.org/2000/svg" xmlns:xlink="http://www.w3.org/1999/xlink">
    <!-- Generator: Sketch 39.1 (31720) - http://www.bohemiancoding.com/sketch -->
    <title>Shape</title>
    <desc>Created with Sketch.</desc>
    <defs></defs>
    <g id="Page-1" stroke="none" stroke-width="1" fill="none" fill-rule="evenodd">
        <g id="Artboard-4" transform="translate(-491.000000, -438.000000)" fill="#CA7CAC">
            <g id="plane_1186118_easyicon.net" transform="translate(491.000000, 438.000000)">
                <g id="Capa_1">
                    <path d="M68.8251429,1.66628571 C66.6017143,-0.555428571 63.0034286,-0.555428571 60.78,1.66971429 L47.2491429,15.6394286 C47.2491429,15.6394286 42.0068571,13.8891429 35.8628571,11.9485714 C36.8794286,8.976 35.9502857,7.11257143 34.1657143,6.13542857 C32.076,4.99371429 29.592,5.50628571 27.3737143,9.32571429 C22.6268571,7.91657143 18.5245714,6.80742857 17.1428571,6.756 C13.188,6.60171429 6.67885714,14.0485714 7.33885714,15.5571429 C7.99885714,17.0622857 35.0194286,28.2651429 35.0194286,28.2651429 L17.4548571,46.4074286 C17.0228571,46.8377143 16.6234286,47.2714286 16.272,47.7 C16.272,47.7 6.94971429,43.6491429 4.92342857,42.492 C2.89542857,41.3331429 0,47.4102857 0,47.4102857 L12.6137143,55.212 C12.5537143,55.2651429 12.4954286,55.3165714 12.4354286,55.3748571 C10.9971429,56.8114286 10.4691429,58.6165714 11.2508571,59.4017143 C12.036,60.1834286 13.8394286,59.6537143 15.2794286,58.2154286 C15.3685714,58.1314286 15.4405714,58.0371429 15.5228571,57.9497143 L16.4057143,58.8291429 L25.0834286,71.7822857 C25.0834286,71.7822857 31.284,70.7228571 29.6485714,67.2205714 C28.0097143,63.7182857 23.3177143,53.6845714 23.3177143,53.6845714 C23.5885714,53.4977143 23.8525714,53.2902857 24.0908571,53.0434286 L42.564,35.1548571 L42.8537143,35.4497143 C42.8537143,35.4497143 55.608,62.4034286 57.2931429,64.0937143 C58.9748571,65.7822857 66.7662857,59.4497143 66.3891429,54.9977143 C66.2554286,53.4497143 64.8942857,49.08 63.18,44.0348571 C63.5674286,43.7811429 63.9514286,43.5137143 64.3285714,43.2137143 C68.0622857,40.2908571 68.1977143,37.6525714 66.6788571,35.7205714 C65.3417143,34.0148571 63.1697143,33.432 60.1148571,35.328 C57.6942857,28.6028571 55.5,22.8034286 55.5,22.8034286 L55.4142857,22.7142857 L68.832,9.72 C71.0485714,7.49485714 71.0485714,3.89142857 68.8251429,1.66628571 L68.8251429,1.66628571 Z" id="Shape"></path>
                </g>
            </g>
        </g>
    </g>
</svg>