<?xml version="1.0" encoding="UTF-8" standalone="no"?>
<svg width="78px" height="103px" viewBox="0 0 78 103" version="1.1" xmlns="http://www.w3.org/2000/svg" xmlns:xlink="http://www.w3.org/1999/xlink">
    <!-- Generator: Sketch 39.1 (31720) - http://www.bohemiancoding.com/sketch -->
    <title>Group</title>
    <desc>Created with Sketch.</desc>
    <defs></defs>
    <g id="Page-1" stroke="none" stroke-width="1" fill="none" fill-rule="evenodd">
        <g id="Artboard-2" transform="translate(-1774.000000, -2155.000000)" fill="#9C7BB7">
            <g id="alien_head_1199698_easyicon.net" transform="translate(1774.000000, 2155.000000)">
                <g id="Capa_1">
                    <g id="Group">
                        <path d="M66.5421989,11.4632549 C59.2161818,4.093527 49.4706136,0.0226911447 39.1010455,0 L39.0166193,0 C28.3705057,0 18.4520966,4.36982505 11.0835341,12.3090562 C3.39078409,20.5973305 -0.546664773,31.8868423 0.280534091,43.2824687 C1.02773864,53.5726803 4.49120455,64.2384082 10.5747614,74.9837775 C14.9844205,82.7724017 20.6604716,90.446013 27.4446989,97.79127 C30.4164545,101.008963 34.6344375,102.85451 39.0170625,102.85451 L39.0172841,102.85451 C43.3970284,102.85451 47.6121307,101.010743 50.5812273,97.7961641 C57.876,89.8989784 63.8691477,81.6534168 68.3942557,73.2883931 C74.7049432,61.6229201 77.9047159,50.1009352 77.9047159,39.0421166 C77.9044943,28.6284384 73.8693239,18.8343175 66.5421989,11.4632549 L66.5421989,11.4632549 Z M65.4734659,71.6957862 C61.0806477,79.8161015 55.2499261,87.8340842 48.1441705,95.5272721 C45.7671648,98.1004924 42.525733,99.5177991 39.0172841,99.5177991 C35.5059545,99.5177991 32.2618636,98.0989352 29.8824205,95.5226004 C23.2719205,88.365324 17.7481023,80.9003823 13.46475,73.3351102 C7.6269375,63.024432 4.30684091,52.8318812 3.59597727,43.0402073 C2.83547727,32.5671317 6.45117614,22.1952765 13.5154943,14.5839546 C20.2487557,7.32901728 29.302517,3.33693305 39.0170625,3.33693305 L39.093733,3.33693305 C48.5771591,3.35762203 57.489767,7.08074946 64.1895682,13.8204644 C70.8904773,20.561514 74.5808523,29.5185097 74.5808523,39.0421166 C74.5806307,49.5385508 71.5164716,60.5248467 65.4734659,71.6957862 L65.4734659,71.6957862 Z" id="Shape"></path>
                        <path d="M35.5088352,70.799486 C36.2735455,70.7096112 36.8767159,70.1040691 36.9662386,69.3363521 C37.0776989,68.3813218 37.131767,67.52373 37.131767,66.714635 C37.131767,54.4024644 27.1544148,44.3858812 14.8904659,44.3858812 C14.0821023,44.3858812 13.2276477,44.440162 12.2783523,44.5520605 C11.5140852,44.6421577 10.9111364,45.2476998 10.8216136,46.0151944 C10.710375,46.9686674 10.6563068,47.8264816 10.6563068,48.6369114 C10.6563068,60.9490821 20.6334375,70.9654428 32.8973864,70.9654428 C33.704642,70.9654428 34.5590966,70.911162 35.5088352,70.799486 L35.5088352,70.799486 Z M13.9801705,48.6369114 C13.9801705,48.3508251 13.9883693,48.0553952 14.0052102,47.7479525 C14.3112273,47.7310454 14.6052784,47.7228143 14.8904659,47.7228143 C25.3216364,47.7228143 33.8079034,56.2424492 33.8079034,66.714635 C33.8079034,67.0004989 33.7997045,67.2957063 33.7828636,67.6033715 C33.4764034,67.6202786 33.1823523,67.6285097 32.8973864,67.6285097 C22.4664375,67.6285097 13.9801705,59.1088747 13.9801705,48.6369114 L13.9801705,48.6369114 Z" id="Shape"></path>
                        <path d="M65.6458636,44.5520605 C64.6965682,44.440162 63.8421136,44.3858812 63.03375,44.3858812 C50.7698011,44.3858812 40.7926705,54.4024644 40.7926705,66.714635 C40.7926705,67.5250648 40.8467386,68.3824341 40.9579773,69.3363521 C41.0475,70.1040691 41.6506705,70.7096112 42.4153807,70.799486 C43.3651193,70.911162 44.2195739,70.9654428 45.0268295,70.9654428 C57.2907784,70.9654428 67.2681307,60.9490821 67.2681307,48.6369114 C67.2681307,47.827594 67.2140625,46.9700022 67.1026023,46.0151944 C67.0130795,45.2476998 66.4101307,44.6421577 65.6458636,44.5520605 L65.6458636,44.5520605 Z M45.0268295,67.6285097 C44.7418636,67.6285097 44.4478125,67.6202786 44.1415739,67.6033715 C44.124733,67.2959287 44.1165341,67.0007214 44.1165341,66.714635 C44.1165341,56.2424492 52.6028011,47.7228143 63.03375,47.7228143 C63.3189375,47.7228143 63.6129886,47.7310454 63.9192273,47.7479525 C63.9360682,48.0556177 63.944267,48.3510475 63.944267,48.6369114 C63.944267,59.1088747 55.458,67.6285097 45.0268295,67.6285097 L45.0268295,67.6285097 Z" id="Shape"></path>
                        <path d="M44.3334716,87.2051836 L33.697108,87.2051836 C32.7790568,87.2051836 32.0351761,87.9519892 32.0351761,88.8736501 C32.0351761,89.795311 32.7790568,90.5421166 33.697108,90.5421166 L44.3334716,90.5421166 C45.2515227,90.5421166 45.9954034,89.795311 45.9954034,88.8736501 C45.9954034,87.9519892 45.2515227,87.2051836 44.3334716,87.2051836 L44.3334716,87.2051836 Z" id="Shape"></path>
                        <path d="M69.9216818,31.5248963 C68.1540511,24.2105616 63.8228352,17.7202268 57.7255398,13.2491814 C56.9843182,12.7061512 55.9448352,12.8683261 55.403267,13.6124622 C54.8619205,14.3565983 55.0239034,15.4003909 55.765125,15.9438661 C61.2286705,19.9501879 65.1091705,25.7631253 66.6915511,32.3117451 C66.8761364,33.075013 67.5561989,33.587121 68.3053977,33.587121 C68.4350284,33.587121 68.566875,33.5717711 68.6985,33.5397365 C69.5904034,33.3226134 70.1379545,32.4203067 69.9216818,31.5248963 L69.9216818,31.5248963 Z" id="Shape"></path>
                        <path d="M47.3912045,11.7190864 C48.5304034,12.0723564 49.6598523,12.5030432 50.7478636,12.9998013 C50.9710057,13.1014665 51.2047841,13.1497408 51.4345739,13.1497408 C52.0665511,13.1497408 52.6701648,12.7860151 52.9487045,12.1713521 C53.3285114,11.3324471 52.9588977,10.3431577 52.1232784,9.96185745 C50.9074091,9.40703672 49.6450057,8.92562851 48.3717443,8.5307581 C47.4940227,8.25913175 46.5642273,8.75233045 46.2934432,9.63261339 C46.0226591,10.5128963 46.5141477,11.4470151 47.3912045,11.7190864 L47.3912045,11.7190864 Z" id="Shape"></path>
                        <path d="M21.4728239,53.0163024 C20.6469545,52.6136458 19.6526761,52.9613542 19.2527045,53.7906933 C18.8525114,54.6200324 19.1979716,55.6179978 20.0240625,56.0195421 C22.4218977,57.1852441 24.3820909,59.1531447 25.5432273,61.5601857 C25.8301875,62.1554946 26.4229432,62.5018683 27.0402955,62.5018683 C27.2831591,62.5018683 27.5300114,62.4480324 27.7633466,62.3345767 C28.5896591,61.9328099 28.9348977,60.935067 28.5347045,60.1057279 C27.0491591,57.0257387 24.5411932,54.5079114 21.4728239,53.0163024 L21.4728239,53.0163024 Z" id="Shape"></path>
                        <path d="M56.451392,53.0163024 C53.3830227,54.5079114 50.8750568,57.0255162 49.3892898,60.1059503 C48.9890966,60.9352894 49.3345568,61.9330324 50.1606477,62.3347991 C50.393983,62.4482549 50.6406136,62.5020907 50.8836989,62.5020907 C51.5008295,62.5020907 52.0938068,62.1552721 52.380767,61.5604082 C53.5419034,59.1533672 55.5020966,57.1854665 57.8999318,56.0197646 C58.7262443,55.6182203 59.071483,54.6202549 58.6712898,53.7909158 C58.2717614,52.9617991 57.2779261,52.6147581 56.451392,53.0163024 L56.451392,53.0163024 Z" id="Shape"></path>
                    </g>
                </g>
            </g>
        </g>
    </g>
</svg>