<?xml version="1.0" encoding="UTF-8" standalone="no"?>
<svg width="123px" height="142px" viewBox="0 0 123 142" version="1.1" xmlns="http://www.w3.org/2000/svg" xmlns:xlink="http://www.w3.org/1999/xlink">
    <!-- Generator: Sketch 39.1 (31720) - http://www.bohemiancoding.com/sketch -->
    <title>penguin_1202520_easyicon.net</title>
    <desc>Created with Sketch.</desc>
    <defs></defs>
    <g id="Page-1" stroke="none" stroke-width="1" fill="none" fill-rule="evenodd">
        <g id="Artboard-4" transform="translate(-685.000000, -573.000000)">
            <g id="penguin_1202520_easyicon.net" transform="translate(685.000000, 573.000000)">
                <g id="Layer_1">
                    <g id="Group">
                        <path d="M86.3988942,141.627355 C96.729215,141.627355 105.10371,133.246414 105.10371,122.908142 L105.10371,43.6133254 C105.10371,19.5266805 85.5928874,0 61.5243481,0 C37.4558089,0 17.9445666,19.5266805 17.9445666,43.6133254 L17.9445666,122.908562 C17.9445666,133.246414 26.3186416,141.627775 36.6493823,141.627775 L86.3988942,141.627775 L86.3988942,141.627355 L86.3988942,141.627355 Z" id="Shape" fill="#CA7CAC"></path>
                        <path d="M17.3211706,90.5388639 C21.5212218,94.7417278 28.3282014,94.7413077 32.5269932,90.5388639 C36.725785,86.3368402 36.725785,79.5246213 32.5269932,75.3225976 L6.5106041,49.2861834 C-1.88655973,57.6898107 -1.88655973,71.3146686 6.5101843,79.7191361 L17.3211706,90.5388639 L17.3211706,90.5388639 Z" id="Shape" fill="#CA7CAC"></path>
                        <path d="M105.727106,90.5388639 C101.527055,94.7417278 94.7200751,94.7413077 90.5212833,90.5388639 C86.3224915,86.3368402 86.3224915,79.5246213 90.5212833,75.3225976 L116.537672,49.2861834 C124.934836,57.6898107 124.934836,71.3146686 116.538092,79.7191361 L105.727106,90.5388639 L105.727106,90.5388639 Z" id="Shape" fill="#CA7CAC"></path>
                        <path d="M61.5243481,81.8810651 C48.3805597,81.8810651 37.726157,92.5445089 37.726157,105.697994 L37.726157,141.626935 L85.322959,141.626935 L85.322959,105.697994 C85.3225392,92.5445089 74.6672969,81.8810651 61.5243481,81.8810651 L61.5243481,81.8810651 Z" id="Shape" fill="#FFFFFF"></path>
                        <path d="M89.7299693,48.5694615 L89.7299693,36.0827041 C89.7299693,27.5181716 82.7920137,20.5752959 74.2344881,20.5752959 C68.9715154,20.5752959 64.3252218,23.2031361 61.5243481,27.2161065 C58.7234744,23.2031361 54.0771809,20.5752959 48.8142082,20.5752959 C40.2566826,20.5752959 33.318727,27.5181716 33.318727,36.0827041 L33.318727,48.5698817 C31.3897679,50.9838817 30.2336519,54.0436036 30.2336519,57.3747219 C30.2336519,65.1695976 36.5477918,71.4885976 44.3366724,71.4885976 L78.7120239,71.4885976 C86.5004846,71.4885976 92.8146246,65.1695976 92.8146246,57.3747219 C92.8146246,54.0436036 91.6589283,50.9834615 89.7299693,48.5694615 L89.7299693,48.5694615 Z" id="Shape" fill="#FFFFFF"></path>
                        <path d="M68.5895017,51.6690947 C68.5895017,47.7645148 65.4263447,44.598503 61.5243481,44.598503 C57.6223515,44.598503 54.4591945,47.7645148 54.4591945,51.6690947 C54.4591945,55.5740947 61.5243481,58.7396864 61.5243481,58.7396864 C61.5243481,58.7396864 68.5895017,55.5740947 68.5895017,51.6690947 L68.5895017,51.6690947 Z" id="Shape" fill="#999999"></path>
                        <ellipse id="Oval" fill="#CA7CAC" cx="45.5507201" cy="39.4159231" rx="3.60352218" ry="3.60629586"></ellipse>
                        <ellipse id="Oval" fill="#CA7CAC" cx="77.4975563" cy="39.4159231" rx="3.60352218" ry="3.60629586"></ellipse>
                        <path d="M48.8906109,131.143722 L37.3487611,131.143722 C34.4559522,131.143722 32.1113959,133.490923 32.1113959,136.385959 C32.1113959,139.280994 34.456372,141.627775 37.3487611,141.627775 L48.8906109,141.627775 C51.7834198,141.627775 54.1288157,139.280994 54.1288157,136.385959 C54.1283959,133.490923 51.783,131.143722 48.8906109,131.143722 L48.8906109,131.143722 Z" id="Shape" fill="#999999"></path>
                        <path d="M74.1572457,131.143722 L85.6995154,131.143722 C88.5923242,131.143722 90.9373003,133.490923 90.9373003,136.385959 C90.9373003,139.280994 88.5923242,141.627775 85.6995154,141.627775 L74.1572457,141.627775 C71.2648567,141.627775 68.9194608,139.280994 68.9194608,136.385959 C68.9198805,133.490923 71.2652765,131.143722 74.1572457,131.143722 L74.1572457,131.143722 Z" id="Shape" fill="#999999"></path>
                    </g>
                </g>
            </g>
        </g>
    </g>
</svg>