<?xml version="1.0" encoding="UTF-8" standalone="no"?>
<svg width="196px" height="143px" viewBox="0 0 196 143" version="1.1" xmlns="http://www.w3.org/2000/svg" xmlns:xlink="http://www.w3.org/1999/xlink">
    <!-- Generator: Sketch 39.1 (31720) - http://www.bohemiancoding.com/sketch -->
    <title>Group 2</title>
    <desc>Created with Sketch.</desc>
    <defs></defs>
    <g id="Page-1" stroke="none" stroke-width="1" fill="none" fill-rule="evenodd">
        <g id="Artboard-4" transform="translate(-526.000000, -582.000000)">
            <g id="Group-2" transform="translate(526.000000, 582.000000)">
                <path d="M134.171271,12.0280453 L134.400175,30.0908834 C134.400175,30.0908834 136.250266,26.7792602 144.086156,25.3713465 C151.922046,23.9634327 155.266816,27.1025744 161.783777,25.170734 C168.300738,23.2388935 170.618441,17.5063089 170.618441,17.5063089 C170.618441,17.5063089 165.566736,19.2971106 158.32707,17.5063089 C151.087403,15.7155071 150.640611,12.4645806 145.778502,11.361909 C140.916394,10.2592374 134.171271,12.0280453 134.171271,12.0280453 Z" id="Path-43" fill="#CA7CAC"></path>
                <path d="M76,1.18959544 L76.2648746,22.0908834 C76.2648746,22.0908834 78.4056954,18.2588615 87.4729411,16.6297039 C96.5401867,15.0005463 100.410564,18.6329824 107.95162,16.3975666 C115.492676,14.1621508 118.174591,7.52873019 118.174591,7.52873019 C118.174591,7.52873019 112.329045,9.60094398 103.951715,7.52873019 C95.5743856,5.4565164 95.0573832,1.69472925 89.4312278,0.418780458 C83.8050723,-0.857168335 76,1.18959544 76,1.18959544 Z" id="Path-43" fill="#CA7CAC"></path>
                <path d="M23.5561497,13.3163515 L23.7850536,31.3791897 C23.7850536,31.3791897 25.6351453,28.0675664 33.4710352,26.6596527 C41.3069251,25.251739 44.651695,28.3908807 51.1686558,26.4590402 C57.6856166,24.5271998 60.0033203,18.7946151 60.0033203,18.7946151 C60.0033203,18.7946151 54.951615,20.5854168 47.7119486,18.7946151 C40.4722822,17.0038134 40.0254902,13.7528868 35.1633814,12.6502152 C30.3012727,11.5475436 23.5561497,13.3163515 23.5561497,13.3163515 Z" id="Path-43" fill="#CA7CAC"></path>
                <path d="M0.365445066,141.787533 L0.853705104,57.7091548 C0.853705104,57.7091548 14.7319158,30.2565484 100.921437,29.9039082 C187.110959,29.5512679 194.823143,59.1483594 194.823143,59.1483594 L195.932191,140.829614 L120.97265,142.045614 L120.558791,67.44878 L75.8295215,67.9881911 L74.587946,140.952841 L0.365445066,141.787533 Z" id="Path-44" fill="#CA7CAC"></path>
                <polygon id="Path-46" fill="#FFFFFF" points="16.7361066 75.9886806 16.1408944 91.8803823 29.6587223 90.8457361 30.6677931 71.3595104"></polygon>
                <polygon id="Path-47" fill="#FFFFFF" points="15.3610916 106.95273 15.0012464 127.22365 30.234333 127.905632 30.4250294 105.792391"></polygon>
                <polygon id="Path-48" fill="#FFFFFF" points="45.437253 70.317475 60.2016789 69.0731002 59.9150957 89.125311 45.7130624 89.6165966"></polygon>
                <polygon id="Path-49" fill="#FFFFFF" points="45.3790744 105.349588 60.179054 104.511386 60.3708277 127.628745 45.7970981 127.724632"></polygon>
                <polygon id="Path-50" fill="#FFFFFF" points="135.813338 68.4083563 136.074064 88.3539064 150.45602 89.1317753 151.127228 69.6031716"></polygon>
                <polygon id="Path-51" fill="#FFFFFF" points="136.123624 104.982201 136.027737 127.252739 151.149853 127.444513 151.149853 105.364671"></polygon>
                <polygon id="Path-52" fill="#FFFFFF" points="166.153458 72.6683198 165.709577 90.8211083 180.74658 92.6300306 181.034241 76.9670691"></polygon>
                <polygon id="Path-53" fill="#FFFFFF" points="166.11575 104.939106 165.790381 128.134036 181.19908 127.570566 180.900646 106.893475"></polygon>
            </g>
        </g>
    </g>
</svg>