<?xml version="1.0" encoding="UTF-8" standalone="no"?>
<svg width="707px" height="641px" viewBox="0 0 707 641" version="1.1" xmlns="http://www.w3.org/2000/svg" xmlns:xlink="http://www.w3.org/1999/xlink">
    <!-- Generator: Sketch 40.3 (33839) - http://www.bohemiancoding.com/sketch -->
    <title>转</title>
    <desc>Created with Sketch.</desc>
    <defs></defs>
    <g id="Page-1" stroke="none" stroke-width="1" fill="none" fill-rule="evenodd">
        <g id="Artboard-2" transform="translate(-175.000000, -4264.000000)" fill="#3EC1AF">
            <path d="M786.675,4692.093 L881.329,4538.186 L815.3,4538.186 C792.533,4383.611 658.639,4264.935 496.86,4264.935 C319.102,4264.935 175,4408.217 175,4584.966 C175,4761.713 319.102,4905 496.86,4905 C607.769,4905 705.57,4849.22 763.449,4764.341 L713.104,4737.37 C665.077,4804.615 586.122,4848.493 496.864,4848.493 C350.488,4848.493 231.828,4730.508 231.828,4584.967 C231.828,4439.425 350.488,4321.443 496.864,4321.443 C627.178,4321.443 735.527,4414.962 757.729,4538.191 L692.023,4538.191 L786.675,4692.093" id="转"></path>
        </g>
    </g>
</svg>