<?xml version="1.0" encoding="UTF-8" standalone="no"?>
<svg width="379px" height="263px" viewBox="0 0 379 263" version="1.1" xmlns="http://www.w3.org/2000/svg" xmlns:xlink="http://www.w3.org/1999/xlink">
    <!-- Generator: Sketch 39.1 (31720) - http://www.bohemiancoding.com/sketch -->
    <title>Group</title>
    <desc>Created with Sketch.</desc>
    <defs></defs>
    <g id="Page-1" stroke="none" stroke-width="1" fill="none" fill-rule="evenodd">
        <g id="Artboard-2" transform="translate(-497.000000, -2429.000000)" fill="#9C7BB7">
            <g id="astronaut_1190071_easyicon.net" transform="translate(497.000000, 2429.000000)">
                <g id="Capa_1">
                    <g id="Group">
                        <path d="M134.979,51.125 C135.445,52.57 135.825,54.056 136.109,55.54 C136.475,57.456 138.152,58.789 140.033,58.789 C140.283,58.789 140.536,58.766 140.79,58.717 C142.96,58.302 144.382,56.206 143.967,54.036 C143.621,52.231 143.159,50.426 142.593,48.67 C141.916,46.568 139.665,45.411 137.559,46.091 C135.455,46.769 134.3,49.023 134.979,51.125 L134.979,51.125 Z" id="Shape"></path>
                        <path d="M94.22,20.258 C94.216,22.467 96.004,24.261 98.213,24.265 C109.763,24.285 121.075,29.814 128.474,39.057 C129.264,40.043 130.426,40.557 131.6,40.557 C132.476,40.557 133.359,40.27 134.097,39.68 C135.822,38.299 136.1,35.782 134.72,34.057 C125.821,22.94 112.178,16.288 98.227,16.265 L98.22,16.265 C96.014,16.265 94.224,18.051 94.22,20.258 L94.22,20.258 Z" id="Shape"></path>
                        <path d="M111.556,155.187 L93.583,155.187 C91.374,155.187 89.583,156.978 89.583,159.187 C89.583,161.396 91.374,163.187 93.583,163.187 L111.556,163.187 C113.765,163.187 115.556,161.396 115.556,159.187 C115.556,156.978 113.765,155.187 111.556,155.187 L111.556,155.187 Z" id="Shape"></path>
                        <path d="M377.673,184.862 L365.406,172.594 C357.556,164.744 345.323,163.889 336.516,170.016 L328.501,162.002 C329.707,162.162 330.52,162.268 330.563,162.268 C331.432,162.268 332.283,161.985 332.983,161.454 C333.828,160.811 334.382,159.86 334.526,158.809 L344.477,85.886 C344.776,83.698 343.245,81.681 341.056,81.382 L323.86,79.03 C312.86,77.529 302.604,84.258 299.299,94.466 L260.479,89.171 C257.73,88.795 254.987,88.686 252.275,88.82 L252.275,71.137 C252.275,62.714 248.996,54.805 243.049,48.871 C237.118,42.926 229.213,39.651 220.789,39.651 C212.38,39.651 204.474,42.926 198.527,48.875 C192.581,54.824 189.309,62.731 189.316,71.137 L189.316,92.491 L173.844,92.491 L157.978,76.624 C159.138,71.898 159.766,66.965 159.766,61.886 C159.766,27.784 132.022,0.04 97.92,0.04 C66.845,0.04 41.06,23.08 36.725,52.972 L8.235,81.462 C2.925,86.772 0,93.833 0,101.344 C0,108.854 2.925,115.915 8.236,121.226 L72.837,185.827 L72.837,192.521 C72.837,216.778 92.571,236.512 116.827,236.512 L123.108,236.512 L126.267,239.669 C141.692,255.094 161.946,262.804 182.207,262.804 C202.464,262.804 222.728,255.09 238.148,239.669 L277.706,200.255 L319.975,242.56 C320.756,243.341 321.78,243.732 322.803,243.732 C323.826,243.732 324.851,243.341 325.631,242.56 L377.673,190.518 C379.235,188.957 379.235,186.423 377.673,184.862 L377.673,184.862 Z M281.706,192.942 L281.706,162.663 C287.985,161.813 294.044,158.985 298.858,154.17 C300.648,152.381 302.175,150.4 303.446,148.261 L320.739,165.553 L287.528,198.764 L281.706,192.942 L281.706,192.942 Z M235.134,153.779 L217.718,136.363 L218.875,127.896 C218.88,127.859 218.887,127.824 218.893,127.788 C221.228,128.932 223.709,129.772 226.318,130.285 C228.267,130.668 230.223,130.857 232.166,130.857 C236.836,130.857 241.417,129.745 245.609,127.62 L252.837,137.13 C250.629,138.651 248.537,140.376 246.601,142.313 L235.134,153.779 L235.134,153.779 Z M253.726,96.773 C254.242,99.53 254.231,102.323 253.686,105.095 C252.553,110.86 249.243,115.838 244.365,119.114 C239.487,122.39 233.628,123.572 227.861,122.436 C225.389,121.95 223.073,121.069 220.949,119.818 C223.319,113.633 227.357,108.21 232.76,104.102 C238.888,99.443 246.175,96.925 253.726,96.773 L253.726,96.773 Z M277.706,129.427 C271.465,129.427 265.428,130.73 259.888,133.186 L252.224,123.103 C257.013,118.791 260.271,113.075 261.536,106.639 C262.138,103.577 262.253,100.497 261.904,97.44 L284.029,100.458 L280.075,129.495 C279.289,129.452 278.5,129.427 277.706,129.427 L277.706,129.427 Z M277.706,137.427 C284.71,137.427 291.404,139.423 297.153,143.131 C296.12,145.108 294.802,146.913 293.202,148.513 C284.626,157.088 270.672,157.089 262.096,148.513 C260.503,146.92 259.195,145.133 258.172,143.186 C263.941,139.442 270.667,137.427 277.706,137.427 L277.706,137.427 Z M327.142,153.763 L320.815,152.898 L329.691,87.902 L336.011,88.766 L327.142,153.763 L327.142,153.763 Z M301.831,102.885 C304.03,103.172 306.036,101.651 306.334,99.462 C307.376,91.826 314.179,86.381 321.758,86.871 L313.54,147.041 L308.811,142.312 C302.985,136.486 295.811,132.503 287.994,130.638 L291.956,101.537 L301.831,102.885 L301.831,102.885 Z M227.919,97.733 C222.761,101.654 218.621,106.558 215.672,112.117 L197.317,93.762 C197.317,93.762 197.327,70.509 197.339,70.198 L244.252,70.198 C244.264,70.511 244.275,89.968 244.275,89.968 C238.418,91.37 232.859,93.978 227.919,97.733 L227.919,97.733 Z M220.79,47.652 C227.073,47.652 232.967,50.091 237.393,54.529 C239.628,56.758 241.356,59.362 242.522,62.198 L199.067,62.198 C200.231,59.365 201.956,56.763 204.187,54.531 C208.621,50.095 214.518,47.652 220.79,47.652 L220.79,47.652 Z M192.733,100.491 C192.733,100.491 212.218,119.934 212.414,120.07 C211.76,122.258 211.264,124.509 210.95,126.815 L210.616,129.262 L181.846,100.492 L192.733,100.492 L192.733,100.491 Z M229.478,159.436 L217.162,171.751 L146.062,100.652 C149.82,95.995 152.913,90.785 155.206,85.163 L229.478,159.436 L229.478,159.436 Z M151.768,61.886 C151.768,63.748 151.673,65.588 151.487,67.402 C138.367,80.151 120.648,85.54 105.37,81.579 C105.077,76.564 103.008,71.885 99.425,68.304 C95.554,64.432 90.407,62.3 84.933,62.3 C84.055,62.3 83.189,62.375 82.332,62.483 C74.801,46.147 79.751,24.849 94.939,9.662 C95.501,9.1 96.052,8.577 96.596,8.075 C97.038,8.064 97.478,8.041 97.923,8.041 C127.612,8.041 151.768,32.196 151.768,61.886 L151.768,61.886 Z M84.933,70.3 C88.27,70.3 91.409,71.6 93.769,73.96 C96.129,76.32 97.429,79.459 97.429,82.797 C97.429,86.135 96.129,89.273 93.769,91.633 C91.409,93.993 88.27,95.293 84.933,95.293 C81.595,95.293 78.456,93.993 76.096,91.632 C73.736,89.273 72.436,86.135 72.436,82.797 C72.436,79.459 73.736,76.32 76.096,73.96 C78.456,71.6 81.595,70.3 84.933,70.3 L84.933,70.3 Z M84.094,9.849 C70.911,26.551 67.208,47.887 74.708,65.049 C73.171,65.938 71.729,67.015 70.44,68.305 C66.568,72.176 64.436,77.324 64.436,82.798 C64.436,88.272 66.569,93.42 70.44,97.29 C74.311,101.162 79.458,103.294 84.933,103.294 C90.408,103.294 95.554,101.162 99.425,97.291 C101.644,95.072 103.269,92.426 104.272,89.547 C107.945,90.419 111.721,90.853 115.535,90.853 C126.837,90.853 138.452,87.1 148.591,80.101 C141.108,100.855 121.223,115.734 97.923,115.734 C68.232,115.734 44.076,91.579 44.076,61.887 C44.075,36.976 61.083,15.969 84.094,9.849 L84.094,9.849 Z M72.837,135.034 L19.407,81.604 L36.15,64.861 C37.287,88.761 52.059,109.137 72.836,118.397 L72.836,135.034 L72.837,135.034 Z M30.293,131.97 L44.377,117.886 L50.685,124.194 L36.601,138.278 L30.293,131.97 L30.293,131.97 Z M8,101.344 C8,96.037 10.048,91.05 13.758,87.267 L38.721,112.23 L24.637,126.314 L13.893,115.57 C10.093,111.77 8,106.717 8,101.344 L8,101.344 Z M42.257,143.934 L56.341,129.85 L72.837,146.346 L72.837,174.514 L42.257,143.934 L42.257,143.934 Z M81.389,198.756 C89.106,195.23 98.251,196.78 104.39,202.918 C110.869,209.397 112.158,219.51 107.83,227.373 C94.295,223.876 83.832,212.679 81.389,198.756 L81.389,198.756 Z M116.176,228.496 C119.936,219.64 118.974,209.492 113.526,201.48 L133.46,181.545 L157.162,181.545 C157.476,181.545 157.787,181.557 158.099,181.569 L158.099,228.489 C157.788,228.5 116.393,228.5 116.176,228.496 L116.176,228.496 Z M180.646,205.029 C180.646,214.815 174.628,223.218 166.099,226.741 L166.099,183.315 C174.627,186.839 180.646,195.243 180.646,205.029 L180.646,205.029 Z M232.492,234.013 C205.624,260.878 162.432,261.712 134.553,236.512 L157.162,236.512 C174.522,236.512 188.645,222.389 188.645,205.029 C188.645,187.669 174.522,173.545 157.162,173.545 L135.804,173.545 L135.804,129.185 C135.804,126.976 134.013,125.185 131.804,125.185 C129.595,125.185 127.804,126.976 127.804,129.185 L127.804,175.889 L108.156,195.537 C100.478,189.105 90.139,187.255 80.837,190.385 L80.837,121.314 C86.268,122.877 91.995,123.733 97.922,123.733 C114.481,123.733 129.529,117.179 140.641,106.544 L211.505,177.407 L201.814,187.098 C200.251,188.66 200.251,191.193 201.814,192.754 C203.375,194.317 205.91,194.317 207.47,192.754 L251.892,148.333 C253.151,150.439 254.664,152.395 256.438,154.169 C261.283,159.014 267.387,161.845 273.706,162.676 L273.706,192.942 L232.492,234.013 L232.492,234.013 Z M293.185,204.419 L326.396,171.209 L333.438,178.251 C335.001,179.814 337.534,179.814 339.094,178.251 C344.543,172.804 353.251,172.583 358.983,177.558 L312.634,223.906 L293.185,204.419 L293.185,204.419 Z M322.803,234.075 L318.29,229.562 L364.676,183.177 L369.188,187.69 L322.803,234.075 L322.803,234.075 Z" id="Shape"></path>
                    </g>
                </g>
            </g>
        </g>
    </g>
</svg>