<?xml version="1.0" encoding="UTF-8" standalone="no"?>
<svg width="266px" height="184px" viewBox="0 0 266 184" version="1.1" xmlns="http://www.w3.org/2000/svg" xmlns:xlink="http://www.w3.org/1999/xlink">
    <!-- Generator: Sketch 40.3 (33839) - http://www.bohemiancoding.com/sketch -->
    <title>Group 27</title>
    <desc>Created with Sketch.</desc>
    <defs></defs>
    <g id="Page-1" stroke="none" stroke-width="1" fill="none" fill-rule="evenodd">
        <g id="Artboard-2" transform="translate(-766.000000, -3704.000000)" stroke="#F5D679">
            <g id="Group-27" transform="translate(781.000000, 3706.000000)">
                <path d="M200.960885,54 C200.960885,54 199.583309,60.0143894 198.212558,62.1667107 C196.92968,64.181056 193,66.5 193,66.5 C193,66.5 196.707666,69.3215897 198.212558,71.5378202 C199.536967,73.4882564 201.487905,79 201.487905,79 C201.487905,79 202.850875,73.7368389 204.172414,71.5378202 C205.354906,69.5701722 209,66.5 209,66.5 C209,66.5 205.243443,63.8320514 204.172414,62.1667107 C202.563738,59.6653847 200.960885,54 200.960885,54 Z" id="Path-53" stroke-width="2"></path>
                <path d="M137.519783,10.0620952 C137.519783,10.0620952 150.840529,15.1364208 160.927744,52.3960398 C171.014959,89.6556589 137.519783,124.058125 137.519783,124.058125" id="Path-52" stroke-width="6" opacity="0.5"></path>
                <polygon id="Path-51" stroke-width="12" points="156.997169 106.077224 79 175.78688 234.994337 175.78688"></polygon>
                <polygon id="Path-51" stroke-width="12" fill="#F5D679" points="78.6677667 106.077224 0.670597993 175.78688 156.664935 175.78688"></polygon>
                <path d="M37.6977428,7.48973826 C37.6977428,7.48973826 63.2191307,15.26146 73.3063456,52.5210791 C83.3935606,89.7806982 49.2684355,144.777383 49.2684355,144.777383" id="Path-52" stroke-width="5"></path>
                <path d="M84.1336439,0.519804164 C84.1336439,0.519804164 105.840529,15.1364208 115.927744,52.3960398 C126.014959,89.6556589 96.1263793,131.689952 96.1263793,131.689952" id="Path-52" stroke-width="5" opacity="0.699999988"></path>
                <path d="M47.9608852,30 C47.9608852,30 46.5833085,36.0143894 45.2125579,38.1667107 C43.9296801,40.181056 40,42.5 40,42.5 C40,42.5 43.7076655,45.3215897 45.2125579,47.5378202 C46.5369673,49.4882564 48.4879053,55 48.4879053,55 C48.4879053,55 49.8508749,49.7368389 51.1724138,47.5378202 C52.3549064,45.5701722 56,42.5 56,42.5 C56,42.5 52.243443,39.8320514 51.1724138,38.1667107 C49.5637381,35.6653847 47.9608852,30 47.9608852,30 Z" id="Path-53" stroke-width="2"></path>
                <path d="M138.960885,81 C138.960885,81 137.583309,87.0143894 136.212558,89.1667107 C134.92968,91.181056 131,93.5 131,93.5 C131,93.5 134.707666,96.3215897 136.212558,98.5378202 C137.536967,100.488256 139.487905,106 139.487905,106 C139.487905,106 140.850875,100.736839 142.172414,98.5378202 C143.354906,96.5701722 147,93.5 147,93.5 C147,93.5 143.243443,90.8320514 142.172414,89.1667107 C140.563738,86.6653847 138.960885,81 138.960885,81 Z" id="Path-53" stroke-width="2"></path>
            </g>
        </g>
    </g>
</svg>