<?xml version="1.0" encoding="UTF-8" standalone="no"?>
<svg width="75px" height="73px" viewBox="0 0 75 73" version="1.1" xmlns="http://www.w3.org/2000/svg" xmlns:xlink="http://www.w3.org/1999/xlink">
    <!-- Generator: Sketch 39.1 (31720) - http://www.bohemiancoding.com/sketch -->
    <title>Group 12</title>
    <desc>Created with Sketch.</desc>
    <defs>
        <polygon id="path-1" points="28.702518 53.5560808 33.7508683 58.0529059 23.121721 71.7035093 17.4230162 69.1343631"></polygon>
        <mask id="mask-2" maskContentUnits="userSpaceOnUse" maskUnits="objectBoundingBox" x="0" y="0" width="16.3278521" height="18.1474285" fill="white">
            <use xlink:href="#path-1"></use>
        </mask>
    </defs>
    <g id="Page-1" stroke="none" stroke-width="1" fill="none" fill-rule="evenodd">
        <g id="Artboard-2" transform="translate(-657.000000, -106.000000)" stroke="#5382AF">
            <g id="Group-12" transform="translate(658.000000, 107.000000)">
                <path d="M32.879384,57.53574 C32.6825161,57.4966242 30.7963056,56.0975391 30.1956758,54.5792008 C28.8831996,51.2613788 14.9935296,55.0184461 13.5423536,54.1855303 C12.0911777,53.3526145 16.8983923,51.0239288 18.6555004,49.8267465 C20.9465478,48.2657718 18.6555004,45.6356583 18.6555004,45.6356583 C18.6555004,45.6356583 15.3694736,44.5477244 11.963909,43.0924921 C7.14053355,41.0314148 1.76651849,37.4160693 1,35.3621302 C0.233481506,33.3081912 5.6208359,32.6262534 7.73438889,31.7592019 C10.3964716,30.6671249 15.3269072,29.4847447 15.3269072,29.4847447 C15.3269072,29.4847447 6.44853799,17.6325763 7.73438873,15.5635455 C9.02023947,13.4945147 17.6242869,22.0986578 20.8254052,20.6372469 C24.0265235,19.1758361 19.4333828,7.62253087 22.9491188,8.61754443 C26.4648548,9.61255798 32.6033115,23.9705963 32.6033115,23.9705963 C32.6033115,23.9705963 35.6352839,17.9214242 36.0883032,12.5416407 C36.4696593,8.01288606 37.6760233,3.57518405 38.8287239,2.32478681 C39.9814245,1.07438957 40.9084334,2.3786268 43.25918,4.76299907 C44.0782398,5.59377493 45.8174512,6.6454444 45.8174512,6.6454444 C45.8174512,6.6454444 48.807353,5.84417287 49.8862354,4.76299907 C51.8641837,2.7808499 53.2873195,0.536847319 54.7243958,0.994173099 C56.161472,1.45149888 55.4878976,3.99406189 55.8015316,6.6454444 C56.0827488,9.02278368 56.7724971,12.5416409 56.7724971,12.5416409 C56.7724971,12.5416409 66.3127973,12.7115693 67.2404785,15.5635453 C68.1681598,18.4155212 63.5582839,20.6015698 60.4900696,23.9705959 C57.7057794,27.0278616 56.7724953,29.484745 56.7724953,29.484745 C56.7724953,29.484745 68.8722184,29.6661748 70.3303538,31.7592024 C71.7884892,33.85223 63.3145328,35.1640152 63.6296514,39.3276014 C63.9447699,43.4911877 72.3342906,45.3020244 71.5121381,47.3738361 C70.6899855,49.4456478 60.3208192,47.6658076 60.3208192,47.6658076 C60.3208192,47.6658076 63.3058406,55.1269199 60.4900697,56.8862663 C57.6742989,58.6456128 53.2795995,55.6871162 49.8862354,54.1855313 C46.6550752,52.7557227 45.8174515,54.1855316 45.8174515,54.1855316 C45.8174515,54.1855316 43.8767634,53.5909424 44.6320902,56.8862637 C45.2286247,59.4888101 48.3163183,64.8902989 45.8174512,65.2694541 C43.3185841,65.6486093 33.1244859,57.1880837 33.1244859,57.1880837 C33.1244859,57.1880837 29.6855535,54.5350571 30.9160565,55.5445061 C31.5548933,56.0685789 33.1127051,57.5820986 32.879384,57.53574 Z" id="Path-6" stroke-width="3" fill="#FFFFFF"></path>
                <use id="Rectangle" mask="url(#mask-2)" stroke-width="8" xlink:href="#path-1"></use>
                <path d="M49.3427468,15.1249022 C49.3427468,15.1249022 46.1445019,30.3571692 43.4227489,36.7981466 C40.8259554,42.9434095 33.3871072,52.8836229 33.3871072,52.8836229" id="Path-7" stroke-width="2"></path>
                <path d="M21.7662438,28.5525375 C21.7662438,28.5525375 27.998273,31.7906028 30.5455207,34.1766626 C33.8511245,37.2730903 39.3247984,45 39.3247984,45 C39.3247984,45 42.1791505,44.7895399 49.4454087,42.3502632 C56.711667,39.9109865 59.3524321,39.7884996 59.3524321,39.7884996" id="Path-8" stroke-width="2"></path>
            </g>
        </g>
    </g>
</svg>