<?xml version="1.0" encoding="UTF-8" standalone="no"?>
<svg width="176px" height="176px" viewBox="0 0 176 176" version="1.1" xmlns="http://www.w3.org/2000/svg" xmlns:xlink="http://www.w3.org/1999/xlink">
    <!-- Generator: Sketch 39.1 (31720) - http://www.bohemiancoding.com/sketch -->
    <title>bar_1200279_easyicon.net</title>
    <desc>Created with Sketch.</desc>
    <defs></defs>
    <g id="Page-1" stroke="none" stroke-width="1" fill="none" fill-rule="evenodd">
        <g id="Artboard-4" transform="translate(-630.000000, -387.000000)" fill="#CA7CAC">
            <g id="bar_1200279_easyicon.net" transform="translate(630.000000, 387.000000)">
                <path d="M87.8343024,55.3202341 C90.204722,55.3202341 92.1269854,57.2420683 92.1269854,59.6129171 L92.1269854,61.2020683 C92.1269854,63.5729171 90.204722,65.4947512 87.8343024,65.4947512 C85.4634537,65.4947512 83.5416195,63.5729171 83.5416195,61.2020683 L83.5416195,59.6129171 C83.5416195,57.2420683 85.4634537,55.3202341 87.8343024,55.3202341 L87.8343024,55.3202341 Z M4.29354146,8.58536585 L31.3297171,8.58536585 L31.3297171,39.5854049 L20.7589854,50.9176585 C19.1415024,52.6510439 19.2359415,55.3674537 20.9697561,56.9845073 C22.7031415,58.6019902 25.419122,58.5075512 27.0366049,56.7737366 L35.6219707,47.5706537 L44.2069073,56.7737366 C45.8248195,58.5075512 48.5408,58.601561 50.2741854,56.9845073 C52.008,55.3670244 52.1020098,52.6510439 50.4849561,50.9172293 L39.9150829,39.587122 L39.9150829,8.58536585 L83.5416195,8.58536585 L83.5416195,39.5858341 L72.9708878,50.9176585 C71.3538341,52.6514732 71.4482732,55.3674537 73.1816585,56.9849366 C74.9150439,58.6024195 77.6318829,58.5075512 79.2489366,56.7741659 L87.8338732,47.5710829 L96.4183805,56.7741659 C97.264039,57.6803512 98.4097561,58.1388098 99.5580488,58.1388098 C100.606751,58.1388098 101.658029,57.756761 102.485229,56.9849366 C104.218615,55.3678829 104.313483,52.6514732 102.696,50.9176585 L92.1265561,39.5866927 L92.1265561,8.58536585 L135.753951,8.58536585 L135.753951,39.5858341 L125.18279,50.9176585 C123.565737,52.6510439 123.659746,55.3674537 125.393561,56.9845073 C127.126946,58.6019902 129.842927,58.507122 131.460839,56.7737366 L140.045776,47.5706537 L148.630712,56.7737366 C150.248624,58.5075512 152.965463,58.6011317 154.69799,56.9845073 C156.431376,55.3674537 156.525815,52.6510439 154.908761,50.9176585 L144.339317,39.5866927 L144.339317,8.58536585 L171.373346,8.58536585 C173.743766,8.58536585 175.666029,6.66353171 175.666029,4.29268293 C175.666029,1.92183415 173.743766,0 171.373346,0 L4.29354146,0 C1.92269268,0 0.000858536585,1.92183415 0.000858536585,4.29268293 C0.000858536585,6.66353171 1.92269268,8.58536585 4.29354146,8.58536585 L4.29354146,8.58536585 Z M135.75438,59.6129171 L135.75438,61.2020683 C135.75438,63.5729171 137.676644,65.4947512 140.047063,65.4947512 C142.417483,65.4947512 144.339746,63.5729171 144.339746,61.2020683 L144.339746,59.6129171 C144.339746,57.2420683 142.417483,55.3202341 140.047063,55.3202341 C137.676644,55.3202341 135.75438,57.2420683 135.75438,59.6129171 L135.75438,59.6129171 Z M165.224507,92.1265561 L165.224507,156.637424 L171.373776,156.637424 C173.744195,156.637424 175.666459,158.559259 175.666459,160.930107 C175.666459,163.300956 173.744195,165.22279 171.373776,165.22279 L161.015961,165.22279 C160.959727,165.224078 160.903493,165.224078 160.847259,165.22279 L142.214868,165.22279 L143.618146,170.210888 C144.259902,172.493307 142.9296,174.863727 140.64761,175.505483 C140.259122,175.614946 139.868059,175.666888 139.483434,175.666888 C137.60839,175.666888 135.885737,174.429307 135.353015,172.535376 L133.29682,165.22279 L109.566868,165.22279 L107.510244,172.535376 C106.868059,174.817795 104.496351,176.148098 102.215649,175.505483 C99.9332293,174.863727 98.6033561,172.493307 99.2451122,170.210888 L100.64839,165.22279 L75.0189268,165.22279 L76.4217756,170.210888 C77.0635317,172.493307 75.7336585,174.863727 73.4516683,175.505483 C71.1692488,176.147668 68.7988293,174.817366 68.1570732,172.535376 L66.1004488,165.22279 L42.3700683,165.22279 L40.3130146,172.535376 C39.6708293,174.817795 37.2999805,176.148098 35.0184195,175.505483 C32.7364293,174.863727 31.4065561,172.492878 32.0483122,170.210888 L33.451161,165.22279 L14.8209171,165.22279 C14.7646829,165.224078 14.7084488,165.224078 14.6522146,165.22279 L4.29354146,165.22279 C1.92269268,165.22279 0.000858536585,163.300956 0.000858536585,160.930107 C0.000858536585,158.559259 1.92269268,156.637424 4.29354146,156.637424 L10.4440976,156.637424 L10.4440976,92.1265561 L4.29354146,92.1265561 C1.92269268,92.1265561 0.000858536585,90.204722 0.000858536585,87.8338732 C0.000858536585,85.4630244 1.92269268,83.5411902 4.29354146,83.5411902 L20.8860488,83.5411902 L20.8860488,77.3906341 C20.8860488,75.0197854 22.8078829,73.0979512 25.1787317,73.0979512 C27.5495805,73.0979512 29.4714146,75.0197854 29.4714146,77.3906341 L29.4714146,83.5411902 L40.3164488,83.5411902 C40.1009561,83.0295024 39.9816195,82.467161 39.9816195,81.8764878 C39.9816195,79.505639 41.9034537,77.5838049 44.2743024,77.5838049 L58.7324878,77.5838049 C61.1033366,77.5838049 63.0251707,79.505639 63.0251707,81.8764878 C63.0251707,82.4667317 62.9062634,83.0295024 62.6903415,83.5411902 L171.373346,83.5411902 C173.743766,83.5411902 175.666029,85.4630244 175.666029,87.8338732 C175.666029,90.204722 173.743766,92.1265561 171.373346,92.1265561 L165.224507,92.1265561 L165.224507,92.1265561 Z M63.6858146,156.637424 L55.4090927,127.209366 L53.0614244,127.209366 L44.7847024,156.637424 L63.6858146,156.637424 L63.6858146,156.637424 Z M49.7114146,118.624 C49.7749463,118.623141 49.8393366,118.623141 49.9028683,118.624 L58.566361,118.624 C58.6311805,118.622283 58.6955707,118.622712 58.7603902,118.624 L68.4622829,118.624 L68.4622829,111.471102 L40.0090927,111.471102 L40.0090927,118.624 L49.7114146,118.624 L49.7114146,118.624 Z M130.882185,156.637424 L122.606322,127.209366 L120.257795,127.209366 L111.981502,156.637424 L130.882185,156.637424 L130.882185,156.637424 Z M116.906927,118.624 C116.970459,118.622712 117.036137,118.622283 117.100527,118.624 L125.76359,118.624 C125.82841,118.622712 125.8928,118.623141 125.956761,118.624 L135.658654,118.624 L135.658654,111.471102 L107.205463,111.471102 L107.205463,118.624 L116.906927,118.624 L116.906927,118.624 Z M156.639141,92.1265561 L19.0294634,92.1265561 L19.0294634,156.637424 L35.8662244,156.637424 L44.1429463,127.209366 L35.7164098,127.209366 C33.345561,127.209366 31.4237268,125.287532 31.4237268,122.916683 L31.4237268,107.17842 C31.4237268,104.807571 33.345561,102.885737 35.7164098,102.885737 L72.7545366,102.885737 C75.1253854,102.885737 77.0472195,104.807571 77.0472195,107.17842 L77.0472195,122.916683 C77.0472195,125.287532 75.1253854,127.209366 72.7545366,127.209366 L64.3275707,127.209366 L72.6042927,156.637424 L103.062595,156.637424 L111.339317,127.209366 L102.91278,127.209366 C100.542361,127.209366 98.6200976,125.287532 98.6200976,122.916683 L98.6200976,107.17842 C98.6200976,104.807571 100.542361,102.885737 102.91278,102.885737 L139.950907,102.885737 C142.321327,102.885737 144.24359,104.807571 144.24359,107.17842 L144.24359,122.916683 C144.24359,125.287532 142.321327,127.209366 139.950907,127.209366 L131.523941,127.209366 L139.800234,156.637424 L156.638712,156.637424 L156.638712,92.1265561 L156.639141,92.1265561 Z M31.3301463,59.6129171 L31.3301463,61.2020683 C31.3301463,63.5729171 33.2519805,65.4947512 35.6228293,65.4947512 C37.993678,65.4947512 39.9155122,63.5729171 39.9155122,61.2020683 L39.9155122,59.6129171 C39.9155122,57.2420683 37.993678,55.3202341 35.6228293,55.3202341 C33.2519805,55.3202341 31.3301463,57.2420683 31.3301463,59.6129171 L31.3301463,59.6129171 Z" id="Shape"></path>
            </g>
        </g>
    </g>
</svg>