<?xml version="1.0" encoding="UTF-8" standalone="no"?>
<svg width="55px" height="50px" viewBox="0 0 55 50" version="1.1" xmlns="http://www.w3.org/2000/svg" xmlns:xlink="http://www.w3.org/1999/xlink">
    <!-- Generator: Sketch 39.1 (31720) - http://www.bohemiancoding.com/sketch -->
    <title>Shape</title>
    <desc>Created with Sketch.</desc>
    <defs></defs>
    <g id="Page-1" stroke="none" stroke-width="1" fill="none" fill-rule="evenodd">
        <g id="Artboard-2" transform="translate(-678.000000, -1488.000000)" fill="#CA7CAC">
            <g id="bed_1167654_easyicon.net" transform="translate(678.000000, 1488.000000)">
                <g id="Layer_1">
                    <path d="M52.7150234,17.8862222 C51.4687221,17.8862222 50.4572312,19.2053333 50.4572312,20.8306667 L50.4572312,25.7361111 L4.54728442,25.7361111 L4.54728442,3.65277778 C4.54728442,2.02744444 3.53579351,0.708333333 2.28949221,0.708333333 C1.04319091,0.708333333 0.0317,2.02744444 0.0317,3.65277778 L0.0317,46.3472222 C0.0317,47.9666667 1.04319091,49.2916667 2.28949221,49.2916667 C3.53579351,49.2916667 4.54728442,47.9666667 4.54728442,46.3472222 L4.54728442,40.4583333 L50.4572312,40.4583333 L50.4572312,46.3472222 C50.4572312,47.9666667 51.4687221,49.2916667 52.7150234,49.2916667 C53.9568091,49.2916667 54.9728156,47.9666667 54.9728156,46.3472222 L54.9728156,20.8306667 C54.9728156,19.1994444 53.9613247,17.8862222 52.7150234,17.8862222 L52.7150234,17.8862222 Z M4.54728442,34.5694444 L4.54728442,31.625 L50.4572312,31.625 L50.4572312,34.5694444 L4.54728442,34.5694444 L4.54728442,34.5694444 Z M8.0288,19.4762222 C8.0288,17.8508889 9.04029091,16.5317778 10.2865922,16.5317778 L20.7266234,16.5317778 C21.9729247,16.5317778 22.9844156,17.8508889 22.9844156,19.4762222 C22.9844156,21.1015556 21.9729247,22.4206667 20.7266234,22.4206667 L10.2865922,22.4206667 C9.04029091,22.4206667 8.0288,21.1074444 8.0288,19.4762222 L8.0288,19.4762222 Z" id="Shape"></path>
                </g>
            </g>
        </g>
    </g>
</svg>