<?xml version="1.0" encoding="UTF-8" standalone="no"?>
<svg width="90px" height="152px" viewBox="0 0 90 152" version="1.1" xmlns="http://www.w3.org/2000/svg" xmlns:xlink="http://www.w3.org/1999/xlink">
    <!-- Generator: Sketch 39.1 (31720) - http://www.bohemiancoding.com/sketch -->
    <title>birthday_girl_1200206_easyicon.net</title>
    <desc>Created with Sketch.</desc>
    <defs></defs>
    <g id="Page-1" stroke="none" stroke-width="1" fill="none" fill-rule="evenodd">
        <g id="Artboard-2" transform="translate(-390.000000, -2464.000000)" fill="#5382AF">
            <g id="birthday_girl_1200206_easyicon.net" transform="translate(390.000000, 2464.000000)">
                <g id="Group">
                    <path d="M89.7680769,148.219781 C87.49125,140.152744 83.3985577,132.728518 78.00375,126.747722 C80.2295192,125.861762 82.1564423,124.166811 83.4625962,121.849015 C84.5350962,119.945376 85.1022115,117.745773 85.1022115,115.4882 C85.1022115,109.720924 81.4269231,104.894356 76.5536538,103.774265 L76.5536538,84.3852273 C77.1323077,83.9778337 77.6858654,83.5098946 78.2039423,82.9833424 C82.4385577,78.6797843 83.1346154,71.8075532 79.7558654,67.6637321 C77.7302885,65.1797582 74.6172115,64.1723849 71.4825,64.8264691 C70.4336538,59.6759188 68.2006731,54.9553056 64.9450962,51.0233936 L47.6760577,13.4188694 L53.2560577,7.18945068 C54.1009615,6.24616538 54.1009615,4.71674855 53.2560577,3.7737853 C52.4111538,2.8305 51.0415385,2.8305 50.1963462,3.7737853 L47.2586538,7.05290135 L47.2586538,2.41537718 C47.2586538,1.08144487 46.2902885,0 45.0951923,0 C43.9003846,0 42.9317308,1.08144487 42.9317308,2.41537718 L42.9317308,7.0532234 L39.9943269,3.7737853 C39.1494231,2.8305 37.7795192,2.8305 36.9349038,3.7737853 C36.09,4.7170706 36.09,6.24648743 36.9349038,7.18945068 L42.3876923,13.2768453 L25.05375,51.0224275 C21.7978846,54.9543395 19.5649038,59.6749526 18.5160577,64.825825 C15.3822115,64.1704526 12.2685577,65.1787921 10.2426923,67.663088 C6.86423077,71.8069091 7.56028846,78.6794623 11.7946154,82.9826983 C12.3126923,83.5089284 12.8659615,83.9768675 13.4446154,84.3842611 L13.4446154,103.773621 C8.57134615,104.893712 4.89634615,109.720279 4.89634615,115.487556 C4.89634615,120.667091 7.86173077,125.086909 11.9959615,126.745468 C6.60028846,132.726586 2.50701923,140.151456 0.229903846,148.219137 C-0.129230769,149.491558 0.503653846,150.848034 1.64307692,151.248664 C2.78336538,151.649939 3.99778846,150.943039 4.35663462,149.67094 C6.91730769,140.597817 11.7095192,132.883747 17.9382692,127.176049 C18.1975962,127.026296 18.4269231,126.820828 18.6115385,126.572205 C21.2053846,124.292411 24.0354808,122.353668 27.0481731,120.80042 C31.1264423,127.282648 37.8398077,131.232917 44.9985577,131.232917 C52.1575962,131.232917 58.8709615,127.282648 62.9489423,120.80042 C65.9616346,122.353668 68.7920192,124.292733 71.3861538,126.572849 C71.5707692,126.82115 71.7998077,127.026296 72.0585577,127.176049 C78.2875962,132.884069 83.0798077,140.598139 85.6404808,149.671262 C85.9315385,150.702145 86.7842308,151.361382 87.7032692,151.361382 C87.9184615,151.361382 88.1376923,151.325312 88.3540385,151.248986 C89.4940385,150.848356 90.1272115,149.49188 89.7680769,148.219781 L89.7680769,148.219781 Z M44.9991346,18.1784507 L59.6117308,49.9979855 L30.3868269,49.9979855 L44.9991346,18.1784507 L44.9991346,18.1784507 Z M13.4423077,70.9151518 C14.7510577,69.3100532 17.1025962,69.0008849 19.29375,70.1454516 C19.9185577,70.4720106 20.6457692,70.4459246 21.2509615,70.0755667 C21.8561538,69.7052089 22.2666346,69.0343781 22.3560577,68.2704749 C22.9422115,63.2590503 24.8198077,58.6327979 27.8022115,54.8287398 L62.1963462,54.8287398 C65.17875,58.6331199 67.0560577,63.2593723 67.6425,68.2704749 C67.7319231,69.0343781 68.1421154,69.7052089 68.7473077,70.0755667 C69.3525,70.4459246 70.0794231,70.4716886 70.7045192,70.1454516 C72.8950962,69.0005629 75.2466346,69.3100532 76.5559615,70.9151518 C78.3285577,73.0889913 77.7611538,76.9001344 75.2907692,79.4105164 C74.8228846,79.8858627 74.3140385,80.2845609 73.7824038,80.6021025 C73.5602885,80.6745638 73.3528846,80.784705 73.1665385,80.9276954 C72.7834615,81.1057892 72.3925962,81.2433046 72.0002885,81.3357331 C72.1058654,80.2510677 72.1618269,79.1499778 72.1618269,78.0343956 C72.1618269,76.7004632 71.1934615,75.6190184 69.9983654,75.6190184 C68.8032692,75.6190184 67.8349038,76.7004632 67.8349038,78.0343956 C67.8349038,92.0918907 57.5907692,103.528863 44.9988462,103.528863 C32.4072115,103.528863 22.1630769,92.0922128 22.1630769,78.0343956 C22.1630769,76.7004632 21.1944231,75.6190184 19.9996154,75.6190184 C18.8048077,75.6190184 17.8361538,76.7004632 17.8361538,78.0343956 C17.8361538,79.1499778 17.8921154,80.2513897 17.9976923,81.3363772 C17.6053846,81.2439487 17.2148077,81.1067553 16.8317308,80.9283395 C16.6453846,80.7853491 16.4376923,80.6748859 16.2152885,80.6021025 C15.6839423,80.2845609 15.1750962,79.8858627 14.7072115,79.4101944 C12.2374038,76.9001344 11.67,73.0893133 13.4423077,70.9151518 L13.4423077,70.9151518 Z M9.22326923,115.487878 C9.22326923,111.557254 12.0874038,108.359617 15.6080769,108.359617 C16.8028846,108.359617 17.7715385,107.278172 17.7715385,105.94424 L17.7715385,86.1906412 C18.1344231,86.2495764 18.4981731,86.2843578 18.8616346,86.2988501 C22.0924038,99.016294 32.5866346,108.359617 44.9988462,108.359617 C57.4110577,108.359617 67.9055769,99.0166161 71.1363462,86.2988501 C71.4995192,86.2843578 71.8635577,86.2492544 72.2261538,86.1903191 L72.2261538,105.94424 C72.2261538,107.278172 73.1945192,108.359617 74.3896154,108.359617 C77.9102885,108.359617 80.7747115,111.557254 80.7747115,115.487878 C80.7747115,116.834048 80.4375,118.144471 79.7994231,119.276478 C78.6210577,121.367872 76.5986538,122.616461 74.3896154,122.616461 L73.8034615,122.616461 C73.5418269,122.388772 73.2781731,122.163659 73.0119231,121.942088 C64.8689423,115.168404 55.1818269,111.587849 44.9985577,111.587849 C34.8152885,111.587849 25.1284615,115.168082 16.9854808,121.941766 C16.7192308,122.163337 16.4555769,122.38845 16.1939423,122.616139 L15.6077885,122.616139 C12.0876923,122.616461 9.22326923,119.418502 9.22326923,115.487878 L9.22326923,115.487878 Z M44.9988462,126.402485 C39.6005769,126.402485 34.5175962,123.602901 31.2069231,118.948309 C35.5543269,117.301987 40.1982692,116.418926 44.9988462,116.418926 C49.7994231,116.418926 54.4433654,117.301987 58.7907692,118.948309 C55.4806731,123.602579 50.3976923,126.402485 44.9988462,126.402485 L44.9988462,126.402485 Z" id="Shape"></path>
                    <path d="M50.4525,81.6320193 C49.3260577,81.1853356 48.0894231,81.8419961 47.6893269,83.0989584 C47.2857692,84.3665484 46.2046154,85.2183714 44.9991346,85.2183714 C43.7936538,85.2183714 42.7127885,84.3665484 42.3092308,83.0989584 C41.9088462,81.8419961 40.6713462,81.1859797 39.5460577,81.6320193 C38.4201923,82.0790251 37.8320192,83.4599768 38.2321154,84.7169391 C39.2477885,87.9062031 41.9671154,90.0488037 44.9991346,90.0488037 C48.0311538,90.0488037 50.7504808,87.9062031 51.7661538,84.7169391 C52.16625,83.4599768 51.5780769,82.0790251 50.4525,81.6320193 L50.4525,81.6320193 Z" id="Shape"></path>
                    <path d="M39.5495192,72.7885184 L39.5495192,71.1782669 C39.5495192,69.8443346 38.5808654,68.7628897 37.3860577,68.7628897 L32.3379808,68.7628897 C31.1431731,68.7628897 30.1745192,69.8443346 30.1745192,71.1782669 C30.1745192,72.5121992 31.1431731,73.5936441 32.3379808,73.5936441 L35.3457692,73.5936441 C35.6425962,74.5317766 36.4442308,75.2038956 37.3860577,75.2038956 C38.5808654,75.2038956 39.5495192,74.1224507 39.5495192,72.7885184 L39.5495192,72.7885184 Z" id="Shape"></path>
                    <path d="M57.6605769,68.7628897 L52.6122115,68.7628897 C51.4171154,68.7628897 50.44875,69.8443346 50.44875,71.1782669 L50.44875,72.7885184 C50.44875,74.1224507 51.4171154,75.2038956 52.6122115,75.2038956 C53.5543269,75.2038956 54.3556731,74.5317766 54.6525,73.5936441 L57.6605769,73.5936441 C58.8556731,73.5936441 59.8240385,72.5121992 59.8240385,71.1782669 C59.8240385,69.8443346 58.8553846,68.7628897 57.6605769,68.7628897 L57.6605769,68.7628897 Z" id="Shape"></path>
                    <path d="M31.4671154,63.7775513 L58.5314423,63.7775513 C59.7265385,63.7775513 60.6949038,62.6961064 60.6949038,61.3621741 C60.6949038,60.0282418 59.7265385,58.9467969 58.5314423,58.9467969 L31.4671154,58.9467969 C30.2723077,58.9467969 29.3036538,60.0282418 29.3036538,61.3621741 C29.3036538,62.6961064 30.2723077,63.7775513 31.4671154,63.7775513 L31.4671154,63.7775513 Z" id="Shape" opacity="0.780258862"></path>
                </g>
            </g>
        </g>
    </g>
</svg>