<?xml version="1.0" encoding="UTF-8" standalone="no"?>
<svg width="293px" height="180px" viewBox="0 0 293 180" version="1.1" xmlns="http://www.w3.org/2000/svg" xmlns:xlink="http://www.w3.org/1999/xlink">
    <!-- Generator: Sketch 39.1 (31720) - http://www.bohemiancoding.com/sketch -->
    <title>Group 2</title>
    <desc>Created with Sketch.</desc>
    <defs></defs>
    <g id="Page-1" stroke="none" stroke-width="1" fill="none" fill-rule="evenodd">
        <g id="Artboard-4" transform="translate(-503.000000, -588.000000)" fill="#CA7CAC">
            <g id="black_hole_1190037_easyicon.net" transform="translate(503.000000, 588.000000)">
                <g id="Capa_1">
                    <g id="Group">
                        <g id="Group-2">
                            <path d="M228.373035,84.9395604 C228.489976,84.9395604 228.608865,84.9316484 228.727754,84.9151648 C230.149876,84.718022 231.145166,83.3881319 230.950916,81.9448352 C230.399348,77.852967 229.546984,73.7624176 228.416563,69.7879121 C228.018317,68.3887912 226.579304,67.5824176 225.198761,67.9852747 C223.819517,68.3894505 223.024973,69.8512088 223.42257,71.250989 C224.483477,74.9815385 225.283867,78.8195604 225.801002,82.6595604 C225.979661,83.9815385 227.09449,84.9395604 228.373035,84.9395604 L228.373035,84.9395604 Z" id="Shape"></path>
                            <path d="M229.035047,88.7479121 C227.600581,88.7861538 226.467561,89.9973626 226.505242,91.4538462 C227.069803,113.265495 218.797588,134.705275 203.809761,150.277582 C202.806674,151.319341 202.826164,152.989451 203.852639,154.006813 C204.35808,154.507912 205.013594,154.757802 205.667809,154.757802 C206.343463,154.757802 207.017818,154.492088 207.527157,153.963297 C223.490785,137.377582 232.301574,114.543297 231.699982,91.3153846 C231.663601,89.8589011 230.460417,88.709011 229.035047,88.7479121 L229.035047,88.7479121 Z" id="Shape"></path>
                            <path d="M198.058905,155.688791 C193.502137,159.569011 188.482157,162.948791 183.137993,165.733846 C169.440406,172.871868 154.138789,175.833626 138.887847,174.305934 C124.029304,172.815165 109.923075,167.172527 98.0919823,157.987253 C96.9524656,157.101758 95.3211508,157.323297 94.4492971,158.47978 C93.5774435,159.636264 93.7944324,161.291868 94.9345987,162.176703 C107.533599,171.958681 122.555858,177.967912 138.376559,179.554945 C141.160384,179.834505 143.943559,179.972967 146.721537,179.972967 C160.157308,179.972967 173.422867,176.725714 185.511878,170.426374 C191.201016,167.461319 196.546479,163.862637 201.400144,159.729231 C202.499381,158.792967 202.642958,157.129451 201.72043,156.013846 C200.797902,154.898242 199.158142,154.752527 198.058905,155.688791 L198.058905,155.688791 Z" id="Shape"></path>
                            <path d="M84.7575588,144.854505 C83.8519224,143.724396 82.2154102,143.553626 81.1018803,144.472747 C79.9883503,145.391868 79.8200865,147.053407 80.7257228,148.182857 C82.8325942,150.811648 85.1168248,153.338901 87.5153969,155.694725 C88.0201885,156.18989 88.6718049,156.436484 89.322122,156.436484 C90.0016741,156.436484 90.6799268,156.167473 91.1899157,155.633407 C92.1878049,154.586374 92.1611685,152.916923 91.1294967,151.904176 C88.8790488,149.692747 86.7351463,147.321099 84.7575588,144.854505 L84.7575588,144.854505 Z" id="Shape"></path>
                            <path d="M58.1374368,81.2228571 C58.2842616,81.2485714 58.4297871,81.2604396 58.5740133,81.2604396 C59.8187761,81.2604396 60.918663,80.3498901 61.1330532,79.0628571 C61.3286031,77.8885714 61.54949,76.7076923 61.789867,75.5525275 C62.0861153,74.1276923 61.1876253,72.7285714 59.7830443,72.4279121 C58.3797627,72.1272527 57.0005188,73.0397802 56.7042705,74.4646154 C56.4496009,75.6883516 56.2163703,76.9397802 56.0091264,78.1832967 C55.7693991,79.6193407 56.7224612,80.9802198 58.1374368,81.2228571 L58.1374368,81.2228571 Z" id="Shape"></path>
                            <path d="M60.5587472,69.3837363 C60.8140665,69.4635165 61.0719845,69.5017582 61.3260044,69.5017582 C62.4356364,69.5017582 63.4640599,68.7738462 63.8083836,67.6417582 C64.5983792,65.043956 65.5157095,62.4573626 66.534388,59.9538462 C71.1359823,48.6474725 78.2277517,38.1916484 87.0411397,29.7164835 C88.0832062,28.7142857 88.1273836,27.0454945 87.1405388,25.9879121 C86.1530443,24.9303297 84.5080865,24.8854945 83.4666696,25.887033 C74.1257517,34.8692308 66.6097494,45.9527473 61.7307472,57.9395604 C60.6503503,60.5927473 59.6784479,63.3336264 58.8416763,66.0857143 C58.4187428,67.4775824 59.1872993,68.9545055 60.5587472,69.3837363 L60.5587472,69.3837363 Z" id="Shape"></path>
                            <path d="M94.369388,22.7828571 C94.8956186,22.7828571 95.4263969,22.6206593 95.8863614,22.2850549 C105.962703,14.9169231 117.741173,9.72791209 129.948424,7.2778022 C143.451111,4.56923077 157.629452,5.22395604 170.952182,9.17274725 C179.175022,11.6103297 186.983375,15.2597802 194.160251,20.0208791 C195.362135,20.818022 196.972011,20.4751648 197.757459,19.256044 C198.542907,18.0369231 198.20508,16.4024176 197.003845,15.6052747 C189.398188,10.56 181.123375,6.69230769 172.409386,4.10901099 C158.289514,-0.0764835165 143.258809,-0.77010989 128.94014,2.1032967 C116.005911,4.69846154 103.525151,10.1973626 92.847867,18.0046154 C91.683663,18.8564835 91.419898,20.5048352 92.2586186,21.6863736 C92.7660089,22.4024176 93.5618514,22.7828571 94.369388,22.7828571 L94.369388,22.7828571 Z" id="Shape"></path>
                            <path d="M292.465324,17.8569231 C291.917654,16.5810989 290.487736,15.956044 289.198796,16.4301099 L243.518082,33.2043956 C237.904306,35.2648352 232.029364,36.3098901 226.056322,36.3098901 C214.966499,36.3098901 204.333392,32.7751648 195.306264,26.0881319 C181.270849,15.6962637 163.972805,9.97318681 146.5981,9.97318681 C133.62814,9.97318681 120.632843,13.172967 109.01614,19.2257143 C81.131765,33.7562637 63.9695011,62.5582418 64.2261197,94.3925275 C64.3670976,112.016703 55.9948337,128.431648 41.8294856,138.302637 L1.77749002,166.202637 C0.647068736,166.98989 0.313789357,168.533407 1.01672949,169.728132 C1.71901996,170.923516 3.21585366,171.358681 4.43527938,170.723077 L79.8129401,131.444835 C93.3344678,156.112088 118.738412,171.325714 146.727384,171.325714 C158.941131,171.325714 170.681271,168.435165 181.62037,162.735165 C199.802612,153.26044 213.261772,137.165275 219.518718,117.414066 C225.509302,98.5015385 224.209317,78.4081319 215.892275,60.5353846 L291.269286,21.2564835 C292.489361,20.6202198 293.012993,19.1327473 292.465324,17.8569231 L292.465324,17.8569231 Z M211.245204,57.027033 C210.631918,57.3461538 210.169355,57.9 209.958213,58.5659341 C209.747071,59.2318681 209.805541,59.9551648 210.12063,60.5775824 C218.822925,77.7771429 220.402916,97.3885714 214.571501,115.798681 C208.740086,134.208791 196.194359,149.211429 179.247135,158.041978 C169.049956,163.356264 158.108257,166.05033 146.728033,166.05033 C119.826605,166.05033 95.488765,150.975824 83.2113503,126.708791 C82.7513858,125.798901 81.8412018,125.275385 80.897235,125.275385 C80.4976896,125.275385 80.0922971,125.36967 79.7122417,125.566813 L38.3661086,147.112088 L44.7718293,142.64967 C60.3631973,131.785055 69.5793792,113.729011 69.4241086,94.3483516 C69.183082,64.5191209 85.2642993,37.5316484 111.390674,23.9169231 C122.431122,18.1635165 134.277157,15.2465934 146.5981,15.2465934 C162.880064,15.2465934 179.089916,20.6096703 192.242432,30.3481319 C202.164803,37.6984615 213.857517,41.583956 226.055672,41.583956 C232.633554,41.583956 239.102942,40.4334066 245.285827,38.1632967 L252.591987,35.4804396 L211.245204,57.027033 L211.245204,57.027033 Z" id="Shape"></path>
                            <path d="M188.738126,79.9516484 C187.348488,80.3156044 186.512366,81.7536264 186.870982,83.1646154 C188.335333,88.923956 188.576359,94.8296703 187.588215,100.718242 C187.347188,102.154286 188.298951,103.516484 189.713277,103.761099 C189.861401,103.786813 190.008226,103.798681 190.153102,103.798681 C191.396565,103.798681 192.495803,102.89011 192.711492,101.603736 C193.823723,94.9773626 193.552162,88.3305495 191.903306,81.8465934 C191.545339,80.4356044 190.125816,79.589011 188.738126,79.9516484 L188.738126,79.9516484 Z" id="Shape"></path>
                            <path d="M183.963071,117.728571 C182.798867,116.878022 181.174698,117.147692 180.335978,118.32989 C179.339388,119.735604 178.246647,121.091209 177.087641,122.359121 C176.111191,123.427253 176.172909,125.095385 177.224721,126.086374 C177.724965,126.557802 178.35904,126.790549 178.991816,126.790549 C179.689559,126.790549 180.385353,126.507033 180.89729,125.947253 C182.202472,124.519121 183.432942,122.993407 184.554918,121.40967 C185.392989,120.227473 185.127925,118.579121 183.963071,117.728571 L183.963071,117.728571 Z" id="Shape"></path>
                            <path d="M165.596324,131.184396 C157.218213,135.551209 147.915625,136.894286 138.692297,135.069231 C137.284468,134.78967 135.918867,135.723956 135.644707,137.153407 C135.370548,138.582857 136.289827,139.968132 137.698306,140.246374 C140.707565,140.841758 143.723971,141.137143 146.721537,141.137143 C154.05953,141.137143 161.277984,139.364176 167.970858,135.876923 C169.247455,135.211648 169.750947,133.621978 169.095432,132.325714 C168.439268,131.03011 166.87292,130.519121 165.596324,131.184396 L165.596324,131.184396 Z" id="Shape"></path>
                            <path d="M122.964499,128.353187 C120.810851,126.843956 118.791035,125.119121 116.960273,123.226813 C115.954588,122.186374 114.30898,122.171209 113.285754,123.191868 C112.261228,124.211868 112.245636,125.881978 113.251322,126.921099 C115.312067,129.052088 117.586552,130.994505 120.011111,132.693626 C120.46198,133.009451 120.975867,133.161099 121.485856,133.161099 C122.310933,133.161099 123.122368,132.762857 123.62651,132.021758 C124.441843,130.823736 124.145594,129.181319 122.964499,128.353187 L122.964499,128.353187 Z" id="Shape"></path>
                            <path d="M183.573271,53.0413187 C183.67267,52.167033 183.336792,51.3 182.67608,50.7296703 C172.621177,42.0441758 159.807787,37.26 146.596151,37.26 C137.738585,37.26 129.225344,39.356044 121.291605,43.4901099 C101.207787,53.9558242 89.4423104,75.483956 91.3172506,98.336044 C91.3893636,99.212967 91.8876585,99.9962637 92.6458204,100.423516 C93.0375698,100.643736 93.4715477,100.754505 93.9068248,100.754505 C94.3135166,100.754505 94.7208581,100.657582 95.0937672,100.463736 L182.178435,55.0846154 C182.950239,54.6817582 183.473222,53.9156044 183.573271,53.0413187 L183.573271,53.0413187 Z M96.3209889,93.8940659 C96.2085965,74.6993407 106.639007,57.0547253 123.66614,48.1826374 C130.857308,44.4349451 138.572758,42.5347253 146.596151,42.5347253 C157.253295,42.5347253 167.623936,45.9672527 176.200845,52.2692308 L96.3209889,93.8940659 L96.3209889,93.8940659 Z" id="Shape"></path>
                            <path d="M85.1168248,101.477802 C85.1889379,101.477802 85.2623503,101.475165 85.3351131,101.468571 C86.7656807,101.347253 87.8278869,100.072747 87.7089978,98.6215385 C87.1840665,92.2232967 87.6719667,85.801978 89.1603548,79.5349451 C89.4968825,78.1193407 88.6380222,76.6945055 87.2425366,76.352967 C85.8483503,76.0127473 84.4437694,76.8830769 84.1072417,78.2993407 C82.4889202,85.1136264 81.9581419,92.0986813 82.5291996,99.0593407 C82.6428914,100.436703 83.7791596,101.477802 85.1168248,101.477802 L85.1168248,101.477802 Z" id="Shape"></path>
                            <path d="M88.6503659,71.9657143 C88.9758492,72.1028571 89.3130266,72.1674725 89.6450067,72.1674725 C90.6643348,72.1674725 91.6316896,71.5549451 92.0461774,70.5395604 C97.4007361,57.4325275 107.208765,46.6397802 119.664188,40.1498901 C134.388251,32.4778022 151.084703,31.3773626 166.676721,37.0516484 C168.02608,37.5435165 169.515767,36.8307692 169.999769,35.4593407 C170.484421,34.0885714 169.782131,32.578022 168.430823,32.0868132 C151.71618,26.0030769 133.076572,27.2320879 117.290304,35.4573626 C103.74149,42.5175824 93.0713525,54.2597802 87.2457849,68.5193407 C86.6955166,69.8650549 87.3250443,71.4079121 88.6503659,71.9657143 L88.6503659,71.9657143 Z" id="Shape"></path>
                            <path d="M173.588532,40.0806593 C177.71522,42.2123077 181.589836,44.8325275 185.105186,47.8694505 C185.594386,48.2920879 186.192729,48.4984615 186.788475,48.4984615 C187.523898,48.4984615 188.254774,48.1832967 188.768661,47.5707692 C189.698984,46.4617582 189.567102,44.7969231 188.474361,43.8527473 C184.649769,40.5487912 180.434727,37.6984615 175.946175,35.3795604 C174.665681,34.7182418 173.102581,35.2358242 172.451614,36.5334066 C171.800647,37.830989 172.309987,39.42 173.588532,40.0806593 L173.588532,40.0806593 Z" id="Shape"></path>
                            <path d="M209.394951,48.183956 L204.340539,50.8173626 C203.063942,51.4826374 202.5598,53.0723077 203.215315,54.3679121 C203.675929,55.2784615 204.586113,55.8013187 205.52943,55.8013187 C205.928976,55.8013187 206.334368,55.707033 206.713774,55.5098901 L211.768186,52.8764835 C213.044783,52.2112088 213.548925,50.6215385 212.89341,49.3259341 C212.237896,48.0296703 210.670898,47.5193407 209.394951,48.183956 L209.394951,48.183956 Z" id="Shape"></path>
                            <path d="M195.422554,61.0687912 C195.8221,61.0687912 196.227492,60.9745055 196.607548,60.7767033 L198.939854,59.5615385 C200.21645,58.8962637 200.719942,57.3065934 200.064428,56.010989 C199.408914,54.7153846 197.841916,54.2030769 196.565969,54.8696703 L194.233663,56.0848352 C192.957067,56.7501099 192.453574,58.3397802 193.109089,59.6353846 C193.569053,60.5459341 194.479237,61.0687912 195.422554,61.0687912 L195.422554,61.0687912 Z" id="Shape"></path>
                            <path d="M186.846295,59.9334066 L129.31045,89.9149451 C128.033854,90.5802198 127.530361,92.1698901 128.185876,93.4661538 C128.64649,94.376044 129.556674,94.8995604 130.499991,94.8995604 C130.899537,94.8995604 131.304929,94.8052747 131.684984,94.6081319 L189.220829,64.6265934 C190.497426,63.9613187 191.000918,62.3716484 190.345404,61.0753846 C189.689239,59.7797802 188.122891,59.2694505 186.846295,59.9334066 L186.846295,59.9334066 Z" id="Shape"></path>
                            <path d="M122.312882,93.5610989 L93.9334612,108.349451 C92.6568647,109.014725 92.1533725,110.604396 92.8088869,111.900659 C93.2695011,112.810549 94.1796851,113.334066 95.1230022,113.334066 C95.5225477,113.334066 95.9279401,113.23978 96.3079956,113.042637 L124.687417,98.2542857 C125.964013,97.589011 126.467506,95.9993407 125.811991,94.7030769 C125.155827,93.4074725 123.590129,92.8958242 122.312882,93.5610989 L122.312882,93.5610989 Z" id="Shape"></path>
                            <path d="M89.2681996,113.745495 C88.6126851,112.450549 87.0469867,111.938901 85.7690909,112.604176 L77.6053703,116.858242 C76.3287738,117.523516 75.8252816,119.113187 76.480796,120.409451 C76.9414102,121.319341 77.8515942,121.842857 78.7949113,121.842857 C79.1944568,121.842857 79.5998492,121.748571 79.9799047,121.551429 L88.1436253,117.297363 C89.4202217,116.631429 89.923714,115.041099 89.2681996,113.745495 L89.2681996,113.745495 Z" id="Shape"></path>
                            <path d="M68.6737428,140.956484 L58.5662173,146.223956 C57.2896208,146.889231 56.7861286,148.478901 57.441643,149.774505 C57.9016075,150.684396 58.8117916,151.207912 59.7557583,151.207912 C60.1553038,151.207912 60.5606962,151.113626 60.9407517,150.915824 L71.0482772,145.648352 C72.3248736,144.983077 72.8283659,143.393407 72.1728514,142.097802 C71.517337,140.802198 69.9496896,140.290549 68.6737428,140.956484 L68.6737428,140.956484 Z" id="Shape"></path>
                            <path d="M50.0126962,150.68044 L22.4115765,165.063297 C21.13498,165.728571 20.6314878,167.318242 21.2870022,168.614505 C21.7476164,169.524396 22.6578004,170.047912 23.6011175,170.047912 C24.000663,170.047912 24.4060554,169.953626 24.7861109,169.756484 L52.3872306,155.373626 C53.6638271,154.708352 54.1673193,153.118681 53.5118049,151.822418 C52.8556408,150.526154 51.2892927,150.015165 50.0126962,150.68044 L50.0126962,150.68044 Z" id="Shape"></path>
                            <path d="M270.851539,41.2074725 C271.251084,41.2074725 271.656477,41.1131868 272.036532,40.9153846 L279.422601,37.0661538 C280.699197,36.4008791 281.20269,34.8112088 280.547175,33.5156044 C279.891661,32.22 278.324663,31.7076923 277.048716,32.3742857 L269.662647,36.2235165 C268.386051,36.8887912 267.882559,38.4784615 268.538073,39.7740659 C268.998038,40.6846154 269.908222,41.2074725 270.851539,41.2074725 L270.851539,41.2074725 Z" id="Shape"></path>
                            <path d="M261.109126,43.6450549 C260.452962,42.3494505 258.887264,41.8384615 257.610018,42.5037363 L254.110909,44.3268132 C252.834313,44.9920879 252.33082,46.5817582 252.986335,47.878022 C253.446949,48.7879121 254.357133,49.3114286 255.30045,49.3114286 C255.699996,49.3114286 256.105388,49.2171429 256.485443,49.02 L259.984552,47.1969231 C261.260499,46.5303297 261.764641,44.9406593 261.109126,43.6450549 L261.109126,43.6450549 Z" id="Shape"></path>
                            <path d="M247.113991,47.972967 L230.7859,56.4810989 C229.509304,57.1463736 229.005812,58.736044 229.661326,60.0323077 C230.12194,60.9421978 231.032124,61.4657143 231.975441,61.4657143 C232.374987,61.4657143 232.780379,61.3714286 233.160435,61.1742857 L249.488525,52.6661538 C250.765122,52.0008791 251.268614,50.4112088 250.6131,49.1149451 C249.957585,47.8186813 248.391237,47.3076923 247.113991,47.972967 L247.113991,47.972967 Z" id="Shape"></path>
                            <path d="M201.847765,61.921978 L89.1077317,120.66989 C87.8311353,121.335165 87.327643,122.924835 87.9831574,124.221099 C88.4437716,125.130989 89.3539557,125.654505 90.2972727,125.654505 C90.6968182,125.654505 91.1022106,125.56022 91.4822661,125.363077 L98.4947761,121.709011 C108.393758,139.242198 126.631222,150.03033 146.707894,150.031648 L146.710492,150.031648 C155.575854,150.031648 164.096891,147.933626 172.037126,143.795604 C185.236419,136.917363 195.006767,125.234505 199.548592,110.897802 C203.824053,97.4017582 202.979486,83.0769231 197.211738,70.2679121 L204.221,66.6151648 C205.497596,65.9498901 206.001089,64.3602198 205.345574,63.063956 C204.69071,61.7676923 203.125661,61.2573626 201.847765,61.921978 L201.847765,61.921978 Z M194.600725,109.283077 C190.484432,122.278022 181.628166,132.868352 169.663242,139.102418 C162.463627,142.854066 154.74233,144.756264 146.710492,144.756264 L146.707894,144.756264 C128.58802,144.755604 112.117652,135.068571 103.11716,119.29978 L192.586756,72.6778022 C197.723027,84.2307692 198.450654,97.1287912 194.600725,109.283077 L194.600725,109.283077 Z" id="Shape"></path>
                            <path d="M23.8161574,119.827253 C31.0430576,119.827253 36.9225477,113.86022 36.9225477,106.525714 C36.9225477,99.1912088 31.0430576,93.2241758 23.8161574,93.2241758 C16.5892572,93.2241758 10.7104169,99.1912088 10.7104169,106.525714 C10.7104169,113.86022 16.5892572,119.827253 23.8161574,119.827253 L23.8161574,119.827253 Z M23.8161574,98.4989011 C28.1773747,98.4989011 31.7252084,102.09956 31.7252084,106.525714 C31.7252084,110.951868 28.1773747,114.552527 23.8161574,114.552527 C19.4555898,114.552527 15.9077561,110.951868 15.9077561,106.525714 C15.9077561,102.09956 19.4549401,98.4989011 23.8161574,98.4989011 L23.8161574,98.4989011 Z" id="Shape"></path>
                            <path d="M274.946392,120.950769 C265.981632,120.950769 258.687816,128.353187 258.687816,137.451429 C258.687816,146.54967 265.981632,153.952088 274.946392,153.952088 C283.911153,153.952088 291.204969,146.54967 291.204969,137.451429 C291.204969,128.353187 283.911803,120.950769 274.946392,120.950769 L274.946392,120.950769 Z M274.946392,148.677363 C268.847315,148.677363 263.885155,143.641319 263.885155,137.451429 C263.885155,131.261538 268.847315,126.225495 274.946392,126.225495 C281.04547,126.225495 286.00763,131.261538 286.00763,137.451429 C286.00763,143.641319 281.04612,148.677363 274.946392,148.677363 L274.946392,148.677363 Z" id="Shape"></path>
                        </g>
                    </g>
                </g>
            </g>
        </g>
    </g>
</svg>