<?xml version="1.0" encoding="UTF-8" standalone="no"?>
<svg width="818px" height="595px" viewBox="0 0 818 595" version="1.1" xmlns="http://www.w3.org/2000/svg" xmlns:xlink="http://www.w3.org/1999/xlink">
    <!-- Generator: Sketch 40.3 (33839) - http://www.bohemiancoding.com/sketch -->
    <title>书</title>
    <desc>Created with Sketch.</desc>
    <defs></defs>
    <g id="Page-1" stroke="none" stroke-width="1" fill="none" fill-rule="evenodd">
        <g id="Artboard-2" transform="translate(-83.000000, -4263.000000)" fill="#E4C04E">
            <g id="书" transform="translate(83.000000, 4263.000000)">
                <path d="M19.831,594.294 C9.376,594.294 0.871,585.786 0.871,575.329 L0.871,49.895 C0.871,41.964 5.872,34.807 13.315,32.085 C27.638,26.845 104.477,0.708 210.768,0.708 C278.8,0.708 345.769,11.24 409.814,32.01 C417.657,34.552 422.927,41.805 422.927,50.057 L422.927,571.296 C422.927,581.756 414.425,590.266 403.976,590.266 C402.573,590.266 401.165,590.109 399.792,589.8 C376.305,584.502 292.318,567.215 197.754,567.215 C130.687,567.215 73.037,575.93 26.407,593.119 C24.287,593.899 22.075,594.294 19.831,594.294 L19.831,594.294 Z M29.524,56.772 L29.524,561.721 C76.812,546.349 133.322,538.563 197.752,538.563 C283.159,538.563 360.184,552.231 394.274,559.298 L394.274,57.135 C335.12,38.701 273.424,29.361 210.767,29.361 C120.207,29.36 52.62,49.027 29.524,56.772 L29.524,56.772 Z" id="Fill-1"></path>
                <path d="M414.268,594.294 C403.813,594.294 395.309,585.786 395.309,575.329 L395.308,49.895 C395.308,41.963 400.31,34.805 407.754,32.085 C422.075,26.846 498.913,0.708 605.204,0.708 C673.237,0.708 740.204,11.24 804.25,32.01 C812.092,34.551 817.364,41.804 817.364,50.057 L817.364,571.296 C817.364,581.756 808.862,590.266 798.413,590.266 C797.01,590.266 795.602,590.109 794.229,589.799 C770.742,584.502 686.754,567.215 592.19,567.215 C525.123,567.215 467.473,575.93 420.842,593.119 C418.726,593.899 416.514,594.294 414.268,594.294 L414.268,594.294 Z M423.961,56.772 L423.961,561.72 C471.251,546.348 527.76,538.562 592.189,538.562 C677.595,538.562 754.62,552.23 788.712,559.297 L788.712,57.135 C729.556,38.701 667.862,29.36 605.205,29.36 C514.644,29.36 447.057,49.027 423.961,56.772 L423.961,56.772 Z" id="Fill-2"></path>
                <path d="M91.442,169.926 L91.435,169.899 C89.349,161.981 94.308,153.934 102.317,152.231 C116.836,149.144 141.11,144.662 170.552,141.863 C228,136.4 278.471,139.62 320.861,151.427 C328.817,153.643 333.299,162.06 330.632,169.877 C328.19,177.035 320.594,181.099 313.307,179.074 C235.23,157.371 142.278,173.132 108.267,180.295 C100.789,181.869 93.389,177.316 91.442,169.926" id="Fill-3"></path>
                <path d="M91.442,286.822 L91.435,286.795 C89.349,278.877 94.308,270.829 102.317,269.127 C116.836,266.04 141.11,261.558 170.552,258.759 C228,253.296 278.471,256.516 320.861,268.323 C328.817,270.539 333.299,278.956 330.632,286.773 C328.19,293.931 320.594,297.995 313.307,295.97 C235.23,274.267 142.278,290.028 108.267,297.191 C100.789,298.766 93.389,294.212 91.442,286.822" id="Fill-4"></path>
                <path d="M91.442,394.877 L91.435,394.85 C89.349,386.932 94.308,378.885 102.317,377.182 C116.836,374.095 141.11,369.614 170.552,366.814 C228,361.351 278.471,364.571 320.861,376.378 C328.817,378.594 333.299,387.012 330.632,394.828 C328.19,401.986 320.594,406.051 313.307,404.025 C235.23,382.322 142.278,398.083 108.267,405.246 C100.789,406.821 93.389,402.267 91.442,394.877" id="Fill-5"></path>
                <path d="M486.597,169.926 L486.59,169.899 C484.504,161.981 489.462,153.934 497.472,152.231 C511.991,149.144 536.265,144.662 565.708,141.863 C623.155,136.4 673.627,139.62 716.017,151.427 C723.973,153.643 728.455,162.06 725.788,169.877 C723.346,177.035 715.75,181.099 708.463,179.074 C630.386,157.371 537.433,173.132 503.423,180.295 C495.945,181.869 488.544,177.316 486.597,169.926" id="Fill-6"></path>
                <path d="M486.597,286.822 L486.59,286.795 C484.504,278.877 489.462,270.829 497.472,269.127 C511.991,266.04 536.265,261.558 565.708,258.759 C623.155,253.296 673.627,256.516 716.017,268.323 C723.973,270.539 728.455,278.956 725.788,286.773 C723.346,293.931 715.75,297.995 708.463,295.97 C630.386,274.267 537.433,290.028 503.423,297.191 C495.945,298.766 488.544,294.212 486.597,286.822" id="Fill-7"></path>
                <path d="M486.597,394.877 L486.59,394.85 C484.504,386.932 489.462,378.885 497.472,377.182 C511.991,374.095 536.265,369.614 565.708,366.814 C623.155,361.351 673.627,364.571 716.017,376.378 C723.973,378.594 728.455,387.012 725.788,394.828 C723.346,401.986 715.75,406.051 708.463,404.025 C630.386,382.322 537.433,398.083 503.423,405.246 C495.945,406.821 488.544,402.267 486.597,394.877" id="Fill-8"></path>
            </g>
        </g>
    </g>
</svg>