<?xml version="1.0" encoding="UTF-8" standalone="no"?>
<svg width="65px" height="72px" viewBox="0 0 65 72" version="1.1" xmlns="http://www.w3.org/2000/svg" xmlns:xlink="http://www.w3.org/1999/xlink">
    <!-- Generator: Sketch 39.1 (31720) - http://www.bohemiancoding.com/sketch -->
    <title>Capa_1</title>
    <desc>Created with Sketch.</desc>
    <defs></defs>
    <g id="Page-1" stroke="none" stroke-width="1" fill="none" fill-rule="evenodd">
        <g id="Artboard-2" transform="translate(-673.000000, -2564.000000)" fill="#9C7BB7">
            <g id="boss_1192370_easyicon.net" transform="translate(673.000000, 2564.000000)">
                <g id="Capa_1">
                    <g id="Layer_1_38_">
                        <g id="Group">
                            <path d="M30.8003191,27.5714043 L31.6287234,21.6735319 L31.2124468,20.9305532 C31.1515957,20.826383 31.1626596,20.6931064 31.2387234,20.6027234 L32.3229787,19.3036596 C32.4170213,19.1933617 32.5871277,19.1933617 32.6825532,19.3036596 L33.7668085,20.6027234 C33.8442553,20.6931064 33.8539362,20.826383 33.7930851,20.9305532 L33.3768085,21.6735319 L34.2065957,27.5698723 C40.7384043,27.4488511 44.6923404,26.621617 44.6923404,25.7622128 C44.6923404,21.5555745 42.1117021,21.3702128 39.2434043,20.3331064 C37.4759574,19.6973617 35.2880851,19.3388936 35.7555319,15.965617 C36.92,14.7860426 37.3252128,12.3579574 37.3252128,12.3579574 C37.3252128,12.3579574 38.8755319,11.4924255 39.0539362,9.83489362 C39.1853191,8.57106383 38.5892553,7.98434043 38.5892553,7.98434043 L38.5892553,6.38195745 C38.5892553,2.81259574 35.8288298,0 32.5082979,0 C29.186383,0 26.4259574,2.81106383 26.4259574,6.38195745 L26.4259574,7.98434043 C26.4259574,7.98434043 25.8312766,8.57106383 25.9626596,9.83489362 C26.1410638,11.4924255 27.69,12.3579574 27.69,12.3579574 C27.69,12.3579574 28.0952128,14.7860426 29.2610638,15.965617 C29.7285106,19.3388936 27.5392553,19.6973617 25.7718085,20.3331064 C22.9035106,21.3717447 20.3228723,21.5571064 20.3228723,25.7622128 C20.3131915,26.621617 24.2671277,27.4488511 30.8003191,27.5714043 L30.8003191,27.5714043 Z" id="Shape"></path>
                            <path d="M12.6182979,67.1775319 C11.437234,66.7547234 9.97819149,66.5080851 10.2921277,64.260766 C11.0707447,63.4764255 11.3390426,61.8571915 11.3390426,61.8571915 C11.3390426,61.8571915 12.3707447,61.2827234 12.4896809,60.1782128 C12.5768085,59.3356596 12.1798936,58.9404255 12.1798936,58.9404255 L12.1798936,57.8757447 C12.1798936,55.493617 10.3391489,53.621617 8.125,53.621617 C5.91085106,53.621617 4.07010638,55.4951489 4.07010638,57.8757447 L4.07010638,58.9404255 C4.07010638,58.9404255 3.67319149,59.3356596 3.76031915,60.1782128 C3.87925532,61.2827234 4.91095745,61.8571915 4.91095745,61.8571915 C4.91095745,61.8571915 5.17925532,63.4779574 5.95787234,64.260766 C6.27319149,66.5111489 4.81276596,66.7547234 3.63170213,67.1775319 C1.72319149,67.8622979 0,67.9879149 0,70.794383 C0,71.3657872 2.63734043,71.9188085 6.99095745,71.9984681 L7.54414894,68.0721702 L7.26340426,67.572766 C7.22744681,67.5038298 7.23021277,67.4134468 7.28138298,67.3506383 L8.00606383,66.4897021 C8.06968085,66.4146383 8.18031915,66.4146383 8.24393617,66.4897021 L8.96861702,67.3506383 C9.01978723,67.4134468 9.02255319,67.5038298 8.98659574,67.572766 L8.70585106,68.0691064 L9.25904255,71.9954043 C13.6112766,71.9172766 16.25,71.3642553 16.25,70.7928511 C16.25,67.9879149 14.5281915,67.8622979 12.6182979,67.1775319 L12.6182979,67.1775319 Z" id="Shape"></path>
                            <path d="M36.9932979,67.1775319 C35.812234,66.7547234 34.3531915,66.5080851 34.6671277,64.260766 C35.4443617,63.4764255 35.7140426,61.8571915 35.7140426,61.8571915 C35.7140426,61.8571915 36.7443617,61.2827234 36.8632979,60.1782128 C36.9504255,59.3356596 36.5548936,58.9404255 36.5548936,58.9404255 L36.5548936,57.8757447 C36.5548936,55.493617 34.712766,53.621617 32.498617,53.621617 C30.2844681,53.621617 28.4437234,55.4951489 28.4437234,57.8757447 L28.4437234,58.9404255 C28.4437234,58.9404255 28.0468085,59.3356596 28.1339362,60.1782128 C28.2528723,61.2827234 29.2845745,61.8571915 29.2845745,61.8571915 C29.2845745,61.8571915 29.5528723,63.4779574 30.3314894,64.260766 C30.6468085,66.5111489 29.186383,66.7547234 28.0053191,67.1775319 C26.0940426,67.8622979 24.372234,67.9879149 24.372234,70.794383 C24.372234,71.3657872 27.0095745,71.9188085 31.3631915,71.9984681 L31.916383,68.0721702 L31.6356383,67.572766 C31.5996809,67.5068936 31.6024468,67.4149787 31.653617,67.3521702 L32.3782979,66.4897021 C32.4419149,66.4146383 32.5525532,66.4146383 32.6161702,66.4897021 L33.3394681,67.3521702 C33.3906383,67.4149787 33.3934043,67.5068936 33.3588298,67.572766 L33.0780851,68.0721702 L33.6312766,71.9969362 C37.9821277,71.9188085 40.622234,71.3657872 40.622234,70.794383 C40.625,67.9879149 38.9031915,67.8622979 36.9932979,67.1775319 L36.9932979,67.1775319 Z" id="Shape"></path>
                            <path d="M61.3682979,67.1805957 C60.187234,66.7547234 58.7281915,66.5111489 59.0393617,64.2638298 C59.8193617,63.4764255 60.0876596,61.8571915 60.0876596,61.8571915 C60.0876596,61.8571915 61.1221277,61.2827234 61.2382979,60.1782128 C61.3254255,59.3356596 60.9298936,58.9404255 60.9298936,58.9404255 L60.9298936,57.8757447 C60.9298936,55.493617 59.0905319,53.621617 56.873617,53.621617 C54.6567021,53.621617 52.8173404,55.4951489 52.8173404,57.8757447 L52.8173404,58.9404255 C52.8173404,58.9404255 52.4231915,59.3356596 52.5075532,60.1782128 C52.6251064,61.2827234 53.6595745,61.8571915 53.6595745,61.8571915 C53.6595745,61.8571915 53.9251064,63.4779574 54.7078723,64.2638298 C55.0218085,66.5142128 53.56,66.7547234 52.3789362,67.1805957 C50.4662766,67.860766 48.7458511,67.9879149 48.7458511,70.794383 C48.7458511,71.3657872 51.3818085,71.9188085 55.7368085,71.9984681 L56.29,68.0721702 L56.0106383,67.571234 C55.9760638,67.5053617 55.9788298,67.4134468 56.03,67.3537021 L56.7519149,66.491234 C56.8155319,66.4161702 56.9289362,66.4161702 56.9925532,66.491234 L57.7144681,67.3537021 C57.7656383,67.4134468 57.7684043,67.5053617 57.7338298,67.571234 L57.4530851,68.0706383 L58.0062766,71.9954043 C62.3571277,71.9172766 64.997234,71.3642553 64.997234,70.7928511 C65,67.9879149 63.2795745,67.860766 61.3682979,67.1805957 L61.3682979,67.1805957 Z" id="Shape"></path>
                            <path d="M8.125,50.3969362 C9.02255319,50.3969362 9.75,49.5926809 9.75,48.5954043 L9.75,41.3969362 L30.875,41.3969362 L30.875,48.5954043 C30.875,49.589617 31.6010638,50.3969362 32.5,50.3969362 C33.3989362,50.3969362 34.125,49.5926809 34.125,48.5954043 L34.125,41.3969362 L55.25,41.3969362 L55.25,48.5954043 C55.25,49.589617 55.9746809,50.3969362 56.875,50.3969362 C57.7753191,50.3969362 58.5,49.5926809 58.5,48.5954043 L58.5,39.6 C58.5,38.6057872 57.7753191,37.7984681 56.875,37.7984681 L34.125,37.7984681 L34.125,32.3984681 C34.125,31.4042553 33.4003191,30.5984681 32.5,30.5984681 C31.6010638,30.5984681 30.875,31.4042553 30.875,32.3984681 L30.875,37.7984681 L8.125,37.7984681 C7.22744681,37.7984681 6.5,38.6027234 6.5,39.6 L6.5,48.6 C6.50138298,49.5926809 7.22882979,50.3969362 8.125,50.3969362 L8.125,50.3969362 Z" id="Shape"></path>
                        </g>
                    </g>
                </g>
            </g>
        </g>
    </g>
</svg>