<?xml version="1.0" encoding="UTF-8" standalone="no"?>
<svg width="717px" height="717px" viewBox="0 0 717 717" version="1.1" xmlns="http://www.w3.org/2000/svg" xmlns:xlink="http://www.w3.org/1999/xlink">
    <!-- Generator: Sketch 40.3 (33839) - http://www.bohemiancoding.com/sketch -->
    <title>弹</title>
    <desc>Created with Sketch.</desc>
    <defs></defs>
    <g id="Page-1" stroke="none" stroke-width="1" fill="none" fill-rule="evenodd">
        <g id="Artboard-2" transform="translate(-670.000000, -3443.000000)" fill="#3EC1AF">
            <path d="M1281.5295,3548.4725 C1141.6415,3408.5625 914.8425,3408.5625 774.9325,3548.4725 C635.0225,3688.3715 635.0225,3915.1815 774.9325,4055.0585 C914.8205,4194.9805 1141.6415,4194.9805 1281.5295,4055.0585 C1421.4395,3915.1495 1421.4395,3688.3715 1281.5295,3548.4725 L1281.5295,3548.4725 Z M1340.8035,3819.9515 C1270.1595,3812.6815 1197.4395,3833.3095 1140.0235,3881.9145 L1059.8905,3801.7815 L1264.8895,3596.7595 C1320.1205,3660.3855 1345.3955,3740.7805 1340.8035,3819.9515 L1340.8035,3819.9515 Z M1140.0455,3945.2675 L1233.2315,4038.4525 C1191.2745,4074.8245 1142.1225,4098.4375 1090.7195,4108.8225 C1085.0125,4051.4185 1101.4765,3992.4165 1140.0455,3945.2675 L1140.0455,3945.2675 Z M1171.7265,3913.5855 C1218.8445,3875.0165 1277.8575,3858.5525 1335.3155,3864.2585 C1324.8865,3915.6955 1301.2955,3964.8345 1264.8905,4006.7715 L1171.7265,3913.5855 L1171.7265,3913.5855 Z M1233.2315,3565.1115 L1028.2315,3770.1335 L948.0985,3689.9455 C996.6815,3632.5525 1017.3215,3559.8635 1010.0395,3489.1865 C1089.2105,3484.6175 1169.6065,3509.8825 1233.2315,3565.1115 L1233.2315,3565.1115 Z M884.7575,3689.9455 C837.5965,3728.5135 778.5845,3744.9785 721.1465,3739.2935 C731.5755,3687.8575 755.1675,3638.7055 791.5715,3596.7605 L884.7575,3689.9455 L884.7575,3689.9455 Z M823.2305,3565.1115 C865.1665,3528.6845 914.3185,3505.1265 965.7435,3494.6975 C971.4505,3552.1235 954.9865,3611.1465 916.4175,3658.2965 L823.2305,3565.1115 L823.2305,3565.1115 Z M715.6585,3783.5695 C786.3015,3790.8605 859.0225,3770.2215 916.4165,3721.6275 L996.5705,3801.7825 L791.5705,4006.7715 C736.3425,3943.1355 711.0665,3862.7505 715.6585,3783.5695 L715.6585,3783.5695 Z M823.2305,4038.4315 L1028.2315,3833.4195 L1108.3645,3913.5855 C1059.8035,3970.9685 1039.1415,4043.7005 1046.4235,4114.3665 C967.2525,4118.9575 886.8565,4093.6605 823.2305,4038.4315 L823.2305,4038.4315 Z" id="弹"></path>
        </g>
    </g>
</svg>