<?xml version="1.0" encoding="UTF-8" standalone="no"?>
<svg width="364px" height="666px" viewBox="0 0 364 666" version="1.1" xmlns="http://www.w3.org/2000/svg" xmlns:xlink="http://www.w3.org/1999/xlink">
    <!-- Generator: Sketch 40.3 (33839) - http://www.bohemiancoding.com/sketch -->
    <title>蜡烛</title>
    <desc>Created with Sketch.</desc>
    <defs></defs>
    <g id="Page-1" stroke="none" stroke-width="1" fill="none" fill-rule="evenodd">
        <g id="Artboard-2" transform="translate(-300.000000, -4104.000000)" fill="#E4C04E">
            <g id="蜡烛" transform="translate(300.000000, 4104.000000)">
                <path d="M166.581609,232.965 C156.857609,227.519 145.807609,217.215 146.469609,198.599 C147.796609,159.109 195.980609,168.071 192.056609,138.264 C188.837609,113.968 241.046609,202.128 212.973609,230.398 C242.766609,221.76 257.261609,197.979 255.044609,160.789 C251.290609,97.68 195.258609,0 180.015609,0 C178.393609,0 176.092609,1.171 175.133609,2.462 C173.255609,5.059 173.382609,8.778 175.612609,15.728 C185.140609,45.318 172.323609,59.538 154.541609,79.199 C138.619609,96.82 118.790609,118.759 110.210609,158.25 C105.481609,180.098 108.347609,197.725 118.734609,210.639 C130.592609,225.331 150.125609,230.947 166.581609,232.965" id="Fill-1"></path>
                <path d="M343.117,619.42 L288.271,619.42 C289.076,616.371 289.625,613.238 289.625,609.949 L289.625,271.417 C289.625,250.235 272.38,233 251.194,233 L112.006,233 C90.835,233 73.574,250.233 73.574,271.417 L73.574,609.949 C73.574,613.239 74.124,616.372 74.901,619.421 L20.083,619.421 C9.018,619.421 0,628.412 0,639.504 L0,645.263 C0,656.341 9.018,665.333 20.083,665.333 L343.118,665.333 C354.183,665.333 363.202,656.341 363.202,645.263 L363.202,639.504 C363.201,628.41 354.183,619.42 343.117,619.42 L343.117,619.42 Z M141.997,464.817 C141.997,473.131 135.251,479.878 126.952,479.878 C118.611,479.878 111.879,473.132 111.879,464.817 L111.879,285.672 C111.879,277.345 118.612,270.613 126.952,270.613 C135.251,270.613 141.997,277.345 141.997,285.672 L141.997,464.817 L141.997,464.817 Z" id="Fill-2"></path>
            </g>
        </g>
    </g>
</svg>