<?xml version="1.0" encoding="UTF-8" standalone="no"?>
<svg width="135px" height="238px" viewBox="0 0 135 238" version="1.1" xmlns="http://www.w3.org/2000/svg" xmlns:xlink="http://www.w3.org/1999/xlink">
    <!-- Generator: Sketch 40.3 (33839) - http://www.bohemiancoding.com/sketch -->
    <title>可乐</title>
    <desc>Created with Sketch.</desc>
    <defs></defs>
    <g id="Page-1" stroke="none" stroke-width="1" fill="none" fill-rule="evenodd">
        <g id="Artboard-2" transform="translate(-1485.000000, -3711.000000)" fill="#E4C04E">
            <g id="可乐" transform="translate(1485.000000, 3711.000000)">
                <polyline id="Fill-1" points="26.2982578 219.249072 87.6771838 219.249072 106.089057 90.4737139 7.87865155 90.4737139 26.2982578 219.249072"></polyline>
                <polygon id="Fill-2" points="26.2766706 237.882168 87.6987709 237.882168 87.6987709 225.604973 26.2766706 225.604973"></polygon>
                <path d="M107.666205,66.6313212 L80.6884368,66.6313212 L90.3175776,22.9114222 L134.810871,6.02477139 L132.698556,0.0514053296 L85.0725537,18.1374025 L74.3975656,66.6313212 L7.92182578,66.6313212 C3.6823747,66.6313212 0.253245823,70.1913072 0.253245823,74.576115 C0.253245823,78.9759439 3.6823747,82.5209088 7.92182578,82.5209088 L107.666205,82.5209088 C111.905656,82.5209088 115.338652,78.9756101 115.338652,74.576115 C115.338652,70.1913072 111.905656,66.6313212 107.666205,66.6313212" id="Fill-3"></path>
            </g>
        </g>
    </g>
</svg>