<?xml version="1.0" encoding="UTF-8" standalone="no"?>
<svg width="159px" height="94px" viewBox="0 0 159 94" version="1.1" xmlns="http://www.w3.org/2000/svg" xmlns:xlink="http://www.w3.org/1999/xlink">
    <!-- Generator: Sketch 39.1 (31720) - http://www.bohemiancoding.com/sketch -->
    <title>Shape</title>
    <desc>Created with Sketch.</desc>
    <defs></defs>
    <g id="Page-1" stroke="none" stroke-width="1" fill="none" fill-rule="evenodd">
        <g id="Artboard-2" transform="translate(-369.000000, -936.000000)" fill="#CA7CAC">
            <g id="rural_1193694_easyicon.net" transform="translate(369.000000, 936.000000)">
                <g id="Capa_1">
                    <path d="M156.666341,89.1597756 L155.427012,89.1597756 L109.116628,19.8941848 C106.950059,16.6538218 103.324485,14.7189109 99.4182505,14.7189109 C95.5123268,14.7189109 91.8867534,16.6535116 89.720184,19.8941848 L86.9400176,24.0525215 L74.8000098,5.1079538 C72.8254227,2.02642904 69.456863,0.186759076 65.7892838,0.186759076 C62.1217045,0.186759076 58.7531448,2.02642904 56.7785577,5.1079538 L2.91800783,89.1566733 L2.33365949,89.1566733 C1.04485714,89.1566733 0,90.1981188 0,91.4834059 C0,92.7686931 1.04485714,93.8101386 2.33365949,93.8101386 L156.666341,93.8132409 C157.955143,93.8132409 159,92.7714851 159,91.4865083 C159,90.2015314 157.955143,89.1597756 156.666341,89.1597756 L156.666341,89.1597756 Z M89.7777476,28.1975182 L93.6033933,22.4753069 C94.9217554,20.5034785 97.0410294,19.3723762 99.4182505,19.3723762 C101.795472,19.3723762 103.914746,20.5034785 105.233108,22.4753069 L124.27608,50.9576172 C123.718491,51.4480924 123.12792,51.8917228 122.504055,52.2733069 C121.405368,52.9452673 121.06092,54.377604 121.734881,55.4730297 C122.175164,56.1890429 122.941538,56.5836568 123.72627,56.5836568 C124.142284,56.5836568 124.563587,56.4729043 124.944129,56.2399208 C125.619335,55.8270033 126.266225,55.3632079 126.883867,54.8581518 L149.817517,89.1594653 L128.660871,89.1591551 L109.108538,58.6473135 C110.835446,58.9125611 112.489855,59.0462706 114.059941,59.0462706 C114.165734,59.0462706 114.271526,59.0456502 114.376386,59.0444092 C115.665188,59.0295182 116.697599,57.9756634 116.682975,56.6906865 C116.668039,55.4057096 115.597667,54.3800858 114.322556,54.3912541 C111.709168,54.4197954 108.767513,53.9960198 105.578178,53.1379208 L89.680045,28.3287459 C89.7133386,28.285934 89.7469432,28.2434323 89.7777476,28.1975182 L89.7777476,28.1975182 Z M37.0998963,44.4585875 C39.5325029,48.7987195 44.1948434,51.6630825 49.3877025,51.6630825 C53.1003992,51.6630825 56.5607495,50.2499802 59.1638689,47.7259406 C63.233771,50.3588713 73.7330607,56.6019604 84.1085108,58.2542508 C84.2332838,58.2741056 84.3571233,58.2837228 84.479407,58.2837228 C85.6060978,58.2837228 86.5977476,57.4681254 86.7810176,56.3236832 C86.9842016,55.0548383 86.1173249,53.8616898 84.8447025,53.6591089 C72.9654423,51.7673201 60.2479315,42.8512805 60.1212916,42.761934 C59.0901252,42.0316502 57.6634814,42.2534653 56.903953,43.2617162 C55.1101468,45.64367 52.3707417,47.0096172 49.3873914,47.0096172 C44.9677515,47.0096172 41.124681,43.9066865 40.2027299,39.6158812 L60.7106184,7.61337954 C61.8397984,5.8509571 63.690546,4.84022442 65.7880391,4.84022442 C67.8858434,4.84022442 69.7362798,5.8509571 70.865771,7.61337954 L98.5392387,50.7978482 C97.1819824,51.9975116 95.6190528,52.8490957 93.7841742,53.3795908 C92.54609,53.7372871 91.833546,55.0278482 92.1923072,56.2619472 C92.4882153,57.2798152 93.4204344,57.941538 94.4326204,57.941538 C94.6476282,57.941538 94.8663699,57.9117558 95.0832446,57.8490891 C97.3226243,57.2019472 99.3295714,56.163604 101.07546,54.7557756 L123.121697,89.1591551 L8.45593738,89.1566733 L37.0998963,44.4585875 L37.0998963,44.4585875 Z" id="Shape"></path>
                </g>
            </g>
        </g>
    </g>
</svg>