<?xml version="1.0" encoding="UTF-8" standalone="no"?>
<svg width="73px" height="108px" viewBox="0 0 73 108" version="1.1" xmlns="http://www.w3.org/2000/svg" xmlns:xlink="http://www.w3.org/1999/xlink">
    <!-- Generator: Sketch 39.1 (31720) - http://www.bohemiancoding.com/sketch -->
    <title>Group</title>
    <desc>Created with Sketch.</desc>
    <defs></defs>
    <g id="Page-1" stroke="none" stroke-width="1" fill="none" fill-rule="evenodd">
        <g id="Artboard-2" transform="translate(-1487.000000, -2155.000000)" fill="#9C7BB7">
            <g id="dead_1196689_easyicon.net" transform="translate(1487.000000, 2155.000000)">
                <g id="Capa_1">
                    <g id="Group">
                        <path d="M72.8773323,29.7236681 L64.0186899,1.21442553 C63.7943766,0.492434043 63.1232848,0 62.3634842,0 L47.9732437,0 L47.9549937,0 L41.0303892,0 L12.9466424,0 C12.2325823,0 11.5915222,0.435676596 11.3323259,1.09769362 L0.163787975,29.6067064 C0.05475,29.8847489 0.0203291139,30.1862298 0.0637594937,30.4815064 L11.2322975,106.525685 C11.3568133,107.372451 12.0865823,108 12.9466424,108 L41.0303892,108 L47.961,108 L57.2809747,108 C58.1179335,108 58.8354589,107.404851 58.9853861,106.585889 L72.926307,30.5417106 C72.9764367,30.2689532 72.9595728,29.988383 72.8773323,29.7236681 L72.8773323,29.7236681 Z M18.2698671,3.44680851 L29.8269684,3.44680851 L35.4059241,3.44680851 L39.7521962,3.44680851 L48.125481,30.3946468 L39.4867627,104.553191 L30.1545443,104.553191 L17.5719778,104.553191 L14.4442975,104.553191 L7.08862342,54.470834 L3.55851899,30.4339404 L14.1310443,3.44680851 L18.2698671,3.44680851 L18.2698671,3.44680851 Z M42.9752848,104.553191 L51.4321962,31.9558213 L54.8742848,31.9558213 L46.4173734,104.553191 L42.9752848,104.553191 L42.9752848,104.553191 Z M46.682807,3.44680851 L54.4702437,28.5090128 L51.1665316,28.5090128 L43.3793259,3.44680851 L46.682807,3.44680851 L46.682807,3.44680851 Z M49.9056646,104.553191 L58.5402247,30.4309532 C58.5478481,30.3647745 58.5508513,30.2981362 58.5508513,30.2317277 C58.5508513,30.0598468 58.5259019,29.8884255 58.4746171,29.7236681 L50.3099367,3.44680851 L61.0855222,3.44680851 L68.8729589,28.5090128 L63.7495601,28.5090128 C62.7929367,28.5090128 62.0174272,29.2801787 62.0169652,30.2317277 C62.0169652,31.1844255 62.7924747,31.9558213 63.7495601,31.9558213 L69.1448608,31.9558213 L55.8359905,104.553191 L49.9056646,104.553191 L49.9056646,104.553191 Z" id="Shape"></path>
                        <path d="M19.6289146,92.3935404 C19.7622089,89.7571915 19.9396266,87.1674894 20.1560854,84.6963574 C20.239019,83.7510128 19.5376646,82.9178043 18.5886646,82.8309447 C17.6281139,82.7468426 16.7869968,83.4486128 16.7038323,84.3969447 C16.4834462,86.9101277 16.3032563,89.5421106 16.1678829,92.2205106 C16.1198323,93.1711404 16.8556076,93.9804511 17.811307,94.0282468 C17.8452658,94.0296255 17.8725253,94.0303149 17.8997848,94.0303149 C18.8169051,94.0305447 19.582481,93.3147574 19.6289146,92.3935404 L19.6289146,92.3935404 Z" id="Shape"></path>
                        <path d="M20.8793861,77.9061447 C22.0427658,68.6896085 23.7397848,61.4331574 25.3808987,54.4156851 C28.1384968,42.6253021 30.9896551,30.4334809 31.4865633,8.65585532 C31.5082785,7.70430638 30.7503259,6.91544681 29.7937025,6.89384681 C28.8456266,6.87753191 28.0440127,7.62709787 28.0222975,8.57772766 C27.5337057,29.999183 24.7234367,42.0147574 22.0060348,53.6346383 C20.3448228,60.7378213 18.6270127,68.0827404 17.4414557,77.4769021 C17.3222532,78.4213277 17.995193,79.2830298 18.9446551,79.4013702 C19.0238924,79.4103319 19.0936582,79.4151574 19.1625,79.4151574 C20.0230222,79.4151574 20.7694241,78.7777277 20.8793861,77.9061447 L20.8793861,77.9061447 Z" id="Shape"></path>
                        <path d="M11.0123734,47.1426894 C11.7121108,47.1426894 12.3711899,46.7178128 12.6333892,46.0282213 C17.0053038,34.5234638 19.3071139,22.6579404 19.8774842,8.6868766 C19.9162943,7.73578723 19.1726646,6.9336 18.2167342,6.89499574 C18.2116519,6.89476596 18.2068006,6.89522553 18.2017184,6.89499574 C17.2534114,6.86397447 16.4538766,7.60090213 16.4152975,8.54693617 C15.8604051,22.1379319 13.6285918,33.660383 9.39205063,44.8094298 C9.0556962,45.6945702 9.50039557,46.681966 10.384943,47.0243489 C10.3902563,47.026417 10.3948766,47.0289447 10.4001899,47.0310128 C10.6018639,47.1068426 10.8088513,47.1426894 11.0123734,47.1426894 L11.0123734,47.1426894 Z" id="Shape"></path>
                        <path d="M31.9160158,99.3992936 C32.1225411,77.8048085 33.3330475,65.7674043 34.5035886,54.126383 C35.6801361,42.425617 36.8968797,30.3261702 37.1073323,8.63356596 C37.1165728,7.68178723 36.3484557,6.90280851 35.3916013,6.89361702 C34.4352089,6.87891064 33.6516139,7.64915745 33.6423734,8.60024681 C33.433307,30.1377447 32.2246487,42.1583745 31.0554937,53.7830809 C29.8773291,65.5003915 28.6589684,77.616383 28.451057,99.366434 C28.4418165,100.318213 29.2101646,101.097191 30.167019,101.106153 L30.1838829,101.106153 C31.1331139,101.106383 31.9070063,100.345557 31.9160158,99.3992936 L31.9160158,99.3992936 Z" id="Shape"></path>
                    </g>
                </g>
            </g>
        </g>
    </g>
</svg>