<?xml version="1.0" encoding="UTF-8" standalone="no"?>
<svg width="677px" height="809px" viewBox="0 0 677 809" version="1.1" xmlns="http://www.w3.org/2000/svg" xmlns:xlink="http://www.w3.org/1999/xlink">
    <!-- Generator: Sketch 40.3 (33839) - http://www.bohemiancoding.com/sketch -->
    <title>装修</title>
    <desc>Created with Sketch.</desc>
    <defs></defs>
    <g id="Page-1" stroke="none" stroke-width="1" fill="none" fill-rule="evenodd">
        <g id="Artboard-2" transform="translate(-75.000000, -3940.000000)" fill="#3EC1AF">
            <path d="M728.722,4028.258 L728.722,3940.757 L153.131,3940.757 L153.131,4028.258 L75,4028.258 L75,4287.279 L410.923,4341.346 L410.923,4484.552 L380.562,4484.552 L380.562,4749 L502.52,4749 L502.52,4484.552 L468.677,4484.552 L468.677,4294.856 L132.805,4240.789 L132.805,4086.063 L153.131,4086.063 L153.131,4173.717 L728.722,4173.717 L728.722,4086.063 L751.915,4086.063 L751.915,4028.258 L728.722,4028.258 L728.722,4028.258 Z M698.872,4154.978 C698.872,4154.978 687.813,4151.036 679.365,4113.045 C671.89,4079.356 636.05,4087.496 618.539,4095.791 C606.2,4101.781 581.112,4120.52 581.112,4073.365 C581.112,4026.108 550.239,4056.981 528.479,4039.112 C506.565,4021.141 518.239,4003.375 508.562,3995.183 C488.594,3978.184 434.475,3970.709 434.475,3970.709 L698.872,3970.709 L698.872,4154.978 L698.872,4154.978 Z" id="装修"></path>
        </g>
    </g>
</svg>