<?xml version="1.0" encoding="UTF-8" standalone="no"?>
<svg width="38px" height="63px" viewBox="0 0 38 63" version="1.1" xmlns="http://www.w3.org/2000/svg" xmlns:xlink="http://www.w3.org/1999/xlink">
    <!-- Generator: Sketch 39.1 (31720) - http://www.bohemiancoding.com/sketch -->
    <title>Group</title>
    <desc>Created with Sketch.</desc>
    <defs></defs>
    <g id="Page-1" stroke="none" stroke-width="1" fill="none" fill-rule="evenodd">
        <g id="Artboard-2" transform="translate(-691.000000, -2547.000000)" fill="#9C7BB7">
            <g id="draw_1146917_easyicon.net" transform="translate(691.000000, 2547.000000)">
                <g id="Capa_1">
                    <g id="Group">
                        <path d="M35.6397778,52.8717 L36.0261111,48.258 L29.963,31.8612 L33.326,31.8612 L33.326,34.5051 L34.9663333,34.5051 L34.9663333,27.5856 L33.326,27.5856 L33.326,30.2316 L29.3613333,30.2316 L25.4325556,19.6077 C25.8526667,18.6669 26.0912222,17.6337 26.0912222,16.5396 C26.0912222,12.6798 23.2032222,9.5361 19.4686667,9.03 L19.4686667,0 L17.4145556,0 L17.4145556,9.03 C13.68,9.5319 10.7898889,12.6798 10.7898889,16.5396 C10.7898889,18.0831 11.2564444,19.5153 12.0544444,20.7144 L8.53522222,30.2295 L4.41011111,30.2295 L4.41011111,27.5835 L2.76766667,27.5835 L2.76766667,34.503 L4.41011111,34.503 L4.41011111,31.8591 L7.93355556,31.8591 L1.87044444,48.2559 L2.25677778,52.8696 L0,62.8635 L5.073,54.0225 L8.71888889,50.6247 L18.9472222,24.5847 L29.1776667,50.6247 L32.8214444,54.0225 L37.8944444,62.8635 L35.6397778,52.8717 L35.6397778,52.8717 Z M18.5608889,21.8148 C15.6412222,21.8148 13.2704444,19.4628 13.2704444,16.5522 C13.2704444,13.65 15.6412222,11.2959 18.5608889,11.2959 C21.4826667,11.2959 23.8513333,13.65 23.8513333,16.5522 C23.8513333,19.4628 21.4826667,21.8148 18.5608889,21.8148 L18.5608889,21.8148 Z" id="Shape"></path>
                        <ellipse id="Oval" cx="18.5608889" cy="16.6278" rx="2.60511111" ry="2.5914"></ellipse>
                    </g>
                </g>
            </g>
        </g>
    </g>
</svg>