<?xml version="1.0" encoding="UTF-8" standalone="no"?>
<svg width="765px" height="776px" viewBox="0 0 765 776" version="1.1" xmlns="http://www.w3.org/2000/svg" xmlns:xlink="http://www.w3.org/1999/xlink">
    <!-- Generator: Sketch 40.3 (33839) - http://www.bohemiancoding.com/sketch -->
    <title>死亡</title>
    <desc>Created with Sketch.</desc>
    <defs></defs>
    <g id="Page-1" stroke="none" stroke-width="1" fill="none" fill-rule="evenodd">
        <g id="Artboard-2" transform="translate(-1120.000000, -3071.000000)" fill="#3EC1AF">
            <g id="死亡" transform="translate(1120.000000, 3071.000000)">
                <path d="M357.996,1.458 C429.88,-3.985 503.397,16.607 558.843,55.407 C614.985,97.316 648.213,161.118 641.399,224.626 C637.843,292.968 586.426,356.671 516.576,389.822 C515.816,415.732 516.779,441.642 516.252,467.552 C514.323,481.165 499.637,492.211 483.063,490.871 C414.652,491.11 346.201,490.871 277.737,490.986 C263.661,490.389 251.907,481.716 248.907,470.086 C247.005,443.349 249.096,416.501 247.998,389.755 C192.523,364.43 154.462,317.791 132.935,268.505 C122.333,231.126 119.971,191.569 132.473,154.256 C154.218,91.037 213.086,37.739 286.94,16.117 C309.253,7.119 334.161,5.812 357.996,1.458 L357.996,1.458 Z M254.498,176.416 C239.892,179.453 226.998,186.649 217.157,196.207 C204.398,210.885 205.85,230.963 211.062,247.647 C221.825,266.624 246.692,280.902 272.237,277.04 C295.447,276.054 317.954,262.063 324.4,242.915 C328.241,227.433 328.202,209.385 315.903,196.458 C301.857,181.161 277.342,172.234 254.498,176.416 L254.498,176.416 Z M491.179,176.335 C462.2,181.172 438.799,205.075 441.839,230.366 C443.51,255.691 471.078,278.677 501.577,277.2 C524.775,278.885 549.22,266.658 558.151,248.426 C571.142,229.884 562.523,206.887 548.324,190.752 C532.199,180.577 512.029,171.753 491.179,176.335 L491.179,176.335 Z" id="Fill-1"></path>
                <path d="M62.947,455.15 C85.479,458.346 103.586,474.86 98.7,495.384 C191.339,524.733 284.848,552.634 377.881,581.294 C385.171,584.308 392.175,578.9 399.177,577.673 C487.936,549.84 577.563,523.667 666.021,495.373 C660.129,475.826 679.392,456.08 702.562,455.485 C722.785,457.309 741.327,471.402 740.146,489.439 C741.11,498.424 732.151,504.692 728.759,512.437 C753.246,510.845 771.46,533.958 761.702,552.924 C752.297,579.12 698.191,581.63 691.485,553.451 C624.311,573.412 557.407,594.591 490.325,614.977 C545.487,633.471 601.901,649.284 657.483,666.853 C665.914,668.113 673.446,674.233 682.255,673.373 C692.666,658.912 716.868,649.72 734.486,661.226 C760.763,673.177 758.863,711.606 728.798,718.505 C706.39,715.708 726.924,726.136 728.595,733.378 C739.074,755.792 709.103,781.256 682.173,774.128 C663.443,767.161 649.216,749.239 656.654,731.959 C581.864,709.199 507.075,686.573 432.501,663.312 C414.528,659.221 398.025,650.776 379.469,648.621 C289.329,676.892 198.52,704.342 108.066,732.004 C113.848,749.446 101.794,767.458 82.277,773.921 C63.519,778.322 39.982,768.671 35.285,751.851 C29.747,740.23 37.402,728.611 45.032,719.306 C16.609,720.98 2.994,690.819 15.739,672.466 C23.896,664.284 34.796,655.564 48.505,656.424 C64.603,653.57 74.432,668.296 85.452,673.624 C148.189,653.834 211.931,635.798 274.234,614.964 C207.778,594.418 141.213,573.929 74.662,553.772 C66.681,560.877 60.221,571.981 47.23,572.785 C23.341,578.915 -3.304,559.055 0.863,538.246 C2.424,524.552 16.392,511.225 33.739,512.45 C34.064,508.302 30.359,505.232 28.512,501.68 C14.816,481.3 36.235,455.23 62.947,455.15" id="Fill-2"></path>
            </g>
        </g>
    </g>
</svg>