<?xml version="1.0" encoding="UTF-8" standalone="no"?>
<svg width="64px" height="72px" viewBox="0 0 64 72" version="1.1" xmlns="http://www.w3.org/2000/svg" xmlns:xlink="http://www.w3.org/1999/xlink">
    <!-- Generator: Sketch 39.1 (31720) - http://www.bohemiancoding.com/sketch -->
    <title>Capa_1</title>
    <desc>Created with Sketch.</desc>
    <defs></defs>
    <g id="Page-1" stroke="none" stroke-width="1" fill="none" fill-rule="evenodd">
        <g id="Artboard-2" transform="translate(-676.000000, -2551.000000)" fill="#9C7BB7">
            <g id="disabled_1154271_easyicon.net" transform="translate(676.000000, 2551.000000)">
                <g id="Capa_1">
                    <path d="M40.1754167,60.9230769 L46.39375,63.9858462 C41.47,68.724 34.8291667,71.6261538 27.5275,71.6261538 C12.3202083,71.6261538 0,59.0732308 0,43.5793846 C0,34.7621538 3.99479167,26.9003077 10.245625,21.7606154 L14.2783333,26.6981538 C9.41145833,30.6636923 6.29416667,36.7476923 6.29416667,43.5793846 C6.29416667,55.5341538 15.7977083,65.2098462 27.5275,65.2098462 C32.2697917,65.2098462 36.6383333,63.6064615 40.1754167,60.9230769 L40.1754167,60.9230769 Z M61.7445833,59.364 L55.534375,59.4332308 L47.3633333,36.6867692 L25.2091667,36.6590769 L24.9491667,32.3556923 L40.235,32.2421538 L40.3704167,26.4073846 L24.6295833,26.4073846 L23.6897917,13.2701538 C22.725625,13.8683077 21.6152083,14.2283077 20.4072917,14.2283077 C19.5,14.2283077 18.6495833,14.0316923 17.8695833,13.6910769 C18.2704167,17.7175385 18.4085417,22.7464615 18.63875,25.8646154 C19.045,31.4335385 19.48375,36.9941538 19.74375,42.4966154 L43.3929167,42.6378462 L51.8916667,64.872 L63.7595833,64.7889231 C63.765,64.7889231 64.7291667,59.364 61.7445833,59.364 L61.7445833,59.364 Z M17.606875,12.3756923 C18.3841667,12.7190769 19.24,12.9156923 20.1391667,12.9156923 C21.3470833,12.9156923 22.4629167,12.5529231 23.424375,11.9575385 C25.2497917,10.8304615 26.4820833,8.78953846 26.4820833,6.45784615 C26.479375,2.89938462 23.6383333,0 20.1364583,0 C16.6372917,0 13.8016667,2.89938462 13.8016667,6.45784615 C13.8016667,9.10523077 15.3697917,11.376 17.606875,12.3756923 L17.606875,12.3756923 Z" id="Shape"></path>
                </g>
            </g>
        </g>
    </g>
</svg>