<?xml version="1.0" encoding="UTF-8" standalone="no"?>
<svg width="94px" height="80px" viewBox="0 0 94 80" version="1.1" xmlns="http://www.w3.org/2000/svg" xmlns:xlink="http://www.w3.org/1999/xlink">
    <!-- Generator: Sketch 39.1 (31720) - http://www.bohemiancoding.com/sketch -->
    <title>explosion_1153866_easyicon.net</title>
    <desc>Created with Sketch.</desc>
    <defs></defs>
    <g id="Page-1" stroke="none" stroke-width="1" fill="none" fill-rule="evenodd">
        <g id="iPhone-6" transform="translate(-149.000000, -456.000000)" fill="#5382AF">
            <g id="explosion_1153866_easyicon.net" transform="translate(149.000000, 456.000000)">
                <g id="Layer_6">
                    <path d="M54.613,65.045 L58.064,61.471 L60.317,66.078 C60.317,66.078 57.377,78.639 53.519,79.201 C49.66,79.762 42.669,73.578 42.669,73.578 L44.304,70.424 L45.873,67.397 L48.898,66.963 L50.439,63.68 L54.46,63.032 L54.613,65.045 L54.613,65.045 Z M39.534,36.16 C36.408,40.707 32.43,41.56 32.43,41.56 L32.43,48.949 C32.43,48.949 32.697,50.533 38.828,49.119 C37.251,48.031 42.37,32.035 39.534,36.16 L39.534,36.16 Z M39.534,48.949 C39.289,49.01 39.055,49.064 38.827,49.119 C38.987,49.23 39.218,49.188 39.534,48.949 L39.534,48.949 Z M66.388,32.072 L61.5,26.916 C61.5,26.916 59.199,30.746 55.272,32.818 C59.637,32.988 62.789,35.482 62.789,35.482 L66.388,32.072 L66.388,32.072 Z M52.969,14.523 L51.671,13.152 C51.671,13.152 51.06,14.17 50.017,14.72 C51.177,14.765 52.014,15.427 52.014,15.427 L52.969,14.523 L52.969,14.523 Z M26.23,20.799 L24.932,19.43 C24.932,19.43 24.321,20.448 23.278,20.998 C24.437,21.043 25.274,21.705 25.274,21.705 L26.23,20.799 L26.23,20.799 Z M55.601,62.768 C55.601,62.768 55.488,62.471 55.579,62.135 C55.328,62.383 54.982,62.467 54.982,62.467 L55.256,62.959 L55.601,62.768 L55.601,62.768 Z M53.475,60.59 L53.98,61.5 L54.616,61.146 C54.616,61.146 54.407,60.595 54.575,59.978 C54.112,60.438 53.475,60.59 53.475,60.59 L53.475,60.59 Z M43.833,63.703 C44.992,63.746 45.829,64.41 45.829,64.41 L46.785,63.504 L45.487,62.135 C45.487,62.135 44.876,63.15 43.833,63.703 L43.833,63.703 Z M62.046,58.229 C61.708,58.676 61.274,58.93 61.002,59.059 L67.651,32.735 L62.77,37.362 L61.808,36.6 C61.796,36.59 61.678,36.5 61.472,36.364 L57.819,60.147 L58.065,61.471 L60.729,60.147 L60.835,59.729 L60.898,60.147 L62.308,59.93 C62.307,59.93 61.939,59.111 62.046,58.229 L62.046,58.229 Z M82.077,50.328 C79.616,53.937 75.83,55.287 75.83,55.287 L76.811,60.146 L83.775,58.74 C83.776,58.74 81.751,54.758 82.077,50.328 L82.077,50.328 Z M39.532,47.951 C39.429,47.879 39.313,47.826 39.193,47.793 L39.376,48.178 L39.532,47.951 L39.532,47.951 Z M11.589,26.916 L0.517,30.545 L42.382,67.027 L43.833,66.552 L11.589,26.916 L11.589,26.916 Z M40.112,34.063 C40.577,34.063 41.013,34.27 41.31,34.633 C41.86,35.303 41.847,36.213 41.372,38.772 L51.494,61.471 L52.988,61.471 L40.304,3.605 L29.115,11.277 L39.36,34.256 C39.58,34.141 39.827,34.063 40.112,34.063 L40.112,34.063 Z M75.728,0.764 L66.286,5.028 L62.984,26.522 L67.909,31.719 L75.728,0.764 L75.728,0.764 Z M93.483,32.537 L84.247,29.607 L61.654,64.277 L62.364,67.689 L74.104,54.427 L74.09,54.359 L74.197,54.322 L93.483,32.537 L93.483,32.537 Z M66.388,50.328 L75.83,31.199 L72.5,31.719 L66.388,50.328 L66.388,50.328 Z M24.09,26.84 L23.278,28.922 L31.908,38.629 L24.09,26.84 L24.09,26.84 Z M52.907,30.744 L54.453,16.68 L52.496,17.76 L52.907,30.744 L52.907,30.744 Z" id="Shape"></path>
                </g>
            </g>
        </g>
    </g>
</svg>