<?xml version="1.0" encoding="UTF-8" standalone="no"?>
<svg width="71px" height="53px" viewBox="0 0 71 53" version="1.1" xmlns="http://www.w3.org/2000/svg" xmlns:xlink="http://www.w3.org/1999/xlink">
    <!-- Generator: Sketch 39.1 (31720) - http://www.bohemiancoding.com/sketch -->
    <title>Group</title>
    <desc>Created with Sketch.</desc>
    <defs></defs>
    <g id="Page-1" stroke="none" stroke-width="1" fill="none" fill-rule="evenodd">
        <g id="Artboard-2" transform="translate(-947.000000, -1829.000000)" fill="#CA7CAC">
            <g id="Group-10" transform="translate(873.000000, 1773.000000)">
                <g id="house_1202372_easyicon.net" transform="translate(74.000000, 56.000000)">
                    <g id="Group">
                        <path d="M70.3490958,36.0640725 L59.1000599,27.991687 L59.1000599,24.7497863 C59.1000599,24.305355 58.8808952,23.8868168 58.5080389,23.619187 L36.3666677,7.73031298 C35.8360808,7.34960305 35.1052485,7.34960305 34.5746617,7.73031298 L12.4332904,23.619187 C12.0604341,23.8868168 11.8412695,24.305355 11.8412695,24.7497863 L11.8412695,27.991687 L0.592233533,36.0640725 C0.219377246,36.3317023 0.00021257485,36.7502405 0.00021257485,37.1946718 L0.00021257485,51.5010305 C0.00021257485,52.283084 0.666422156,52.9170611 1.48823653,52.9170611 L13.3292934,52.9170611 L25.1703503,52.9170611 L45.770979,52.9170611 L57.6120359,52.9170611 L69.4530928,52.9170611 C70.2749072,52.9170611 70.9411168,52.283084 70.9411168,51.5010305 L70.9411168,37.1946718 C70.9411168,36.7502405 70.7219521,36.3317023 70.3490958,36.0640725 L70.3490958,36.0640725 Z M37.0796437,50.0847977 L33.8614731,50.0847977 L33.8614731,42.9467901 L37.0796437,42.9467901 L37.0796437,50.0847977 L37.0796437,50.0847977 Z M40.0556916,50.0847977 L40.0556916,41.5307595 C40.0556916,40.7487061 39.389482,40.114729 38.5676677,40.114729 L32.3734491,40.114729 C31.5516347,40.114729 30.8854251,40.7487061 30.8854251,41.5307595 L30.8854251,50.0847977 L23.6821138,50.0847977 L14.8173174,50.0847977 L14.8173174,25.455374 L35.4706647,10.634187 L56.124012,25.455374 L56.124012,50.0847977 L47.259003,50.0847977 L40.0556916,50.0847977 L40.0556916,50.0847977 Z M2.97626048,37.9002595 L11.8412695,31.5386412 L11.8412695,50.0847977 L2.97626048,50.0847977 L2.97626048,37.9002595 L2.97626048,37.9002595 Z M67.9650689,50.0847977 L59.1000599,50.0847977 L59.1000599,31.5386412 L67.9650689,37.9002595 L67.9650689,50.0847977 L67.9650689,50.0847977 Z" id="Shape"></path>
                        <path d="M2.38402695,26.9598053 L35.4706647,3.21681679 L68.5570898,26.9600076 C68.8255719,27.1525878 69.1399701,27.2456412 69.4520299,27.2456412 C69.9029012,27.2456412 70.3486707,27.0512405 70.6411737,26.6820611 C71.1360479,26.0577939 71.0053144,25.1697405 70.3490958,24.6990115 L36.3666677,0.312740458 C35.8360808,-0.0679694656 35.1052485,-0.0679694656 34.5746617,0.312740458 L0.592233533,24.6988092 C-0.0639850299,25.1697405 -0.194718563,26.0575916 0.300155689,26.6818588 C0.794817365,27.3063282 1.72823353,27.4307366 2.38402695,26.9598053 L2.38402695,26.9598053 Z" id="Shape"></path>
                    </g>
                </g>
            </g>
        </g>
    </g>
</svg>