<?xml version="1.0" encoding="UTF-8" standalone="no"?>
<svg width="90px" height="58px" viewBox="0 0 90 58" version="1.1" xmlns="http://www.w3.org/2000/svg" xmlns:xlink="http://www.w3.org/1999/xlink">
    <!-- Generator: Sketch 39.1 (31720) - http://www.bohemiancoding.com/sketch -->
    <title>Group 5</title>
    <desc>Created with Sketch.</desc>
    <defs></defs>
    <g id="Page-1" stroke="none" stroke-width="1" fill="none" fill-rule="evenodd">
        <g id="Artboard-2" transform="translate(-125.000000, -459.000000)" stroke="#5382AF" stroke-width="4">
            <g id="Group-5" transform="translate(128.000000, 462.000000)">
                <path d="M18.4017241,13.6418037 C18.4017241,13.6418037 18.3683141,17.0722649 17.2886324,18.2666711 C16.2826781,19.3795159 13.0432059,19.6863361 11.4747162,20.9798321 C10.0285132,22.1724812 10.2071986,24.4 10.2071986,24.4" id="Line" stroke-linecap="square" transform="translate(14.300954, 19.020902) scale(-1, 1) translate(-14.300954, -19.020902) "></path>
                <path d="M5.83153612,45.3684637 C5.83153612,45.3684637 7.29419397,47.8423915 7.02284274,48.9768659 C6.69509808,50.3471119 4.26754261,51.421025 4.03424845,52.8826248 C3.80095428,54.3442246 5.83153618,56.4404623 5.83153618,56.4404623" id="Line" stroke-linecap="square" transform="translate(5.535999, 50.904463) rotate(90.000000) translate(-5.535999, -50.904463) "></path>
                <path d="M80.3021203,46.3895025 C80.3021203,46.3895025 81.0615932,47.6708011 80.3021203,49.2545777 C79.6990762,50.5121434 77.5406876,52.076683 77.5406876,52.5138509 C77.5406876,53.7927811 79.3384991,55.9138508 79.3384991,55.9138508" id="Line" stroke-linecap="square" transform="translate(79.090176, 51.151677) rotate(90.000000) translate(-79.090176, -51.151677) "></path>
                <path d="M76.3980661,14.4 C76.3980661,14.4 73.602344,14.8374771 72.7689955,15.7593754 C71.7326367,16.9058554 71.3186683,21.2344381 70.2673786,23.0271257 C69.1074506,25.0050663 66.9210049,25.6274151 66.9210049,25.6274151" id="Line" stroke-linecap="square"></path>
                <path d="M69.3494367,51.8069766 C68.2477341,34.8985837 56.7560616,21.6 42.7421371,21.6 C28.7282126,21.6 17.2365401,34.8985837 16.1348375,51.8069766 L69.3494367,51.8069766 Z" id="Combined-Shape" fill="#FFFFFF"></path>
                <path d="M42.5,0.4 C42.5,0.4 40.7470241,2.35694204 40.7470241,4.6973175 C40.7470241,5.82321391 43.0261244,8.61831507 43.4758022,10.94568 C43.9019816,13.151426 42.5000001,14.9238466 42.5000001,14.9238466" id="Line" stroke-linecap="square"></path>
            </g>
        </g>
    </g>
</svg>