<?xml version="1.0" encoding="UTF-8" standalone="no"?>
<svg width="443px" height="162px" viewBox="0 0 443 162" version="1.1" xmlns="http://www.w3.org/2000/svg" xmlns:xlink="http://www.w3.org/1999/xlink">
    <!-- Generator: Sketch 40.3 (33839) - http://www.bohemiancoding.com/sketch -->
    <title>Shape</title>
    <desc>Created with Sketch.</desc>
    <defs></defs>
    <g id="Page-1" stroke="none" stroke-width="1" fill="none" fill-rule="evenodd">
        <g id="Artboard-2" transform="translate(-329.000000, -3827.000000)" fill="#3EC1AF">
            <g id="heart_with_wings_1199584_easyicon.net" transform="translate(329.000000, 3827.000000)">
                <g id="Capa_1">
                    <path d="M442.771,68.364 C442.376,66.712 441.3,65.305 439.809,64.492 C439.221,64.172 380.71,32.27 351.992,17.601 C324.214,3.413 304.725,11.577 295.944,17.309 C288.74,9.454 279.365,3.909 268.853,1.815 C251.07,-1.726 233.865,5.357 221.468,20.922 C209.073,5.356 191.871,-1.73 174.083,1.815 C163.571,3.909 154.196,9.456 146.992,17.309 C138.215,11.578 118.731,3.409 90.944,17.601 C62.225,32.27 3.715,64.171 3.127,64.492 C1.636,65.306 0.56,66.713 0.164,68.364 C-0.231,70.015 0.093,71.758 1.055,73.157 C7.338,82.302 22.089,95.584 40.985,95.582 C43.118,95.582 45.306,95.403 47.54,95.039 C50.478,98.919 56.056,104.527 65.224,107.514 C69.45,108.891 73.957,109.578 78.739,109.578 C82.446,109.578 86.319,109.159 90.347,108.334 C93.129,111.479 98.076,116.008 105.485,119.05 C109.906,120.865 115.596,122.289 122.567,122.289 C131.527,122.289 142.612,119.915 155.823,113.017 C168.831,128.424 188.647,144.958 218.578,161.285 C219.49,161.782 220.474,162.018 221.446,162.018 L221.47,161.922 L221.494,162.018 C222.466,162.018 223.45,161.782 224.362,161.285 C254.29,144.959 274.106,128.427 287.113,113.019 C300.328,119.92 311.409,122.289 320.371,122.289 C327.341,122.289 333.033,120.864 337.453,119.05 C344.849,116.013 349.801,111.484 352.591,108.333 C356.619,109.159 360.493,109.578 364.201,109.578 C368.981,109.578 373.491,108.89 377.716,107.514 C386.88,104.53 392.456,98.924 395.396,95.045 C397.629,95.409 399.819,95.588 401.954,95.588 C420.842,95.587 435.6,82.303 441.883,73.157 C442.843,71.758 443.166,70.015 442.771,68.364 L442.771,68.364 Z M103.615,104.341 C108.217,102.552 112.983,100.315 117.916,97.609 C120.821,96.014 121.885,92.368 120.291,89.463 C118.697,86.557 115.047,85.495 112.145,87.088 C95.021,96.484 80.178,99.631 69.217,96.193 C65.16,94.92 62.176,92.931 60.053,91.026 C60.078,91.013 60.105,91.004 60.131,90.991 L95.424,73.714 C98.401,72.257 99.632,68.663 98.175,65.688 C96.718,62.711 93.125,61.477 90.149,62.937 L54.878,80.203 C36.575,89.068 22.202,78.492 15.336,71.514 C31.401,62.785 73.485,39.996 96.404,28.291 C118.401,17.054 133.324,22.907 139.898,27.003 C136.416,33.033 133.978,39.833 132.868,47.11 C131.219,57.917 131.402,78.686 148.398,103.335 C124.999,114.917 110.794,109.637 103.615,104.341 L103.615,104.341 Z M221.469,149.169 C145.001,106.483 142.286,64.934 144.73,48.917 C147.462,31.015 160.2,16.815 176.427,13.585 C191.874,10.508 206.408,18.132 216.318,34.495 L216.347,34.477 C216.833,35.288 217.516,35.995 218.38,36.519 C221.218,38.234 224.904,37.329 226.62,34.495 C236.53,18.132 251.069,10.516 266.51,13.584 C282.738,16.815 295.476,31.015 298.207,48.917 C300.652,64.933 297.937,106.482 221.469,149.169 L221.469,149.169 Z M388.081,80.213 L352.788,62.936 C349.811,61.478 346.218,62.711 344.762,65.687 C343.305,68.663 344.536,72.256 347.513,73.713 L382.828,91.002 C382.846,91.011 382.863,91.018 382.881,91.025 C380.806,92.886 377.905,94.831 373.998,96.103 C363.012,99.681 348.07,96.566 330.794,87.086 C327.892,85.493 324.241,86.556 322.647,89.461 C321.053,92.366 322.117,96.013 325.022,97.607 C329.943,100.306 334.698,102.54 339.29,104.327 C337.561,105.61 335.454,106.896 332.895,107.947 C322.452,112.233 309.285,110.599 294.549,103.316 C311.535,78.673 311.718,57.911 310.07,47.106 C308.96,39.832 306.524,33.035 303.044,27.005 C309.6,22.941 324.563,17.066 346.532,28.287 C369.451,39.992 411.535,62.781 427.6,71.51 C420.731,78.496 406.365,89.06 388.081,80.213 L388.081,80.213 Z" id="Shape"></path>
                </g>
            </g>
        </g>
    </g>
</svg>