<?xml version="1.0" encoding="UTF-8" standalone="no"?>
<svg width="76px" height="80px" viewBox="0 0 76 80" version="1.1" xmlns="http://www.w3.org/2000/svg" xmlns:xlink="http://www.w3.org/1999/xlink">
    <!-- Generator: Sketch 39.1 (31720) - http://www.bohemiancoding.com/sketch -->
    <title>Layer_6</title>
    <desc>Created with Sketch.</desc>
    <defs></defs>
    <g id="Page-1" stroke="none" stroke-width="1" fill="none" fill-rule="evenodd">
        <g id="Artboard-2" transform="translate(-438.000000, -1792.000000)" fill="#CA7CAC">
            <g id="castle_1153825_easyicon.net" transform="translate(438.000000, 1792.000000)">
                <g id="Layer_6">
                    <path d="M75.861,79.586 L75.861,35.252 L75.861,24.284 L70.902,24.284 L70.902,31.234 L66.991,31.234 L66.991,13.746 L46.106,13.746 L46.106,31.234 L40.383,31.234 L40.383,24.284 L35.424,24.284 L35.424,31.234 L29.797,31.234 L29.797,13.174 L8.913,13.174 L8.913,31.235 L5.097,31.235 L5.097,24.285 L0.139,24.285 L0.139,35.253 L0.173,79.587 L28.073,79.587 L28.073,63.572 C28.073,58.037 32.559,53.55 38.094,53.55 C43.629,53.55 48.115,58.037 48.115,63.572 L48.115,79.586 L75.861,79.586 L75.861,79.586 Z M25.06,31.246 L13.65,31.246 L13.65,25.745 C13.65,22.595 16.204,20.04 19.355,20.04 C22.505,20.04 25.059,22.595 25.059,25.745 L25.059,31.246 L25.06,31.246 Z M50.559,25.745 C50.559,22.595 53.113,20.04 56.263,20.04 C59.414,20.04 61.968,22.595 61.968,25.745 L61.968,31.246 L50.559,31.246 L50.559,25.745 L50.559,25.745 Z M30.685,11.743 L8.026,11.743 L19.355,0.414 L30.685,11.743 L30.685,11.743 Z M67.592,11.743 L44.934,11.743 L56.263,0.414 L67.592,11.743 L67.592,11.743 Z" id="Shape"></path>
                </g>
            </g>
        </g>
    </g>
</svg>