<?xml version="1.0" encoding="UTF-8" standalone="no"?>
<svg width="70px" height="52px" viewBox="0 0 70 52" version="1.1" xmlns="http://www.w3.org/2000/svg" xmlns:xlink="http://www.w3.org/1999/xlink">
    <!-- Generator: Sketch 39.1 (31720) - http://www.bohemiancoding.com/sketch -->
    <title>Shape</title>
    <desc>Created with Sketch.</desc>
    <defs></defs>
    <g id="Page-1" stroke="none" stroke-width="1" fill="none" fill-rule="evenodd">
        <g id="Artboard-4" transform="translate(-489.000000, -49.000000)" fill="#CA7CAC">
            <g id="gym_1162459_easyicon.net-2" transform="translate(489.000000, 49.000000)">
                <g id="Layer_1">
                    <path d="M69.957671,31.3199841 C69.9553194,30.6756432 69.4262074,30.1488828 68.7818665,30.1488828 L68.7795149,30.1488828 L64.370248,30.1606408 L64.3584899,25.7537255 C64.3561383,25.107033 63.8270263,24.5802726 63.1826854,24.5802726 L63.1803338,24.5802726 L54.5640384,24.6037887 C54.2512744,24.6061403 53.95262,24.7307756 53.7315688,24.9494752 C53.5081659,25.1728781 53.3882338,25.4715324 53.3882338,25.7819448 L53.4117499,33.5469578 L42.5684807,33.5728255 C42.8106964,33.1354262 43.0858347,32.7191914 43.2951279,32.2629793 C44.9294962,28.7308625 45.6232208,24.7989722 45.303402,20.8976529 C44.8636511,15.5689068 42.5402614,10.5529248 38.7588741,6.76683423 C37.9240529,5.92966142 37.0186834,5.18890458 36.082743,4.50223474 C36.0145464,4.43638969 35.9369433,4.3870059 35.854637,4.33762211 C32.0520852,1.6238653 27.5228862,0.14 22.7585263,0.14 C16.7195943,0.14 11.0381069,2.49396063 6.7628817,6.76448262 C-1.0021313,14.527144 -1.92396204,26.5697338 3.97152179,35.3600484 L3.97152179,35.3835645 C4.0538281,35.6492963 4.22314395,35.8562379 4.43949198,36.0043892 C5.13791986,36.9638457 5.89043475,37.9021377 6.75582687,38.7651782 C10.7441558,42.7511555 15.9905955,45.0510292 21.5944798,45.3355739 C21.8108279,45.533109 22.0859661,45.6506895 22.3799172,45.6506895 L22.3799172,45.6506895 L26.7891842,45.6389314 L26.7985906,50.0434951 C26.8032938,50.687836 27.3300542,51.216948 27.9743951,51.216948 L27.9790983,51.216948 L36.5953938,51.1934319 C36.9081578,51.1934319 37.2068121,51.0687967 37.4278634,50.850097 C37.6489146,50.6266942 37.7711983,50.3280398 37.7711983,50.0176274 L37.7476822,42.2526144 L53.4423209,42.2079339 L53.4658369,49.9729469 C53.4681886,50.6196393 53.994949,51.1440482 54.6416415,51.1440482 L54.6439931,51.1440482 L63.2579369,51.1205321 C63.5730525,51.1205321 63.8717069,50.9958968 64.0904065,50.7771971 C64.3138094,50.5561459 64.4337414,50.2574915 64.4337414,49.9447275 L64.424335,45.5354606 L68.8241955,45.5260542 C69.1369595,45.5260542 69.4356138,45.3990673 69.6566651,45.1803677 C69.8777163,44.961668 70,44.6606621 70,44.3478981 L69.957671,31.3199841 L69.957671,31.3199841 Z M41.1575153,31.2823583 C40.7906643,32.0772022 40.353265,32.8438267 39.8876464,33.5845836 L37.7194629,33.59399 L37.6982984,26.6637982 C37.7100565,26.6496885 37.7265177,26.6449853 37.7406274,26.6308757 C39.8547239,23.8771415 41.3738633,21.5067196 42.650787,18.9364109 C42.789532,19.6513001 42.897706,20.3685408 42.9588478,21.0975396 C43.2480957,24.5920306 42.6225677,28.1123894 41.1575153,31.2823583 L41.1575153,31.2823583 Z M2.55350154,24.0699734 C7.33432269,22.3815182 11.8682249,19.5243132 15.6942928,15.7005969 C19.8519375,11.5429522 22.5210138,7.35238488 24.1036467,2.55745408 C27.6051925,2.78791176 30.9327193,3.88846479 33.8322532,5.78621327 C31.7651889,11.646423 27.9438242,17.5701261 22.9654679,22.5531856 C17.8107409,27.7079126 11.6895026,31.5927707 5.64116419,33.6104513 C3.7927995,30.6944561 2.76984957,27.404555 2.55350154,24.0699734 L2.55350154,24.0699734 Z M8.42076606,8.43177342 C11.9834537,4.87378897 16.6302332,2.8231859 21.6179959,2.55039925 C20.1247242,6.68687953 17.7002153,10.3694993 14.0246504,14.0427126 C10.6571462,17.4102167 6.70879469,19.9476028 2.54409511,21.5490486 C2.83569463,16.770579 4.78047529,12.0744158 8.42076606,8.43177342 L8.42076606,8.43177342 Z M7.06859087,35.6093189 C13.2321581,33.4176193 19.4074834,29.4363452 24.6280555,24.2204764 C29.7357503,19.11043 33.5618182,13.276088 35.7981983,7.26067213 C36.2403008,7.63457796 36.6800517,8.01789023 37.0915833,8.43412503 C39.1045606,10.449454 40.6495678,12.8645564 41.6560564,15.4866005 C41.6419468,15.5148198 41.6160791,15.5359843 41.6066726,15.561852 C40.2544974,18.7835564 38.6671613,21.4714455 36.2661685,24.6555241 L27.9014952,24.674337 C27.5863796,24.6766886 27.2877253,24.8013238 27.0690256,25.0200235 C26.8479744,25.2387231 26.7256907,25.5420807 26.7256907,25.8524931 L26.7374488,30.2594084 L22.3375883,30.2735181 C21.6908958,30.2735181 21.1617838,30.8026301 21.1641354,31.4540258 L21.1852999,38.1420018 C19.0100615,39.4048159 16.7854394,40.4606883 14.544356,41.2978612 C12.2891629,40.2960757 10.2126921,38.8968683 8.42076606,37.1049423 C7.93868621,36.6205108 7.4918805,36.1196181 7.06859087,35.6093189 L7.06859087,35.6093189 Z M21.1970579,42.9604487 C20.0800436,42.8757908 18.988897,42.7017718 17.9142117,42.4383915 C19.0194679,41.942202 20.1082629,41.3942771 21.1970579,40.8040233 L21.1970579,42.9604487 L21.1970579,42.9604487 Z M23.5533701,43.2920256 L23.5204476,32.6227755 L26.7468552,32.613369 L26.7821293,43.2849708 L23.5533701,43.2920256 L23.5533701,43.2920256 Z M29.147848,48.8582842 L29.0843546,27.0212428 L35.349041,27.0047815 L35.4125345,48.8441745 L29.147848,48.8582842 L29.147848,48.8582842 Z M37.7359242,39.8986538 L37.7265177,35.9385442 L53.4211564,35.8985668 L53.4305628,39.8563248 L37.7359242,39.8986538 L37.7359242,39.8986538 Z M55.8080395,48.7900875 L55.7445461,26.9553977 L62.0092325,26.9365848 L62.072726,48.7736263 L55.8080395,48.7900875 L55.8080395,48.7900875 Z M64.412577,43.1815 L64.3773028,32.5122498 L67.6084136,32.5028434 L67.6366329,43.1744452 L64.412577,43.1815 L64.412577,43.1815 Z" id="Shape"></path>
                </g>
            </g>
        </g>
    </g>
</svg>