<?xml version="1.0" encoding="UTF-8" standalone="no"?>
<svg width="251px" height="226px" viewBox="0 0 251 226" version="1.1" xmlns="http://www.w3.org/2000/svg" xmlns:xlink="http://www.w3.org/1999/xlink">
    <!-- Generator: Sketch 39.1 (31720) - http://www.bohemiancoding.com/sketch -->
    <title>Capa_1</title>
    <desc>Created with Sketch.</desc>
    <defs></defs>
    <g id="Page-1" stroke="none" stroke-width="1" fill="none" fill-rule="evenodd">
        <g id="Artboard-4" transform="translate(-458.000000, -464.000000)" fill="#5382AF">
            <g id="phantom_1195664_easyicon.net" transform="translate(458.000000, 464.000000)">
                <g id="Capa_1">
                    <g id="Group">
                        <path d="M245.517,39.537 C233.984,9.025 198.918,-7.854 168.535,5.568 C130.56,22.344 139.67,64.412 120.54,94.117 C120.213,92.083 119.887,90.049 119.514,88.027 C113.815,57.16 93.694,24.699 57.818,30.775 C-19.735,43.91 -9.558,177.192 31.685,221.264 C33.343,224.686 37.14,226.341 41.13,225.094 C45.148,223.838 47.376,220.487 48.774,216.749 C50.621,221.602 53.888,225.804 59.785,225.297 C65.086,224.841 67.901,221.096 69.371,216.639 C70.325,220.417 73.028,223.533 77.54,224.284 C83.624,225.296 87.653,221.397 90.423,216.617 C91.484,219.912 93.516,222.772 97.034,224.073 C102.146,225.963 107.669,223.589 109.414,218.515 C109.509,218.239 109.537,217.975 109.515,217.728 C112.455,209.874 114.949,201.855 116.967,193.702 C117.212,193.807 117.473,193.896 117.784,193.914 C156.07,196.076 201.274,174.925 224.308,144.149 C244.805,116.76 258.098,72.822 245.517,39.537 L245.517,39.537 Z M104.334,218.034 C104.259,218.227 104.271,218.392 104.246,218.57 C101.321,221.191 96.613,219.675 94.755,215.677 C93.738,213.487 93.665,211.173 93.783,208.794 C93.909,206.28 90.353,206.058 89.597,208.227 C88.482,211.428 87.284,215.262 84.812,217.708 C78.864,223.59 70.307,218.743 72.028,209.467 C72.198,208.552 71.493,208.055 70.806,208.087 C70.811,207.98 70.825,207.864 70.828,207.758 C70.924,205.093 66.925,205.152 66.721,207.758 C66.284,213.356 62.416,225.302 54.761,218.941 C51.849,216.521 51.324,212.521 50.593,209.019 C50.23,207.277 47.317,207.208 47.003,209.019 C46.61,211.292 46.247,213.518 45.374,215.673 C45.121,216.961 44.549,218.079 43.66,219.029 C41.779,222.37 38.624,222.577 34.222,219.713 C-1.738,176.932 -17.339,42.514 61.491,34.963 C141.118,27.335 120.493,175.974 104.334,218.034 L104.334,218.034 Z M220.286,141.423 C198.001,170.888 154.873,190.843 118,189.336 C124.705,159.736 125.518,128.672 121.225,98.649 C137.602,78.307 134.121,51.339 147.199,29.626 C170.49,-9.042 226.653,2.077 241.177,41.677 C252.884,73.597 240.013,115.341 220.286,141.423 L220.286,141.423 Z" id="Shape"></path>
                        <path d="M197.729,34.346 C197.693,33.349 196.424,32.909 195.775,33.426 C195.492,33.371 195.182,33.36 194.847,33.418 C185.801,34.986 173.317,39.154 167.516,46.834 C162.62,53.316 163.609,62.93 170.304,67.85 C188.319,81.087 198.162,46.18 197.729,34.346 L197.729,34.346 Z" id="Shape"></path>
                        <path d="M232.675,66.819 C231.013,55.113 224.115,44.995 214.155,38.77 C213.098,38.11 212.121,38.445 211.501,39.147 C211.162,39.219 210.85,39.409 210.648,39.755 C204.547,50.211 199.533,64.927 203.319,77.041 C205.919,85.359 214.445,92.448 223.521,89.463 C232.768,86.423 233.843,75.042 232.675,66.819 L232.675,66.819 Z" id="Shape"></path>
                        <path d="M74.51,56.866 C74.187,56.696 73.887,56.663 73.603,56.681 C72.736,55.533 70.742,55.157 69.67,56.734 C60.029,70.915 52.632,121.573 83.826,114.868 C114.118,108.358 91.02,65.567 74.51,56.866 L74.51,56.866 Z" id="Shape"></path>
                        <path d="M54.066,59.431 C53.895,58.383 52.756,58.193 51.976,58.615 C51.341,58.201 50.531,58.078 49.676,58.603 C39.114,65.096 27.16,67.009 22.051,79.727 C18.714,88.035 19.802,98.991 28.477,103.584 C50.84,115.422 56.116,71.992 54.066,59.431 L54.066,59.431 Z" id="Shape"></path>
                        <path d="M61.194,118.4 C50.607,113.173 38.179,116.016 30.928,124.766 C28.091,126.674 25.598,128.936 25.082,132.51 C24.477,136.7 26.877,140.152 31.137,140.957 C39.148,142.471 44.541,132.012 52.214,133.367 C58.007,134.389 62.418,143.341 69.113,140.613 C81.084,135.732 66.94,121.237 61.194,118.4 L61.194,118.4 Z" id="Shape"></path>
                        <path d="M196.171,88.434 C186.546,81.575 168.079,84.531 161.473,94.559 C161.421,94.606 161.362,94.623 161.312,94.678 C158.495,97.807 158.149,101.749 160.657,105.303 C164.079,110.151 170.459,110.118 175.743,109.371 C177.897,109.067 179.983,108.489 182.177,108.465 C188.698,108.396 191.676,114.011 194.423,119.164 C195.607,121.383 196.496,123.662 198.641,125.182 C201.86,127.462 206.686,127.578 209.25,124.234 C216.956,114.181 204.315,94.237 196.171,88.434 L196.171,88.434 Z" id="Shape"></path>
                    </g>
                </g>
            </g>
        </g>
    </g>
</svg>