<?xml version="1.0" encoding="UTF-8" standalone="no"?>
<svg width="633px" height="526px" viewBox="0 0 633 526" version="1.1" xmlns="http://www.w3.org/2000/svg" xmlns:xlink="http://www.w3.org/1999/xlink">
    <!-- Generator: Sketch 40.3 (33839) - http://www.bohemiancoding.com/sketch -->
    <title>雾霾</title>
    <desc>Created with Sketch.</desc>
    <defs></defs>
    <g id="Page-1" stroke="none" stroke-width="1" fill="none" fill-rule="evenodd">
        <g id="Artboard-2" transform="translate(0.000000, -2831.000000)" fill="#E4C04E">
            <g id="雾霾" transform="translate(-85.000000, 2831.000000)">
                <path d="M701.952,32.407 L16.847,32.407 C8.007,32.407 0.84,25.284 0.84,16.443 C0.84,7.603 8.007,0.48 16.847,0.48 L701.953,0.48 C710.793,0.48 717.96,7.603 717.96,16.443 C717.96,25.284 710.792,32.407 701.952,32.407" id="Fill-1"></path>
                <path d="M701.952,525.231 L16.847,525.231 C8.007,525.231 0.84,518.107 0.84,509.268 C0.84,500.428 8.007,493.304 16.847,493.304 L701.953,493.304 C710.793,493.304 717.96,500.428 717.96,509.268 C717.959,518.108 710.792,525.231 701.952,525.231" id="Fill-2"></path>
                <path d="M180.119,165.027 L72.872,165.027 C64.032,165.027 56.865,157.904 56.865,149.064 C56.865,140.223 64.032,133.1 72.872,133.1 L180.12,133.1 C188.96,133.1 196.127,140.223 196.127,149.064 C196.127,157.904 188.96,165.027 180.119,165.027" id="Fill-3"></path>
                <path d="M417.025,165.027 L309.777,165.027 C300.938,165.027 293.77,157.904 293.77,149.064 C293.77,140.223 300.938,133.1 309.777,133.1 L417.026,133.1 C425.865,133.1 433.032,140.223 433.032,149.064 C433.032,157.904 425.865,165.027 417.025,165.027" id="Fill-4"></path>
                <path d="M655.532,165.027 L548.284,165.027 C539.444,165.027 532.277,157.904 532.277,149.064 C532.277,140.223 539.444,133.1 548.284,133.1 L655.532,133.1 C664.372,133.1 671.539,140.223 671.539,149.064 C671.539,157.904 664.372,165.027 655.532,165.027" id="Fill-5"></path>
                <path d="M180.119,405.709 L72.872,405.709 C64.032,405.709 56.865,398.176 56.865,389.336 C56.865,380.496 64.032,372.963 72.872,372.963 L180.12,372.963 C188.96,372.963 196.127,380.496 196.127,389.336 C196.127,398.177 188.96,405.709 180.119,405.709" id="Fill-6"></path>
                <path d="M417.025,405.709 L309.777,405.709 C300.938,405.709 293.77,398.176 293.77,389.336 C293.77,380.496 300.938,372.963 309.777,372.963 L417.026,372.963 C425.865,372.963 433.032,380.496 433.032,389.336 C433.032,398.177 425.865,405.709 417.025,405.709" id="Fill-7"></path>
                <path d="M655.532,405.709 L548.284,405.709 C539.444,405.709 532.277,398.176 532.277,389.336 C532.277,380.496 539.444,372.963 548.284,372.963 L655.532,372.963 C664.372,372.963 671.539,380.496 671.539,389.336 C671.539,398.177 664.372,405.709 655.532,405.709" id="Fill-8"></path>
                <path d="M287.368,280.456 L178.519,280.456 C169.679,280.456 162.512,273.333 162.512,264.493 C162.512,255.653 169.679,248.529 178.519,248.529 L287.368,248.529 C296.207,248.529 303.375,255.653 303.375,264.493 C303.375,273.333 296.207,280.456 287.368,280.456" id="Fill-9"></path>
                <path d="M551.485,280.456 L444.237,280.456 C435.398,280.456 428.23,273.333 428.23,264.493 C428.23,255.653 435.398,248.529 444.237,248.529 L551.485,248.529 C560.325,248.529 567.492,255.653 567.492,264.493 C567.492,273.333 560.325,280.456 551.485,280.456" id="Fill-10"></path>
            </g>
        </g>
    </g>
</svg>