<?xml version="1.0" encoding="UTF-8" standalone="no"?>
<svg width="87px" height="97px" viewBox="0 0 87 97" version="1.1" xmlns="http://www.w3.org/2000/svg" xmlns:xlink="http://www.w3.org/1999/xlink">
    <!-- Generator: Sketch 39.1 (31720) - http://www.bohemiancoding.com/sketch -->
    <title>Entering_Heaven_Alive_1190779_easyicon.net</title>
    <desc>Created with Sketch.</desc>
    <defs></defs>
    <g id="Page-1" stroke="none" stroke-width="1" fill="none" fill-rule="evenodd">
        <g id="Artboard-4" transform="translate(-516.000000, -186.000000)" fill="#CA7CAC">
            <g id="Entering_Heaven_Alive_1190779_easyicon.net" transform="translate(516.000000, 186.000000)">
                <path d="M43.5,0 C33.9804781,0 26.0814473,7.01967862 23.109375,16.671875 C17.2491007,17.7370457 12.7097474,22.5136042 11.4414063,28.9231771 C4.9415159,30.5220645 0,36.7293329 0,44.4583333 C0,53.3896245 6.48946086,60.625 14.5,60.625 L72.5,60.625 C80.5105395,60.625 87,53.3896245 87,44.4583333 C87,38.6652347 83.8251018,33.998698 79.5234375,31.1966146 C78.9585501,20.6523108 71.2151913,12.125 61.625,12.125 C57.7788243,5.0934405 51.4586259,0 43.5,0 L43.5,0 Z M43.5,8.08333333 C49.731549,8.08333333 54.4984131,11.8662355 56.8671875,17.8085938 L57.7734375,20.2083333 L60.1523438,20.2083333 L61.625,20.2083333 C67.6227256,20.2083333 72.5,25.646214 72.5,32.3333333 L72.5,33.0911458 L72.5,35.9960938 L74.9921875,37.0065104 C77.9092794,38.090639 79.75,40.8622847 79.75,44.4583333 C79.75,49.2687088 76.8144605,52.5416667 72.5,52.5416667 L54.375,52.5416667 L54.375,40.4166667 C54.375,33.766286 49.4647744,28.2916667 43.5,28.2916667 C37.5352256,28.2916667 32.625,33.766286 32.625,40.4166667 L32.625,52.5416667 L14.5,52.5416667 C10.1855391,52.5416667 7.25,49.2687088 7.25,44.4583333 C7.25,39.6479578 10.1855391,36.375 14.5,36.375 L18.125,36.375 L18.125,32.3333333 C18.125,27.5229578 21.0605391,24.25 25.375,24.25 L25.7148438,24.25 L28.6601563,24.25 L29.2265625,21.0924479 C30.6915628,13.5788445 36.5118048,8.08333333 43.5,8.08333333 L43.5,8.08333333 Z M43.5,36.375 C45.5102256,36.375 47.125,38.1753806 47.125,40.4166667 L47.125,52.5416667 L39.875,52.5416667 L39.875,40.4166667 C39.875,38.1753806 41.4897744,36.375 43.5,36.375 L43.5,36.375 Z M25.375,64.6666667 L25.375,72.75 L61.625,72.75 L61.625,64.6666667 L25.375,64.6666667 L25.375,64.6666667 Z M18.125,76.7916667 L18.125,84.875 L68.875,84.875 L68.875,76.7916667 L18.125,76.7916667 L18.125,76.7916667 Z M10.875,88.9166667 L10.875,97 L76.125,97 L76.125,88.9166667 L10.875,88.9166667 L10.875,88.9166667 Z" id="Shape"></path>
            </g>
        </g>
    </g>
</svg>