<?xml version="1.0" encoding="UTF-8" standalone="no"?>
<svg width="70px" height="80px" viewBox="0 0 70 80" version="1.1" xmlns="http://www.w3.org/2000/svg" xmlns:xlink="http://www.w3.org/1999/xlink">
    <!-- Generator: Sketch 39.1 (31720) - http://www.bohemiancoding.com/sketch -->
    <title>Capa_1</title>
    <desc>Created with Sketch.</desc>
    <defs></defs>
    <g id="Page-1" stroke="none" stroke-width="1" fill="none" fill-rule="evenodd">
        <g id="Artboard-2" transform="translate(-676.000000, -2559.000000)" fill="#9C7BB7">
            <g id="baby_1153362_easyicon.net" transform="translate(676.000000, 2559.000000)">
                <g id="Capa_1">
                    <path d="M61.3490566,31.0683871 C61.3622642,30.916129 61.5418868,28.9303226 62.1666038,26.7122581 C62.8269811,24.3703226 63.9918868,21.8129032 65.9716981,20.9264516 C66.4286792,20.7225806 66.92,20.5858065 67.469434,20.5858065 C68.5630189,20.5858065 69.450566,19.72 69.450566,18.6503226 C69.450566,17.5806452 68.5630189,16.7148387 67.469434,16.7148387 C60.3492453,16.7148387 58.2135849,25.2090323 57.6139623,29.0270968 L0.818867925,29.0270968 L0.818867925,30.9625806 C0.818867925,40.4129032 5.38603774,48.836129 12.4718868,54.2529032 C12.5511321,54.9058065 12.9632075,55.5045161 13.6222642,55.7935484 L26.6620755,61.5045161 L18.7216981,64.9819355 C17.1645283,63.6258065 15.12,62.7948387 12.8760377,62.7948387 C8.0209434,62.7948387 4.07188679,66.6541935 4.07188679,71.3974194 C4.07188679,76.1406452 8.0209434,80 12.8760377,80 C17.7311321,80 21.6815094,76.1406452 21.6815094,71.3974194 C21.6815094,70.2696774 21.4516981,69.1935484 21.0462264,68.2051613 L31.5039623,63.6245161 L41.7266038,68.1019355 C41.2933962,69.1174194 41.0530189,70.2296774 41.0530189,71.396129 C41.0530189,76.1393548 45.0020755,79.9987097 49.8571698,79.9987097 C54.7122642,79.9987097 58.6626415,76.1393548 58.6626415,71.396129 C58.6626415,66.6529032 54.7122642,62.7935484 49.8571698,62.7935484 C47.6567925,62.7935484 45.6479245,63.5922581 44.1026415,64.9006452 L36.3458491,61.5032258 L49.3856604,55.7922581 C50.2573585,55.4103226 50.7090566,54.4890323 50.5109434,53.6116129 C57.1081132,48.2051613 61.3160377,40.1096774 61.3490566,31.0683871 L61.3490566,31.0683871 Z M17.720566,71.3974194 C17.720566,74.0051613 15.5479245,76.1290323 12.8773585,76.1290323 C10.2081132,76.1290323 8.0354717,74.0064516 8.0354717,71.3974194 C8.0354717,68.7883871 10.2081132,66.6658065 12.8773585,66.6658065 C13.3858491,66.6658065 13.8679245,66.763871 14.3288679,66.9070968 C15.7645283,67.3509677 16.9043396,68.4193548 17.4154717,69.796129 C17.6016981,70.2993548 17.720566,70.8335484 17.720566,71.3974194 L17.720566,71.3974194 Z M48.569434,66.8580645 C48.9828302,66.7458065 49.409434,66.6658065 49.8584906,66.6658065 C52.5290566,66.6658065 54.7016981,68.7883871 54.7016981,71.3974194 C54.7016981,74.0051613 52.5290566,76.1290323 49.8584906,76.1290323 C47.1892453,76.1290323 45.0166038,74.0064516 45.0166038,71.3974194 C45.0166038,70.7948387 45.1433962,70.2219355 45.354717,69.6916129 C45.9041509,68.3122581 47.0954717,67.2593548 48.569434,66.8580645 L48.569434,66.8580645 Z M31.085283,56.6606452 C17.2477358,56.6606452 5.87075472,46.1677419 4.85509434,32.8980645 L57.3167925,32.8980645 C56.2998113,46.1677419 44.9228302,56.6606452 31.085283,56.6606452 L31.085283,56.6606452 Z" id="Shape"></path>
                    <path d="M25.2277358,0.215483871 C11.7692453,0.215483871 0.820188679,10.9122581 0.820188679,24.0606452 L0.820188679,25.996129 L27.2088679,25.996129 L27.2088679,0.215483871 L25.2277358,0.215483871 L25.2277358,0.215483871 Z M23.2466038,22.123871 L4.87622642,22.123871 C5.81264151,12.6516129 13.5483019,5.09290323 23.245283,4.17806452 L23.245283,22.123871 L23.2466038,22.123871 Z" id="Shape"></path>
                </g>
            </g>
        </g>
    </g>
</svg>