<?xml version="1.0" encoding="UTF-8" standalone="no"?>
<svg width="715px" height="358px" viewBox="0 0 715 358" version="1.1" xmlns="http://www.w3.org/2000/svg" xmlns:xlink="http://www.w3.org/1999/xlink">
    <!-- Generator: Sketch 40.3 (33839) - http://www.bohemiancoding.com/sketch -->
    <title>亲吻</title>
    <desc>Created with Sketch.</desc>
    <defs></defs>
    <g id="Page-1" stroke="none" stroke-width="1" fill="none" fill-rule="evenodd">
        <g id="Artboard-2" transform="translate(-1004.000000, -4412.000000)" fill="#3EC1AF">
            <path d="M1361.366,4458.20386 L1361.366,4457.62686 C1361.366,4457.62686 1283.633,4412.63786 1263.058,4412.63786 C1242.489,4412.63786 1229.501,4419.68586 1229.501,4419.68586 L1155.637,4474.04486 C1155.637,4474.04486 1062.479,4532.11386 1051.903,4535.15586 C1041.327,4538.18986 1009.97,4538.18986 1009.97,4538.18986 C1009.97,4538.18986 1004,4541.74186 1004,4544.11586 C1004,4546.49786 1006.967,4547.03686 1009.97,4550.07086 C1024.158,4564.40986 1066.007,4607.29786 1094.32,4642.15186 C1128.628,4684.39486 1146.699,4720.38586 1175.15,4740.41586 C1203.6,4760.44386 1217.385,4767.12086 1260.478,4769.25986 C1303.563,4771.39886 1328.607,4751.85586 1339.221,4748.54786 C1349.828,4745.23886 1361.366,4746.30286 1361.366,4746.30286 L1361.366,4595.82786 C1361.366,4595.82786 1311.787,4598.87786 1263.058,4594.56886 C1214.335,4590.25886 1207.583,4585.64686 1207.583,4582.24686 C1207.583,4578.85586 1306.575,4556.96786 1318.745,4555.48786 C1330.914,4554.01586 1361.367,4555.48786 1361.367,4555.48786 L1361.367,4458.20386 C1361.374,4458.19586 1439.101,4413.21386 1459.677,4413.21386 C1480.237,4413.21386 1493.225,4420.26186 1493.225,4420.26186 L1567.09,4474.62186 C1567.09,4474.62186 1660.256,4532.69086 1670.832,4535.73286 C1681.408,4538.76686 1712.757,4538.76686 1712.757,4538.76686 C1712.757,4538.76686 1718.735,4542.31786 1718.735,4544.69186 C1718.735,4547.07386 1715.761,4547.61286 1712.757,4550.64786 C1698.584,4564.98686 1656.736,4607.87386 1628.421,4642.72886 C1594.099,4684.97086 1576.043,4720.96286 1547.577,4740.99186 C1519.142,4761.02086 1505.349,4767.69686 1462.256,4769.83686 C1419.178,4771.97586 1394.126,4752.43286 1383.52,4749.12486 C1372.899,4745.81686 1361.366,4746.87786 1361.366,4746.87786 L1361.366,4596.40386 C1361.366,4596.40386 1410.953,4599.45386 1459.676,4595.14486 C1508.398,4590.84286 1515.15,4586.22286 1515.15,4582.83186 C1515.15,4579.43286 1416.158,4557.54486 1403.989,4556.06586 C1391.82,4554.59386 1361.367,4556.06586 1361.367,4556.06586 L1361.367,4458.20386 L1361.366,4458.20386" id="亲吻"></path>
        </g>
    </g>
</svg>