<?xml version="1.0" encoding="UTF-8" standalone="no"?>
<svg width="44px" height="52px" viewBox="0 0 44 52" version="1.1" xmlns="http://www.w3.org/2000/svg" xmlns:xlink="http://www.w3.org/1999/xlink">
    <!-- Generator: Sketch 39.1 (31720) - http://www.bohemiancoding.com/sketch -->
    <title>Group</title>
    <desc>Created with Sketch.</desc>
    <defs></defs>
    <g id="Page-1" stroke="none" stroke-width="1" fill="none" fill-rule="evenodd">
        <g id="Artboard-2" transform="translate(-414.000000, -1149.000000)" fill="#CA7CAC">
            <g id="recipes_1161178_easyicon.net" transform="translate(414.000000, 1149.000000)">
                <g id="Layer_1">
                    <g id="Group">
                        <path d="M20.1483333,36.39775 C20.1868333,36.2370938 20.2308333,36.0780938 20.2821667,35.9157813 C20.2015,35.8511875 19.5708333,35.397375 18.4506667,35.4189063 C19.1198333,36.199 19.7761667,36.3729063 20.1483333,36.39775 L20.1483333,36.39775 Z" id="Shape"></path>
                        <path d="M23.056,36.5120313 C22.9368333,36.82175 22.8598333,37.1364375 22.8176667,37.437875 C23.4758333,37.1546563 24.519,36.8267188 25.4686667,37.0701875 C26.1341667,37.2424375 26.5503333,37.4676875 26.8198333,37.676375 C27.0215,37.4925313 27.2415,37.3020625 27.4816667,37.1099375 C27.104,36.8085 26.444,36.3530313 25.7033333,36.15925 C24.9901667,35.9754063 23.5675,36.305 23.056,36.5120313 L23.056,36.5120313 Z" id="Shape"></path>
                        <path d="M24.596,34.8524688 C24.2806667,34.9915938 24.0203333,35.172125 23.8003333,35.3775 C24.5483333,35.2234688 25.3916667,35.1555625 25.9728333,35.3062813 C26.9903333,35.569625 27.8446667,36.2006563 28.2608333,36.550125 C28.4845,36.4060313 28.7191667,36.2768438 28.9611667,36.152625 C28.446,35.47025 26.8986667,33.8255938 24.596,34.8524688 L24.596,34.8524688 Z" id="Shape"></path>
                        <path d="M17.3873333,35.5895 C17.105,35.6640313 16.8025,35.775 16.4816667,35.92075 C16.9565,36.15925 17.4991667,36.483875 17.8236667,36.8615 C17.919,36.9708125 17.9831667,37.11325 18.0546667,37.2490625 L18.084,37.2374688 C18.183,37.4213125 18.8283333,37.9778125 19.4828333,38.1682813 C19.646,38.2146563 19.7816667,38.2245938 19.9045,38.2163125 C19.9118333,37.9364063 19.9356667,37.61675 19.9815,37.2739063 C19.3141667,37.2109688 18.293,36.8615 17.3873333,35.5895 L17.3873333,35.5895 Z" id="Shape"></path>
                        <path d="M1.881,7.30075 L1.881,2.56553125 L2.684,1.69434375 L42.2161667,1.69434375 L42.2161667,0 L1.80583333,0 L0.0055,1.95271875 L0.0055,7.30075 L0,7.30075 L0,51.9963125 L43.4848333,51.9963125 L43.4848333,7.30075 L1.881,7.30075 L1.881,7.30075 Z M33.4931667,36.7107813 C32.7231667,36.258625 31.7405,36.1774688 30.5763333,36.470625 C28.787,36.921125 27.2708333,38.4796563 26.6731667,39.1636875 L25.8665,39.1636875 L25.5878333,38.9914375 C25.6135,38.9583125 25.8261667,38.69 26.1598333,38.33225 C26.0021667,38.2163125 25.7216667,38.0573125 25.1973333,37.9231563 C24.3595,37.7061875 23.2118333,38.2179688 22.7681667,38.4697188 C22.7846667,38.868875 22.8341667,39.1388438 22.836,39.147125 L22.7241667,39.1636875 L21.8441667,39.1636875 C21.7745,38.7198125 21.6223333,37.2755625 22.2218333,35.9654688 L22.209,35.953875 C22.2163333,35.94725 22.2328333,35.940625 22.2401667,35.9323438 C22.5866667,35.192 23.1696667,34.4947188 24.1615,34.0508438 C26.9078333,32.8301875 29.0051667,34.5311563 29.865,35.7667188 C30.0135,35.7170313 30.1565,35.6524375 30.3086667,35.6126875 C30.5048333,35.563 30.6881667,35.5447813 30.877,35.5116563 C30.5048333,34.662 29.0821667,32.2885938 25.0305,32.906375 C20.4655,33.6053125 20.8303333,38.4730313 20.9055,39.160375 L19.921,39.160375 C19.9191667,39.1454688 19.9191667,39.1222813 19.9173333,39.1040625 C19.8953333,39.1057188 19.8751667,39.1123438 19.8513333,39.1123438 C19.6386667,39.1123438 19.415,39.0775625 19.1803333,39.0113125 C18.9383333,38.94175 18.6963333,38.8307813 18.4635,38.6999375 C18.4836667,38.8854375 18.4928333,39.0460938 18.4965,39.1587188 L17.512,39.1587188 C17.4881667,38.603875 17.3543333,37.7575313 17.0481667,37.4014375 C16.7181667,37.0205 15.9555,36.6528125 15.4696667,36.45075 C15.2276667,36.603125 15.0076667,36.7505313 14.8096667,36.8979375 C15.202,37.1049688 15.6676667,37.3832188 15.9738333,37.6780313 C16.4835,38.1782188 16.555,38.8473438 16.5586667,39.160375 L15.576,39.160375 C15.5741667,38.9781875 15.5375,38.5608125 15.2533333,38.2842188 C14.9765,38.0159063 14.4466667,37.729375 14.0561667,37.5389063 C13.266,38.3223125 13.0661667,38.955 13.024,39.160375 L12.0321667,39.160375 C12.056,38.91525 12.3383333,37.1049688 15.4605,35.39075 C18.0931667,33.9481563 19.9063333,34.6338438 20.6231667,35.0429375 C20.7295,34.821 20.8468333,34.602375 20.9843333,34.390375 C20.4746667,34.0044688 18.6395,32.9163125 15.5815,34.4135625 C12.0853333,36.1228125 11.1705,38.4730313 10.9706667,39.160375 L9.95866667,39.160375 C10.0668333,38.6717813 10.8698333,35.7070938 15.114,33.6318125 C18.579,31.9374688 20.801,33.1150625 21.5618333,33.6665938 C22.2988333,32.8831875 23.3493333,32.2620938 24.8655,32.0302188 C29.9896667,31.2468125 31.603,34.6868438 31.889,35.4271875 C32.6846667,35.4305 33.4106667,35.596125 34.0376667,35.967125 C35.5593333,36.8697813 36.0598333,38.5657813 36.1936667,39.160375 L35.1816667,39.160375 C35.024,38.577375 34.573,37.35175 33.4931667,36.7107813 L33.4931667,36.7107813 Z M34.089,39.1636875 L33.077,39.1636875 C32.9431667,38.776125 32.5746667,38.04075 31.6928333,38.04075 C30.6881667,38.04075 29.8631667,38.7198125 29.4286667,39.1636875 L28.457,39.1636875 L28.27,39.054375 C28.3268333,38.9781875 29.6871667,37.1546563 31.691,37.1546563 C33.2401667,37.1546563 33.9203333,38.4216875 34.089,39.1636875 L34.089,39.1636875 Z M19.4535,26.30125 C20.8963333,27.46725 19.6973333,30.8807812 19.6973333,30.8807812 C19.6973333,30.8807812 20.2876667,28.0353437 18.5606667,27.0134375 C16.4725,25.7762187 18.931,22.8877187 18.931,22.8877187 C18.931,22.8877187 18.0088333,25.13525 19.4535,26.30125 L19.4535,26.30125 Z M22.5335,25.3091563 C24.233,26.6805313 22.8231667,30.6952813 22.8231667,30.6952813 C22.8231667,30.6952813 23.5161667,27.3513125 21.4866667,26.148875 C19.0281667,24.6897188 21.9193333,21.2944063 21.9193333,21.2944063 C21.9193333,21.2944063 20.8358333,23.9394375 22.5335,25.3091563 L22.5335,25.3091563 Z M25.7308333,25.9120312 C27.1755,27.0780312 25.9765,30.4932187 25.9765,30.4932187 C25.9765,30.4932187 26.5668333,27.6494375 24.8398333,26.625875 C22.7498333,25.387 25.2083333,22.5001562 25.2083333,22.5001562 C25.2083333,22.5001562 24.288,24.7460312 25.7308333,25.9120312 L25.7308333,25.9120312 Z M7.711,13.866125 L36.1551667,13.866125 L36.1551667,16.3852813 L7.711,16.3852813 L7.711,13.866125 L7.711,13.866125 Z M29.9603333,43.9585312 C28.4093333,43.9585312 25.6666667,43.9668125 22.9258333,43.9734375 L22.8891667,43.9734375 L22.8525,43.9734375 C20.1098333,43.9668125 17.3671667,43.9585312 15.818,43.9585312 C12.9305,43.9585312 7.99516667,39.8129375 7.99516667,39.8129375 C7.99516667,39.8129375 15.6585,39.7914062 22.8525,39.78975 L22.8891667,39.78975 L22.9258333,39.78975 C30.1216667,39.7914062 37.7831667,39.8129375 37.7831667,39.8129375 C37.7831667,39.8129375 32.8496667,43.9585312 29.9603333,43.9585312 L29.9603333,43.9585312 Z" id="Shape"></path>
                    </g>
                </g>
            </g>
        </g>
    </g>
</svg>