<?xml version="1.0" encoding="UTF-8" standalone="no"?>
<svg width="68px" height="67px" viewBox="0 0 68 67" version="1.1" xmlns="http://www.w3.org/2000/svg" xmlns:xlink="http://www.w3.org/1999/xlink">
    <!-- Generator: Sketch 39.1 (31720) - http://www.bohemiancoding.com/sketch -->
    <title>lab_1_</title>
    <desc>Created with Sketch.</desc>
    <defs></defs>
    <g id="Page-1" stroke="none" stroke-width="1" fill="none" fill-rule="evenodd">
        <g id="Artboard-2" transform="translate(-136.000000, -1141.000000)" fill="#CA7CAC">
            <g id="Oval-2" transform="translate(59.000000, 1077.000000)">
                <g id="lab_1147089_easyicon.net" transform="translate(77.000000, 64.000000)">
                    <g id="lab_1_">
                        <path d="M43.9921212,7.813875 C42.9887879,6.825625 41.6587879,6.28125 40.2418182,6.28125 C38.8248485,6.28125 37.4948485,6.825625 36.4872727,7.81596875 L33.4963636,10.7723437 C32.4930303,11.7605937 31.9393939,13.0754688 31.9393939,14.4761875 C31.9393939,15.4623437 32.2130303,16.406625 32.7263636,17.2252813 L3.92666667,28.6131875 C2.00060606,29.4485938 0.61969697,31.163375 0.231515152,33.1964062 C-0.160909091,35.242 0.496666667,37.3399375 2.00060606,38.8223125 L28.9824242,65.1616875 C30.1448485,66.3090625 31.6890909,66.9602187 33.320303,66.9979062 C33.3584848,67 33.4475758,67 33.4857576,67 C33.9142424,67 34.3490909,66.9560312 34.779697,66.8701875 C36.8881818,66.438875 38.6148485,65.0004687 39.3975758,63.0428125 L50.7290909,35.0368125 C51.5818182,35.5916563 52.5851515,35.8889688 53.6287879,35.8889688 C55.05,35.8889688 56.38,35.3425 57.3790909,34.35425 L60.3636364,31.40625 C61.3754545,30.4138125 61.9290909,29.0968437 61.9290909,27.6940313 C61.9290909,26.2912188 61.3733333,24.9721563 60.3763636,23.9922813 L43.9921212,7.813875 L43.9921212,7.813875 Z M35.4584848,61.4871562 C35.1954545,62.1425 34.6163636,62.6261562 33.9163636,62.7685312 C33.7551515,62.8020312 33.5918182,62.8145937 33.4306061,62.8125 C32.8918182,62.7999375 32.3721212,62.586375 31.9839394,62.201125 L4.98515152,35.845 C4.48878788,35.3571562 4.27030303,34.6578437 4.40181818,33.9752812 C4.53121212,33.2969062 4.99363636,32.7232187 5.63636364,32.4468437 L18.8239394,27.2334062 C27.709697,30.15 36.5975758,27.3401875 45.4875758,36.7013437 L35.4584848,61.4871562 L35.4584848,61.4871562 Z M57.3769697,28.433125 L54.3775758,31.3915938 C53.9639394,31.8019688 53.2915152,31.8019688 52.8778788,31.3915938 L49.1275758,27.6919375 L46.09,35.2064063 L46.3424242,34.572 C39.9575758,28.2802813 33.4687879,27.48675 27.6142424,26.7769688 C25.7327273,26.54875 23.9084848,26.3100625 22.1160606,25.929 L40.1272727,18.8081563 L36.4893939,15.217375 C36.0757576,14.8090938 36.0757576,14.145375 36.4893939,13.7370938 L39.4887879,10.7744375 C39.9024242,10.3661563 40.5748485,10.3661563 40.9884848,10.7744375 L57.3748485,26.9528438 C57.7948485,27.361125 57.7948485,28.0248438 57.3769697,28.433125 L57.3769697,28.433125 Z" id="Shape"></path>
                        <path d="M35.1212121,43.96875 C38.0442424,43.96875 40.4242424,41.6216563 40.4242424,38.734375 C40.4242424,35.8470937 38.0463636,33.5 35.1212121,33.5 C32.1960606,33.5 29.8181818,35.8470937 29.8181818,38.734375 C29.8181818,41.6216563 32.1981818,43.96875 35.1212121,43.96875 L35.1212121,43.96875 Z M35.1212121,35.59375 C36.8775758,35.59375 38.3030303,37.00075 38.3030303,38.734375 C38.3030303,40.468 36.8775758,41.875 35.1212121,41.875 C33.3627273,41.875 31.9393939,40.468 31.9393939,38.734375 C31.9393939,37.00075 33.3627273,35.59375 35.1212121,35.59375 L35.1212121,35.59375 Z" id="Shape"></path>
                        <path d="M62.6969697,0 C59.7718182,0 57.3939394,2.34709375 57.3939394,5.234375 C57.3939394,8.12165625 59.7718182,10.46875 62.6969697,10.46875 C65.6221212,10.46875 68,8.12165625 68,5.234375 C68,2.34709375 65.6221212,0 62.6969697,0 L62.6969697,0 Z M62.6969697,8.375 C60.9406061,8.375 59.5151515,6.968 59.5151515,5.234375 C59.5151515,3.50075 60.9406061,2.09375 62.6969697,2.09375 C64.4533333,2.09375 65.8787879,3.50075 65.8787879,5.234375 C65.8787879,6.968 64.4533333,8.375 62.6969697,8.375 L62.6969697,8.375 Z" id="Shape"></path>
                        <path d="M17.0909091,35.59375 C17.0909091,37.9031563 18.9936364,39.78125 21.3333333,39.78125 C23.6730303,39.78125 25.5757576,37.9031563 25.5757576,35.59375 C25.5757576,33.2843437 23.6730303,31.40625 21.3333333,31.40625 C18.9936364,31.40625 17.0909091,33.2843437 17.0909091,35.59375 L17.0909091,35.59375 Z M21.3333333,33.5 C22.5042424,33.5 23.4545455,34.4359062 23.4545455,35.59375 C23.4545455,36.7515937 22.5042424,37.6875 21.3333333,37.6875 C20.1624242,37.6875 19.2121212,36.7515937 19.2121212,35.59375 C19.2121212,34.4359062 20.1624242,33.5 21.3333333,33.5 L21.3333333,33.5 Z" id="Shape"></path>
                        <ellipse id="Oval" cx="27.6969697" cy="48.15625" rx="2.12121212" ry="2.09375"></ellipse>
                        <ellipse id="Oval" cx="61.6363636" cy="16.75" rx="2.12121212" ry="2.09375"></ellipse>
                    </g>
                </g>
            </g>
        </g>
    </g>
</svg>