<?xml version="1.0" encoding="UTF-8" standalone="no"?>
<svg width="54px" height="79px" viewBox="0 0 54 79" version="1.1" xmlns="http://www.w3.org/2000/svg" xmlns:xlink="http://www.w3.org/1999/xlink">
    <!-- Generator: Sketch 39.1 (31720) - http://www.bohemiancoding.com/sketch -->
    <title>Group</title>
    <desc>Created with Sketch.</desc>
    <defs></defs>
    <g id="Page-1" stroke="none" stroke-width="1" fill="none" fill-rule="evenodd">
        <g id="Artboard-2" transform="translate(-676.000000, -2552.000000)">
            <g id="physical_1146988_easyicon.net" transform="translate(676.000000, 2552.000000)">
                <g id="Capa_1">
                    <g id="Group">
                        <polygon id="Shape" fill="#2D2D2D" points="35.9530909 24.7665 35.9530909 25.0324667 36.0137273 24.7533333"></polygon>
                        <ellipse id="Oval" fill="#9C7BB7" cx="27.6353636" cy="6.92303333" rx="6.931" ry="6.92303333"></ellipse>
                        <path d="M52.9523636,5.05073333 C51.8081818,3.9105 49.9574545,3.9105 48.8132727,5.05336667 C48.8132727,5.05336667 48.808,5.06653333 48.7974545,5.07443333 L37.8486364,16.0844 L37.8486364,16.0949333 L37.8486364,16.0844 L16.5942727,16.0844 L5.656,5.07443333 C5.64545455,5.06653333 5.63754545,5.05863333 5.63754545,5.05863333 C4.48545455,3.9105 2.63209091,3.9105 1.49318182,5.05073333 C0.349,6.1936 0.349,8.04483333 1.49318182,9.18243333 C1.50372727,9.19033333 1.509,9.19296667 1.51163636,9.20086667 L1.51163636,9.20613333 L18.4291818,26.5571667 L18.4080909,74.4654 C18.4080909,76.6431667 20.1718182,78.4048667 22.3626364,78.4048667 C24.5323636,78.4048667 26.3066364,76.6431667 26.3066364,74.4654 L26.3013636,42.4440667 L28.073,42.4440667 L28.073,74.497 L28.102,74.5207 C28.1283636,76.6747667 29.8789091,78.4022333 32.0301818,78.4022333 C34.1972727,78.4022333 35.961,76.6510667 35.961,74.4785667 L35.9504545,26.6256333 L52.9286364,9.20613333 L52.9286364,9.20086667 C52.9339091,9.19296667 52.9391818,9.19033333 52.9497273,9.18243333 C54.0912727,8.04483333 54.0912727,6.1936 52.9523636,5.05073333 L52.9523636,5.05073333 Z M35.9530909,24.7665 L36.0137273,24.7533333 L35.9530909,25.0324667 L35.9530909,24.7665 L35.9530909,24.7665 Z" id="Shape" fill="#9C7BB7"></path>
                    </g>
                </g>
            </g>
        </g>
    </g>
</svg>