<?xml version="1.0" encoding="UTF-8" standalone="no"?>
<svg width="85px" height="87px" viewBox="0 0 85 87" version="1.1" xmlns="http://www.w3.org/2000/svg" xmlns:xlink="http://www.w3.org/1999/xlink">
    <!-- Generator: Sketch 39.1 (31720) - http://www.bohemiancoding.com/sketch -->
    <title>night_mode_1195583_easyicon.net</title>
    <desc>Created with Sketch.</desc>
    <defs></defs>
    <g id="Page-1" stroke="none" stroke-width="1" fill="none" fill-rule="evenodd">
        <g id="Artboard-4" transform="translate(-636.000000, -484.000000)">
            <g id="phantom_1195664_easyicon.net" transform="translate(453.000000, 178.000000)">
                <g id="night_mode_1195583_easyicon.net" transform="translate(183.000000, 306.000000)">
                    <g id="Layer_1">
                        <g id="night-modesvg">
                            <path d="M15.1878049,10.6097561 C14.5512195,14.4292683 14.5512195,18.2487805 14.7634146,22.0682927 C16.6731707,48.3804878 38.3170732,69.3878049 63.7804878,69.8121951 L64.6292683,69.8121951 C68.8731707,69.8121951 73.1170732,69.1756098 77.1487805,68.1146341 C69.297561,77.2390244 58.0512195,82.7560976 45.9560976,82.7560976 C44.2585366,82.7560976 42.7731707,82.7560976 41.0756098,82.5439024 C21.7658537,80.2097561 6.27560976,63.8707317 4.36585366,43.9243902 C3.30487805,31.6170732 7.33658537,19.5219512 15.1878049,10.6097561 L15.1878049,10.6097561 Z M18.5829268,2.12195122 C18.1585366,2.12195122 17.7341463,2.33414634 17.3097561,2.54634146 C5.85121951,12.095122 -1.36341463,27.3731707 0.334146341,44.3487805 C2.45609756,66.4170732 19.4317073,84.2414634 40.6512195,86.7878049 C42.3487805,87 44.2585366,87 45.9560976,87 C62.295122,87 76.5121951,78.3 84.5756098,64.9317073 C85.4243902,63.4463415 84.3634146,61.7487805 82.8780488,61.7487805 C82.6658537,61.7487805 82.2414634,61.7487805 82.0292683,61.9609756 C76.7243902,64.295122 70.7829268,65.5682927 64.6292683,65.5682927 L63.7804878,65.5682927 C40.4390244,64.9317073 20.704878,45.8341463 19.0073171,21.6439024 C18.5829268,15.9146341 19.2195122,10.1853659 20.704878,4.8804878 C21.1292683,3.39512195 19.8560976,2.12195122 18.5829268,2.12195122 L18.5829268,2.12195122 L18.5829268,2.12195122 Z" id="path-1" fill="#5A87B2"></path>
                            <path d="M36.6195122,16.3390244 L43.6219512,20.1585366 C45.7439024,21.2195122 47.4414634,22.9170732 48.502439,25.0390244 L51.897561,31.404878 C52.1097561,31.6170732 52.7463415,31.6170732 52.7463415,31.404878 L56.1414634,25.0390244 C57.202439,22.9170732 58.9,21.2195122 61.0219512,20.1585366 L68.0243902,16.3390244 C68.2365854,16.1268293 68.2365854,15.4902439 68.0243902,15.4902439 L61.0219512,11.6707317 C58.9,10.6097561 57.202439,8.91219512 56.1414634,6.7902439 L52.7463415,0.424390244 C52.5341463,0.212195122 51.897561,0.212195122 51.897561,0.424390244 L48.502439,6.7902439 C47.4414634,8.91219512 45.7439024,10.6097561 43.6219512,11.6707317 L36.6195122,15.4902439 C36.195122,15.4902439 36.195122,16.1268293 36.6195122,16.3390244 L36.6195122,16.3390244 Z" id="path-2" fill="#5382AF" opacity="0.25"></path>
                            <path d="M52.1097561,8.7 L52.1097561,8.7 C53.595122,11.4585366 55.9292683,13.7926829 58.6878049,15.2780488 L59.7487805,15.9146341 L58.9,16.3390244 C56.1414634,17.8243902 53.8073171,19.9463415 52.3219512,23.1292683 L52.3219512,23.1292683 C50.8365854,20.3707317 48.502439,18.0365854 45.7439024,16.5512195 L44.6829268,15.9146341 L45.5317073,15.4902439 C48.2902439,14.004878 50.6243902,11.6707317 52.1097561,8.7 L52.1097561,8.7 Z M52.1097561,0 C51.897561,0 51.6853659,0 51.6853659,0.212195122 L48.2902439,6.7902439 C47.2292683,8.91219512 45.5317073,10.6097561 43.4097561,11.6707317 L36.4073171,15.4902439 C35.9829268,15.702439 35.9829268,16.3390244 36.4073171,16.3390244 L43.4097561,20.1585366 C45.5317073,21.2195122 47.2292683,22.9170732 48.2902439,25.0390244 L51.6853659,31.6170732 C51.6853659,31.8292683 51.897561,31.8292683 52.1097561,31.8292683 C52.3219512,31.8292683 52.5341463,31.8292683 52.5341463,31.6170732 L55.9292683,25.0390244 C56.9902439,22.9170732 58.6878049,21.2195122 60.8097561,20.1585366 L67.8121951,16.3390244 C68.0243902,16.1268293 68.0243902,15.4902439 67.8121951,15.4902439 L60.8097561,11.6707317 C58.6878049,10.6097561 56.9902439,8.91219512 55.9292683,6.7902439 L52.5341463,0.212195122 C52.5341463,0 52.3219512,0 52.1097561,0 L52.1097561,0 L52.1097561,0 Z" id="path-3" fill="#5382AF" opacity="0.95"></path>
                            <path d="M70.3585366,36.2853659 L73.1170732,37.7707317 C73.9658537,38.195122 74.602439,38.8317073 75.0268293,39.6804878 L76.3,42.2268293 C76.3,42.4390244 76.5121951,42.4390244 76.7243902,42.2268293 L77.997561,39.6804878 C78.4219512,38.8317073 79.0585366,38.195122 79.9073171,37.7707317 L82.6658537,36.2853659 C82.8780488,36.2853659 82.8780488,36.0731707 82.6658537,35.8609756 L79.9073171,34.3756098 C79.0585366,33.9512195 78.4219512,33.3146341 77.997561,32.4658537 L76.7243902,29.7073171 C76.7243902,29.495122 76.5121951,29.495122 76.3,29.7073171 L75.0268293,32.2536585 C74.602439,33.102439 73.9658537,33.7390244 73.1170732,34.1634146 L70.3585366,35.6487805 C70.1463415,35.8609756 70.1463415,36.2853659 70.3585366,36.2853659 L70.3585366,36.2853659 Z" id="path-4" fill="#5382AF"></path>
                        </g>
                    </g>
                </g>
            </g>
        </g>
    </g>
</svg>