<?xml version="1.0" encoding="UTF-8" standalone="no"?>
<svg width="65px" height="44px" viewBox="0 0 65 44" version="1.1" xmlns="http://www.w3.org/2000/svg" xmlns:xlink="http://www.w3.org/1999/xlink">
    <!-- Generator: Sketch 39.1 (31720) - http://www.bohemiancoding.com/sketch -->
    <title>Group</title>
    <desc>Created with Sketch.</desc>
    <defs></defs>
    <g id="Page-1" stroke="none" stroke-width="1" fill="none" fill-rule="evenodd" opacity="0.725921175">
        <g id="Artboard-2" transform="translate(-1218.000000, -2191.000000)" fill="#CA7CAC">
            <g id="meeting_1149107_easyicon.net" transform="translate(1218.000000, 2191.000000)">
                <g id="Layer_1">
                    <g id="Group">
                        <path d="M54.0113889,9.64336652 C51.5901389,9.64336652 49.6238889,6.85344796 49.6238889,4.45057014 C49.6238889,2.04590045 51.5901389,0.0945701357 54.0113889,0.0945701357 C56.43625,0.0945701357 58.4006944,2.0441086 58.4006944,4.45057014 C58.4006944,6.85344796 56.43625,9.64336652 54.0113889,9.64336652 L54.0113889,9.64336652 Z" id="Shape"></path>
                        <path d="M42.9523611,28.323457 L42.2156944,41.7247421 C42.1525,42.864362 43.0336111,43.8391312 44.1819444,43.9000543 C44.2198611,43.9018462 44.2577778,43.903638 44.2956944,43.903638 C45.3934722,43.903638 46.3125,43.0507149 46.3738889,41.9505158 L47.0220833,30.1457738 L48.8041667,29.7891946 L48.8041667,41.8358371 C48.8041667,42.7873122 49.5805556,43.55781 50.5393056,43.55781 L62.35125,43.55781 C63.3081944,43.55781 64.0863889,42.7855204 64.0863889,41.8358371 L64.0863889,28.2464072 L64.0863889,26.8684706 L64.0863889,22.3332851 C64.0863889,21.3836018 63.3081944,20.6113122 62.35125,20.6113122 C62.2645833,20.6113122 62.1905556,20.6471493 62.1093056,20.6596923 L62.25375,20.5002172 C62.5408333,20.1830588 62.6997222,19.772724 62.6979167,19.3462624 L62.6852778,13.0908959 C62.6852778,13.0747692 62.67625,13.0622262 62.67625,13.0478914 C62.6726389,12.9206697 62.6329167,12.8024072 62.6022222,12.6805611 C62.5751389,12.5838009 62.5679167,12.483457 62.5263889,12.3920724 C62.4848611,12.2935204 62.4108333,12.2164706 62.3476389,12.1286697 C62.2826389,12.0354932 62.2302778,11.9351493 62.1490278,11.8563077 C62.0822222,11.7918009 61.9919444,11.7523801 61.9125,11.7004163 C61.8041667,11.6251584 61.7030556,11.5463167 61.5766667,11.4979367 C61.5622222,11.4925611 61.555,11.4800181 61.53875,11.4764344 C61.3798611,11.419095 57.8698611,10.1683801 54.6523611,10.0106968 L54.2388889,10.8313665 L54.22625,10.8313665 L55.3944444,19.8641086 L54.0041667,22.2705701 L52.6156944,19.8641086 L53.7820833,10.8313665 L53.77125,10.8313665 L53.3595833,10.0124887 C50.2558333,10.1630045 46.8884722,11.3277104 46.5093056,11.4620995 L39.6373611,13.7359638 L40.0508333,12.9672579 C40.1411111,12.7988235 40.0779167,12.5909683 39.9081944,12.5031674 C39.7402778,12.4135747 39.5290278,12.4762896 39.4369444,12.644724 L38.6840278,14.0531222 L38.1820833,14.2179729 C37.2738889,14.5190045 36.7827778,15.4937738 37.0861111,16.3968688 C37.1276389,16.5187149 37.19625,16.6190588 37.2594444,16.7247783 L35.9775,19.1330317 C35.8890278,19.3014661 35.9504167,19.5093213 36.1219444,19.598914 C36.1725,19.6257919 36.2284722,19.6383348 36.2844444,19.6383348 C36.4054167,19.6383348 36.5281944,19.5720362 36.5913889,19.4555656 L37.7613889,17.2659186 C38.0466667,17.4612308 38.3879167,17.5723258 38.7418056,17.5723258 C38.9241667,17.5723258 39.1083333,17.5436561 39.2906944,17.4845249 L47.6197222,14.7286516 C47.6269444,14.7268597 47.6323611,14.7196923 47.6377778,14.7161086 C47.6486111,14.7143167 47.6540278,14.7161086 47.66125,14.7143167 C47.6775,14.7089412 48.2733333,14.4992941 49.1544444,14.2502262 L49.1544444,25.5048688 L44.6206944,26.4097557 C43.6908333,26.5961086 43.0029167,27.382733 42.9523611,28.323457 L42.9523611,28.323457 Z M59.2276389,18.6922353 L58.8719444,19.0864434 L58.8719444,14.2502262 C58.9929167,14.2860633 59.1102778,14.3201086 59.2204167,14.352362 L59.2276389,18.6922353 L59.2276389,18.6922353 Z M60.6251389,22.3010317 C60.6251389,22.3135747 60.6179167,22.3225339 60.6179167,22.3332851 L60.6179167,25.5048688 L58.8701389,25.9116199 L58.8701389,24.239819 L60.6251389,22.3010317 L60.6251389,22.3010317 Z M52.27625,30.9897376 L60.6179167,29.0437828 L60.6179167,40.1156561 L52.27625,40.1156561 L52.27625,30.9897376 L52.27625,30.9897376 Z" id="Shape"></path>
                        <path d="M10.9886111,9.64336652 C8.56375,9.64336652 6.59930556,6.85344796 6.59930556,4.45057014 C6.59930556,2.04590045 8.56375,0.0945701357 10.9886111,0.0945701357 C13.4098611,0.0945701357 15.3761111,2.0441086 15.3761111,4.45057014 C15.3761111,6.85344796 13.4098611,9.64336652 10.9886111,9.64336652 L10.9886111,9.64336652 Z" id="Shape"></path>
                        <path d="M0.911805556,22.3350769 L0.911805556,26.8702624 L0.911805556,28.2481991 L0.911805556,41.837629 C0.911805556,42.7891041 1.69,43.5596018 2.64694444,43.5596018 L14.4588889,43.5596018 C15.4176389,43.5596018 16.1940278,42.7873122 16.1940278,41.837629 L16.1940278,29.7909864 L17.9761111,30.1475656 L18.6243056,41.9523077 C18.6856944,43.0525068 19.6047222,43.9054299 20.7025,43.9054299 C20.7404167,43.9054299 20.7783333,43.9054299 20.81625,43.9018462 C21.9645833,43.8391312 22.8456944,42.8661538 22.7825,41.7265339 L22.0458333,28.3252489 C21.9952778,27.3845249 21.3073611,26.5979005 20.3775,26.4115475 L15.84375,25.5066606 L15.84375,14.2520181 C15.9665278,14.2878552 16.0820833,14.3201086 16.1904167,14.352362 L16.1904167,21.3620995 C16.1904167,22.0143348 16.5623611,22.6110226 17.1491667,22.903095 L19.9261111,24.2810317 C20.1752778,24.4028778 20.4406944,24.4638009 20.7006944,24.4638009 C21.3380556,24.4638009 21.9501389,24.116181 22.2534722,23.5105339 C22.6813889,22.6594027 22.3365278,21.6255023 21.4752778,21.1990407 L19.6606944,20.2995294 L19.6606944,13.0962715 C19.6606944,13.0801448 19.6516667,13.0676018 19.6516667,13.0496833 C19.6480556,12.9224615 19.6065278,12.8024072 19.5758333,12.6805611 C19.5505556,12.5855928 19.5415278,12.4852489 19.5036111,12.3956561 C19.4602778,12.2953122 19.3826389,12.2146787 19.32125,12.1268778 C19.25625,12.0354932 19.2038889,11.9369412 19.1226389,11.8598914 C19.0540278,11.7935928 18.9655556,11.7541719 18.8825,11.6986244 C18.7759722,11.6269502 18.6766667,11.5481086 18.5520833,11.4997285 C18.5394444,11.4943529 18.5286111,11.48181 18.5141667,11.4782262 C18.3552778,11.4208869 14.8434722,10.1701719 11.6241667,10.0124887 L11.2125,10.8331584 L11.2016667,10.8331584 L12.3680556,19.8659005 L10.9795833,22.272362 L9.58930556,19.8659005 L10.7575,10.8331584 L10.7448611,10.8331584 L10.3313889,10.0124887 C7.11388889,10.1701719 3.60208333,11.4208869 3.445,11.4782262 C3.42875,11.48181 3.42152778,11.4943529 3.40708333,11.4997285 C3.2825,11.5481086 3.17958333,11.6287421 3.07125,11.7022081 C2.99180556,11.7559638 2.90152778,11.7935928 2.83472222,11.8580995 C2.75347222,11.9369412 2.70111111,12.0372851 2.63611111,12.1304615 C2.57472222,12.2182624 2.50069444,12.2953122 2.45736111,12.3938643 C2.41583333,12.483457 2.40861111,12.5838009 2.38152778,12.6823529 C2.35083333,12.8041991 2.31111111,12.9206697 2.3075,13.0496833 C2.3075,13.0640181 2.29847222,13.0783529 2.29847222,13.0926878 L2.29847222,19.3480543 C2.29666667,19.7745158 2.45555556,20.1848507 2.74263889,20.502009 L2.88708333,20.6614842 C2.80583333,20.6489412 2.73180556,20.6131041 2.64513889,20.6131041 C1.69,20.6131041 0.911805556,21.3836018 0.911805556,22.3350769 L0.911805556,22.3350769 Z M6.12986111,19.0864434 L5.77416667,18.6922353 L5.78138889,14.352362 C5.89333333,14.3201086 6.00888889,14.2860633 6.12986111,14.2502262 L6.12986111,19.0864434 L6.12986111,19.0864434 Z M4.38208333,29.0437828 L12.72375,30.9897376 L12.72375,40.1156561 L4.38208333,40.1156561 L4.38208333,29.0437828 L4.38208333,29.0437828 Z M4.37486111,22.3010317 L6.12986111,24.2380271 L6.12986111,25.9116199 L4.38208333,25.5048688 L4.38208333,22.3332851 C4.38208333,22.3225339 4.37486111,22.3135747 4.37486111,22.3010317 L4.37486111,22.3010317 Z" id="Shape"></path>
                        <path d="M24.8679167,20.0379186 L40.1375,20.0379186 C41.2876389,20.0379186 42.2193056,20.9625158 42.2193056,22.1039276 C42.2193056,23.2453394 41.2858333,24.1699367 40.1375,24.1699367 L39.7547222,24.1699367 L39.7547222,41.8358371 C39.7547222,42.7873122 38.9765278,43.55781 38.0177778,43.55781 L26.9894444,43.55781 C26.0306944,43.55781 25.2543056,42.7855204 25.2543056,41.8358371 L25.2543056,24.1699367 L24.8679167,24.1699367 C23.7177778,24.1699367 22.7861111,23.2453394 22.7861111,22.1039276 C22.7861111,20.9625158 23.7195833,20.0379186 24.8679167,20.0379186 L24.8679167,20.0379186 Z" id="Shape"></path>
                    </g>
                </g>
            </g>
        </g>
    </g>
</svg>