<?xml version="1.0" encoding="UTF-8" standalone="no"?>
<svg width="131px" height="146px" viewBox="0 0 131 146" version="1.1" xmlns="http://www.w3.org/2000/svg" xmlns:xlink="http://www.w3.org/1999/xlink">
    <!-- Generator: Sketch 40.3 (33839) - http://www.bohemiancoding.com/sketch -->
    <title>Group 26</title>
    <desc>Created with Sketch.</desc>
    <defs></defs>
    <g id="Page-1" stroke="none" stroke-width="1" fill="none" fill-rule="evenodd">
        <g id="Artboard-2" transform="translate(-1233.000000, -3376.000000)" fill="#F5D679">
            <g id="Group-26" transform="translate(1230.000000, 3374.000000)">
                <rect id="Rectangle-12" transform="translate(100.054748, 15.825017) rotate(112.000000) translate(-100.054748, -15.825017) " x="86.6325261" y="9.32501722" width="26.8444435" height="13" rx="6.5"></rect>
                <rect id="Rectangle-12" transform="translate(111.192606, 76.005869) rotate(184.000000) translate(-111.192606, -76.005869) " x="89.1926063" y="70.5058687" width="44" height="11" rx="5.5"></rect>
                <rect id="Rectangle-12" transform="translate(102.953806, 102.042910) rotate(184.000000) translate(-102.953806, -102.042910) " x="79.5056463" y="96.54291" width="46.8963194" height="11" rx="5.5"></rect>
                <rect id="Rectangle-12" transform="translate(92.325198, 127.839242) rotate(184.000000) translate(-92.325198, -127.839242) " x="68.3251978" y="122.339242" width="48" height="11" rx="5.5"></rect>
                <rect id="Rectangle-12" transform="translate(116.488423, 41.463951) rotate(172.000000) translate(-116.488423, -41.463951) " x="99.6028377" y="35.9639506" width="33.7711701" height="11" rx="5.5"></rect>
                <rect id="Rectangle-16" transform="translate(62.500000, 94.000000) rotate(24.000000) translate(-62.500000, -94.000000) " x="52" y="36" width="21" height="116" rx="10.5"></rect>
                <rect id="Rectangle-12" transform="translate(45.208437, 46.230774) rotate(49.000000) translate(-45.208437, -46.230774) " x="23.2084374" y="40.7307737" width="44" height="11" rx="5.5"></rect>
                <rect id="Rectangle-12" transform="translate(32.258359, 70.137834) rotate(49.000000) translate(-32.258359, -70.137834) " x="8.81019951" y="64.6378338" width="46.8963194" height="11" rx="5.5"></rect>
                <rect id="Rectangle-12" transform="translate(20.746912, 93.025701) rotate(49.000000) translate(-20.746912, -93.025701) " x="-3.25308835" y="87.5257006" width="48" height="11" rx="5.5"></rect>
                <rect id="Rectangle-12" transform="translate(67.921625, 20.871462) rotate(55.000000) translate(-67.921625, -20.871462) " x="51.0360397" y="15.3714616" width="33.7711701" height="11" rx="5.5"></rect>
            </g>
        </g>
    </g>
</svg>