<?xml version="1.0" encoding="UTF-8" standalone="no"?>
<svg width="189px" height="160px" viewBox="0 0 189 160" version="1.1" xmlns="http://www.w3.org/2000/svg" xmlns:xlink="http://www.w3.org/1999/xlink">
    <!-- Generator: Sketch 39.1 (31720) - http://www.bohemiancoding.com/sketch -->
    <title>Group</title>
    <desc>Created with Sketch.</desc>
    <defs></defs>
    <g id="Page-1" stroke="none" stroke-width="1" fill="none" fill-rule="evenodd">
        <g id="Artboard-2" transform="translate(-320.000000, -2530.000000)" fill="#9C7BB7">
            <g id="monkey_1199727_easyicon.net" transform="translate(320.000000, 2530.000000)">
                <g id="Capa_1">
                    <g id="Group">
                        <path d="M180.422747,42.3496675 C176.978702,39.9721739 172.526793,38.7093606 167.547479,38.6966752 L167.473186,38.6966752 C164.538991,38.6966752 161.486825,39.1222506 158.637946,39.9157033 C146.576235,15.5785166 121.697222,0 94.5,0 C67.3027775,0 42.4237646,15.5785166 30.362054,39.9161125 C27.5127667,39.1226598 24.4614168,38.6970844 21.5268143,38.6970844 L21.4525205,38.6970844 C16.4732073,38.7093606 12.0212981,39.9725831 8.5772527,42.3500767 C2.88561771,46.2792839 0,52.888798 0,61.9948849 C0,83.7070077 16.4928013,98.6160614 31.0580475,105.054527 C37.1521749,116.724297 46.2817322,126.47243 57.5225378,133.301279 C62.6998315,148.8 77.3189611,160 94.5,160 C111.684713,160 126.3067,148.79509 131.480728,133.290639 C131.532162,133.263223 131.584413,133.237442 131.63503,133.206752 C142.802767,126.382813 151.878441,116.665371 157.941544,105.054118 C172.507199,98.6160614 189,83.7070077 189,61.9948849 C189,52.888798 186.114382,46.2792839 180.422747,42.3496675 L180.422747,42.3496675 Z M122.377704,88.7435294 C114.564207,77.9596931 104.663546,72.0204604 94.5,72.0204604 C84.3364536,72.0204604 74.4357927,77.9596931 66.6222959,88.7435294 C63.8975119,92.503734 61.6054276,96.637954 59.822378,100.909668 C58.2103672,93.4269054 55.5455896,86.5186701 51.8856026,80.4595396 C49.0510108,75.7663427 48.0072246,70.3570332 48.8669093,64.8159591 C50.384216,55.0354987 58.2654752,47.1725831 68.0318359,45.6953453 C73.6328488,44.8482864 79.0828251,45.9539642 83.7927214,48.8924808 C90.397108,53.0140153 98.602892,53.0131969 105.207279,48.8924808 C109.917583,45.9543734 115.367968,44.8478772 120.968164,45.6953453 C130.734525,47.1721739 138.615784,55.0350895 140.133091,64.8159591 C140.992775,70.3570332 139.948989,75.7663427 137.114397,80.4595396 C133.45441,86.5190793 130.789633,93.4269054 129.177622,100.909668 C127.394572,96.6383632 125.102488,92.5041432 122.377704,88.7435294 L122.377704,88.7435294 Z M94.5,153.861893 C76.3804924,153.861893 61.6393089,139.084604 61.6393089,120.920716 C61.6393089,111.75734 65.447067,100.809821 71.5763002,92.3510997 C80.5233888,80.0024552 89.7790821,78.1585678 94.5,78.1585678 C99.2209179,78.1585678 108.476611,80.0024552 117.4237,92.3510997 C123.552933,100.809821 127.360691,111.75734 127.360691,120.920716 C127.360691,139.084604 112.619508,153.861893 94.5,153.861893 L94.5,153.861893 Z M154.546484,99.8354987 C153.870492,100.117442 153.31778,100.632634 152.988356,101.288593 C148.327037,110.563683 141.578961,118.554271 133.302557,124.683376 C133.420937,123.444706 133.483801,122.190077 133.483801,120.921125 L133.483801,118.444194 C133.483801,105.279591 136.550255,93.244399 142.352106,83.6390793 C145.942698,77.6945269 147.267739,70.8599488 146.18354,63.8731458 C144.259251,51.4696675 134.265518,41.499335 121.881324,39.6263939 C114.922205,38.5735038 107.850829,40.013913 101.971827,43.6816368 C97.2929546,46.6005115 91.7066371,46.6005115 87.0281728,43.6816368 C81.1491706,40.0143223 74.0786112,38.5743223 67.118676,39.6263939 C54.7344816,41.499335 44.7407495,51.4696675 42.81646,63.8731458 C41.7322613,70.8595396 43.0568942,77.6941176 46.6478942,83.6390793 C52.4497451,93.2439898 55.5161987,105.279182 55.5161987,118.443785 L55.5161987,120.920716 C55.5161987,122.190486 55.5790626,123.445524 55.697851,124.684194 C47.4210389,118.555908 40.6758207,110.567366 36.0120518,101.288184 C35.6826285,100.632225 35.1299158,100.117442 34.4539244,99.8350895 C21.3847581,94.3848593 6.12311015,81.2038875 6.12311015,61.9948849 C6.12311015,55.0293606 8.11720302,50.1201023 12.0502808,47.4050128 C14.8440518,45.4764194 21.955432,43.1234783 30.883743,46.5399488 C30.9719158,46.5735038 31.060905,46.6021483 31.1503024,46.62711 C31.2017365,46.6512532 31.2515378,46.6778517 31.3046048,46.6995396 C32.7582311,47.2920716 33.5207624,47.8031714 33.8461037,48.055243 C34.4037149,48.4869565 35.0621533,48.6956522 35.7161015,48.6956522 C36.6317106,48.6956522 37.5375227,48.2856266 38.1408531,47.5032225 C39.1748423,46.1622506 38.9282851,44.2348849 37.5905896,43.197954 C37.1476847,42.8546292 36.6402829,42.5223529 36.0781814,42.2011253 C47.1924428,20.1988747 69.7973326,6.13810742 94.5,6.13810742 C119.202667,6.13810742 141.807557,20.1988747 152.921819,42.2011253 C152.360125,42.5223529 151.852724,42.8546292 151.409819,43.197954 C150.072123,44.2344757 149.825566,46.1618414 150.859147,47.5032225 C151.462477,48.2856266 152.367881,48.6956522 153.283898,48.6956522 C153.937438,48.6956522 154.596285,48.4865473 155.153896,48.055243 C155.479646,47.8027621 156.243402,47.290844 157.698661,46.698312 C157.751728,46.676624 157.801529,46.6504348 157.852555,46.6262916 C157.940728,46.6013299 158.028901,46.5735038 158.116257,46.5399488 C167.045384,43.1242967 174.156356,45.4764194 176.949719,47.4050128 C180.882797,50.1205115 182.87689,55.0293606 182.87689,61.9948849 C182.87689,81.2038875 167.615242,94.3848593 154.546484,99.8354987 L154.546484,99.8354987 Z" id="Shape"></path>
                        <path d="M110.026575,125.812379 C105.960013,126.805934 101.772622,127.392737 97.5615551,127.586292 L97.5615551,120.920716 C97.5615551,119.225371 96.1907948,117.851662 94.5,117.851662 C92.8092052,117.851662 91.4384449,119.225371 91.4384449,120.920716 L91.4384449,127.586292 C87.2073758,127.391509 82.9999827,126.800614 78.9158683,125.798056 C77.2720173,125.395396 75.6163283,126.403274 75.2142441,128.049514 C74.8121598,129.695754 75.8175745,131.357136 77.4597927,131.760205 C83.0048812,133.120818 88.7377451,133.810742 94.5,133.810742 C100.240212,133.810742 105.951849,133.126138 111.476935,131.775345 C113.119562,131.374322 114.126609,129.71376 113.726158,128.066701 C113.325706,126.42046 111.670834,125.411355 110.026575,125.812379 L110.026575,125.812379 Z" id="Shape"></path>
                        <path d="M100.742307,140.472225 C96.624311,140.863836 92.3748726,140.863836 88.2568769,140.472225 C86.5742462,140.315908 85.0797991,141.550895 84.9201901,143.238056 C84.760581,144.925627 85.9958164,146.423325 87.6792635,146.583325 C89.9297106,146.796931 92.2246523,146.905371 94.5,146.905371 C96.7753477,146.905371 99.0698812,146.796931 101.31992,146.583325 C103.003367,146.423325 104.238603,144.925627 104.078994,143.238056 C103.919384,141.550486 102.422488,140.31509 100.742307,140.472225 L100.742307,140.472225 Z" id="Shape"></path>
                        <path d="M26.9567883,70.3938619 C24.7867581,68.6727366 23.2192419,67.4287468 22.3260842,64.398977 C21.9333888,63.0665985 21.7933737,61.2947315 23.3563996,60.4210742 C24.5479568,59.7557033 26.1399654,59.9103836 26.904946,60.7676726 C28.0324147,62.0304859 29.9677257,62.139335 31.2278618,61.0082864 C32.4879978,59.8780563 32.5953564,57.9380051 31.4678877,56.6747826 C28.7716782,53.6531969 24.1058683,52.9747315 20.3744449,55.0600512 C17.3916739,56.7267519 14.7954752,60.5127366 16.4532052,66.1381074 C17.8966263,71.0346803 20.6908056,73.2513555 23.1559698,75.2073657 C25.906879,77.3896675 28.283054,79.2744757 29.4427711,85.4760102 C29.7187192,86.9507928 31.0041641,87.9799488 32.4484017,87.9799488 C32.6353607,87.9799488 32.8251771,87.9627621 33.0162181,87.9267519 C34.6780302,87.6145269 35.7724341,86.010844 35.4609719,84.3449616 C33.8795767,75.8862404 30.0407948,72.8413299 26.9567883,70.3938619 L26.9567883,70.3938619 Z" id="Shape"></path>
                        <path d="M171.890806,55.0600512 C168.159382,52.9743223 163.493981,53.6540153 160.797363,56.6747826 C159.669894,57.9380051 159.777253,59.8780563 161.037389,61.0082864 C162.296708,62.1385166 164.232836,62.0308951 165.360305,60.7676726 C166.125285,59.9107928 167.717294,59.7552941 168.908851,60.4210742 C170.472285,61.2947315 170.33227,63.0665985 169.939166,64.398977 C169.046009,67.4287468 167.478492,68.6727366 165.308462,70.3938619 C162.224048,72.8409207 158.385674,75.8862404 156.803462,84.3449616 C156.492,86.010844 157.586404,87.6145269 159.248216,87.9267519 C159.438849,87.9627621 159.628665,87.9799488 159.816032,87.9799488 C161.26027,87.9799488 162.546123,86.9507928 162.821663,85.4760102 C163.98138,79.2748849 166.357555,77.3896675 169.108464,75.2073657 C171.574037,73.2513555 174.368216,71.0346803 175.811229,66.1381074 C177.469775,60.5127366 174.873577,56.7267519 171.890806,55.0600512 L171.890806,55.0600512 Z" id="Shape"></path>
                        <path d="M71.6403888,62.1994885 C69.949594,62.1994885 68.5788337,63.5731969 68.5788337,65.2685422 L68.5788337,71.8158568 C68.5788337,73.511202 69.949594,74.8849105 71.6403888,74.8849105 C73.3311836,74.8849105 74.7019438,73.511202 74.7019438,71.8158568 L74.7019438,65.2685422 C74.7019438,63.5731969 73.3311836,62.1994885 71.6403888,62.1994885 L71.6403888,62.1994885 Z" id="Shape"></path>
                        <path d="M117.359611,62.1994885 C115.668816,62.1994885 114.298056,63.5731969 114.298056,65.2685422 L114.298056,71.8158568 C114.298056,73.511202 115.668816,74.8849105 117.359611,74.8849105 C119.050406,74.8849105 120.421166,73.511202 120.421166,71.8158568 L120.421166,65.2685422 C120.421166,63.5731969 119.050406,62.1994885 117.359611,62.1994885 L117.359611,62.1994885 Z" id="Shape"></path>
                        <path d="M80.0682376,104.023734 L86.5995551,107.297391 C87.0391944,107.517954 87.5061836,107.622302 87.9662333,107.622302 C89.0892117,107.622302 90.1705529,107.000307 90.7069374,105.92532 C91.4633456,104.409207 90.8502181,102.565729 89.3378099,101.807468 L82.8064924,98.5338107 C81.2953089,97.7751407 79.4559266,98.3897698 78.6991102,99.9062916 C77.9427019,101.422404 78.5558294,103.265473 80.0682376,104.023734 L80.0682376,104.023734 Z" id="Shape"></path>
                        <path d="M101.033767,107.622302 C101.493816,107.622302 101.960806,107.517545 102.400445,107.297391 L108.931762,104.023734 C110.444171,103.265473 111.057298,101.422404 110.30089,99.9058824 C109.54489,98.390179 107.705916,97.7755499 106.193508,98.5334015 L99.6621901,101.807059 C98.1497819,102.56532 97.5366544,104.408389 98.2930626,105.92491 C98.8294471,107.000307 99.9103801,107.622302 101.033767,107.622302 L101.033767,107.622302 Z" id="Shape"></path>
                    </g>
                </g>
            </g>
        </g>
    </g>
</svg>