<?xml version="1.0" encoding="UTF-8" standalone="no"?>
<svg width="780px" height="774px" viewBox="0 0 780 774" version="1.1" xmlns="http://www.w3.org/2000/svg" xmlns:xlink="http://www.w3.org/1999/xlink">
    <!-- Generator: Sketch 40.3 (33839) - http://www.bohemiancoding.com/sketch -->
    <title>月亮</title>
    <desc>Created with Sketch.</desc>
    <defs></defs>
    <g id="Page-1" stroke="none" stroke-width="1" fill="none" fill-rule="evenodd">
        <g id="Artboard-2" transform="translate(0.000000, -3971.000000)" fill="#E4C04E">
            <path d="M703.9,4394.718 C673.942,4404.109 642.127,4409.161 609.096,4409.161 C433.88,4409.161 291.845,4267.122 291.845,4091.909 C291.845,4078.278 292.986,4064.933 294.655,4051.727 C298.229,4023.607 305.307,3996.582 315.749,3971.271 C285.936,3976.943 257.406,3986.096 230.429,3998.152 C94.136,4059.067 -1,4195.582 -1,4354.536 C-1,4570.169 173.831,4745 389.461,4745 C572.705,4745 726.067,4618.546 768.128,4448.294 C775.181,4419.646 779.329,4389.858 779.687,4359.116 C756.285,4374.08 730.95,4386.283 703.9,4394.718 L703.9,4394.718 Z M389.461,4671.791 C214.25,4671.791 72.212,4529.752 72.212,4354.537 C72.212,4242.194 130.768,4143.721 218.873,4087.335 C218.851,4088.859 218.636,4090.385 218.636,4091.909 C218.636,4307.539 393.467,4482.373 609.099,4482.373 C634.339,4482.373 658.934,4479.751 682.813,4475.172 C635.338,4590.523 521.947,4671.791 389.461,4671.791 L389.461,4671.791 Z" id="月亮"></path>
        </g>
    </g>
</svg>