<?xml version="1.0" encoding="UTF-8" standalone="no"?>
<svg width="93px" height="102px" viewBox="0 0 93 102" version="1.1" xmlns="http://www.w3.org/2000/svg" xmlns:xlink="http://www.w3.org/1999/xlink">
    <!-- Generator: Sketch 39.1 (31720) - http://www.bohemiancoding.com/sketch -->
    <title>Group 11</title>
    <desc>Created with Sketch.</desc>
    <defs>
        <rect id="path-1" x="25.0819672" y="0.318768376" width="34.7625656" height="8.09649022" rx="4.04824511"></rect>
        <mask id="mask-2" maskContentUnits="userSpaceOnUse" maskUnits="objectBoundingBox" x="0" y="0" width="34.7625656" height="8.09649022" fill="white">
            <use xlink:href="#path-1"></use>
        </mask>
    </defs>
    <g id="Page-1" stroke="none" stroke-width="1" fill="none" fill-rule="evenodd">
        <g id="Artboard-2" transform="translate(-1493.000000, -103.000000)">
            <g id="Group-11" transform="translate(1495.000000, 103.000000)">
                <path d="M43.4307439,61.9020817 C43.4307439,61.9020817 43.997353,57.8892193 44.5357177,57.7659668 C48.1089958,56.9479049 63.0394938,57.7659716 87.1446871,57.7659668 C92.7383216,57.7659656 86.5214823,54.9201261 85.716597,50.9214345 C84.6441719,45.5935986 82.5342594,36.3869187 75.8261129,29.2050845 C66.7987801,19.5402974 55.4011255,14.4728565 48.8216089,14.3379634 C45.7640745,14.275278 43.4307439,9.11045964 43.4307439,13.4383363 C43.4307439,39.194001 43.4307439,61.9020817 43.4307439,61.9020817 Z" id="Oval-15" fill="#4FEEBF"></path>
                <ellipse id="Oval-12" stroke="#5382AF" stroke-width="4" fill="#FFFFFF" cx="44.4" cy="55.8980403" rx="43.9499145" ry="43.3740548"></ellipse>
                <path d="M48.6353386,56.1973068 L69.4537192,56.1973068" id="Line" stroke="#5382AF" stroke-width="5" stroke-linecap="square"></path>
                <g id="Group-2" transform="translate(6.000000, 20.304450)" fill="#5382AF">
                    <ellipse id="Oval-13" cx="64.1873218" cy="61.0397028" rx="1.57988115" ry="1.73496219"></ellipse>
                    <ellipse id="Oval-13" cx="12.5643445" cy="59.8830613" rx="1.73486505" ry="1.73496219"></ellipse>
                    <path d="M64.1873218,14.1957236 C65.0598661,14.1957236 65.7672029,13.4189546 65.7672029,12.4607614 C65.7672029,11.5025683 65.0598661,10.7257992 64.1873218,10.7257992 C63.3147775,10.7257992 62.6074406,11.5025683 62.6074406,12.4607614 C62.6074406,13.4189546 63.3147775,14.1957236 64.1873218,14.1957236 Z" id="Oval-13"></path>
                    <ellipse id="Oval-13" cx="13.7209212" cy="12.4607614" rx="1.73486505" ry="1.73496219"></ellipse>
                    <ellipse id="Oval-13" cx="74.3020725" cy="36.7502321" rx="1.65544041" ry="1.73496219"></ellipse>
                    <ellipse id="Oval-13" cx="2.15515424" cy="35.5935906" rx="1.73486505" ry="1.73496219"></ellipse>
                    <path d="M37.7178426,74.1393443 C38.6665809,74.1393443 39.4356852,73.3490272 39.4356852,72.3741218 C39.4356852,71.3992163 38.6665809,70.6088993 37.7178426,70.6088993 C36.7691043,70.6088993 36,71.3992163 36,72.3741218 C36,73.3490272 36.7691043,74.1393443 37.7178426,74.1393443 Z" id="Oval-13"></path>
                    <ellipse id="Oval-13" cx="38.0090319" cy="2.05098829" rx="1.73486505" ry="1.73496219"></ellipse>
                </g>
                <ellipse id="Oval-14" stroke="#5382AF" stroke-width="2" fill="#FFFFFF" cx="44.0090319" cy="57.0546817" rx="4.04801844" ry="4.04824511"></ellipse>
                <path d="M42.6,5.00581604 L42.6,10.7890233" id="Line" stroke="#5382AF" stroke-width="3" stroke-linecap="square"></path>
                <use id="Rectangle-42" stroke="#5382AF" mask="url(#mask-2)" stroke-width="2" fill="#5382AF" xlink:href="#path-1"></use>
                <path d="M74.9560212,92.9508197 L70.8196721,100.20447" id="Path-9" stroke="#5382AF" stroke-width="4" transform="translate(72.887847, 96.577645) scale(-1, 1) translate(-72.887847, -96.577645) "></path>
                <path d="M19.9314476,93.5376871 L15.7950985,100.791338" id="Path-9" stroke="#5382AF" stroke-width="4"></path>
            </g>
        </g>
    </g>
</svg>