<?xml version="1.0" encoding="UTF-8" standalone="no"?>
<svg width="693px" height="716px" viewBox="0 0 693 716" version="1.1" xmlns="http://www.w3.org/2000/svg" xmlns:xlink="http://www.w3.org/1999/xlink">
    <!-- Generator: Sketch 40.3 (33839) - http://www.bohemiancoding.com/sketch -->
    <title>音乐</title>
    <desc>Created with Sketch.</desc>
    <defs></defs>
    <g id="Page-1" stroke="none" stroke-width="1" fill="none" fill-rule="evenodd">
        <g id="Artboard-2" transform="translate(-122.000000, -4221.000000)" fill="#E4C04E">
            <path d="M781.385,4221.767 L334.343,4322.346 C334.343,4322.346 300.817,4329.97 300.817,4355.876 L300.817,4810.27 C284.054,4805.601 265.077,4802.896 244.937,4802.896 C177.03,4802.896 122,4832.912 122,4869.946 C122,4906.984 177.03,4937 244.937,4937 C312.843,4937 367.875,4906.984 367.875,4869.946 L367.875,4513.717 L747.859,4430.861 L747.859,4709.714 C731.095,4705.042 712.118,4702.337 691.979,4702.337 C624.074,4702.337 569.041,4732.353 569.041,4769.391 C569.041,4806.425 624.074,4836.445 691.979,4836.445 C759.884,4836.445 814.915,4806.425 814.915,4769.391 L814.915,4255.316 C814.915,4236.787 799.894,4221.79 781.386,4221.79 L781.386,4221.767 L781.385,4221.767" id="音乐"></path>
        </g>
    </g>
</svg>