<?xml version="1.0" encoding="UTF-8" standalone="no"?>
<svg width="104px" height="101px" viewBox="0 0 104 101" version="1.1" xmlns="http://www.w3.org/2000/svg" xmlns:xlink="http://www.w3.org/1999/xlink">
    <!-- Generator: Sketch 39.1 (31720) - http://www.bohemiancoding.com/sketch -->
    <title>Group 13</title>
    <desc>Created with Sketch.</desc>
    <defs></defs>
    <g id="Page-1" stroke="none" stroke-width="1" fill="none" fill-rule="evenodd">
        <g id="Artboard-2" transform="translate(-1751.000000, -95.000000)" stroke="#5382AF" stroke-width="4">
            <g id="Group" transform="translate(1692.000000, 49.000000)">
                <g id="Group-13" transform="translate(58.000000, 46.000000)">
                    <path d="M83,74 L91,83.5199223" id="Path-4" transform="translate(87.000000, 79.000000) scale(-1, 1) rotate(90.000000) translate(-87.000000, -79.000000) "></path>
                    <path d="M16,18 L24,27.5199223" id="Path-4" transform="translate(20.000000, 23.000000) scale(-1, 1) rotate(90.000000) translate(-20.000000, -23.000000) "></path>
                    <path d="M16,72 L24,81.5199223" id="Path-4" transform="translate(20.000000, 77.000000) rotate(90.000000) translate(-20.000000, -77.000000) "></path>
                    <path d="M81,18 L89,27.5199223" id="Path-4" transform="translate(85.000000, 23.000000) rotate(90.000000) translate(-85.000000, -23.000000) "></path>
                    <path d="M95.6760598,41.4885088 L95.6760598,58.5114912" id="Path-4" transform="translate(95.676060, 50.000000) rotate(90.000000) translate(-95.676060, -50.000000) "></path>
                    <path d="M9.99914859,42.519922 L9.99914859,60.2001538" id="Path-4" transform="translate(10.339690, 51.180232) rotate(90.000000) translate(-10.339690, -51.180232) "></path>
                    <path d="M54.1594584,82 L54.1594584,101" id="Path-4"></path>
                    <circle id="Oval-9" fill="#FFFFFF" cx="53" cy="48" r="25"></circle>
                    <path d="M52,0 L52,16.5190449" id="Path-4"></path>
                </g>
            </g>
        </g>
    </g>
</svg>