<?xml version="1.0" encoding="UTF-8" standalone="no"?>
<svg width="53px" height="106px" viewBox="0 0 53 106" version="1.1" xmlns="http://www.w3.org/2000/svg" xmlns:xlink="http://www.w3.org/1999/xlink">
    <!-- Generator: Sketch 39.1 (31720) - http://www.bohemiancoding.com/sketch -->
    <title>baby_milk_botl_1189177_easyicon.net</title>
    <desc>Created with Sketch.</desc>
    <defs></defs>
    <g id="Page-1" stroke="none" stroke-width="1" fill="none" fill-rule="evenodd">
        <g id="Artboard-4" transform="translate(-597.000000, -52.000000)" fill="#CA7CAC">
            <g id="baby_milk_botl_1189177_easyicon.net" transform="translate(597.000000, 52.000000)">
                <g id="926">
                    <g id="Group">
                        <g id="Shape">
                            <path d="M42.684875,33.5294118 L10.37475,33.5294118 C4.100875,33.5294118 0.318,37.9698824 0.318,43.1021176 L0.318,96.6842353 C0.318,101.796706 5.39275,105.947294 11.653375,105.947294 L41.399625,105.947294 C47.666875,105.947294 52.735,101.796706 52.735,96.6842353 L52.735,43.1021176 C52.741625,37.9698824 48.95875,33.5294118 42.684875,33.5294118 L42.684875,33.5294118 L42.684875,33.5294118 Z M46.5075,94.4244706 C46.5075,97.2969412 43.029375,99.6423529 38.75625,99.6423529 L14.1775,99.6423529 C9.89775,99.6423529 6.432875,97.2969412 6.432875,94.4244706 L6.432875,50.4875294 C6.432875,49.0381176 7.367,42.4894118 26.69875,48.32 C46.04375,54.1769412 46.5075,49.0644706 46.5075,50.4875294 L46.5075,94.4244706 L46.5075,94.4244706 L46.5075,94.4244706 Z"></path>
                            <path d="M39.63075,20.0762353 L31.20375,13.712 L31.20375,5.088 C31.20375,2.57129412 29.00425,0.535529412 26.294625,0.535529412 C23.591625,0.535529412 21.39875,2.57788235 21.39875,5.088 L21.39875,13.5472941 L13.574625,20.0696471 L13.36925,20.0432941 L13.36925,26.9411765 L39.637375,26.9411765 L39.637375,20.0498824 L39.637375,20.0762353 L39.63075,20.0762353 L39.63075,20.0762353 Z"></path>
                        </g>
                    </g>
                </g>
            </g>
        </g>
    </g>
</svg>