<?xml version="1.0" encoding="UTF-8" standalone="no"?>
<svg width="799px" height="673px" viewBox="0 0 799 673" version="1.1" xmlns="http://www.w3.org/2000/svg" xmlns:xlink="http://www.w3.org/1999/xlink">
    <!-- Generator: Sketch 40.3 (33839) - http://www.bohemiancoding.com/sketch -->
    <title>八爪鱼</title>
    <desc>Created with Sketch.</desc>
    <defs></defs>
    <g id="Page-1" stroke="none" stroke-width="1" fill="none" fill-rule="evenodd">
        <g id="Artboard-2" transform="translate(-670.000000, -3444.000000)" fill="#E4C04E">
            <g id="八爪鱼" transform="translate(670.000000, 3443.000000)">
                <path d="M58.018,673.558 C26.837,673.558 12.859,658.045 7.125,648.317 C-3.986,629.219 -1.682,601.264 12.654,580.323 C24.942,562.403 43.426,553.392 62.216,556.566 C75.784,558.819 80.802,554.058 82.491,552.522 C91.605,544.022 92.014,524.771 91.451,518.678 L91.4,308.195 C91.4,138.774 229.179,0.995 398.6,0.995 C405.666,0.995 411.4,6.73 411.4,13.795 C411.4,20.861 405.666,26.595 398.6,26.595 C243.31,26.595 117,152.906 117,308.195 L117,517.45 C117.307,519.958 119.765,552.726 100.002,571.21 C92.782,577.968 79.726,585.187 58.171,581.859 C46.037,579.606 36.974,590.205 33.8,594.762 C24.994,607.664 23.048,624.765 29.294,635.414 C36.36,647.446 52.488,648.88 64.725,647.651 C74.606,646.781 80.238,638.794 88.584,625.789 C97.902,611.299 109.525,593.226 133.742,593.226 C157.806,593.226 169.326,611.606 178.542,626.403 C187.758,641.098 192.674,647.549 201.634,647.549 C210.542,647.549 215.509,641.098 224.674,626.403 C233.89,611.606 245.358,593.226 269.422,593.226 C293.435,593.226 304.904,611.606 314.12,626.403 C323.234,641.098 328.2,647.549 337.058,647.549 C345.966,647.549 350.933,641.098 360.046,626.403 C369.262,611.606 380.731,593.226 404.795,593.226 C428.859,593.226 440.277,611.606 449.493,626.454 C458.658,641.098 463.573,647.549 472.43,647.549 C481.288,647.549 486.254,641.098 495.368,626.403 C504.533,611.606 515.95,593.226 539.963,593.226 C564.027,593.226 575.445,611.606 584.661,626.454 C593.826,641.098 598.741,647.549 607.598,647.549 C616.405,647.549 621.32,641.098 630.382,626.454 C639.598,611.658 651.016,593.226 675.029,593.226 C699.042,593.226 710.459,611.658 719.675,626.454 C728.789,641.098 733.653,647.549 742.459,647.549 C749.525,647.549 755.259,653.283 755.259,660.349 C755.259,667.414 749.525,673.149 742.459,673.149 C718.498,673.149 707.08,654.768 697.915,639.971 C688.75,625.277 683.886,618.826 675.029,618.826 C666.171,618.826 661.256,625.277 652.142,639.971 C642.978,654.768 631.56,673.149 607.598,673.149 C583.586,673.149 572.168,654.768 562.952,639.971 C553.787,625.277 548.872,618.826 539.963,618.826 C531.106,618.826 526.19,625.277 517.077,639.92 C507.861,654.717 496.443,673.149 472.43,673.149 C448.418,673.149 437,654.768 427.784,639.971 C418.619,625.277 413.704,618.826 404.795,618.826 C395.886,618.826 390.92,625.277 381.806,639.971 C372.59,654.768 361.122,673.149 337.058,673.149 C313.045,673.149 301.576,654.768 292.36,639.971 C283.195,625.277 278.28,618.826 269.422,618.826 C260.514,618.826 255.547,625.277 246.434,639.971 C237.218,654.768 225.698,673.149 201.634,673.149 C177.57,673.149 166.05,654.768 156.834,639.971 C147.618,625.277 142.702,618.826 133.742,618.826 C124.475,618.826 119.406,625.174 110.139,639.613 C101.128,653.642 89.864,671.101 66.978,673.098 C63.803,673.405 60.834,673.558 58.018,673.558" id="Fill-1"></path>
                <path d="M742.562,673.507 C735.598,673.507 729.966,668.029 729.762,661.014 C729.557,653.949 735.138,648.112 742.254,647.907 C756.334,647.549 765.704,642.787 770.056,633.878 C775.483,622.717 772.872,605.77 763.81,593.533 C760.021,588.413 751.88,579.965 740.36,581.859 C718.907,585.187 705.749,577.968 698.53,571.21 C678.766,552.778 681.224,519.958 681.582,516.272 L681.531,308.246 C681.531,152.957 555.17,26.646 399.931,26.646 C392.866,26.646 387.131,20.912 387.131,13.846 C387.131,6.781 392.866,1.046 399.931,1.046 C569.352,1.046 707.131,138.826 707.131,308.246 L707.131,517.501 C706.466,525.232 706.978,544.176 716.091,552.624 C717.73,554.16 722.798,558.819 736.315,556.618 C754.44,553.494 772.002,561.635 784.392,578.326 C799.291,598.448 802.773,625.277 793.147,645.142 C788.078,655.434 774.971,672.79 742.92,673.61 C742.766,673.507 742.664,673.507 742.562,673.507" id="Fill-2"></path>
                <path d="M348.014,521.187 C345.147,521.187 342.28,520.214 339.874,518.269 C334.395,513.763 333.627,505.725 338.082,500.195 C351.342,484.118 374.382,474.493 399.829,474.442 L399.88,474.442 C425.275,474.442 448.366,484.067 461.678,500.195 C466.133,505.622 465.365,513.763 459.938,518.269 C454.459,522.723 446.37,521.904 441.864,516.528 C433.57,506.39 417.442,500.093 399.88,500.093 L399.829,500.093 C382.267,500.144 366.19,506.39 357.896,516.528 C355.387,519.6 351.701,521.187 348.014,521.187" id="Fill-3"></path>
                <path d="M348.219,400.406 L219.4,400.406 C212.334,400.406 206.6,394.672 206.6,387.606 C206.6,380.541 212.334,374.806 219.4,374.806 L304.546,374.806 L236.501,331.184 C230.562,327.344 228.821,319.459 232.61,313.52 C236.45,307.53 244.386,305.84 250.274,309.629 L355.08,376.803 C359.893,379.926 362.043,385.763 360.456,391.19 C358.869,396.618 353.851,400.406 348.219,400.406" id="Fill-4"></path>
                <path d="M154.581,453.194 C148.283,453.194 142.805,448.534 141.883,442.083 C134.664,387.811 182.587,346.032 184.635,344.24 C189.96,339.683 198.05,340.349 202.658,345.622 C207.317,350.998 206.702,359.088 201.326,363.696 C200.968,364.054 161.902,398.358 167.278,438.704 C168.2,445.718 163.285,452.17 156.322,453.091 C155.707,453.142 155.144,453.194 154.581,453.194" id="Fill-5"></path>
                <path d="M170.299,506.902 C170.299,515.914 162.978,523.235 153.966,523.235 C144.955,523.235 137.634,515.862 137.634,506.902 L137.634,488.778 C137.634,479.766 144.955,472.445 153.966,472.445 C162.978,472.445 170.299,479.818 170.299,488.778 L170.299,506.902" id="Fill-6"></path>
                <path d="M577.39,400.406 L448.622,400.406 C442.939,400.406 437.922,396.669 436.334,391.19 C434.747,385.712 436.949,379.875 441.71,376.803 L546.517,309.629 C552.405,305.84 560.392,307.478 564.13,313.52 C567.97,319.459 566.229,327.395 560.29,331.184 L492.245,374.806 L577.39,374.806 C584.456,374.806 590.19,380.541 590.19,387.606 C590.19,394.672 584.456,400.406 577.39,400.406" id="Fill-7"></path>
                <path d="M642.21,453.194 C641.646,453.194 641.134,453.142 640.52,453.091 C633.506,452.118 628.642,445.667 629.512,438.704 C634.939,398.051 595.874,364.054 595.464,363.747 C590.139,359.139 589.525,351.05 594.133,345.674 C598.741,340.298 606.779,339.683 612.206,344.291 C614.203,346.032 662.178,387.862 654.958,442.134 C654.037,448.483 648.558,453.194 642.21,453.194" id="Fill-8"></path>
                <path d="M626.491,506.902 C626.491,515.914 633.813,523.235 642.824,523.235 C651.835,523.235 659.106,515.862 659.106,506.902 L659.106,488.778 C659.106,479.766 651.784,472.445 642.824,472.445 C633.762,472.445 626.491,479.818 626.491,488.778 L626.491,506.902" id="Fill-9"></path>
            </g>
        </g>
    </g>
</svg>