<?xml version="1.0" encoding="UTF-8" standalone="no"?>
<svg width="189px" height="198px" viewBox="0 0 189 198" version="1.1" xmlns="http://www.w3.org/2000/svg" xmlns:xlink="http://www.w3.org/1999/xlink">
    <!-- Generator: Sketch 39.1 (31720) - http://www.bohemiancoding.com/sketch -->
    <title>Group</title>
    <desc>Created with Sketch.</desc>
    <defs></defs>
    <g id="Page-1" stroke="none" stroke-width="1" fill="none" fill-rule="evenodd">
        <g id="Artboard-2" transform="translate(-598.000000, -2530.000000)" fill="#9C7BB7">
            <g id="elderly_1199529_easyicon.net" transform="translate(598.000000, 2530.000000)">
                <g id="Layer_1">
                    <g id="Group">
                        <path d="M65.0211081,45.205979 C72.6764595,45.205979 79.9648784,41.3716008 84.1918378,35.1358487 C88.4779662,28.8123277 89.1811824,20.5628824 86.025223,13.6316345 C82.9480135,6.87342857 76.4722095,1.91136555 69.0122432,0.634764706 C61.394777,-0.668457983 53.4627365,1.9280042 48.1958514,7.46077311 C42.91875,13.0043571 40.8431554,20.9659538 42.7540135,28.3052647 C44.6171959,35.4619664 50.1535338,41.4015504 57.2652973,43.894021 C59.7486892,44.7646387 62.3831959,45.205979 65.0211081,45.205979 L65.0211081,45.205979 Z" id="Shape"></path>
                        <path d="M136.512912,45.205979 C144.167412,45.205979 151.45498,41.3707689 155.680662,35.1358487 C159.967216,28.8119118 160.670858,20.5628824 157.514473,13.6316345 C154.437264,6.87384454 147.962311,1.91136555 140.50277,0.634764706 C132.885304,-0.66887395 124.951135,1.9280042 119.683824,7.46077311 C114.407149,13.0043571 112.331554,20.9659538 114.242412,28.3052647 C116.105595,35.4623824 121.642358,41.4015504 128.754547,43.894021 C131.239642,44.7650546 133.874149,45.205979 136.512912,45.205979 L136.512912,45.205979 Z" id="Shape"></path>
                        <path d="M179.230318,93.4734706 C179.59427,90.2093824 179.657696,86.9244958 179.705797,83.6450168 C179.61002,80.6371639 179.56277,77.5897941 179.074095,74.6118908 C178.479,69.9726176 177.359047,65.3308487 175.563122,60.9906555 L174.846284,59.2668908 C174.014088,57.5589328 173.136345,55.9008908 172.190068,54.2507521 C170.19152,51.0727689 167.874993,48.1539328 165.144709,45.5429118 C164.246959,44.7346891 163.373899,43.9306261 162.452736,43.2272269 C161.557966,42.4893025 160.621905,41.8570336 159.727561,41.2247647 C158.566743,40.4864244 157.407628,39.7543235 156.190622,39.1062479 C150.108142,45.6102983 140.862041,48.695521 131.979041,47.1560294 C126.226885,46.158958 120.905088,43.2596723 116.982061,39.0342857 C116.658547,39.2048319 116.333757,39.3807857 116.007689,39.5717143 C115.111642,40.057563 114.223682,40.6395 113.300818,41.2260126 C112.406047,41.8582815 111.469135,42.4897185 110.573939,43.2272269 C109.651926,43.9297941 108.778865,44.7342731 107.880264,45.5420798 C105.147,48.1518529 102.827919,51.071105 100.829372,54.2507521 C100.808514,54.2861092 100.787655,54.3218824 100.767649,54.3572395 C100.746791,54.3218824 100.725932,54.2861092 100.705926,54.2507521 C98.7073784,51.0727689 96.3891486,48.1489412 93.6541824,45.5420798 C92.7555811,44.7342731 91.8825203,43.9302101 90.9605068,43.2272269 C90.0657365,42.4897185 89.1288243,41.8582815 88.2336284,41.2260126 C87.3107635,40.6395 86.4228041,40.057563 85.5267568,39.5717143 C85.2015405,39.3807857 84.8758986,39.2048319 84.5523851,39.0342857 C78.5001284,45.552895 69.2795676,48.6734748 60.3978446,47.1780756 C54.6316419,46.2072101 49.2885608,43.324979 45.3438243,39.1066639 C44.1272432,39.7547395 42.967277,40.4864244 41.8068851,41.2251807 C40.9129662,41.8578655 39.9760541,42.4897185 39.0817095,43.2276429 C38.1605473,43.9306261 37.2874865,44.735105 36.3897365,45.5433277 C33.6594527,48.1539328 31.3429257,51.0731849 29.3443784,54.2511681 C28.398527,55.9017227 27.5229122,57.5601807 26.6881622,59.2673067 L25.9721757,60.9910714 C24.174973,65.3308487 23.0554459,69.9734496 22.4603514,74.6123067 C21.9738041,77.591458 21.9265541,80.6371639 21.8286486,83.6454328 C21.8810068,87.0147605 21.956777,90.3820084 22.3335,93.7346975 C17.8771014,95.5341681 14.7334865,99.8252773 14.7334865,104.821866 L14.7334865,191.871983 C14.7334865,193.757559 16.3442432,195.33116 18.2734054,195.33116 C20.2025676,195.33116 21.8133243,193.757143 21.8133243,191.871983 L21.8133243,104.821866 C21.8133243,103.073559 22.7221419,101.52866 24.1038851,100.616029 C25.8904459,102.88679 29.0217162,103.796508 31.7860541,102.842697 C31.9980405,103.329378 32.131277,103.848504 32.178527,104.375534 C32.2198176,104.832265 32.1968311,105.276101 32.3198514,105.723681 C32.5433311,106.535647 33.0754257,107.251109 33.7939662,107.713248 C35.3702432,108.72779 37.5484257,108.317231 38.633473,106.809353 C39.1881284,110.954042 40.7550405,114.842496 43.1230743,118.183954 L46.492723,190.274672 C46.6693784,194.071613 49.75425,197.271643 53.6270473,197.656828 C57.5773176,198.0495 61.3045338,195.422256 62.198027,191.645697 C62.3040203,191.198118 62.3691486,190.740971 62.3925608,190.28216 L65.0181284,135.199475 L67.5457905,190.268433 C67.7198919,194.064542 70.8013581,197.268315 74.6737297,197.656412 C78.6231486,198.052412 82.3537703,195.42808 83.2498176,191.652353 C83.3562365,191.204357 83.4213649,190.747626 83.4452027,190.288815 L86.9621351,117.834126 C90.5786757,112.548025 92.0408716,106.068933 91.1533378,99.7786891 L85.8464392,63.5326261 C85.8838986,63.5796303 85.9222095,63.6245546 85.9596689,63.6715588 C86.4070541,64.312563 86.9106284,64.9202899 87.316723,65.624105 L87.9667297,66.651542 L88.5537365,67.7426218 C90.1806689,70.7138697 91.2946622,73.9937647 92.0596014,77.2719958 C92.7176959,79.5968319 92.9748041,82.0402185 93.3025743,84.4245378 C93.3132162,84.5576471 93.8631892,91.2010462 93.7159054,96.1855714 L93.7125,96.5050336 C93.6784459,100.251643 96.9403986,103.353088 100.7685,103.218315 C104.596601,103.35184 107.857703,100.252059 107.823649,96.5050336 L107.821095,96.1855714 C107.520142,92.1885504 108.222507,84.5572311 108.234426,84.4245378 C108.559642,82.0402185 108.819304,79.5968319 109.477399,77.2719958 C110.240209,73.9941807 111.35548,70.7122059 112.983264,67.7426218 L113.569419,66.651542 L114.220277,65.624105 C114.625946,64.9207059 115.129095,64.312563 115.57648,63.6715588 C115.614791,63.6245546 115.65225,63.5796303 115.689709,63.5326261 L110.383662,99.7786891 C110.241486,100.782832 110.159331,101.82566 110.135068,102.882214 C107.259203,111.67616 104.854986,120.624013 103.04927,129.687504 C100.987297,140.034252 99.6949459,150.557786 99.6085338,161.106693 C99.5987432,162.323395 99.7587973,163.42945 100.608446,164.381181 C101.375088,165.239735 102.508662,165.743055 103.674588,165.743055 L117.154885,165.743055 L118.346351,190.289231 C118.545993,194.147319 121.749628,197.385618 125.69777,197.675546 C129.579507,197.960899 133.204986,195.350294 134.059743,191.635298 C134.163182,191.186055 134.224905,190.728492 134.246189,190.268849 L135.372101,165.743055 L138.229662,165.743055 L139.399419,190.282992 C139.596507,194.14108 142.796311,197.381874 146.744878,197.67513 C150.626615,197.963395 154.255074,195.35695 155.111959,191.641538 C155.214973,191.19271 155.277547,190.735147 155.298831,190.275504 L156.446027,165.743055 L169.823311,165.743055 C170.943264,165.743055 172.035547,165.279252 172.799635,164.478933 C173.613101,163.626202 173.897878,162.569231 173.891068,161.429067 C173.875318,158.733189 173.779541,156.037311 173.611824,153.346008 C173.281926,148.046597 172.675338,142.764655 171.847399,137.517655 C170.331568,127.898849 168.081872,118.394433 165.292845,109.054324 C165.057446,108.264403 164.817365,107.475731 164.573878,106.688307 C165.444811,108.409992 167.66173,109.118798 169.401892,108.216983 C170.193223,107.80684 170.80875,107.102609 171.096932,106.273172 C171.259541,105.806458 171.265074,105.350975 171.293169,104.865542 C171.327223,104.29858 171.460034,103.738273 171.683088,103.213739 C174.157541,103.336034 176.41873,102.148034 177.713209,100.235836 C179.980358,100.77992 181.669865,102.777391 181.669865,105.158382 L181.669865,192.208084 C181.669865,194.09366 183.280196,195.667676 185.209784,195.667676 C187.139372,195.667676 188.750554,194.09366 188.750554,192.208084 L188.750554,105.158382 C188.748851,99.4708739 184.675986,94.6993235 179.230318,93.4734706 L179.230318,93.4734706 Z M38.6747635,99.7782731 C38.6266622,100.10855 38.5892027,100.437996 38.5542973,100.767025 C38.0439122,99.3814412 37.2781216,98.1148235 36.3126892,97.0183361 C36.3241824,96.858605 36.3343986,96.698458 36.3335473,96.5362311 L36.3292905,96.1851555 C36.3156689,94.5978277 36.2509662,93.0034286 36.3109865,91.4169328 C36.3991014,89.0779538 36.5438311,86.7572773 36.743473,84.4245378 C37.0712432,82.0406345 37.3300541,79.5972479 37.9881486,77.2724118 C38.7513851,73.9933487 39.8700608,70.7142857 41.4957162,67.7426218 L42.0835743,66.6511261 L42.7344324,65.6228571 C43.092,65.0026513 43.5249122,64.4556555 43.9284527,63.8957647 L38.6747635,99.7782731 L38.6747635,99.7782731 Z M164.202689,105.158382 C164.202689,105.314786 164.216736,105.467861 164.237595,105.618857 C163.851932,104.394252 163.466696,103.199181 163.084439,102.04113 C163.041872,101.290727 162.970358,100.536164 162.859257,99.7782731 L157.604716,63.8965966 C158.008682,64.4569034 158.441169,65.0034832 158.799588,65.6236891 L159.449595,66.651958 L160.037453,67.7434538 C161.664385,70.7142857 162.781784,73.9945966 163.54502,77.2732437 C164.203115,79.5980798 164.461926,82.0410504 164.789696,84.4253697 C164.989338,86.7576933 165.133216,89.0787857 165.222182,91.4177647 C165.283054,93.0038445 165.2175,94.5986597 165.203878,96.1859874 L165.200473,96.537063 C165.194514,97.502105 165.409905,98.4259664 165.793439,99.2666345 C164.782885,101.00787 164.202689,103.017403 164.202689,105.158382 L164.202689,105.158382 Z" id="Shape"></path>
                        <path d="M167.392703,40.4693697 C168.856176,42.5650084 170.951777,44.4742941 173.161034,45.8028908 L173.467095,45.9884118 L173.699939,45.8461513 C174.616845,45.3141303 175.460959,44.6427605 176.262932,43.9597437 C177.37948,43.0088445 178.433453,41.9651849 179.307365,40.7934076 C180.091459,39.7435084 180.811703,38.5043445 180.881088,37.1761639 C180.953027,35.8026429 180.163399,34.6832773 179.029399,33.9374496 C177.545493,32.9611765 175.79852,33.2103403 174.33675,34.0980126 C174.246081,34.1529202 173.480716,34.7319454 173.456027,34.7153067 C173.2815,34.5955084 173.12698,34.4499202 172.952878,34.3288739 C172.240723,33.8342899 171.417466,33.4503529 170.547811,33.325563 C168.868946,33.0847185 167.085791,34.0946849 166.362142,35.5867563 C165.562723,37.2352311 166.426845,39.0871134 167.392703,40.4693697 C167.957149,41.2775924 166.876358,39.7306134 167.392703,40.4693697 L167.392703,40.4693697 Z M167.396108,35.4357605 C168.196378,34.5044118 169.384014,33.9931891 170.61677,34.2847815 C169.67475,34.5410168 168.727622,35.3280252 168.397723,36.2348319 C168.004399,37.3138487 168.512655,38.4473571 169.026446,39.3990882 C170.14427,41.468937 171.718419,43.3690714 173.340669,45.0807731 C171.999791,44.1144832 170.731703,43.0234034 169.58025,41.8478824 C168.112946,40.3499874 165.58273,37.5417983 167.396108,35.4357605 C167.623845,35.1707899 166.99725,35.899563 167.396108,35.4357605 L167.396108,35.4357605 Z" id="Shape"></path>
                        <path d="M174.384,32.9021092 C174.318446,31.815605 174.675162,30.7648739 175.665284,30.1771134 C176.729473,29.5473403 178.023527,29.4337815 179.094101,30.096 C177.64425,30.0186303 176.099899,30.9404118 175.842365,32.385479 C176.207169,32.3056134 176.569845,32.2640168 176.925709,32.261937 L176.952953,32.261937 C179.074946,32.261937 181.220351,33.8388655 181.779689,35.850063 C182.336473,37.8516933 181.294419,39.8907605 180.103378,41.4651933 C181.675399,40.9198613 183.215068,40.2339328 184.622777,39.3554118 C185.933007,38.5384538 187.315601,37.4673403 187.887709,36.0023067 C188.490466,34.4574076 187.769797,32.682063 186.471486,31.6866555 C185.497541,30.9395798 184.22477,30.8077185 183.035858,31.011958 C182.723412,31.0656176 182.414372,31.1425714 182.111291,31.2374118 C181.923568,31.296479 181.706047,31.4915672 181.582601,31.3039664 C181.323365,30.9096303 181.053061,30.5352605 180.720182,30.194584 C179.396331,28.8389496 177.614453,28.4046807 175.841939,29.1904412 C174.142642,29.9437563 173.519878,31.5539622 173.683764,33.2922857 C173.912777,33.1483613 174.146899,33.0181639 174.384,32.9021092 C174.354203,32.4050294 174.146899,33.0181639 174.384,32.9021092 L174.384,32.9021092 Z" id="Shape"></path>
                        <path d="M22.2649662,12.2980462 C19.9314122,11.3417395 17.5225135,11.5347479 15.4656486,12.9897983 C14.3439932,13.7834622 13.3789865,14.825458 12.9124459,16.1174496 C12.0249122,18.575395 13.1206014,21.2113739 14.4576486,23.2978613 C15.9309122,25.5964916 17.8732703,27.6047773 19.9275811,29.415063 C21.4574595,30.7632101 23.0860946,32.088479 24.8624392,33.1196597 L25.2608716,33.362584 L25.7823243,33.0460336 C28.0039257,31.7178529 30.0369527,30.0040714 31.8890676,28.2224874 C33.7186216,26.4617017 35.4464392,24.5183067 36.6613176,22.2937185 C37.8178784,20.1756176 38.4887432,17.5650126 37.2496014,15.332937 C36.0921892,13.2489454 33.640723,11.6749286 31.1956419,11.6740966 C29.2877635,11.6736807 27.4386284,12.5093571 25.9313108,13.6033487 C25.7776419,13.7148277 25.6337635,13.8416975 25.484777,13.959 C25.4132635,14.0151555 25.34175,14.0792143 25.263,14.1258025 C25.2361824,14.1420252 24.8181689,13.7709832 24.7653851,13.7318824 C23.9978919,13.154937 23.1580338,12.6632647 22.2649662,12.2980462 C21.3421014,11.9199328 23.0124527,12.6037815 22.2649662,12.2980462 L22.2649662,12.2980462 Z M26.7626554,30.393 C29.1779392,27.6463739 31.5970541,24.7046597 33.1992973,21.4172773 C33.9340135,19.9102311 34.5235743,18.2010252 33.8590946,16.5675252 C33.2584662,15.0912605 31.6847432,13.8063403 30.1254932,13.3824706 C31.3867703,13.0838067 32.6552838,13.2231555 33.7816216,13.8633277 C34.8121824,14.4494244 35.7737838,15.2809412 36.2811892,16.3528866 C36.9661014,17.7992017 36.6728108,19.3640672 36.0308919,20.7625462 C34.7474797,23.5595042 32.4169054,25.901395 30.1578446,27.9716597 C28.6739392,29.3318697 27.1155405,30.6350924 25.4754122,31.8139412 C25.9147095,31.3493067 26.3403851,30.8726092 26.7626554,30.393 C27.784277,29.2307899 26.3403851,30.8726092 26.7626554,30.393 L26.7626554,30.393 Z" id="Shape"></path>
                        <path d="M15.1063784,11.1229412 C16.3782973,10.3409244 17.8315541,9.92786975 19.308223,9.92786975 L19.3546216,9.92786975 C19.9624865,9.93119748 20.5809932,10.0027437 21.2046081,10.1391807 C20.7682905,7.6712521 18.1252703,6.09848319 15.6525203,6.23034454 C17.4412095,5.12345798 19.5708649,5.28984454 21.3757297,6.29398739 C23.1478176,7.27982773 23.8101689,9.10467227 23.6935338,11.0210294 C24.0983514,11.2194454 24.4984865,11.4419874 24.8901081,11.6878235 C25.1152905,9.33054202 24.5444595,6.87509244 22.4995135,5.41297059 C20.4869189,3.97414286 17.6919324,3.49245378 15.4035,4.55607983 C14.2784392,5.07894958 13.30875,5.8880042 12.4999662,6.80604202 C12.1964595,7.15087815 11.9044459,7.51152101 11.6584054,7.89795378 C11.5741216,8.03023109 11.4898378,8.1625084 11.4038514,8.29312185 C11.2574189,8.5152479 11.2582703,8.44786134 10.9883919,8.34594958 C8.65356081,7.46576471 5.74832432,7.24322269 3.55652027,8.60135294 C2.01727703,9.55516387 0.809209459,11.2884958 0.394175676,13.0226597 C0.064277027,14.4045 0.317554054,15.8187857 0.987993243,17.0662689 C2.52127703,19.9197983 5.62147297,21.8457227 8.45179054,23.3053487 C10.2140878,24.2142353 12.0517297,24.9887647 13.9293851,25.6401681 C12.1428243,23.2799748 10.5648446,20.3715378 10.8334459,17.3416387 C11.0718243,14.6632311 12.8332703,12.5197563 15.1063784,11.1229412 C16.378723,10.3409244 11.5064392,13.3354664 15.1063784,11.1229412 L15.1063784,11.1229412 Z" id="Shape"></path>
                    </g>
                </g>
            </g>
        </g>
    </g>
</svg>