<?xml version="1.0" encoding="UTF-8" standalone="no"?>
<svg width="231px" height="200px" viewBox="0 0 231 200" version="1.1" xmlns="http://www.w3.org/2000/svg" xmlns:xlink="http://www.w3.org/1999/xlink">
    <!-- Generator: Sketch 39.1 (31720) - http://www.bohemiancoding.com/sketch -->
    <title>Capa_1</title>
    <desc>Created with Sketch.</desc>
    <defs></defs>
    <g id="Page-1" stroke="none" stroke-width="1" fill="none" fill-rule="evenodd">
        <g id="Artboard-2" transform="translate(-568.000000, -2480.000000)" fill="#9C7BB7">
            <g id="house_1196654_easyicon.net" transform="translate(568.000000, 2480.000000)">
                <g id="Capa_1">
                    <path d="M228.065,110.587 L176.446,58.972 L176.446,8.263 C176.446,4.121 173.089,0.763 168.946,0.763 C164.803,0.763 161.446,4.121 161.446,8.263 L161.446,43.972 L120.43,2.96 C117.502,0.031 112.753,0.032 109.824,2.96 L2.197,110.587 C-0.732,113.516 -0.732,118.265 2.197,121.193 C5.127,124.122 9.875,124.122 12.805,121.193 L31.525,102.473 L31.525,191.998 C31.525,196.14 34.882,199.498 39.025,199.498 L191.24,199.498 C195.383,199.498 198.74,196.14 198.74,191.998 L198.74,102.474 L217.461,121.193 C218.925,122.657 220.845,123.389 222.764,123.389 C224.683,123.389 226.603,122.657 228.068,121.192 C230.994,118.264 230.994,113.516 228.065,110.587 L228.065,110.587 Z M183.739,184.499 L46.524,184.499 L46.524,87.474 L115.128,18.87 L183.739,87.476 L183.739,184.499 L183.739,184.499 Z" id="Shape"></path>
                </g>
            </g>
        </g>
    </g>
</svg>