<?xml version="1.0" encoding="UTF-8" standalone="no"?>
<svg width="114px" height="67px" viewBox="0 0 114 67" version="1.1" xmlns="http://www.w3.org/2000/svg" xmlns:xlink="http://www.w3.org/1999/xlink">
    <!-- Generator: Sketch 39.1 (31720) - http://www.bohemiancoding.com/sketch -->
    <title>Group</title>
    <desc>Created with Sketch.</desc>
    <defs></defs>
    <g id="Page-1" stroke="none" stroke-width="1" fill="none" fill-rule="evenodd">
        <g id="Artboard-2" transform="translate(-1478.000000, -2182.000000)" fill="#9C7BB7">
            <g id="Oval-2" transform="translate(1417.000000, 2129.000000)">
                <g id="patient_1147507_easyicon.net" transform="translate(61.000000, 53.000000)">
                    <g id="Capa_1">
                        <g id="Group">
                            <path d="M112.203583,47.0273 L1.47008333,47.0273 C0.716833333,47.0273 0.105416667,47.55995 0.105416667,48.2199 L0.105416667,53.444225 C0.105416667,54.10585 0.716833333,54.636825 1.47008333,54.636825 L45.8083333,54.636825 L45.8083333,56.77245 L14.88675,56.77245 C14.1335,56.77245 13.5220833,57.306775 13.5220833,57.963375 L13.5220833,65.27475 C13.5220833,65.9347 14.1315833,66.465675 14.88675,66.465675 L98.7869167,66.465675 C99.544,66.465675 100.151583,65.9347 100.151583,65.27475 L100.151583,57.963375 C100.151583,57.306775 99.544,56.77245 98.7869167,56.77245 L67.8634167,56.77245 L67.8634167,54.636825 L112.203583,54.636825 C112.956833,54.636825 113.56825,54.10585 113.56825,53.444225 L113.56825,48.2199 C113.56825,47.5633 112.956833,47.0273 112.203583,47.0273 L112.203583,47.0273 Z" id="Shape"></path>
                            <ellipse id="Oval" cx="90.63725" cy="8.279525" rx="9.15208333" ry="7.998125"></ellipse>
                            <path d="M2.83283333,44.941925 L76.7299167,44.941925 C76.7375833,44.941925 104.34525,21.706325 109.941917,16.99455 C110.484333,16.53895 110.5035,15.78185 109.98025,15.307825 L107.065,12.65965 C106.543667,12.185625 105.675417,12.17055 105.136833,12.627825 L76.7318333,36.53175 L76.7318333,34.804825 C76.7318333,34.3107 76.383,34.17 75.9536667,34.489925 L72.2334167,37.252 C71.6085833,37.71765 70.8074167,37.9756 69.9794167,37.9756 C68.954,37.9756 67.988,37.588675 67.3248333,36.901925 L58.43725,27.759775 C57.19525,26.480075 57.3735,24.55885 58.834,23.4701 C59.4626667,23.006125 60.2638333,22.7465 61.0899167,22.7465 C62.1134167,22.7465 63.0813333,23.136775 63.7464167,23.820175 L69.7168333,29.9624 C70.0790833,30.34095 70.7269167,30.38785 71.1581667,30.06625 L75.9536667,26.5052 C76.3849167,26.185275 76.7318333,25.527 76.7318333,25.032875 L76.7318333,18.11345 C76.7318333,17.621 76.29675,17.344625 75.7581667,17.5004 L18.0166667,34.0293 C17.4819167,34.18675 17.0449167,34.70935 17.0449167,35.203475 L17.0449167,38.878425 L2.83283333,38.878425 C2.07958333,38.878425 1.46816667,39.4094 1.46816667,40.071025 L1.46816667,43.745975 C1.47008333,44.4076 2.07958333,44.941925 2.83283333,44.941925 L2.83283333,44.941925 Z" id="Shape"></path>
                            <path d="M69.7455833,31.605575 L62.8379167,24.496875 C62.0195,23.656025 60.5743333,23.555525 59.6121667,24.265725 C58.65,24.98095 58.535,26.245575 59.34575,27.08475 L68.2333333,36.2269 C69.0498333,37.06775 70.4988333,37.169925 71.461,36.45805 L78.1386667,31.501725 L78.1386667,32.908725 C78.1386667,33.40285 78.4645,33.51675 78.86125,33.166675 L94.9248333,19.0347 C95.3254167,18.684625 95.22,18.249125 94.66225,18.17375 C93.82275,18.058175 92.3066667,17.95265 89.6195,18.0029 C86.0909167,18.068225 83.9595833,16.91415 82.9495,16.1537 C82.5163333,15.833775 81.8723333,15.770125 81.4334167,16.078325 L78.936,17.83875 C78.4970833,18.14695 78.1386667,18.798525 78.1386667,19.29265 L78.1386667,26.248925 L70.82275,31.68095 C70.4988333,31.920475 70.01775,31.886975 69.7455833,31.605575 L69.7455833,31.605575 Z" id="Shape"></path>
                        </g>
                    </g>
                </g>
            </g>
        </g>
    </g>
</svg>