<?xml version="1.0" encoding="UTF-8" standalone="no"?>
<svg width="69px" height="78px" viewBox="0 0 69 78" version="1.1" xmlns="http://www.w3.org/2000/svg" xmlns:xlink="http://www.w3.org/1999/xlink">
    <!-- Generator: Sketch 39.1 (31720) - http://www.bohemiancoding.com/sketch -->
    <title>hot_1149483_easyicon.net</title>
    <desc>Created with Sketch.</desc>
    <defs></defs>
    <g id="Page-1" stroke="none" stroke-width="1" fill="none" fill-rule="evenodd">
        <g id="Artboard-3" transform="translate(-554.000000, -174.000000)" fill="#5382AF">
            <g id="hot_1149483_easyicon.net" transform="translate(554.000000, 174.000000)">
                <g id="Group">
                    <path d="M58.215875,43.4246154 C57.868,43.4246154 57.546,43.5046154 57.20675,43.5384615 C57.55175,41.2769231 57.778875,41.0123077 57.822,38.6276923 C57.822,38.6430769 57.813375,38.6584615 57.813375,38.68 C57.83925,38.4676923 57.8795,38.2553846 57.882375,38.04 C57.353375,26.1476923 43.996125,19.3323077 28.9455,19.1907692 C13.892,19.3323077 0.5405,26.1476923 0,38.04 C0.014375,38.2553846 0.060375,38.4676923 0.071875,38.68 L0.071875,38.6769231 C0.5175,59.9815385 13.2595,77.0769231 28.942625,77.0769231 C37.53025,77.0769231 45.226625,71.9230769 50.51375,63.7907692 C52.396875,66.0830769 55.128125,67.5507692 58.213,67.5507692 C63.9055,67.5507692 68.525625,60.5630769 68.525625,54.4646154 C68.525625,48.3753846 63.908375,43.4246154 58.215875,43.4246154 L58.215875,43.4246154 Z M47.641625,46.2615385 C43.0215,49.0769231 36.291125,50.9507692 28.819,50.9415385 C21.33825,50.9538462 14.605,49.0769231 9.979125,46.2615385 C5.29,43.4092308 3.079125,39.9107692 3.119375,36.8153846 C3.07625,33.6923077 5.298625,30.1969231 9.979125,27.3476923 C14.605,24.5261538 21.33825,22.6584615 28.819,22.6707692 C36.291125,22.6553846 43.0215,24.5261538 47.641625,27.3476923 C52.33075,30.2 54.553125,33.6923077 54.51,36.8153846 C54.553125,39.9107692 52.33075,43.4092308 47.641625,46.2615385 L47.641625,46.2615385 Z M58.215875,61.5661538 C56.030875,61.5630769 54.271375,59.9446154 53.736625,57.7907692 C54.48125,56.0584615 55.139625,52.1876923 55.70025,50.3046154 C56.442,49.7969231 57.267125,49.4215385 58.215875,49.4092308 C60.814875,49.4215385 62.928,51.6830769 62.93375,54.4646154 C62.925125,57.2523077 60.814875,61.5630769 58.215875,61.5661538 L58.215875,61.5661538 Z" id="Shape"></path>
                    <path d="M45.289875,28.2307692 C41.247625,25.7692308 35.35675,24.1353846 28.816125,24.1415385 C22.26975,24.1353846 16.373125,25.7692308 12.325125,28.2307692 C8.231125,30.7292308 6.28475,33.7907692 6.31925,36.5230769 C6.287625,39.2338462 8.2225,42.2953846 12.325125,44.7938462 C12.325125,44.7938462 18.04925,31.9692308 27.240625,41.6276923 C36.429125,51.2861538 31.765875,31.4153846 39.1345,39.1046154 C46.503125,46.7907692 51.304375,36.5230769 51.304375,36.5230769 C51.34175,33.7876923 49.39825,30.7292308 45.289875,28.2307692 L45.289875,28.2307692 Z" id="Shape"></path>
                    <path d="M21.835625,5.48615385 C22.203625,5.80615385 22.588875,6.04 22.9425,6.28615385 C23.629625,6.77230769 24.3915,7.24615385 24.906125,7.83076923 C25.1735,8.12 25.394875,8.44615385 25.590375,8.74461538 C25.783,9.04923077 25.946875,9.33846154 26.050375,9.64 C26.2545,10.2307692 26.22,10.7938462 26.11075,11.44 C25.900875,12.7569231 25.147625,14.2276923 24.405875,15.8430769 L24.5295,16 C25.369,15.6830769 26.073375,15.1446154 26.705875,14.4830769 C27.326875,13.8123077 27.861625,12.9846154 28.131875,11.9415385 C28.41075,10.9230769 28.235375,9.65230769 27.677625,8.72615385 C27.142875,7.76615385 26.303375,7.20307692 25.486875,6.87384615 C25.07575,6.69230769 24.656,6.56615385 24.30525,6.40923077 C23.943,6.24307692 23.606625,6.02461538 23.319125,5.74769231 C22.72975,5.20923077 22.46525,4.32923077 22.53425,3.82153846 C22.55725,3.56615385 22.600375,3.35384615 22.680875,3.07076923 C22.77,2.80307692 22.9195,2.49846154 23.112125,2.19076923 C23.48875,1.56615385 23.997625,0.926153846 24.509375,0.184615385 L24.423125,-5.55111512e-17 C23.968875,0.0276923077 23.543375,0.156923077 23.140875,0.341538462 C22.72975,0.52 22.347375,0.772307692 21.99375,1.09538462 C21.640125,1.42461538 21.312375,1.83384615 21.08525,2.35692308 C20.85525,2.87384615 20.766125,3.54461538 20.9415,4.13538462 C21.114,4.72615385 21.467625,5.17230769 21.835625,5.48615385 L21.835625,5.48615385 Z" id="Shape"></path>
                    <path d="M29.43425,9.28 C29.718875,9.48615385 29.992,9.61538462 30.230625,9.76923077 C30.696375,10.0676923 31.196625,10.4153846 31.46975,10.8461538 C31.763,11.2830769 31.938375,11.7015385 32.0275,12.0061538 C32.0965,12.3353846 32.039,12.5753846 32.001625,12.9323077 C31.961375,13.2769231 31.84925,13.7169231 31.71125,14.2061538 C31.5675,14.7015385 31.3835,15.2215385 31.225375,15.8461538 L31.351875,16 C31.97575,15.88 32.49325,15.5661538 32.959,15.1538462 C33.419,14.7353846 33.818625,14.1723077 34.019875,13.4338462 C34.22975,12.7015385 34.086,11.7538462 33.657625,11.0953846 C33.258,10.4061538 32.63125,10.0492308 32.0505,9.88307692 C31.760125,9.79076923 31.464,9.72923077 31.236875,9.64307692 C31.001125,9.55384615 30.7855,9.41846154 30.613,9.23076923 C30.23925,8.87076923 30.19325,8.22153846 30.316875,8.02153846 C30.36575,7.91384615 30.385875,7.85230769 30.408875,7.71384615 C30.44625,7.57846154 30.512375,7.40307692 30.6015,7.20615385 C30.79125,6.8 31.064375,6.34461538 31.328875,5.74461538 L31.242625,5.56 C30.912,5.51076923 30.610125,5.56307692 30.316875,5.65538462 C30.017875,5.74153846 29.741875,5.89538462 29.486,6.11076923 C29.22725,6.32615385 28.98575,6.60923077 28.816125,6.99384615 C28.637875,7.36307692 28.574625,7.88 28.72125,8.32615385 C28.867875,8.77846154 29.155375,9.08307692 29.43425,9.28 L29.43425,9.28 Z" id="Shape"></path>
                </g>
            </g>
        </g>
    </g>
</svg>