<?xml version="1.0" encoding="UTF-8" standalone="no"?>
<svg width="746px" height="669px" viewBox="0 0 746 669" version="1.1" xmlns="http://www.w3.org/2000/svg" xmlns:xlink="http://www.w3.org/1999/xlink">
    <!-- Generator: Sketch 40.3 (33839) - http://www.bohemiancoding.com/sketch -->
    <title>图片</title>
    <desc>Created with Sketch.</desc>
    <defs></defs>
    <g id="Page-1" stroke="none" stroke-width="1" fill="none" fill-rule="evenodd">
        <g id="Artboard-2" transform="translate(-256.000000, -4331.000000)" fill="#E4C04E">
            <path d="M1001.472,4957.158 C1001.472,4980.82 982.291,5000 958.628,5000 L298.844,5000 C275.182,5000 256,4980.82 256,4957.158 L256,4374.489 C256,4350.827 275.182,4331.646 298.844,4331.646 L958.628,4331.646 C982.291,4331.646 1001.472,4350.827 1001.472,4374.489 L1001.472,4957.158 L1001.472,4957.158 Z M968.704,4394.658 C968.704,4376.775 954.209,4362.28 936.326,4362.28 L321.146,4362.28 C303.265,4362.28 288.768,4376.775 288.768,4394.658 L288.768,4936.987 C288.768,4954.868 303.265,4969.364 321.146,4969.364 L936.325,4969.364 C954.208,4969.364 968.704,4954.868 968.704,4936.987 L968.704,4394.658 L968.704,4394.658 Z M442.64,4445.614 C403.052,4445.614 370.96,4477.706 370.96,4517.294 C370.96,4556.881 403.052,4588.974 442.64,4588.974 C482.228,4588.974 514.32,4556.881 514.32,4517.294 C514.32,4477.706 482.228,4445.614 442.64,4445.614 L442.64,4445.614 Z M481.552,4517.294 C481.552,4538.784 464.13,4556.206 442.64,4556.206 C421.149,4556.206 403.728,4538.784 403.728,4517.294 C403.728,4495.803 421.149,4478.382 442.64,4478.382 C464.13,4478.382 481.552,4495.803 481.552,4517.294 L481.552,4517.294 Z M340.378,4828.404 L478.413,4724.366 L553.37,4801.371 L739.328,4614.798 L913.818,4789.902 L935.936,4765.326 L739.738,4568.513 L553.37,4753.038 L481.28,4680.948 L321.536,4801.371 L340.378,4828.404 L340.378,4828.404 Z M665.165,4848.884 L925.093,4848.884 L925.093,4816.116 L665.165,4816.116 L665.165,4848.884 Z M516.63,4923.705 L925.093,4923.705 L925.093,4890.937 L516.63,4890.937 L516.63,4923.705 Z" id="图片"></path>
        </g>
    </g>
</svg>