<?xml version="1.0" encoding="UTF-8" standalone="no"?>
<svg width="208px" height="197px" viewBox="0 0 208 197" version="1.1" xmlns="http://www.w3.org/2000/svg" xmlns:xlink="http://www.w3.org/1999/xlink">
    <!-- Generator: Sketch 39.1 (31720) - http://www.bohemiancoding.com/sketch -->
    <title>Shape</title>
    <desc>Created with Sketch.</desc>
    <defs></defs>
    <g id="Page-1" stroke="none" stroke-width="1" fill="none" fill-rule="evenodd">
        <g id="Artboard-4" transform="translate(-597.000000, -158.000000)" fill="#CA7CAC">
            <g id="amusement_park_1199038_easyicon.net" transform="translate(597.000000, 158.000000)">
                <g id="Capa_1">
                    <path d="M206.707552,90.4694505 L199.906556,78.1443011 C201.157577,77.7142189 202.054739,76.5683011 202.054739,75.2179179 C202.054739,73.5000779 200.606075,72.1073916 198.818224,72.1073916 C197.38639,72.1073916 195.977427,72.1986337 194.58961,72.3574779 C194.43771,72.3653579 194.285809,72.3811179 194.134772,72.4101495 C177.78088,74.4875663 164.893079,87.2763916 163.393494,103.182794 L161.05673,103.182794 L161.05673,65.1870926 L199.585062,65.1870926 C201.372913,65.1870926 202.821577,63.7944063 202.821577,62.0765663 L202.821577,29.5798611 C202.821577,27.8620211 201.372913,26.4693347 199.585062,26.4693347 L190.530589,26.4693347 C185.517444,16.3427053 174.691519,9.67664 162.917942,9.67664 C151.144797,9.67664 140.318871,16.34312 135.305726,26.4693347 L129.023867,26.4693347 C124.474191,17.2787663 115.136199,10.9390989 104.647734,9.84543789 L104.647734,3.30089053 C104.647734,1.58305053 103.199071,0.190364211 101.41122,0.190364211 C99.6233693,0.190364211 98.1747054,1.58305053 98.1747054,3.30089053 L98.1747054,9.84543789 C87.6862407,10.9390989 78.3486805,17.2787663 73.7990041,26.4693347 L67.5171452,26.4693347 C62.504,16.3427053 51.6780747,9.67664 39.9049295,9.67664 C28.1313527,9.67664 17.3054274,16.34312 12.2922822,26.4693347 L3.23651452,26.4693347 C1.4486639,26.4693347 0,27.8620211 0,29.5798611 L0,62.0765663 C0,63.7944063 1.4486639,65.1870926 3.23651452,65.1870926 L51.5197012,65.1870926 L51.5197012,103.182794 L29.9912697,103.182794 L18.395917,103.182794 C10.9420083,103.182794 4.87764315,109.011091 4.87764315,116.17484 L4.87764315,128.894819 C4.87764315,130.612659 6.32630705,132.005345 8.11415768,132.005345 C9.9020083,132.005345 11.3506722,130.612659 11.3506722,128.894819 L11.3506722,116.17484 C11.3506722,112.441379 14.5112365,109.403846 18.395917,109.403846 L18.4589212,109.403846 C17.2001328,111.376749 16.4729959,113.695543 16.4729959,116.17484 L16.4729959,136.928686 L11.9789876,136.928686 C10.1911369,136.928686 8.74247303,138.321373 8.74247303,140.039213 L8.74247303,158.740526 L5.82529461,161.544147 C4.5613278,162.758912 4.5613278,164.728497 5.82572614,165.942846 C6.45749378,166.550436 7.28604149,166.854023 8.11415768,166.854023 C8.94227386,166.854023 9.77082158,166.550436 10.4030207,165.942846 L14.2678506,162.228048 C14.8745892,161.644514 15.2155021,160.853611 15.2155021,160.028699 L15.2155021,143.149739 L22.8894938,143.149739 L22.8894938,158.740112 L19.9723154,161.543733 C18.707917,162.758497 18.707917,164.727667 19.9718838,165.942432 C20.604083,166.550021 21.4321992,166.853608 22.2607469,166.853608 C23.0888631,166.853608 23.9174108,166.550021 24.5491784,165.942432 L28.4144398,162.227634 C29.02161,161.644514 29.3625228,160.853196 29.3625228,160.028284 L29.3625228,142.763204 C33.475917,141.782352 36.9174108,138.982048 38.577527,135.219141 L51.5197012,135.219141 L51.5197012,173.773493 L3.23651452,173.773493 C1.4486639,173.773493 0,175.166179 0,176.884019 L0,193.826434 C0,195.544274 1.4486639,196.93696 3.23651452,196.93696 L199.585062,196.93696 C201.372913,196.93696 202.821577,195.544274 202.821577,193.826434 L202.821577,176.884019 C202.821577,175.166179 201.372913,173.773493 199.585062,173.773493 L161.05673,173.773493 L161.05673,135.219141 L174.897793,135.219141 C176.978224,139.935528 181.85371,143.148909 187.349311,143.148909 L198.259817,143.148909 L198.259817,151.310101 L195.342207,154.113722 C194.078241,155.328486 194.078241,157.298072 195.342207,158.512421 C195.974407,159.119596 196.802954,159.423598 197.631071,159.423598 C198.459187,159.423598 199.287734,159.120011 199.919934,158.512421 L203.785195,154.797623 C204.391934,154.214503 204.732846,153.423185 204.732846,152.598274 L204.732846,132.108615 C204.732846,130.390775 203.284183,128.998088 201.496332,128.998088 L193.762788,128.998088 L193.762788,101.922823 C193.762788,101.489423 193.795585,101.060171 193.845212,100.633821 C194.681527,101.286617 195.647734,101.786789 196.70888,102.099916 C197.532249,102.342537 198.374174,102.463225 199.212216,102.463225 C200.581477,102.463225 201.938224,102.141804 203.181909,101.507672 C205.186822,100.48576 206.657925,98.7749705 207.323784,96.6896737 C207.990075,94.6056211 207.770855,92.3963179 206.707552,90.4694505 L206.707552,90.4694505 Z M6.47302905,52.7449874 L173.692946,52.7449874 C175.480797,52.7449874 176.929461,51.3523011 176.929461,49.6344611 C176.929461,47.9166211 175.480797,46.5239347 173.692946,46.5239347 L6.47302905,46.5239347 L6.47302905,32.6903874 L14.4193195,32.6903874 C15.7566473,32.6903874 16.9558838,31.9003137 17.4379087,30.7017242 C21.0010954,21.8466779 30.0301079,15.8976926 39.9044979,15.8976926 C49.778888,15.8976926 58.8074689,21.8470926 62.3706556,30.7017242 C62.8526805,31.9003137 64.051917,32.6903874 65.3892448,32.6903874 L75.926473,32.6903874 C77.2638008,32.6903874 78.4630373,31.9003137 78.9450622,30.7017242 C82.508249,21.8466779 91.5368299,15.8976926 101.41122,15.8976926 C111.28561,15.8976926 120.314622,21.8470926 123.877809,30.7017242 C124.359834,31.9003137 125.559071,32.6903874 126.896398,32.6903874 L137.433627,32.6903874 C138.770954,32.6903874 139.970191,31.9003137 140.452216,30.7017242 C144.015402,21.8466779 153.043983,15.8976926 162.918373,15.8976926 C172.793195,15.8976926 181.821776,21.8470926 185.384963,30.7017242 C185.866988,31.9003137 187.066224,32.6903874 188.403552,32.6903874 L196.348548,32.6903874 L196.348548,46.5239347 L186.639004,46.5239347 C184.851154,46.5239347 183.40249,47.9166211 183.40249,49.6344611 C183.40249,51.3523011 184.851154,52.7449874 186.639004,52.7449874 L196.348548,52.7449874 L196.348548,58.96604 L6.47302905,58.96604 L6.47302905,52.7449874 L6.47302905,52.7449874 Z M26.1260083,136.928686 L22.9460249,136.928686 L22.9460249,116.17484 C22.9460249,112.441379 26.1065892,109.403846 29.9912697,109.403846 L54.7519004,109.403846 L63.4205809,109.403846 C65.2084315,109.403846 66.6570954,108.01116 66.6570954,106.29332 C66.6570954,92.7907326 76.666556,81.4928863 89.9289295,78.8924863 L97.925278,93.3842211 C98.1785892,93.84292 98.230805,94.3692211 98.0724315,94.8656611 C97.9136266,95.3621011 97.5636515,95.7693726 97.0863734,96.0128232 C96.1007469,96.5146547 94.8734606,96.1530042 94.3508714,95.2065747 L90.9292282,89.0058442 C90.0920498,87.4883221 88.1333112,86.9101789 86.5534606,87.7151832 C84.974473,88.5197726 84.3729129,90.4026779 85.2105228,91.9206147 L86.2639004,93.8296484 C84.9265726,96.3222168 84.2266224,99.0864379 84.2266224,101.924482 L84.2266224,132.110274 C84.2266224,133.828114 85.6752863,135.2208 87.4631369,135.2208 L95.196249,135.2208 L95.196249,136.929516 L84.2857427,136.929516 C81.0285145,136.929516 78.195917,134.762931 77.4424564,131.745305 L77.4424564,125.267531 C77.4424564,123.549691 75.9937925,122.157004 74.2059419,122.157004 C72.4180913,122.157004 70.9694274,123.549691 70.9694274,125.267531 L70.9694274,129.000162 L39.4427552,129.000162 L39.4427552,118.424787 C39.4427552,116.706947 37.9940913,115.314261 36.2062407,115.314261 C34.41839,115.314261 32.9697261,116.706947 32.9697261,118.424787 L32.9697261,131.745305 C32.2162656,134.761686 29.3832365,136.928686 26.1260083,136.928686 L26.1260083,136.928686 Z M196.348548,190.716737 L6.47302905,190.716737 L6.47302905,179.995375 L196.348548,179.995375 L196.348548,190.716737 L196.348548,190.716737 Z M154.583701,173.774322 L57.9927303,173.774322 L57.9927303,135.219971 L71.8342241,135.219971 C73.9142241,139.936358 78.7897095,143.149739 84.2857427,143.149739 L95.196249,143.149739 L95.196249,151.310931 L92.2790705,154.114552 C91.0151037,155.329316 91.0151037,157.298901 92.2795021,158.513665 C92.9112697,159.12084 93.7398174,159.424427 94.5679336,159.424427 C95.3960498,159.424427 96.2245975,159.12084 96.8567967,158.513251 L100.721627,154.798453 C101.328365,154.214918 101.669278,153.424015 101.669278,152.599103 L101.669278,132.109444 C101.669278,130.391604 100.220614,128.998918 98.4327635,128.998918 L90.6996515,128.998918 L90.6996515,101.923653 C90.6996515,101.488594 90.7328797,101.057682 90.7829378,100.629674 C92.3032365,101.813333 94.2071701,102.459078 96.1525311,102.458663 C97.4937427,102.458663 98.8539419,102.153002 100.118772,101.508086 C102.123685,100.486175 103.594788,98.7753853 104.260647,96.6900884 C104.926506,94.6047916 104.707286,92.3954884 103.643983,90.4690358 L96.8429876,78.1438863 C98.0944398,77.7138042 98.9911701,76.5678863 98.9911701,75.2175032 C98.9911701,73.4996632 97.5425062,72.1069768 95.7546556,72.1069768 C94.3228216,72.1069768 92.9138589,72.1982189 91.5260415,72.3570632 C91.3741411,72.3649432 91.2222407,72.3807032 91.0712033,72.4097347 C74.7173112,74.4871516 61.8295104,87.2759768 60.3299253,103.182379 L57.9927303,103.182379 L57.9927303,65.1866779 L154.583701,65.1866779 L154.583701,103.182379 L133.054838,103.182379 L121.459485,103.182379 C114.005577,103.182379 107.941212,109.010676 107.941212,116.174425 L107.941212,128.894404 C107.941212,130.612244 109.389876,132.004931 111.177726,132.004931 C112.965577,132.004931 114.414241,130.612244 114.414241,128.894404 L114.414241,116.174425 C114.414241,112.440964 117.574805,109.403432 121.459485,109.403432 L121.52249,109.403432 C120.263701,111.376335 119.536564,113.695128 119.536564,116.174425 L119.536564,136.928272 L115.042556,136.928272 C113.254705,136.928272 111.806041,138.320958 111.806041,140.038798 L111.806041,158.740112 L108.888863,161.543733 C107.624896,162.758497 107.624896,164.728082 108.889295,165.942432 C109.521062,166.550021 110.34961,166.853608 111.177726,166.853608 C112.005842,166.853608 112.83439,166.550021 113.466589,165.942432 L117.331419,162.227634 C117.938158,161.644099 118.279071,160.853196 118.279071,160.028284 L118.279071,143.149324 L125.953062,143.149324 L125.953062,158.740112 L123.035884,161.543733 C121.771917,162.758497 121.771917,164.728082 123.036315,165.942432 C123.668083,166.550021 124.496631,166.853608 125.324747,166.853608 C126.152863,166.853608 126.981411,166.550021 127.61361,165.942432 L131.47844,162.227634 C132.085178,161.644099 132.426091,160.853196 132.426091,160.028284 L132.426091,142.763619 C136.539917,141.782766 139.981411,138.982463 141.641095,135.219556 L154.58327,135.219556 L154.58327,173.774322 L154.583701,173.774322 Z M201.136,94.8656611 C200.977195,95.3621011 200.62722,95.7693726 200.14951,96.0128232 C199.672664,96.2566884 199.124183,96.3060421 198.608498,96.1538337 C198.09195,96.0012105 197.668183,95.6648589 197.414871,95.20616 L193.992797,89.0054295 C193.15605,87.4879074 191.196448,86.9097642 189.617029,87.7147684 C188.03761,88.5197726 187.436481,90.4026779 188.274091,91.9202 L189.327469,93.8288189 C187.990141,96.3213874 187.290191,99.0856084 187.290191,101.923653 L187.290191,132.109444 C187.290191,133.827284 188.738855,135.219971 190.526705,135.219971 L198.260249,135.219971 L198.260249,136.928686 L187.349743,136.928686 C184.092515,136.928686 181.259485,134.762101 180.506025,131.744476 L180.506025,125.266701 C180.506025,123.548861 179.057361,122.156175 177.26951,122.156175 C175.48166,122.156175 174.032996,123.548861 174.032996,125.266701 L174.032996,128.999333 L142.506755,128.999333 L142.506755,118.423958 C142.506755,116.706118 141.058091,115.313432 139.270241,115.313432 C137.48239,115.313432 136.033726,116.706118 136.033726,118.423958 L136.033726,131.744476 C135.280266,134.762101 132.447237,136.928686 129.190008,136.928686 L126.010025,136.928686 L126.010025,116.17484 C126.010025,112.441379 129.170589,109.403846 133.05527,109.403846 L157.816332,109.403846 L166.484581,109.403846 C168.272432,109.403846 169.721095,108.01116 169.721095,106.29332 C169.721095,92.7907326 179.730556,81.4928863 192.992929,78.8924863 L200.989278,93.3842211 C201.242158,93.84292 201.294373,94.3688063 201.136,94.8656611 L201.136,94.8656611 Z" id="Shape"></path>
                </g>
            </g>
        </g>
    </g>
</svg>