<?xml version="1.0" encoding="UTF-8" standalone="no"?>
<svg width="44px" height="102px" viewBox="0 0 44 102" version="1.1" xmlns="http://www.w3.org/2000/svg" xmlns:xlink="http://www.w3.org/1999/xlink">
    <!-- Generator: Sketch 39.1 (31720) - http://www.bohemiancoding.com/sketch -->
    <title>pregnant_1155844_easyicon.net</title>
    <desc>Created with Sketch.</desc>
    <defs></defs>
    <g id="Page-1" stroke="none" stroke-width="1" fill="none" fill-rule="evenodd">
        <g id="Artboard-2" transform="translate(-1509.000000, -2162.000000)" fill="#9C7BB7">
            <g id="pregnant_1155844_easyicon.net" transform="translate(1509.000000, 2162.000000)">
                <g id="Capa_1">
                    <path d="M7.18859649,15.6468 C9.97526316,14.6676 9.32992982,8.5 9.32992982,8.5 C9.32992982,3.808 13.4439298,0 18.5185965,0 C23.5785965,0 27.6999298,3.808 27.6999298,8.5 C27.6999298,13.2124 23.5785965,17.0272 18.5185965,17.0272 C16.8172632,17.0272 15.3065965,16.4696 13.9499298,15.742 C10.1512632,15.9936 5.46526316,16.2452 7.18859649,15.6468 L7.18859649,15.6468 Z M34.8939298,57.188 C34.9525965,63.4304 34.6299298,67.9456 34.6299298,67.9456 L22.9772632,67.9456 L21.0925965,99.9532 C21.0925965,101.0684 20.1245965,102 18.8852632,102 C17.6825965,102 16.6925965,101.0684 16.6925965,99.9532 L14.8005965,67.9456 L9.98259649,67.9456 L13.0992632,32.0348 L6.57992982,57.3376 C6.26459649,58.5888 5.05459649,59.4456 3.71259649,59.4456 C3.49992982,59.4456 3.27259649,59.4184 3.04526316,59.3776 C1.46859649,59.0308 0.478596491,57.5688 0.845263158,56.1068 C0.845263158,56.1068 5.66326316,30.5728 7.95859649,26.2208 L7.95859649,26.2072 C7.95859649,26.2004 7.96592982,26.2004 7.96592982,26.2004 C10.2539298,21.8416 10.5692632,19.2168 19.0172632,19.2168 C25.2579298,19.2168 29.0565965,24.3372 31.3959298,31.2256 C38.2745965,32.4224 43.4959298,37.9984 43.4959298,44.7304 C43.5032632,50.2588 39.9685965,54.9984 34.8939298,57.188 L34.8939298,57.188 Z M39.5432632,42.976 C39.5432632,41.2556 38.0325965,39.8616 36.1699298,39.8616 C34.6372632,39.8616 33.5665965,40.902 33.1485965,42.2212 C32.7379298,40.9088 31.6599298,39.8616 30.1272632,39.8616 C28.2645965,39.8616 26.7612632,41.2556 26.7612632,42.976 C26.7612632,46.6004 33.1485965,49.8236 33.1485965,49.8236 C33.1485965,49.8236 39.5432632,46.6072 39.5432632,42.976 L39.5432632,42.976 Z" id="Shape"></path>
                </g>
            </g>
        </g>
    </g>
</svg>