<?xml version="1.0" encoding="UTF-8" standalone="no"?>
<svg width="58px" height="58px" viewBox="0 0 58 58" version="1.1" xmlns="http://www.w3.org/2000/svg" xmlns:xlink="http://www.w3.org/1999/xlink">
    <!-- Generator: Sketch 39.1 (31720) - http://www.bohemiancoding.com/sketch -->
    <title>person_prison_1189671_easyicon.net</title>
    <desc>Created with Sketch.</desc>
    <defs></defs>
    <g id="Page-1" stroke="none" stroke-width="1" fill="none" fill-rule="evenodd">
        <g id="Artboard-4" transform="translate(-654.000000, -465.000000)" fill="#CA7CAC">
            <g id="person_prison_1189671_easyicon.net" transform="translate(654.000000, 465.000000)">
                <g id="771">
                    <g id="Group">
                        <g id="Shape">
                            <path d="M45.5609273,57.4907059 L12.1235434,57.4907059 C5.5124044,57.4907059 0.136352941,52.0979822 0.136352941,45.4716057 L0.136352941,12.0944343 C0.136352941,5.46805758 5.5124044,0.0789411765 12.1235434,0.0789411765 L45.5609273,0.0789411765 C52.172066,0.0789411765 57.5481176,5.46805758 57.5481176,12.0944343 L57.5481176,45.4716057 C57.5481176,52.094375 52.172066,57.4907059 45.5609273,57.4907059 L45.5609273,57.4907059 L45.5609273,57.4907059 Z M11.1476742,3.58823529 C6.97915317,3.58823529 3.58823529,6.98974959 3.58823529,11.1751374 L3.58823529,46.2295336 C3.58823529,50.4184681 6.97915317,53.8235294 11.1476742,53.8235294 L46.2605399,53.8235294 C50.4326115,53.8235294 53.8235294,50.4184681 53.8235294,46.2295336 L53.8235294,11.1751374 C53.8235294,6.98974959 50.4326115,3.58823529 46.2605399,3.58823529 L11.1476742,3.58823529 L11.1476742,3.58823529 L11.1476742,3.58823529 Z"></path>
                            <polygon points="10.7647059 3.58823529 10.7647059 52.7147647 14.4948587 52.7147647 14.4948587 3.58823524"></polygon>
                            <polygon points="21.5294118 3.58823529 21.5294118 52.7147647 25.1855397 52.7147647 25.1855397 3.58823524"></polygon>
                            <polygon points="32.2941176 3.58823529 32.2941176 52.7147647 36.0172623 52.7147647 36.0172623 3.58823524"></polygon>
                            <polygon points="43.0588235 3.58823529 43.0588235 52.7147647 46.3544634 52.7147647 46.3544634 3.58823529"></polygon>
                            <g transform="translate(2.000000, 10.764706)">
                                <path d="M39.5374118,28.8781176 C38.1057059,30.9844118 36.3259412,34.1133529 34.2591176,37.8415294 C31.9913529,41.9536471 29.3827059,36.9193529 26.5300588,36.9193529 C23.6020588,36.9193529 20.8606471,41.7670588 18.4924118,37.5508824 C16.4542941,33.9231765 14.6852941,30.9987647 13.2930588,28.9785882 C6.08070588,28.9785882 2.36329412,33.6432941 0.454352941,39.2804118 C-1.46176471,44.9247059 54.9165882,44.8995882 53.1691176,39.2337647 C51.4288235,33.5643529 47.654,28.8781176 39.5374118,28.8781176 L39.5374118,28.8781176 L39.5374118,28.8781176 Z"></path>
                                <path d="M37.3880588,11.3172941 C37.3880588,17.2773529 32.6408235,28.6771765 26.7848235,28.6771765 C20.9216471,28.6771765 16.178,17.2773529 16.178,11.3172941 C16.178,5.35005882 20.9216471,0.516705882 26.7848235,0.516705882 C32.6372353,0.520294118 37.3880588,5.35005882 37.3880588,11.3172941 L37.3880588,11.3172941 L37.3880588,11.3172941 Z"></path>
                            </g>
                        </g>
                    </g>
                </g>
            </g>
        </g>
    </g>
</svg>