<?xml version="1.0" encoding="UTF-8" standalone="no"?>
<svg width="189px" height="174px" viewBox="0 0 189 174" version="1.1" xmlns="http://www.w3.org/2000/svg" xmlns:xlink="http://www.w3.org/1999/xlink">
    <!-- Generator: Sketch 39.1 (31720) - http://www.bohemiancoding.com/sketch -->
    <title>Group</title>
    <desc>Created with Sketch.</desc>
    <defs></defs>
    <g id="Page-1" stroke="none" stroke-width="1" fill="none" fill-rule="evenodd">
        <g id="Artboard-2" transform="translate(-608.000000, -2558.000000)" fill="#9C7BB7">
            <g id="web_programming_1192891_easyicon.net" transform="translate(608.000000, 2558.000000)">
                <g id="Layer_1">
                    <g id="Group">
                        <path d="M179.640391,0.408268156 L9.3596087,0.408268156 C4.31641304,0.408268156 0.229173913,4.76021229 0.229173913,10.1289385 L0.229173913,123.860782 C0.229173913,129.229508 4.31641304,133.581453 9.3596087,133.581453 L73.0434783,133.581453 L73.0434783,155.608492 L48.2621087,155.608492 C43.6051304,155.608492 39.8164565,159.642084 39.8164565,164.600112 C39.8164565,169.55814 43.6051304,173.591732 48.2621087,173.591732 L140.737891,173.591732 C145.39487,173.591732 149.183543,169.55814 149.183543,164.600112 C149.183543,159.642084 145.39487,155.608492 140.737891,155.608492 L115.956522,155.608492 L115.956522,133.581453 L179.640391,133.581453 C184.683587,133.581453 188.770826,129.229508 188.770826,123.860782 L188.770826,10.1289385 C188.770826,4.76021229 184.683587,0.408268156 179.640391,0.408268156 L179.640391,0.408268156 Z M175.075174,119.000447 L13.9248261,119.000447 L13.9248261,14.9892737 L175.075174,14.9892737 L175.075174,119.000447 L175.075174,119.000447 Z" id="Shape"></path>
                        <path d="M43.4120217,72.4865531 L72.2112391,86.7448324 C72.9558261,87.1117877 73.7483478,87.2979385 74.5678043,87.2979385 C75.6351522,87.2979385 76.6751087,86.9752123 77.5794783,86.3628101 C79.1992174,85.2609721 80.1661304,83.3834246 80.1661304,81.3396536 L80.1661304,81.1831508 C80.1661304,78.8740056 78.8947174,76.7529553 76.9266522,75.7789441 L58.914587,66.8699497 L76.9271087,57.9590112 C78.8947174,56.985 80.1661304,54.8634637 80.1661304,52.5552905 L80.1661304,52.4002458 C80.1661304,50.3535587 79.1987609,48.4760112 77.5799348,47.3775754 C76.6842391,46.7680894 75.641087,46.4463352 74.5641522,46.4463352 C73.7524565,46.4463352 72.9375652,46.6363743 72.2085,46.9970112 L43.4115652,61.2533464 C41.4448696,62.2278436 40.1743696,64.3488939 40.1743696,66.656581 L40.1743696,67.0833184 C40.173913,69.3880894 41.4439565,71.5086536 43.4120217,72.4865531 L43.4120217,72.4865531 Z" id="Shape"></path>
                        <path d="M80.4226957,101.528028 C81.4731522,103.058547 83.1627391,103.972291 84.9427174,103.972291 L85.0865217,103.972291 C87.5298261,103.972291 89.670913,102.30714 90.4150435,99.8332291 L109.386261,37.2515531 C109.930891,35.4449665 109.628674,33.451743 108.577761,31.9178212 C107.527304,30.3873017 105.837717,29.4730726 104.057283,29.4730726 L103.913478,29.4730726 C101.469261,29.4730726 99.3263478,31.1382235 98.5817609,33.6121341 L79.6091739,96.1991564 C79.0695652,98.0067151 79.3736087,99.9984804 80.4226957,101.528028 L80.4226957,101.528028 Z" id="Shape"></path>
                        <path d="M108.83387,52.5548045 C108.83387,54.8615196 110.10437,56.9825698 112.072891,57.9604693 L130.084957,66.8694637 L112.072891,75.7784581 C110.105283,76.7524693 108.83387,78.8735196 108.83387,81.1826648 L108.83387,81.3391676 C108.83387,83.3829385 109.800783,85.260486 111.421435,86.3628101 C112.322609,86.9742402 113.363478,87.2974525 114.432196,87.2974525 C115.250283,87.2974525 116.042804,87.1113017 116.791957,86.7424022 L145.589804,72.4846089 C147.556043,71.5081676 148.826087,69.3876034 148.826087,67.0823464 L148.826087,66.6556089 C148.826087,64.3479218 147.555587,62.2268715 145.587978,61.2523743 L116.790587,46.995067 C116.064261,46.6358883 115.250739,46.4453631 114.438587,46.4453631 C113.362109,46.4453631 112.318957,46.7671173 111.423261,47.3746592 C109.801696,48.4750391 108.834326,50.3525866 108.834326,52.3992737 L108.834326,52.5548045 L108.83387,52.5548045 Z" id="Shape"></path>
                    </g>
                </g>
            </g>
        </g>
    </g>
</svg>