<?xml version="1.0" encoding="UTF-8" standalone="no"?>
<svg width="452px" height="820px" viewBox="0 0 452 820" version="1.1" xmlns="http://www.w3.org/2000/svg" xmlns:xlink="http://www.w3.org/1999/xlink">
    <!-- Generator: Sketch 40.3 (33839) - http://www.bohemiancoding.com/sketch -->
    <title>录音</title>
    <desc>Created with Sketch.</desc>
    <defs></defs>
    <g id="Page-1" stroke="none" stroke-width="1" fill="none" fill-rule="evenodd">
        <g id="Artboard-2" transform="translate(-223.000000, -3950.000000)" fill="#3EC1AF">
            <path d="M476.165,4626.20325 L476.165,4710.82625 C566.408,4715.37425 636.193,4743.39325 636.193,4769.49225 C636.193,4770.16925 266.118,4770.16925 266.118,4769.49225 C266.118,4744.35325 330.72,4717.23825 416.143,4711.19325 L416.143,4625.83625 C307.097,4611.20525 223,4524.15225 223,4417.89325 L223,4375.69525 L253.011,4375.69525 L253.011,4417.89325 C253.011,4518.84225 340.302,4600.69725 447.992,4600.72625 L448.112,4600.72625 C555.802,4600.69725 644.991,4518.87125 644.991,4417.89325 L644.991,4375.69525 L674.972,4375.69525 L674.972,4417.89325 C674.972,4525.39525 587.018,4613.12525 476.165,4626.20325 L476.165,4626.20325 Z M448.022,4570.84225 C356.874,4570.84225 282.992,4501.58425 282.992,4416.14225 L282.992,4375.72325 L614.95,4375.72325 L614.95,4416.14225 C614.92,4501.58425 539.17,4570.84225 448.022,4570.84225 L448.022,4570.84225 Z M282.992,4105.50025 C282.992,4020.05825 356.874,3950.80025 448.022,3950.80025 C539.17,3950.80025 614.92,4020.05825 614.92,4105.50025 L614.92,4347.61925 L282.961,4347.61925 L282.961,4105.50025 L282.992,4105.50025 L282.992,4105.50025 Z" id="录音"></path>
        </g>
    </g>
</svg>