<?xml version="1.0" encoding="UTF-8" standalone="no"?>
<svg width="115px" height="116px" viewBox="0 0 115 116" version="1.1" xmlns="http://www.w3.org/2000/svg" xmlns:xlink="http://www.w3.org/1999/xlink">
    <!-- Generator: Sketch 39.1 (31720) - http://www.bohemiancoding.com/sketch -->
    <title>family_1149350_easyicon.net</title>
    <desc>Created with Sketch.</desc>
    <defs></defs>
    <g id="Page-1" stroke="none" stroke-width="1" fill="none" fill-rule="evenodd">
        <g id="Artboard-2" transform="translate(-661.000000, -2494.000000)" fill="#9C7BB7">
            <g id="family_1149350_easyicon.net" transform="translate(661.000000, 2494.000000)">
                <g id="Layer_1">
                    <g id="Group">
                        <circle id="Oval" cx="54.134" cy="29.276" r="7.158"></circle>
                        <circle id="Oval" cx="54.362" cy="6.72" r="6.321"></circle>
                        <path d="M33.789,115.522 C35.383,115.522 36.949,114.16 36.949,112.533 L36.949,95.063 C36.958,94.796 37.18,94.537 37.429,94.441 C39.581,93.615 39.623,90.726 39.55,89.572 C39.533,89.305 39.319,89.202 39.09,89.341 L36.393,90.975 C36.164,91.113 35.762,91.226 35.494,91.226 L18.07,91.226 C17.518,91.226 17.424,90.488 17.425,89.975 C17.426,89.707 17.453,89.275 17.453,89.008 L17.453,79.331 C17.453,79.063 17.391,79.107 17.15,79.222 C14.324,80.562 4.474,85.964 1.757,87.46 C-0.45,88.744 0.066,92.196 4.03,92.196 L9.604,92.196 C9.872,92.196 10.266,92.33 10.343,92.586 C10.343,92.586 10.147,112.58 10.147,112.667 C10.147,114.278 11.414,115.583 12.977,115.583 C14.54,115.583 15.79,114.278 15.79,112.667 C15.79,112.565 15.758,103.937 15.758,103.937 C15.758,103.669 15.975,103.322 16.242,103.319 L25.383,103.319 C25.65,103.315 25.745,103.491 25.604,103.719 C24.709,105.165 22.377,109.304 21.306,110.956 C20.485,112.039 20.569,113.586 21.555,114.572 C22.633,115.65 24.429,115.691 25.463,114.568 C25.525,114.5 28.621,109.762 30.272,106.354 C30.388,106.113 30.481,106.134 30.481,106.402 C30.483,108.674 30.503,111.218 30.572,112.556 C30.572,112.563 30.571,112.57 30.571,112.577 C30.574,114.203 32.196,115.522 33.789,115.522 L33.789,115.522 Z" id="Shape"></path>
                        <path d="M60.303,115.768 C62.706,115.768 64.743,113.557 64.762,111.378 L64.758,45.094 L72.525,38.672 C73.06,38.23 73.48,37.664 73.748,37.024 L80.102,21.852 C81.017,19.667 79.987,17.154 77.802,16.239 C76.079,15.516 74.163,16.017 72.977,17.328 C72.659,17.679 72.382,18.076 72.189,18.538 L71.394,20.436 L62.33,15.32 C61.901,15.078 61.418,14.951 60.926,14.951 L60.925,14.951 L47.342,14.951 C46.833,14.951 46.334,15.087 45.895,15.344 L36.94,20.597 L36.078,18.538 C35.988,18.322 35.87,18.127 35.751,17.935 C34.659,16.178 32.435,15.413 30.465,16.239 C28.28,17.154 27.25,19.667 28.165,21.852 L34.519,37.024 C34.787,37.664 35.207,38.23 35.742,38.672 L44.636,46.027 C44.65,46.096 44.659,111.326 44.659,111.326 C44.67,113.505 46.618,115.769 49.021,115.769 C51.246,115.769 53.073,113.859 53.345,111.846 C53.381,111.581 53.376,76.214 53.376,76.214 C53.376,75.946 53.593,75.73 53.86,75.73 L55.555,75.73 C55.823,75.73 56.039,75.947 56.039,76.214 L56.035,111.397 C56.055,113.576 57.9,115.768 60.303,115.768 L60.303,115.768 Z M48.377,37.987 L42.024,32.733 L39.17,25.919 L48.119,20.669 L60.174,20.669 L69.17,25.746 L66.244,32.733 L59.891,37.987 L48.377,37.987 L48.377,37.987 Z" id="Shape"></path>
                        <circle id="Oval" cx="81.844" cy="42.332" r="4.514"></circle>
                        <path d="M114.286,62.834 L113.525,59.161 L111.756,50.624 C111.756,50.624 110.928,46.713 107.414,46.713 L100.304,46.713 C99.627,46.713 98.786,44.604 98.224,44.604 L90.41,44.604 C88.312,44.604 87.649,45.191 87.649,45.191 L87.322,45.456 L81.418,50.238 C81.418,50.238 81.188,50.444 80.951,50.857 C80.697,51.298 80.435,51.976 80.435,52.913 L80.435,58.541 C80.435,65.981 86.461,66.935 86.461,66.935 L87.342,66.935 C87.354,66.989 87.356,67.046 87.341,67.104 L83.088,83.57 C83.034,83.779 83.165,83.949 83.381,83.949 L88.621,83.949 C88.837,83.949 89.012,84.124 89.012,84.34 L89.012,111.325 C89.012,111.541 89.01,111.728 89.009,111.743 C89.008,111.752 89.008,111.762 89.008,111.771 C89.008,113.901 90.735,115.624 92.865,115.624 C94.995,115.624 96.638,113.895 96.638,111.765 L96.638,110.961 L96.638,84.116 C96.638,83.9 96.813,83.732 97.029,83.74 L98.398,83.794 C98.614,83.802 98.789,83.984 98.789,84.201 L98.789,111.325 C98.789,111.541 98.79,111.728 98.792,111.744 C98.794,111.759 98.796,111.803 98.797,111.842 C98.798,111.872 98.798,111.902 98.798,111.912 C98.798,114.042 100.399,115.625 102.529,115.625 C104.659,115.625 106.443,113.896 106.443,111.766 C106.443,111.491 106.415,111.221 106.415,110.962 L106.415,84.372 C106.415,84.156 106.59,83.975 106.806,83.967 L110.799,83.825 C111.015,83.817 111.159,83.639 111.121,83.426 L108.167,66.937 L109.226,66.937 C115.333,66.936 114.286,62.834 114.286,62.834 L114.286,62.834 Z" id="Shape"></path>
                        <circle id="Oval" cx="98.142" cy="35.174" r="7.158"></circle>
                    </g>
                </g>
            </g>
        </g>
    </g>
</svg>