<?xml version="1.0" encoding="UTF-8" standalone="no"?>
<svg width="59px" height="59px" viewBox="0 0 59 59" version="1.1" xmlns="http://www.w3.org/2000/svg" xmlns:xlink="http://www.w3.org/1999/xlink">
    <!-- Generator: Sketch 39.1 (31720) - http://www.bohemiancoding.com/sketch -->
    <title>Shape</title>
    <desc>Created with Sketch.</desc>
    <defs></defs>
    <g id="Page-1" stroke="none" stroke-width="1" fill="none" fill-rule="evenodd">
        <g id="Artboard-2" transform="translate(-141.000000, -1486.000000)" fill="#CA7CAC">
            <g id="Oval-2" transform="translate(59.000000, 1418.000000)">
                <g id="restaurant_1195448_easyicon.net" transform="translate(82.000000, 68.000000)">
                    <g id="_x35_3">
                        <path d="M50.2846473,8.7153527 C44.7328942,3.16359959 37.3512842,0.106126556 29.4998776,0.106126556 C21.648471,0.106126556 14.2672282,3.16359959 8.7153527,8.7153527 C3.16359959,14.2672282 0.106004149,21.6485934 0.106004149,29.5 C0.106004149,37.3514066 3.16359959,44.7327718 8.7153527,50.2846473 C14.2671058,55.8364004 21.648471,58.8938734 29.4998776,58.8938734 C37.3512842,58.8938734 44.7327718,55.8364004 50.2846473,50.2846473 C55.8365228,44.7328942 58.8939959,37.3514066 58.8939959,29.5 C58.8939959,21.6485934 55.8364004,14.2671058 50.2846473,8.7153527 L50.2846473,8.7153527 Z M45.696112,48.6713278 C45.6953776,47.3970747 45.6942759,46.451973 45.6930519,46.1442427 C45.698805,44.916749 45.6595124,15.4453921 45.6595124,15.4453921 L44.9870104,15.442332 C44.9870104,15.442332 39.501112,18.5383631 39.501112,41.4967075 C43.7171639,42.6546743 41.9432469,47.2599793 41.6221743,47.8441037 C41.6221743,48.2132822 41.63111,49.6619647 41.643473,51.4713797 C39.3283963,52.7560373 36.7905394,53.6852261 34.1033465,54.1851349 C34.1042033,48.9173651 34.1051826,42.3813402 34.1051826,41.5735788 C34.1023672,40.3315187 31.8418838,35.1419668 35.6192303,31.2875041 C35.6220456,31.281751 35.6307365,31.2715913 35.6364896,31.2636349 C36.5575996,30.3903859 37.1663278,29.1868838 37.2580104,27.8350249 C37.2636411,27.7397925 37.2609481,27.5001203 37.2609481,27.5001203 L35.9678444,16.2915892 L34.7764606,16.2901203 L35.1297261,28.7807386 L33.6972012,28.7778008 L33.6972012,16.2886515 L32.6495228,16.2915892 L32.6495228,28.8585892 L31.4627905,28.8585892 L31.4613216,16.2901203 L30.3077614,16.2915892 L30.3062925,28.8585892 L28.9005747,28.8585892 L29.3021909,16.2871826 L28.2147303,16.2871826 L26.8918817,26.919668 C26.8918817,26.919668 26.8590768,27.3200602 26.8590768,27.471722 C26.8590768,29.1113589 27.6195892,30.5779129 28.8080353,31.5317054 C32.7262718,35.9535228 30.0516867,40.4637178 30.0516867,41.5358776 C30.0536452,42.2526909 30.0542573,49.2123651 30.0545021,54.6026639 C29.8699129,54.6067033 29.6850788,54.6097635 29.4997552,54.6097635 C26.1620934,54.6097635 22.9752365,53.9535415 20.0592656,52.7659523 L20.0592656,41.4459087 C19.1251805,38.9209046 18.2547469,34.5414398 19.5753921,32.6889378 C21.9899855,31.9587822 24.7553963,28.6741224 24.7568651,24.0707759 C24.7568651,19.5053755 22.2848631,15.3052365 17.8973195,15.2339959 L17.8973195,15.2310581 L17.7825021,15.2310581 L17.7825021,15.2339959 C13.3955705,15.3052365 10.9244253,19.5053755 10.9244253,24.0707759 C10.9229564,28.6741224 13.691305,31.9587822 16.1044295,32.6889378 C17.427278,34.5414398 16.5556203,38.9209046 15.6215353,41.4459087 L15.6215353,50.4151328 C8.85722199,45.9115477 4.39023651,38.218168 4.39023651,29.5 C4.39023651,15.6544627 15.6543402,4.39035892 29.4998776,4.39035892 C43.3454149,4.39035892 54.6097635,15.6544627 54.6097635,29.5 C54.6097635,37.1784461 51.1440643,44.0616162 45.696112,48.6713278 L45.696112,48.6713278 Z M13.8301141,25.8888817 C13.8686722,26.2000394 13.979083,26.5520809 14.0858216,26.8681349 C14.1854606,27.1978983 14.3061535,27.5239896 14.4352925,27.8363714 C14.6823091,28.4670104 14.9487884,29.0517469 15.1776888,29.5558174 C15.410139,30.0556037 15.6163942,30.4739896 15.7776037,30.7550353 C15.9309793,31.0434253 16.0705228,31.1669336 16.0805602,31.155305 C16.0833755,31.169749 15.8756515,31.1242137 15.6077033,30.905473 C15.3340021,30.6940768 14.9844087,30.3562344 14.618168,29.9117759 C14.2462967,29.4680519 13.8614502,28.9179564 13.4981473,28.2852365 C13.3224938,27.9671017 13.1560207,27.6277905 13.0012988,27.2690166 C12.8537988,26.8940851 12.7318817,26.5331079 12.6491349,26.1059087 C12.4972282,25.2843154 12.5226888,24.4991992 12.608251,23.776388 C12.6887946,23.0543112 12.8420477,22.3953963 13.0130498,21.8471369 C13.1801349,21.2949606 13.3719461,20.8509917 13.5308299,20.5481577 C13.6857967,20.2400602 13.8119979,20.0942739 13.8119979,20.0942739 C13.8119979,20.0942739 13.7851909,20.2903693 13.7718485,20.6151141 C13.7619336,20.9405934 13.7451639,21.4076971 13.7283942,21.9655041 C13.7155415,23.0652054 13.6247158,24.5602801 13.8301141,25.8888817 L13.8301141,25.8888817 Z" id="Shape"></path>
                    </g>
                </g>
            </g>
        </g>
    </g>
</svg>