<?xml version="1.0" encoding="UTF-8" standalone="no"?>
<svg width="757px" height="757px" viewBox="0 0 757 757" version="1.1" xmlns="http://www.w3.org/2000/svg" xmlns:xlink="http://www.w3.org/1999/xlink">
    <!-- Generator: Sketch 40.3 (33839) - http://www.bohemiancoding.com/sketch -->
    <title>影子</title>
    <desc>Created with Sketch.</desc>
    <defs></defs>
    <g id="Page-1" stroke="none" stroke-width="1" fill="none" fill-rule="evenodd">
        <g id="Artboard-2" transform="translate(-1124.000000, -4118.000000)" fill="#E4C04E">
            <path d="M1856.396,4255.906 L1743.094,4255.906 L1743.094,4142.604 C1743.094,4129.528 1732.413,4118.816 1719.338,4118.816 L1147.82,4118.816 C1134.681,4118.816 1124,4129.528 1124,4142.604 L1124,4714.091 C1124,4727.229 1134.681,4737.91 1147.82,4737.91 L1261.09,4737.91 L1261.09,4851.18 C1261.09,4864.319 1271.771,4875 1284.878,4875 L1856.396,4875 C1869.472,4875 1880.184,4864.319 1880.184,4851.18 L1880.184,4279.662 C1880.184,4266.587 1869.472,4255.906 1856.396,4255.906 L1856.396,4255.906 Z M1171.639,4690.271 L1695.455,4690.271 L1695.455,4166.424 L1171.639,4166.424 L1171.639,4690.271 Z M1308.729,4827.361 L1308.729,4776.791 L1359.299,4827.361 L1308.729,4827.361 L1308.729,4827.361 Z M1427.324,4827.361 L1337.874,4737.91 L1383.749,4737.91 L1473.168,4827.361 L1427.324,4827.361 L1427.324,4827.361 Z M1541.162,4827.361 L1451.743,4737.91 L1490.56,4737.91 L1580.011,4827.361 L1541.162,4827.361 L1541.162,4827.361 Z M1648.036,4827.361 L1558.585,4737.91 L1599.797,4737.91 L1689.216,4827.361 L1648.036,4827.361 L1648.036,4827.361 Z M1757.21,4827.361 L1667.791,4737.91 L1706.608,4737.91 L1796.09,4827.361 L1757.21,4827.361 L1757.21,4827.361 Z M1832.513,4795.884 L1743.094,4706.403 L1743.094,4660.559 L1832.513,4749.978 L1832.513,4795.884 L1832.513,4795.884 Z M1832.513,4681.984 L1743.094,4592.565 L1743.094,4553.748 L1832.513,4643.167 L1832.513,4681.984 L1832.513,4681.984 Z M1832.513,4575.142 L1743.094,4485.691 L1743.094,4444.511 L1832.513,4533.93 L1832.513,4575.142 L1832.513,4575.142 Z M1832.513,4465.967 L1743.094,4376.549 L1743.094,4337.7 L1832.513,4427.118 L1832.513,4465.967 L1832.513,4465.967 Z M1832.513,4359.093 L1776.934,4303.482 L1832.513,4303.482 L1832.513,4359.093 L1832.513,4359.093 Z" id="影子"></path>
        </g>
    </g>
</svg>