<?xml version="1.0" encoding="UTF-8" standalone="no"?>
<svg width="716px" height="639px" viewBox="0 0 716 639" version="1.1" xmlns="http://www.w3.org/2000/svg" xmlns:xlink="http://www.w3.org/1999/xlink">
    <!-- Generator: Sketch 40.3 (33839) - http://www.bohemiancoding.com/sketch -->
    <title>震动</title>
    <desc>Created with Sketch.</desc>
    <defs></defs>
    <g id="Page-1" stroke="none" stroke-width="1" fill="none" fill-rule="evenodd">
        <g id="Artboard-2" transform="translate(-1211.000000, -4361.000000)" fill="#3EC1AF">
            <path d="M1925.98811,4672.96388 L1921.59911,4684.72488 C1919.17011,4691.21688 1911.95811,4694.20688 1905.47511,4691.39488 L1823.38211,4655.76688 C1821.07411,4654.76688 1819.36511,4653.04888 1817.98111,4651.10488 C1815.55311,4648.69488 1814.00311,4645.42488 1813.98411,4641.81988 L1813.68411,4564.28488 L1751.57211,4536.81988 C1745.33211,4534.07388 1742.16511,4526.65588 1744.50011,4520.28488 L1744.77111,4519.56588 C1740.49211,4517.34288 1737.47611,4512.94288 1737.45611,4507.89788 L1737.18511,4436.07088 L1670.32711,4407.05588 C1663.85311,4404.24388 1660.56511,4396.69688 1662.98511,4390.21188 L1667.37411,4378.45088 C1669.80411,4371.95888 1677.01511,4368.96988 1683.49811,4371.78188 L1765.59311,4407.40988 C1767.89911,4408.40988 1769.60911,4410.12888 1770.99211,4412.07188 C1773.42111,4414.48188 1774.97011,4417.75088 1774.99111,4421.35688 L1775.31611,4507.09488 L1843.36111,4537.17388 C1848.91911,4539.63188 1851.80611,4545.76888 1850.75911,4551.58788 C1851.13311,4552.77488 1851.50811,4553.97888 1851.51611,4555.27888 L1851.78811,4627.10588 L1918.64511,4656.12188 C1925.12011,4658.93188 1928.40811,4666.47988 1925.98811,4672.96388 L1925.98811,4672.96388 Z M1810.83511,4820.87888 L1594.59611,4974.54788 C1572.88511,4989.98088 1543.01111,4984.54288 1527.87611,4962.39388 L1274.39211,4591.48488 C1259.24911,4569.34688 1264.58411,4538.88388 1286.29311,4523.45088 L1502.53311,4369.78188 C1524.24311,4354.34988 1554.11811,4359.79488 1569.25111,4381.93488 L1822.74511,4752.84288 C1837.87811,4774.99188 1832.54411,4805.44688 1810.83511,4820.87888 L1810.83511,4820.87888 Z M1786.40511,4763.77388 L1546.61711,4412.92088 C1539.05011,4401.85188 1524.11311,4399.12288 1513.25711,4406.83988 L1316.67211,4546.53388 C1305.81811,4554.25088 1303.15511,4569.48688 1310.72111,4580.55588 L1550.51211,4931.41788 C1558.07811,4942.48788 1573.01511,4945.20688 1583.87011,4937.48988 L1780.44611,4797.79488 C1791.30111,4790.07888 1793.97311,4774.84288 1786.40511,4763.77388 L1786.40511,4763.77388 Z M1538.89011,4850.31388 C1533.46311,4854.17288 1526.00011,4852.80888 1522.20711,4847.27788 L1337.23311,4576.61388 C1333.45011,4571.08388 1334.77811,4563.46088 1340.21411,4559.60288 L1517.12511,4433.87488 C1522.56311,4430.01588 1530.02711,4431.37088 1533.80911,4436.91988 L1718.79211,4707.57488 C1722.57511,4713.11388 1721.23911,4720.72688 1715.81211,4724.58488 L1538.89011,4850.31388 L1538.89011,4850.31388 Z M1524.91511,4473.81888 L1373.54411,4580.01488 L1538.38411,4818.14088 L1689.74811,4711.93588 L1524.91511,4473.81888 L1524.91511,4473.81888 Z M1641.05111,4807.50188 C1651.91511,4799.78488 1666.84311,4802.50488 1674.41011,4813.57388 C1681.98511,4824.65288 1679.31211,4839.87988 1668.45811,4847.59588 C1657.60411,4855.31288 1642.66611,4852.58388 1635.09911,4841.51588 C1627.53211,4830.44388 1630.19611,4815.20788 1641.05111,4807.50188 L1641.05111,4807.50188 Z M1323.84611,4762.46588 C1330.05011,4763.55888 1334.93511,4768.87288 1334.96311,4775.28188 L1335.24311,4849.71588 L1401.25211,4878.89888 C1404.56811,4880.36588 1406.92111,4883.17788 1408.13511,4886.42788 L1408.37911,4886.43788 C1415.35611,4886.76388 1421.02811,4892.66788 1421.05411,4899.63788 L1421.39111,4987.96188 C1421.41911,4994.92188 1415.78711,5000.31288 1408.81711,4999.98588 L1396.19611,4999.39788 C1389.21911,4999.07088 1383.54811,4993.16588 1383.52111,4986.19688 L1383.24111,4911.16588 L1309.46011,4878.54488 C1306.63911,4877.30088 1304.56511,4875.03288 1303.22011,4872.40688 C1299.82911,4869.98888 1297.44711,4866.21388 1297.42911,4861.84188 L1297.13111,4784.57788 L1220.73311,4751.42388 C1218.43611,4750.42488 1216.71711,4748.70588 1215.33411,4746.76188 C1212.90511,4744.35188 1211.35411,4741.08288 1211.33611,4737.48688 L1211.00011,4649.16188 C1210.97111,4642.19288 1216.60611,4636.81188 1223.57411,4637.13788 L1236.19411,4637.72788 C1243.17311,4638.04488 1248.84311,4643.96688 1248.87111,4650.93688 L1249.15111,4722.76388 L1315.99911,4751.77788 C1320.46411,4753.71288 1323.24011,4757.93488 1323.84611,4762.46588 L1323.84611,4762.46588 Z" id="震动"></path>
        </g>
    </g>
</svg>