<?xml version="1.0" encoding="UTF-8" standalone="no"?>
<svg width="125px" height="189px" viewBox="0 0 125 189" version="1.1" xmlns="http://www.w3.org/2000/svg" xmlns:xlink="http://www.w3.org/1999/xlink">
    <!-- Generator: Sketch 39.1 (31720) - http://www.bohemiancoding.com/sketch -->
    <title>Group 6</title>
    <desc>Created with Sketch.</desc>
    <defs></defs>
    <g id="Page-1" stroke="none" stroke-width="1" fill="none" fill-rule="evenodd">
        <g id="iPhone-6" transform="translate(-137.000000, -221.000000)">
            <g id="Group-6" transform="translate(91.000000, 212.000000)">
                <circle id="Oval-6" stroke="#FFFFFF" stroke-width="3" cx="133" cy="33" r="15"></circle>
                <g id="finger_up_1189485_easyicon.net" transform="translate(96.960642, 101.385277) rotate(36.000000) translate(-96.960642, -101.385277) translate(35.960642, 20.385277)" fill="#FFFFFF">
                    <g id="703" transform="translate(-0.000000, -0.000000)">
                        <g id="Group">
                            <g id="Shape">
                                <path d="M51.193831,133.143219 L51.193831,149.578906 C51.193831,155.936869 56.0414243,161.11219 62.0045727,161.11219 L110.561637,161.11219 C116.545069,161.11219 121.372379,155.936869 121.372379,149.578906 L121.372379,133.143219 C121.372379,126.76504 116.534927,121.599827 110.561637,121.599827 L62.0045727,121.599827 C56.0312829,121.599827 51.193831,126.76504 51.193831,133.143219 L51.193831,133.143219 L51.193831,133.143219 Z"></path>
                                <path d="M60.7267552,41.1801907 L60.8383107,9.5116739 C60.8383107,9.5116739 58.7897461,0.202160976 51.9747195,0.202160976 C44.3990872,0.202160976 40.7481801,3.82084244 40.7481801,10.3304259 L40.7481801,49.4485746 C40.7481801,72.9902202 33.0914165,69.20981 33.0914165,69.20981 L13.7416088,61.2749917 C1.7544637,61.2749917 0.172403948,64.0041649 0.172403948,70.2206149 C4.21882601,80.7835258 40.7684629,99.0993102 40.7684629,99.0993102 C52.2586789,102.475399 57.8060295,110.55173 57.8060295,110.55173 L111.291819,111.178429 L111.099132,105.902027 C111.099132,90.133471 121.321672,88.2634819 121.321672,81.7538985 L121.321672,43.6162305 C121.321672,37.1167551 116.129271,30.5364154 109.709759,30.5364154 L101.616915,30.5364154 L101.616915,40.6444641 L90.8568803,40.6444641 L90.8568803,26.533628 C90.8568803,25.6643359 90.6337693,24.855692 90.2686786,24.1076963 C89.2748206,21.9951141 83.9302982,20.3980424 81.3239562,20.3980424 C77.9671499,20.3980424 71.3346686,22.9654868 71.070992,26.0787659 C71.0608506,26.2506027 70.9695779,40.6444641 70.9695779,40.6444641 L60.7267552,41.1801907 L60.7267552,41.1801907 L60.7267552,41.1801907 Z"></path>
                            </g>
                        </g>
                    </g>
                </g>
                <circle id="Oval-6" stroke="#FFFFFF" stroke-width="3" opacity="0.649999976" cx="133.5" cy="33.5" r="22.5"></circle>
            </g>
        </g>
    </g>
</svg>