<?xml version="1.0" encoding="UTF-8" standalone="no"?>
<svg width="820px" height="820px" viewBox="0 0 820 820" version="1.1" xmlns="http://www.w3.org/2000/svg" xmlns:xlink="http://www.w3.org/1999/xlink">
    <!-- Generator: Sketch 40.3 (33839) - http://www.bohemiancoding.com/sketch -->
    <title>睡觉</title>
    <desc>Created with Sketch.</desc>
    <defs></defs>
    <g id="Page-1" stroke="none" stroke-width="1" fill="none" fill-rule="evenodd">
        <g id="Artboard-2" transform="translate(-75.000000, -4077.000000)" fill="#3EC1AF">
            <g id="睡觉" transform="translate(75.000000, 4077.000000)">
                <path d="M428.954,280.045 C464.538,280.045 493.466,251.117 493.466,215.533 C493.466,179.949 464.538,150.97 428.954,150.97 C393.37,150.97 364.39,179.949 364.39,215.533 C364.442,251.117 393.37,280.045 428.954,280.045 L428.954,280.045 Z M420.966,226.336 L420.966,174.624 C420.966,170.221 424.55,166.688 428.954,166.688 C433.357,166.688 436.941,170.221 436.941,174.624 L436.941,210.413 L472.73,210.413 C477.133,210.413 480.717,213.997 480.717,218.4 C480.717,222.803 477.133,226.387 472.73,226.387 L436.941,226.387 L420.966,226.336 L420.966,226.336 Z" id="Fill-1"></path>
                <path d="M665.6,0.8 L153.6,0.8 C68.762,0.8 0,69.562 0,154.4 L0,666.4 C0,751.238 68.762,820 153.6,820 L665.6,820 C750.438,820 819.2,751.238 819.2,666.4 L819.2,154.4 C819.2,69.562 750.438,0.8 665.6,0.8 L665.6,0.8 Z M428.954,122.861 C480.102,122.861 521.626,164.384 521.626,215.533 C521.626,266.682 480.154,308.205 428.954,308.205 C377.754,308.205 336.282,266.733 336.282,215.533 C336.282,164.333 377.754,122.861 428.954,122.861 L428.954,122.861 Z M198.349,440.198 C207.616,430.931 218.726,426.323 231.782,426.323 C244.838,426.323 256.154,430.931 265.83,440.198 C275.507,449.466 280.32,460.576 280.32,473.632 C280.32,486.688 275.507,497.798 265.83,507.066 C265.523,507.322 265.165,507.424 264.909,507.68 L265.165,507.68 C262.246,510.394 258.867,511.93 255.59,513.824 C253.645,514.95 251.904,516.691 249.856,517.51 C244.224,519.763 238.234,520.941 231.782,520.941 C225.331,520.941 219.392,519.763 213.862,517.51 C211.814,516.691 210.176,514.95 208.282,513.824 C205.107,511.93 201.83,510.394 199.014,507.68 L199.27,507.68 C199.014,507.424 198.656,507.322 198.349,507.066 C189.133,497.798 184.474,486.688 184.474,473.632 C184.474,460.576 189.133,449.466 198.349,440.198 L198.349,440.198 Z M167.424,532.922 C167.424,521.709 174.746,512.186 184.883,508.909 C186.522,511.059 188.314,513.107 190.31,515.104 C201.728,526.522 215.654,532.307 231.782,532.307 C247.757,532.307 289.587,516.282 292.301,521.914 L292.301,457.248 C292.301,450.541 294.605,444.858 299.213,440.198 C303.821,435.59 309.504,433.286 316.262,433.286 L318.771,433.286 L693.35,469.843 C704.256,471.533 713.318,475.526 720.486,481.824 C727.654,488.122 731.187,496.314 731.187,506.4 L731.187,569.478 L192.666,569.478 C178.739,569.478 167.424,558.163 167.424,544.237 L167.424,532.922 L167.424,532.922 Z M732.467,722.106 L680.755,722.106 L680.755,648.941 L138.445,648.941 L138.445,722.106 L86.733,722.106 L86.733,385.363 C86.733,378.656 89.242,372.563 94.31,367.085 C99.379,361.606 105.472,358.893 112.589,358.893 C119.706,358.893 125.85,361.606 130.867,367.085 C135.936,372.512 138.445,378.605 138.445,385.363 L138.445,597.229 L732.467,597.229 L732.467,722.106 L732.467,722.106 Z" id="Fill-2"></path>
            </g>
        </g>
    </g>
</svg>