<?xml version="1.0" encoding="UTF-8" standalone="no"?>
<svg width="140px" height="125px" viewBox="0 0 140 125" version="1.1" xmlns="http://www.w3.org/2000/svg" xmlns:xlink="http://www.w3.org/1999/xlink">
    <!-- Generator: Sketch 39.1 (31720) - http://www.bohemiancoding.com/sketch -->
    <title>firework_cone_1197789_easyicon.net</title>
    <desc>Created with Sketch.</desc>
    <defs></defs>
    <g id="Page-1" stroke="none" stroke-width="1" fill="none" fill-rule="evenodd">
        <g id="Artboard-4" transform="translate(-668.000000, -179.000000)" fill="#5382AF">
            <g id="phantom_1195664_easyicon.net" transform="translate(453.000000, 178.000000)">
                <g id="firework_cone_1197789_easyicon.net" transform="translate(215.000000, 0.000000)">
                    <path d="M65.537828,42.366374 C66.0453299,42.2832487 74.6116115,19.0694131 74.6116115,18.4000356 C74.6116115,17.7262831 72.999418,17.0547182 72.2359777,17.5600325 C71.4703499,18.0631594 63.2453196,39.4241756 63.2453196,40.601055 C63.2453196,41.8610596 65.0259511,42.4494993 65.5356405,42.366374 L65.537828,42.366374 Z M72.0653521,12.7650149 C75.3750518,14.7818973 80.719134,13.2681417 81.9900762,8.72687497 C83.2653934,4.18560823 77.9738113,-0.416908737 74.1894224,1.4096605 C67.7428361,4.52248447 68.7600274,10.7459449 72.0675396,12.7628273 L72.0653521,12.7650149 Z M75.6309902,4.18560823 C77.5494348,3.92966979 80.5485083,5.69936381 79.4460043,8.64156216 C78.3435002,11.5837605 75.7141155,12.1743877 73.5922327,10.9121955 C71.4703499,9.65000337 71.2187864,4.77623541 75.6266152,4.18779574 L75.6309902,4.18560823 Z M81.2266358,52.2014102 C82.8388293,50.2698406 85.4704015,45.9801373 91.0660471,39.2513625 C96.6660678,32.5269627 104.637347,28.5763231 107.861734,28.4056975 C111.086121,28.2372594 112.1055,30.3394546 112.1055,33.1154024 C112.1055,35.8935376 108.371423,40.0979281 107.774234,39.8441772 C107.183607,39.5926138 107.437357,38.6672978 107.012981,37.5735438 C106.588604,36.4797898 103.95922,35.722912 102.261713,38.164171 C100.566395,40.601055 102.856716,43.042314 104.72266,43.9654424 C106.588604,44.8907583 111.083933,44.4685692 114.30832,40.4326168 C117.53052,36.3966645 117.786458,29.4163262 114.647384,26.1372517 C111.50831,22.8559896 104.468909,23.3591164 94.1198084,30.9278943 C83.7728952,38.4966722 77.3919342,50.3595284 77.3241215,51.0310934 C77.1556833,52.7110996 79.6144424,54.1417299 81.2266358,52.2057852 L81.2266358,52.2014102 Z M139.41435,48.0013948 C137.21153,44.3832564 134.041831,45.0591964 131.613697,45.7263864 C128.559935,46.5707645 126.947742,50.1014025 128.223059,52.2889106 C129.491814,54.4764186 132.123386,55.8217361 134.582145,55.2332964 C137.040904,54.6426692 141.621546,51.6151581 139.416538,47.9992072 L139.41435,48.0013948 Z M135.769962,52.540474 C133.22589,54.1373549 130.42588,52.6279743 130.42588,50.6089044 C130.42588,48.5898344 132.121198,47.3276423 134.243081,47.7498313 C135.656211,48.0298324 138.311846,50.9435931 135.769962,52.540474 L135.769962,52.540474 Z M108.539862,62.7998868 C98.8710759,63.6420774 90.7269834,69.1786603 90.6416705,70.2024141 C90.5541702,71.2086678 93.1004296,73.0614871 94.2882465,72.6414856 C95.4760634,72.2192965 99.6323287,68.4349076 104.552034,66.8358392 C109.473927,65.2389583 113.120503,66.0789614 114.391446,69.2749107 C115.664575,72.4730475 113.881756,75.334308 111.167059,75.334308 C108.450174,75.334308 107.432982,73.0592996 107.010793,72.7246109 C106.584229,72.3877346 103.445155,74.1552412 103.532656,74.912119 C103.615781,75.6689967 105.396412,79.4533857 110.992058,79.3680729 C116.592079,79.2849476 119.138338,74.0699283 119.138338,70.8739791 C119.138338,67.6802173 118.208647,61.9642587 108.537674,62.8020743 L108.539862,62.7998868 Z M46.279007,25.1288104 C47.3815111,24.2866198 47.4668239,22.853802 47.0446348,22.2675499 C46.6180708,21.6769227 44.6668136,21.764423 43.566497,21.2612962 C42.4618054,20.7537943 42.5471183,17.0547182 44.7521264,16.5494038 C46.9571345,16.046277 48.8208914,16.2978404 49.925583,21.2591087 C51.028087,26.224752 48.4818276,31.5185215 48.4818276,31.5185215 C47.9743258,33.2029027 51.5377764,33.5397789 52.3012167,33.1154024 C53.0624695,32.6997758 55.4381033,28.5763231 55.4381033,24.0372439 C55.4381033,19.4981647 54.0818483,11.4218849 45.8524429,12.4303261 C37.6274126,13.4365798 37.2861614,19.9116037 38.8961673,22.6066136 C40.5083607,25.2972486 45.1743154,25.9688135 46.2768195,25.1288104 L46.279007,25.1288104 Z M43.2252458,35.1322848 C41.1033629,36.394477 3.95291348,114.265389 2.17009441,118.301341 C0.389462841,122.339481 -0.323664788,124.662615 0.135711906,125.115429 C1.23602846,126.209183 3.69697503,125.618556 6.9169869,124.358551 C10.1369988,123.098547 89.8782302,93.8318762 91.6610493,91.2243666 C93.4394934,88.616857 90.6416705,78.864946 76.6438064,59.6892503 C62.6459423,40.5135546 45.3471286,33.8700927 43.2252458,35.1300973 L43.2252458,35.1322848 Z M22.0195426,114.604453 C21.0854766,115.698207 17.7757769,116.791961 17.6926516,116.536022 C17.6051513,116.284459 18.6267176,113.003197 18.2832788,112.751633 C17.9464026,112.50007 16.5879601,112.583195 16.2488963,113.003197 C15.9098326,113.425386 15.2317051,117.295088 15.1463922,117.546651 C15.0588919,117.798215 13.5341988,118.386654 13.448886,118.137278 C13.3613857,117.883527 14.7220157,113.259135 14.3829519,113.005384 C14.0438882,112.756008 12.4316947,112.924447 12.2610691,113.427573 C12.092631,113.9307 11.7535672,118.55728 11.3291907,118.808843 C10.9026266,119.060407 6.83167409,120.405724 6.06823378,119.902597 C5.57385695,119.574471 15.2295175,101.317529 15.7370194,101.317529 C16.2488963,101.317529 19.7248466,103.251286 20.9126635,106.95255 C22.1048554,110.653813 22.9536085,113.515074 22.0195426,114.608828 L22.0195426,114.604453 Z M39.0689804,107.958803 C38.8152295,108.210367 34.063962,109.643184 34.063962,109.643184 C34.063962,109.643184 35.6761554,104.931292 35.3370917,104.677541 C34.9980279,104.428165 32.9614579,104.428165 32.8761451,104.848167 C32.7886448,105.268168 31.6008279,110.316937 31.5198901,110.566313 C31.4323898,110.817876 30.0761348,111.323191 30.0761348,111.06944 C30.0761348,110.820064 32.1105173,105.268168 31.773641,105.016605 C31.4345773,104.765042 29.4833201,105.268168 29.4833201,105.690357 C29.4833201,106.112546 27.6151882,111.996943 27.4445626,112.333819 C27.2739369,112.670696 24.7320526,114.184451 24.5614269,113.596012 C24.3908013,113.005384 25.1520541,109.140058 22.4395441,104.681916 C19.7270341,100.225962 17.0145241,99.0468954 16.6732729,98.7100192 C16.0738957,98.119392 28.1248776,76.5111873 28.634567,76.5111873 C29.1442563,76.5111873 37.3714742,82.1440206 38.7277292,92.9065603 C40.0839842,103.6691 39.3183563,107.705052 39.0646054,107.956616 L39.0689804,107.958803 Z M53.9134102,101.735343 C53.4037208,102.072219 50.6890233,102.912222 50.6890233,102.912222 C50.6890233,102.912222 51.6230892,98.6247064 51.4546511,98.3709554 C51.2840255,98.119392 49.2452679,98.8740823 49.0768298,99.1278332 C48.9062042,99.3793966 48.9062042,103.332224 48.311202,103.752225 C47.7205748,104.172227 46.954947,104.425978 46.954947,104.425978 L47.8080751,97.8634536 C47.8080751,97.8634536 45.5155667,98.3709554 45.5155667,98.6225189 C45.5155667,98.8740823 45.1765029,104.760666 44.7499389,105.185043 C44.3277498,105.60067 41.6983651,106.865049 41.5277395,106.613486 C41.3571139,106.361922 43.3083711,95.0087555 39.4058567,86.597787 C35.5055298,78.189006 32.8761451,76.0868108 29.4833201,74.2383665 C29.0370684,73.9933656 38.0496017,55.8195486 38.6446039,55.8195486 C39.235231,55.8195486 48.6546408,63.136763 51.2840255,78.6090076 C53.9134102,94.0834396 54.4230995,101.402842 53.9134102,101.735343 L53.9134102,101.735343 Z M64.5162617,97.7847033 C64.0065724,98.2047048 63.0725064,98.790957 63.0725064,98.4584558 C63.0725064,98.1215795 63.7506339,94.1709399 63.4990705,94.0834396 C63.2475071,93.9959393 61.7184389,94.3371906 61.6331261,94.6740668 C61.5456258,95.010943 61.8015642,98.8784573 61.4625005,99.0490829 C61.1234367,99.2153335 60.0187452,99.9722113 60.0187452,99.3837717 C60.0187452,98.7931445 60.784373,93.9150015 60.4453092,93.7487509 C60.1062455,93.5781253 58.1549883,93.4096871 58.1549883,93.9981268 C58.1549883,94.588754 58.067488,100.221587 58.067488,100.221587 C58.067488,100.221587 56.3721692,100.976278 56.3721692,100.724714 C56.3721692,100.473151 55.9477927,82.9796487 51.8768401,72.888674 C47.8058876,62.7976993 44.8374392,56.9111151 39.2374185,53.0414133 C38.679604,52.6564119 44.6668136,39.249175 45.2596282,39.1660497 C45.8502554,39.0785494 53.2330951,43.3660652 55.6065414,45.5535732 C57.9843627,47.7410813 63.3284449,56.2351751 64.5162617,68.7630338 C65.7040786,81.297455 65.0259511,97.3537642 64.5162617,97.7781407 L64.5162617,97.7847033 Z M83.0094549,77.2658776 C83.0094549,77.2658776 86.4875927,84.5809046 87.0782199,86.5146617 C87.6732221,88.4484189 87.504784,89.0368585 87.2488455,89.292797 C86.9950946,89.5421729 85.3829012,90.1306126 85.3829012,89.7084235 C85.3829012,89.292797 85.9735283,85.3377824 85.4704015,85.086219 C84.9585246,84.832468 83.5169568,85.1671568 83.5169568,85.6724711 C83.5169568,86.175598 83.0050799,90.8853028 83.0050799,90.8853028 C83.0050799,90.8853028 81.3928865,91.6443681 81.3928865,91.0559285 C81.3928865,90.4674888 82.9197671,77.9374426 83.0050799,77.2636901 L83.0094549,77.2658776 Z M79.9556937,86.7684127 C79.6188174,91.2243666 79.7872555,91.9812444 79.2775662,92.1496825 C78.7700643,92.3181206 76.9894327,93.1559362 76.9894327,92.7403097 C76.9894327,92.3181206 78.006624,87.1031014 77.8381858,86.851538 C77.6675602,86.5999745 75.6331777,86.7684127 75.6331777,87.2715395 C75.6331777,87.7746664 75.2088012,92.9896856 74.8675499,93.5781253 C74.5306737,94.1687524 72.3256655,94.4203159 72.3256655,94.4203159 C72.3256655,94.4203159 73.3428568,88.7852951 72.9162927,88.5359192 C72.4941036,88.2821682 70.7987849,88.1968554 70.7987849,88.7021698 C70.7987849,89.2096717 69.9500318,95.6846955 69.9500318,95.6846955 C69.9500318,95.6846955 66.8109577,97.2815764 66.7256449,97.030013 C66.6381446,96.7784496 68.6769021,89.0412335 67.4912727,76.9311889 C66.3012683,64.8189567 64.3500111,55.7342358 63.2475071,52.6279743 C63.1600067,52.3873484 72.0697271,60.6998791 75.0381755,64.6505186 C78.006624,68.6033457 79.789443,72.3024218 79.789443,72.3024218 C79.789443,72.3024218 80.2969449,82.3124587 79.9578812,86.7706002 L79.9556937,86.7684127 Z M122.115537,50.1014025 C121.349909,49.5982756 117.959271,49.42765 108.458924,51.8667215 C98.9585762,54.305793 91.724487,59.4179993 91.4094859,59.8555009 C90.9851093,60.4461281 91.1557349,61.4523818 92.258239,61.2008184 C93.3607431,60.949255 94.6338728,60.1945647 103.792969,56.071112 C112.954253,51.9498468 121.774285,52.4551612 122.452413,52.3742234 C123.13054,52.286723 122.878977,50.6067169 122.115537,50.099215 L122.115537,50.1014025 Z M46.8761967,43.0357514 C46.1980692,43.0357514 43.157433,49.7448387 42.8074317,50.4382787 C42.6324311,50.775155 44.4174376,52.0351596 45.0102523,51.9520343 C45.6008795,51.868909 47.2152605,47.0738913 47.7227623,47.0738913 C48.2302642,47.0738913 51.5421514,49.8520266 52.0540283,49.9329644 C52.5615302,50.0139022 53.1543449,49.3423372 53.322783,48.1654579 C53.4912211,46.9885785 47.5543242,43.0357514 46.8761967,43.0357514 L46.8761967,43.0357514 Z" id="Shape"></path>
                </g>
            </g>
        </g>
    </g>
</svg>