<?xml version="1.0" encoding="UTF-8" standalone="no"?>
<svg width="87px" height="86px" viewBox="0 0 87 86" version="1.1" xmlns="http://www.w3.org/2000/svg" xmlns:xlink="http://www.w3.org/1999/xlink">
    <!-- Generator: Sketch 39.1 (31720) - http://www.bohemiancoding.com/sketch -->
    <title>Group 2</title>
    <desc>Created with Sketch.</desc>
    <defs></defs>
    <g id="Page-1" stroke="none" stroke-width="1" fill="none" fill-rule="evenodd">
        <g id="Artboard-2" transform="translate(-131.000000, -105.000000)" stroke="#5382AF" fill="#FFFFFF">
            <g id="Group" transform="translate(63.000000, 44.000000)">
                <g id="Group-2" transform="translate(70.000000, 63.000000)">
                    <path d="M30.6963529,24.4861111 C30.1733136,17.1549246 24.7175795,11.3888889 18.0643926,11.3888889 C11.4112058,11.3888889 5.95547172,17.1549246 5.43243243,24.4861111 L30.6963529,24.4861111 Z" id="Combined-Shape" stroke-width="4" transform="translate(18.064393, 17.937500) rotate(325.000000) translate(-18.064393, -17.937500) "></path>
                    <path d="M20.0035818,48.0036813 C19.4805425,40.6724948 14.0248085,34.9064591 7.37162162,34.9064591 C0.718434737,34.9064591 -4.7372993,40.6724948 -5.2603386,48.0036813 L20.0035818,48.0036813 Z" id="Combined-Shape" stroke-width="4" transform="translate(7.371622, 41.455070) rotate(270.000000) translate(-7.371622, -41.455070) "></path>
                    <path d="M30.3938461,72.7483272 C29.8708068,65.4171407 24.4150728,59.651105 17.7618859,59.651105 C11.108699,59.651105 5.65296498,65.4171407 5.12992569,72.7483272 L30.3938461,72.7483272 Z" id="Combined-Shape" stroke-width="4" transform="translate(17.761886, 66.199716) rotate(225.000000) translate(-17.761886, -66.199716) "></path>
                    <path d="M52.858515,81.4305556 C52.3354757,74.099369 46.8797417,68.3333333 40.2265548,68.3333333 C33.5733679,68.3333333 28.1176339,74.099369 27.5945946,81.4305556 L52.858515,81.4305556 Z" id="Combined-Shape" stroke-width="4" transform="translate(40.226555, 74.881944) rotate(180.000000) translate(-40.226555, -74.881944) "></path>
                    <path d="M88.7062845,48.0036813 C88.1832452,40.6724948 82.7275112,34.9064591 76.0743243,34.9064591 C69.4211374,34.9064591 63.9654034,40.6724948 63.4423641,48.0036813 L88.7062845,48.0036813 Z" id="Combined-Shape" stroke-width="4" transform="translate(76.074324, 41.455070) rotate(90.000000) translate(-76.074324, -41.455070) "></path>
                    <path d="M53.9666231,13.0972222 C53.4435838,5.76603571 47.9878498,0 41.3346629,0 C34.681476,0 29.225742,5.76603571 28.7027027,13.0972222 L53.9666231,13.0972222 Z" id="Combined-Shape" stroke-width="4"></path>
                    <path d="M78.0424948,23.776105 C77.5194555,16.4449185 72.0637214,10.6788827 65.4105346,10.6788827 C58.7573477,10.6788827 53.3016136,16.4449185 52.7785743,23.776105 L78.0424948,23.776105 Z" id="Combined-Shape" stroke-width="4" transform="translate(65.410535, 17.227494) rotate(45.000000) translate(-65.410535, -17.227494) "></path>
                    <path d="M76.9343867,73.8872161 C76.4113474,66.5560296 70.9556133,60.7899939 64.3024264,60.7899939 C57.6492396,60.7899939 52.1935055,66.5560296 51.6704662,73.8872161 L76.9343867,73.8872161 Z" id="Combined-Shape" stroke-width="4" transform="translate(64.302426, 67.338605) rotate(135.000000) translate(-64.302426, -67.338605) "></path>
                    <ellipse id="Oval" stroke-width="4" cx="42" cy="41" rx="29.9189189" ry="30.75"></ellipse>
                    <path d="M55.841074,44.6576069 C55.841074,44.6576069 57.7479418,40.6393589 57.7479418,37.8088995 C57.7479418,34.9784402 57.0884549,34.4076069 55.841074,34.4076069 C54.5936932,34.4076069 53.9547609,34.9784402 53.9547609,37.8088995 C53.9547609,40.6393589 55.841074,44.6576069 55.841074,44.6576069 Z" id="Oval-8" stroke-width="2" transform="translate(55.851351, 39.532607) rotate(90.000000) translate(-55.851351, -39.532607) "></path>
                    <path d="M41.6700969,58.0833333 C41.6700969,58.0833333 43.5769647,54.0650853 43.5769647,51.234626 C43.5769647,48.4041667 42.9174777,47.8333333 41.6700969,47.8333333 C40.4227161,47.8333333 39.7837838,48.4041667 39.7837838,51.234626 C39.7837838,54.0650853 41.6700969,58.0833333 41.6700969,58.0833333 Z" id="Oval-8" stroke-width="2" transform="translate(41.680374, 52.958333) scale(1, -1) translate(-41.680374, -52.958333) "></path>
                    <path d="M41.6700969,33.0277778 C41.6700969,33.0277778 43.5769647,29.0095298 43.5769647,26.1790704 C43.5769647,23.3486111 42.9174777,22.7777778 41.6700969,22.7777778 C40.4227161,22.7777778 39.7837838,23.3486111 39.7837838,26.1790704 C39.7837838,29.0095298 41.6700969,33.0277778 41.6700969,33.0277778 Z" id="Oval-8" stroke-width="2"></path>
                    <path d="M28.1383713,44.6576069 C28.1383713,44.6576069 30.0452391,40.6393589 30.0452391,37.8088995 C30.0452391,34.9784402 29.3857521,34.4076069 28.1383713,34.4076069 C26.8909905,34.4076069 26.2520582,34.9784402 26.2520582,37.8088995 C26.2520582,40.6393589 28.1383713,44.6576069 28.1383713,44.6576069 Z" id="Oval-8" stroke-width="2" transform="translate(28.148649, 39.532607) rotate(-90.000000) translate(-28.148649, -39.532607) "></path>
                </g>
            </g>
        </g>
    </g>
</svg>