<?xml version="1.0" encoding="UTF-8" standalone="no"?>
<svg width="157px" height="124px" viewBox="0 0 157 124" version="1.1" xmlns="http://www.w3.org/2000/svg" xmlns:xlink="http://www.w3.org/1999/xlink">
    <!-- Generator: Sketch 39.1 (31720) - http://www.bohemiancoding.com/sketch -->
    <title>Group</title>
    <desc>Created with Sketch.</desc>
    <defs></defs>
    <g id="Page-1" stroke="none" stroke-width="1" fill="none" fill-rule="evenodd">
        <g id="Artboard-2" transform="translate(-625.000000, -2521.000000)" fill="#9C7BB7">
            <g id="student_1197292_easyicon.net" transform="translate(625.000000, 2521.000000)">
                <g id="Capa_1">
                    <g id="Group">
                        <path d="M94.355677,52.047839 L82.1762697,52.047839 L82.1762697,46.4348968 C82.1762697,44.6201302 80.6957949,43.1496568 78.8686854,43.1496568 L46.0574494,43.1496568 C44.2303399,43.1496568 42.7498652,44.6201302 42.7498652,46.4348968 L42.7498652,52.047839 L34.3644775,52.047839 C33.0758427,47.4835455 29.1720112,44.001629 24.3685169,43.2907031 L8.70071067,21.2480565 L22.9440506,14.4095009 C22.8245365,15.205843 22.7605899,16.0210206 22.7605899,16.8497772 C22.7605899,18.6645438 24.2410646,20.1350172 26.0681742,20.1350172 L52.5738315,20.1350172 C54.400941,20.1350172 55.8814157,18.6645438 55.8814157,16.8497772 C55.8814157,7.78076251 48.4521404,0.402113381 39.3201208,0.402113381 C35.1503596,0.402113381 31.3378174,1.94442407 28.4231742,4.48106742 L2.30913483,17.0184195 C1.43416854,17.4389302 0.788969101,18.2199413 0.54597191,19.1542635 C0.302974719,20.0890238 0.485553371,21.0824804 1.04651966,21.870938 L17.0874213,44.439223 C14.0263624,45.9622603 11.6867978,48.7148534 10.7461208,52.0474009 L3.74859551,52.0474009 C1.92148596,52.0474009 0.441011236,53.5178744 0.441011236,55.332641 L0.441011236,68.8866653 C0.441011236,70.7014319 1.92148596,72.1719053 3.74859551,72.1719053 L11.1275955,72.1719053 L11.1275955,120.03391 C11.1275955,121.848677 12.6080702,123.31915 14.4351798,123.31915 L24.0359944,123.31915 C25.8631039,123.31915 27.3435787,121.848677 27.3435787,120.03391 L27.3435787,72.1723434 L70.7606938,72.1723434 L70.7606938,120.034348 C70.7606938,121.849115 72.2411685,123.319589 74.0682781,123.319589 L83.6690927,123.319589 C85.4962022,123.319589 86.976677,121.849115 86.976677,120.034348 L86.976677,72.1723434 L94.355677,72.1723434 C96.1827865,72.1723434 97.6632612,70.7018699 97.6632612,68.8871033 L97.6632612,55.333079 C97.6632612,53.5187504 96.1827865,52.047839 94.355677,52.047839 L94.355677,52.047839 Z M39.3196798,6.97259346 C43.644677,6.97259346 47.333736,9.72825281 48.6995478,13.5645371 L29.9415758,13.5645371 C31.3073876,9.72825281 34.9960056,6.97259346 39.3196798,6.97259346 L39.3196798,6.97259346 Z M49.3650337,49.7201369 L75.5611011,49.7201369 L75.5611011,52.047839 L49.3650337,52.047839 L49.3650337,49.7201369 L49.3650337,49.7201369 Z M22.5546376,49.7201369 C24.4364326,49.7201369 26.1069831,50.63869 27.1345393,52.047839 L17.974736,52.047839 C19.0022921,50.638252 20.6724017,49.7201369 22.5546376,49.7201369 L22.5546376,49.7201369 Z M20.7284101,116.749108 L17.742764,116.749108 L17.742764,72.1723434 L20.7284101,72.1723434 L20.7284101,116.749108 L20.7284101,116.749108 Z M80.3615084,116.749108 L77.3758624,116.749108 L77.3758624,72.1723434 L80.3615084,72.1723434 L80.3615084,116.749108 L80.3615084,116.749108 Z M91.0480927,65.6018633 L7.05617978,65.6018633 L7.05617978,58.618319 L91.0480927,58.618319 L91.0480927,65.6018633 L91.0480927,65.6018633 Z" id="Shape"></path>
                        <path d="M149.66466,33.0731685 C149.022989,32.9325603 148.365882,32.861161 147.71098,32.861161 C143.50682,32.861161 139.796152,35.8240095 138.888992,39.9055918 C138.883699,39.9266173 138.879289,39.9472048 138.87532,39.9682303 L133.502039,66.5856832 C132.71307,70.2016374 134.248671,73.7934998 137.113039,75.8145795 L136.764199,76.9683558 L133.804573,76.9683558 L129.166899,64.1357702 C128.695899,62.8308728 127.450042,61.9605032 126.053801,61.9605032 L102.21582,61.9605032 C100.388711,61.9605032 98.908236,63.4309767 98.908236,65.2457433 C98.908236,67.0605099 100.388711,68.5309833 102.21582,68.5309833 L104.54039,68.5309833 L107.589542,76.9683558 L105.402567,76.9683558 C100.417817,76.9683558 96.3627191,80.9960601 96.3627191,85.9471359 C96.3627191,90.8986496 100.417817,94.926792 105.402567,94.926792 L118.576896,94.926792 L118.576896,110.813337 L108.920514,117.315922 C107.408728,118.333908 107.014463,120.37689 108.039374,121.878901 C108.678399,122.815852 109.720067,123.320903 110.780258,123.320903 C111.418402,123.320903 112.064483,123.137367 112.632947,122.754527 L121.884921,116.524398 L131.136014,122.754527 C131.70536,123.137367 132.350559,123.320903 132.989584,123.320903 C134.048893,123.320903 135.090562,122.815852 135.730469,121.878901 C136.755379,120.37689 136.361115,118.333908 134.848447,117.315922 L125.192506,110.813337 L125.192506,94.926792 L138.365952,94.926792 C143.350702,94.926792 147.405801,90.8986496 147.405801,85.9471359 C147.405801,82.7792884 145.740983,79.995157 143.238685,78.3967782 L143.546952,77.3783538 C147.237775,76.875055 150.344699,74.1093209 151.164539,70.4232816 C151.169831,70.402256 151.174242,70.3812305 151.178211,70.360205 L156.55061,43.7440662 C157.603744,38.9204578 154.521076,34.1384624 149.66466,33.0731685 L149.66466,33.0731685 Z M111.569669,68.5305453 L123.727466,68.5305453 L126.776618,76.9679178 L114.61882,76.9679178 L111.569669,68.5305453 L111.569669,68.5305453 Z M138.366393,88.3558739 L105.403449,88.3558739 C104.066744,88.3558739 102.97877,87.2752489 102.97877,85.9466978 C102.97877,84.6190228 104.066744,83.5383979 105.403449,83.5383979 L138.366393,83.5383979 C139.703098,83.5383979 140.791073,84.6190228 140.791073,85.9466978 C140.791073,87.2752489 139.703098,88.3558739 138.366393,88.3558739 L138.366393,88.3558739 Z M150.084062,42.3616372 C150.079652,42.3826628 150.075242,42.4036883 150.071272,42.4238378 L144.700638,69.0294637 C144.447497,70.1127169 143.460073,70.8967942 142.34211,70.8967942 C142.167469,70.8967942 141.98886,70.8770827 141.815101,70.838974 C140.509267,70.552501 139.681489,69.2633728 139.969028,67.9663601 C139.97432,67.9453345 139.97873,67.924309 139.982699,67.9041595 L145.353334,41.2976575 C145.606475,40.2144043 146.593899,39.4312031 147.71098,39.4312031 C147.886503,39.4312031 148.06423,39.4509145 148.237989,39.4890233 C149.545146,39.7754963 150.372924,41.0641864 150.084062,42.3616372 L150.084062,42.3616372 Z" id="Shape"></path>
                    </g>
                </g>
            </g>
        </g>
    </g>
</svg>