<?xml version="1.0" encoding="UTF-8" standalone="no"?>
<svg width="711px" height="614px" viewBox="0 0 711 614" version="1.1" xmlns="http://www.w3.org/2000/svg" xmlns:xlink="http://www.w3.org/1999/xlink">
    <!-- Generator: Sketch 40.3 (33839) - http://www.bohemiancoding.com/sketch -->
    <title>学习</title>
    <desc>Created with Sketch.</desc>
    <defs></defs>
    <g id="Page-1" stroke="none" stroke-width="1" fill="none" fill-rule="evenodd">
        <g id="Artboard-2" transform="translate(-93.000000, -4264.000000)" fill="#3EC1AF">
            <path d="M781.505,4264.807 L114.516,4264.807 C102.634,4264.807 93,4274.441 93,4286.324 L93,4856.488 C93,4868.369 102.634,4878 114.516,4878 L781.505,4878 C793.388,4878 803.021,4868.369 803.021,4856.488 L803.021,4286.323 C803.021,4274.441 793.388,4264.807 781.505,4264.807 L781.505,4264.807 Z M770.747,4834.978 C770.747,4840.919 765.931,4845.736 759.989,4845.736 L136.031,4845.736 C130.09,4845.736 125.274,4840.918 125.274,4834.978 L125.274,4307.836 C125.274,4301.895 130.09,4297.078 136.031,4297.078 L759.989,4297.078 C765.931,4297.078 770.747,4301.896 770.747,4307.836 L770.747,4834.978 L770.747,4834.978 Z M738.474,4318.596 L157.547,4318.596 C151.605,4318.596 146.789,4323.411 146.789,4329.355 L146.789,4813.457 C146.789,4819.398 151.605,4824.215 157.547,4824.215 L738.473,4824.215 C744.415,4824.215 749.231,4819.398 749.231,4813.457 L749.231,4329.356 C749.232,4323.411 744.415,4318.596 738.474,4318.596 L738.474,4318.596 Z M631.08,4471.13 C653.055,4469.207 666.498,4477.197 671.4,4495.098 C673.927,4506.915 669.166,4518.044 657.121,4528.496 C648.311,4536.662 644.894,4543.644 646.861,4549.44 L647.586,4554.171 L626.526,4557.394 L625.557,4551.082 C623.591,4540.622 626.841,4531.337 635.297,4523.225 C643.099,4515.574 646.344,4508.618 645.03,4502.36 C642.903,4495.511 638.099,4492.304 630.621,4492.725 C621.143,4494.177 616.137,4501.398 615.621,4514.393 L590.674,4513.367 C591.521,4488.481 604.99,4474.403 631.08,4471.13 L631.08,4471.13 Z M655.378,4587.421 L629.578,4591.367 L625.869,4567.18 L651.669,4563.234 L655.378,4587.421 L655.378,4587.421 Z M239.579,4652.089 L227.161,4571.112 C216.868,4581.297 205.544,4589.489 193.207,4595.682 L189.82,4573.595 C207.347,4563.741 219.924,4550.877 227.55,4534.995 L247.559,4531.934 L265.379,4648.143 L239.579,4652.089 L239.579,4652.089 Z M329.669,4621.092 L312.819,4623.667 L307.82,4591.065 L275.175,4596.059 L272.594,4579.233 L305.239,4574.24 L300.4,4542.689 L317.25,4540.114 L322.088,4571.662 L354.207,4566.751 L356.786,4583.576 L324.668,4588.491 L329.669,4621.092 L329.669,4621.092 Z M373.845,4631.555 L371.506,4616.307 C379.072,4600.08 388.628,4586.244 400.167,4574.791 C416.318,4558.33 423.185,4546.877 420.764,4540.429 C418.852,4530.318 412.807,4526.037 402.63,4527.592 C392.046,4528.86 386.54,4536.334 386.131,4550.03 L361.712,4548.921 C362.668,4524.741 376.49,4510.601 403.171,4506.522 C427.552,4503.868 442.228,4512.927 447.214,4533.691 C451.224,4548.147 444.59,4562.261 427.299,4576.022 C416.353,4586.669 407.665,4596.786 401.239,4606.377 L456.524,4597.924 L459.669,4618.428 L373.845,4631.555 L373.845,4631.555 Z M477.915,4530.074 L559.526,4517.591 L562.107,4534.415 L480.495,4546.899 L477.915,4530.074 L477.915,4530.074 Z M483.397,4565.83 L565.009,4553.347 L567.591,4570.176 L485.978,4582.655 L483.397,4565.83 L483.397,4565.83 Z M695.442,4802.7 C695.442,4814.585 685.809,4813.457 673.926,4813.457 L566.347,4813.457 C554.464,4813.457 544.831,4814.585 544.831,4802.7 L544.831,4791.942 C544.831,4780.06 554.464,4770.43 566.347,4770.43 L673.926,4770.43 C685.81,4770.43 695.442,4780.06 695.442,4791.942 L695.442,4802.7 L695.442,4802.7 Z" id="学习"></path>
        </g>
    </g>
</svg>