<?xml version="1.0" encoding="UTF-8" standalone="no"?>
<svg width="89px" height="48px" viewBox="0 0 89 48" version="1.1" xmlns="http://www.w3.org/2000/svg" xmlns:xlink="http://www.w3.org/1999/xlink">
    <!-- Generator: Sketch 39.1 (31720) - http://www.bohemiancoding.com/sketch -->
    <title>Group 3</title>
    <desc>Created with Sketch.</desc>
    <defs></defs>
    <g id="Page-1" stroke="none" stroke-width="1" fill="none" fill-rule="evenodd">
        <g id="Artboard-2" transform="translate(-387.000000, -125.000000)" stroke="#5382AF">
            <g id="Group" transform="translate(320.000000, 45.000000)">
                <g id="Group-3" transform="translate(70.000000, 83.000000)">
                    <g id="Group-24">
                        <path d="M6.00283712e-13,3.26649818e-12 C1.71835014,24.0693038 19.6421687,43 41.5,43 C63.3578313,43 81.2816499,24.0693038 83,3.25517391e-12 L65.092673,-1.05445212e-14 C63.0605813,3.42776593 59.6974495,5.80082103 55.7253899,6.14833121 C51.0502142,6.55735609 46.7185325,4.05640477 44.1648218,6.7168493e-13 L-1.50990331e-14,-2.57296785e-15 Z" id="Combined-Shape" stroke-width="4" fill="#FFFFFF"></path>
                        <path d="M56.4918717,19 C56.4918717,19 58,16.6478548 58,14.9910006 C58,13.3341463 57.4784164,13 56.4918717,13 C55.5053271,13 55,13.3341463 55,14.9910006 C55,16.6478548 56.4918717,19 56.4918717,19 Z" id="Oval-8" stroke-width="2" transform="translate(56.500000, 16.000000) rotate(180.000000) translate(-56.500000, -16.000000) "></path>
                        <path d="M65.4918717,11 C65.4918717,11 67,8.64785483 67,6.99100058 C67,5.33414633 66.4784164,5 65.4918717,5 C64.5053271,5 64,5.33414633 64,6.99100058 C64,8.64785483 65.4918717,11 65.4918717,11 Z" id="Oval-8" stroke-width="2" transform="translate(65.500000, 8.000000) rotate(180.000000) translate(-65.500000, -8.000000) "></path>
                        <path d="M49.4918717,27 C49.4918717,27 51,24.6478548 51,22.9910006 C51,21.3341463 50.4784164,21 49.4918717,21 C48.5053271,21 48,21.3341463 48,22.9910006 C48,24.6478548 49.4918717,27 49.4918717,27 Z" id="Oval-8" stroke-width="2" transform="translate(49.500000, 24.000000) rotate(180.000000) translate(-49.500000, -24.000000) "></path>
                        <path d="M38.4918717,14 C38.4918717,14 40,11.6478548 40,9.99100058 C40,8.33414633 39.4784164,8 38.4918717,8 C37.5053271,8 37,8.33414633 37,9.99100058 C37,11.6478548 38.4918717,14 38.4918717,14 Z" id="Oval-8" stroke-width="2" transform="translate(38.500000, 11.000000) rotate(180.000000) translate(-38.500000, -11.000000) "></path>
                        <path d="M30.4918717,25 C30.4918717,25 32,22.6478548 32,20.9910006 C32,19.3341463 31.4784164,19 30.4918717,19 C29.5053271,19 29,19.3341463 29,20.9910006 C29,22.6478548 30.4918717,25 30.4918717,25 Z" id="Oval-8" stroke-width="2" transform="translate(30.500000, 22.000000) rotate(180.000000) translate(-30.500000, -22.000000) "></path>
                        <path d="M21.4918717,11 C21.4918717,11 23,8.64785483 23,6.99100058 C23,5.33414633 22.4784164,5 21.4918717,5 C20.5053271,5 20,5.33414633 20,6.99100058 C20,8.64785483 21.4918717,11 21.4918717,11 Z" id="Oval-8" stroke-width="2" transform="translate(21.500000, 8.000000) rotate(180.000000) translate(-21.500000, -8.000000) "></path>
                        <path d="M2.5,0 C2.5,0 14.4930649,38.2526321 42.3024521,38.2526321 C70.1118393,38.2526321 81.1960449,0 81.1960449,0" id="Line" stroke-width="4" stroke-linecap="square"></path>
                    </g>
                </g>
            </g>
        </g>
    </g>
</svg>