<?xml version="1.0" encoding="UTF-8" standalone="no"?>
<svg width="79px" height="187px" viewBox="0 0 79 187" version="1.1" xmlns="http://www.w3.org/2000/svg" xmlns:xlink="http://www.w3.org/1999/xlink">
    <!-- Generator: Sketch 39.1 (31720) - http://www.bohemiancoding.com/sketch -->
    <title>Shape</title>
    <desc>Created with Sketch.</desc>
    <defs></defs>
    <g id="Page-1" stroke="none" stroke-width="1" fill="none" fill-rule="evenodd">
        <g id="Artboard-2" transform="translate(-663.000000, -2503.000000)" fill="#9C7BB7">
            <g id="singer_1197554_easyicon.net" transform="translate(663.000000, 2503.000000)">
                <g id="Capa_1">
                    <path d="M59.7934368,111.552564 L59.7934368,110.930893 C70.2705,109.414947 78.3463789,100.383678 78.3463789,89.4994467 C78.3463789,78.4639533 70.0438947,69.3362756 59.3547789,68.0123156 C58.4570895,65.0701822 56.2504947,62.6948667 53.4168895,61.5620622 C54.0788263,60.95826 54.7075,60.3129022 55.2945947,59.6234956 C58.5410789,55.8091111 60.3285579,50.9466956 60.3285579,45.9313556 L60.3298053,21.1476222 C60.3298053,9.48671778 50.8377474,0 39.1706947,0 C27.5065526,0 18.0169895,9.48671778 18.0169895,21.1476222 L18.0178211,45.93094 C18.0178211,50.9458644 19.8057158,55.8086956 23.0517842,59.62308 C23.6388789,60.3124867 24.2675526,60.9578444 24.9294895,61.5616467 C22.0954684,62.6940356 19.8892895,65.0693511 18.9916,68.0114844 C8.30248421,69.33586 0,78.4631222 0,89.4986156 C0,100.382847 8.07587895,109.414116 18.5525263,110.930062 L18.5525263,111.551733 C18.5525263,116.850898 20.5653632,121.68838 23.8654842,125.343191 L26.6242474,177.852376 L17.7068105,180.790769 C16.0710947,181.329744 15.1825526,183.092116 15.7218316,184.726911 C16.1542526,186.037573 17.3737632,186.868269 18.6830842,186.868269 C19.0069842,186.868269 19.3358737,186.817571 19.6601895,186.710773 L30.8403526,183.026873 C32.1758684,182.586384 33.0515211,181.307304 32.9779263,179.903558 L30.3655211,130.181089 C33.0382158,131.448533 36.0235842,132.16038 39.1731895,132.16038 C42.3227947,132.16038 45.3081632,131.448533 47.9808579,130.181504 L45.3688684,179.903973 C45.2948579,181.30772 46.1705105,182.587216 47.5064421,183.027289 L58.6866053,186.711189 C59.0109211,186.817987 59.3398105,186.868684 59.6637105,186.868684 C60.9730316,186.868684 62.1925421,186.037573 62.6249632,184.727327 C63.1642421,183.092531 62.2752842,181.330576 60.6399842,180.791184 L51.7225474,177.852791 L54.4808947,125.344022 C57.7806,121.689627 59.7934368,116.852144 59.7934368,111.552564 L59.7934368,111.552564 Z M72.1095368,89.4990311 C72.1095368,96.9374756 66.8140421,103.162498 59.7934368,104.6078 L59.7938526,74.3902622 C66.8144579,75.8355644 72.1095368,82.0610022 72.1095368,89.4990311 L72.1095368,89.4990311 Z M53.5565947,108.435898 L48.1513316,108.435898 L48.1513316,67.0744067 L49.6718737,67.0744067 C51.8140211,67.0744067 53.5570105,68.816 53.5570105,70.9569422 L53.5565947,108.435898 L53.5565947,108.435898 Z M41.9144895,67.0744067 L41.9144895,108.435898 L36.4318895,108.435898 L36.4318895,67.0744067 L41.9144895,67.0744067 L41.9144895,67.0744067 Z M51.6917789,37.8479689 L48.0843895,43.2767867 C45.9297684,42.6168844 42.6175895,41.82068 39.1731895,41.82068 C35.7267105,41.82068 32.4116211,42.6177156 30.2574158,43.2780333 L24.3070526,34.36312 C24.5415579,30.1822156 26.4662474,26.5190933 29.4366474,24.0128778 C35.0073947,31.9981933 43.7152737,36.4404822 51.6917789,37.8479689 L51.6917789,37.8479689 Z M35.0061474,21.0807178 C36.3229526,20.7150289 37.7187579,20.5197178 39.1702789,20.5197178 C46.3426474,20.5197178 52.1799158,25.2890489 53.6817474,31.8635533 C47.1185105,30.9518244 39.7781632,27.5027133 35.0061474,21.0807178 L35.0061474,21.0807178 Z M39.1706947,6.23333333 C47.1259947,6.23333333 53.6464053,12.48786 54.0700947,20.3347956 C50.1005526,16.4343911 44.8112947,14.2863844 39.1702789,14.2863844 C33.5325895,14.2863844 28.2462421,16.4323133 24.2775316,20.3277311 C24.7045474,12.48412 31.2208,6.23333333 39.1706947,6.23333333 L39.1706947,6.23333333 Z M24.2550789,45.5170467 L26.4092842,48.7446667 C27.2354579,49.9817756 28.8258526,50.4609111 30.2012842,49.8928467 C30.2457737,49.8745622 34.6972158,48.0540133 39.1736053,48.0540133 C43.6499947,48.0540133 48.1018526,49.8741467 48.1409368,49.8907689 C48.5313632,50.0540822 48.9396684,50.1322067 49.3425684,50.1322067 C50.3616684,50.1322067 51.3487526,49.6310467 51.9416684,48.7392644 L54.0921316,45.5029178 L54.0921316,45.9305244 C54.0921316,49.4673178 52.8322895,52.8956511 50.5442,55.5842956 C48.6698211,57.78674 46.2253947,59.3866289 43.4737,60.2119222 C40.6953947,61.0463578 37.6530632,61.0467733 34.8722632,60.2115067 C32.1218158,59.3870444 29.6773895,57.78674 27.8030105,55.58388 C25.5153368,52.8956511 24.2550789,49.4673178 24.2550789,45.9301089 L24.2550789,45.5170467 L24.2550789,45.5170467 Z M28.6745053,67.0744067 L30.1950474,67.0744067 L30.1950474,108.435898 L24.7897842,108.435898 L24.7897842,70.9573578 C24.7897842,68.816 26.5327737,67.0744067 28.6745053,67.0744067 L28.6745053,67.0744067 Z M6.23725789,89.4990311 C6.23725789,82.0605867 11.5323368,75.8355644 18.5529421,74.3902622 L18.5529421,104.6078 C11.5323368,103.162498 6.23725789,96.9374756 6.23725789,89.4990311 L6.23725789,89.4990311 Z M25.1344737,114.669231 L30.1954632,114.669231 L30.1954632,115.70812 C30.1954632,117.429351 31.5916842,118.824787 33.3138842,118.824787 C35.0360842,118.824787 36.4323053,117.429351 36.4323053,115.70812 L36.4323053,114.669231 L41.9149053,114.669231 L41.9149053,115.70812 C41.9149053,117.429351 43.3107105,118.824787 45.0333263,118.824787 C46.7559421,118.824787 48.1517474,117.429351 48.1517474,115.70812 L48.1517474,114.669231 L53.2127368,114.669231 C51.7836684,121.101616 46.0337158,125.927878 39.1740211,125.927878 C32.3134947,125.927462 26.5631263,121.101616 25.1344737,114.669231 L25.1344737,114.669231 Z" id="Shape"></path>
                </g>
            </g>
        </g>
    </g>
</svg>