<?xml version="1.0" encoding="UTF-8" standalone="no"?>
<svg width="52px" height="50px" viewBox="0 0 52 50" version="1.1" xmlns="http://www.w3.org/2000/svg" xmlns:xlink="http://www.w3.org/1999/xlink">
    <!-- Generator: Sketch 39.1 (31720) - http://www.bohemiancoding.com/sketch -->
    <title>Group</title>
    <desc>Created with Sketch.</desc>
    <defs></defs>
    <g id="Page-1" stroke="none" stroke-width="1" fill="none" fill-rule="evenodd">
        <g id="Artboard-2" transform="translate(-678.000000, -2560.000000)" fill="#9C7BB7">
            <g id="teacher_1151818_easyicon.net" transform="translate(678.000000, 2560.000000)">
                <g id="Layer_1">
                    <g id="Group">
                        <path d="M38.2544063,12.5295484 C38.2544063,11.0521935 37.2076563,10.1934194 34.5725625,10.1934194 C34.0425625,10.1934194 33.343625,10.2312581 32.3349688,10.2970645 C32.1030938,10.3085806 32.1030938,10.4122258 32.1030938,10.9633548 C32.1030938,11.2331613 32.0765938,11.5292903 31.8447188,14.5711935 C31.6509375,17.0356452 31.5995938,17.7035806 31.5995938,18.0243871 C31.5995938,19.0378065 32.1163438,19.5379355 34.14525,19.5379355 C37.3103438,19.5379355 38.2544063,18.2300323 38.2544063,16.6621935 C38.2544063,15.6866129 37.8784375,14.943 36.8846875,14.6337097 C37.9430313,14.3655484 38.2544063,13.3373226 38.2544063,12.5295484 L38.2544063,12.5295484 Z M34.8027813,17.8680968 C34.5576563,17.8680968 34.2595313,17.8170968 33.9630625,17.7282581 L34.1055,15.6356129 C34.403625,15.5846129 34.6868438,15.5599355 34.880625,15.5599355 C35.7468438,15.5599355 36.0565625,16.0469032 36.0565625,16.6885161 C36.0565625,17.1754839 35.8760313,17.8680968 34.8027813,17.8680968 L34.8027813,17.8680968 Z M34.9717188,13.8884516 C34.7398438,13.8884516 34.4930625,13.8506129 34.2346875,13.7848065 C34.2860313,13.0921935 34.3125313,12.4769032 34.337375,12.0277742 C34.5825,11.9899355 34.8292813,11.9636129 35.0098125,11.9636129 C35.8760313,11.9636129 36.18575,12.4127419 36.18575,12.9391935 C36.18575,13.3504839 35.9919688,13.8884516 34.9717188,13.8884516 L34.9717188,13.8884516 Z" id="Shape"></path>
                        <path d="M44.6508438,5.69390323 C45.4259688,5.69390323 45.4259688,6.20883871 45.4524688,7.38841935 C45.4524688,7.56774194 45.5021563,7.6203871 45.878125,7.6203871 C47.0524063,7.6203871 47.73975,7.13341935 47.73975,6.04103226 C47.73975,4.77096774 46.8089375,3.72958065 44.7684375,3.72958065 C40.969,3.72958065 40.4125,7.33741935 40.4125,9.04509677 C40.4125,12.2021613 42.300625,13.1004194 44.0711563,13.1004194 C45.8400313,13.1004194 46.75925,12.2021613 46.9000313,11.6247097 C47.0159688,11.1492581 47.0938125,10.7527742 47.0938125,10.4829677 C47.0938125,10.2394839 47.0292188,10.098 46.8354375,10.098 C46.2921875,10.098 45.8665313,11.0982581 44.4454688,11.0982581 C43.3457188,11.0982581 42.8289688,10.4944839 42.8289688,8.91512903 C42.8273125,7.94119355 43.02275,5.69390323 44.6508438,5.69390323 L44.6508438,5.69390323 Z" id="Shape"></path>
                        <path d="M24.3435625,27.3129677 L25.02925,27.3129677 C25.1716875,27.3129677 25.287625,27.2356452 25.327375,27.1073226 L25.7530313,25.3354839 L28.0022188,25.3354839 C28.1446563,26.5693548 28.2854375,27.3129677 29.77275,27.3129677 L30.4319375,27.3129677 C30.6638125,27.3129677 30.77975,27.2471613 30.77975,27.0036774 C30.77975,26.580871 30.4319375,25.1545161 29.0473125,19.6234839 C28.8667813,18.8930323 28.63325,18.1987742 27.7686875,18.1987742 L26.53975,18.1987742 C26.2300313,18.1987742 26.1786875,18.1987742 26.03625,18.4422581 C25.493,19.4063226 23.1162813,25.3091613 23.1162813,26.4657097 C23.1179375,27.081 23.7887188,27.3129677 24.3435625,27.3129677 L24.3435625,27.3129677 Z M27.1608438,20.0857742 L27.7040938,23.4748065 L26.2184375,23.4748065 L27.1608438,20.0857742 L27.1608438,20.0857742 Z" id="Shape"></path>
                        <polygon id="Shape" points="4.85446875 0 4.85446875 4.85651613 6.99103125 4.2033871 6.99103125 2.1206129 49.7255938 2.1206129 49.7255938 29.1802258 15.7194688 29.1802258 15.6085 31.3024839 51.8621563 31.3024839 51.8621563 0"></polygon>
                        <ellipse id="Oval" cx="8.25475" cy="11.6197742" rx="6.32853125" ry="6.28616129"></ellipse>
                        <polygon id="Shape" points="13.627625 47.1190645 13.627625 35.9286774 13.627625 34.874129 13.627625 33.4428387 14.0300938 33.4428387 14.6164063 22.0813548 25.53275 16.4647742 24.0984375 13.7157097 14.1195313 18.8502581 10.5585938 18.8502581 8.14378125 21.6305806 5.81178125 18.8502581 0.69065625 19.5362903 0.3544375 31.0951935 2.52909375 31.0951935 2.64503125 33.4428387 2.97628125 33.4428387 2.97628125 34.874129 2.97628125 35.9286774 2.97628125 47.1190645 2.5406875 47.1190645 0 47.6652581 0 49.9915161 2.1630625 49.9915161 4.6871875 49.581871 4.710375 49.9915161 7.50446875 49.9915161 7.50446875 47.4003871 7.50446875 47.1190645 7.50446875 35.9286774 9.09778125 35.9286774 9.09778125 47.1190645 9.09778125 47.4003871 9.09778125 49.9915161 11.8951875 49.9915161 11.9167188 49.581871 14.4391875 49.9915161 16.60225 49.9915161 16.60225 47.6652581 14.0632188 47.1190645"></polygon>
                        <rect id="Rectangle-path" x="39.1057188" y="23.8219355" width="8.36571875" height="3.09125806"></rect>
                    </g>
                </g>
            </g>
        </g>
    </g>
</svg>