<?xml version="1.0" encoding="UTF-8" standalone="no"?>
<svg width="72px" height="72px" viewBox="0 0 72 72" version="1.1" xmlns="http://www.w3.org/2000/svg" xmlns:xlink="http://www.w3.org/1999/xlink">
    <!-- Generator: Sketch 39.1 (31720) - http://www.bohemiancoding.com/sketch -->
    <title>Group</title>
    <desc>Created with Sketch.</desc>
    <defs></defs>
    <g id="Page-1" stroke="none" stroke-width="1" fill="none" fill-rule="evenodd">
        <g id="Artboard-2" transform="translate(-678.000000, -2546.000000)" fill="#9C7BB7">
            <g id="thief_1153298_easyicon.net" transform="translate(678.000000, 2546.000000)">
                <g id="Capa_1">
                    <g id="Group">
                        <path d="M41.1355862,44.632678 C41.2622069,44.1079322 41.3491034,43.552678 41.3751724,42.9583729 C41.8766897,32.1669153 35.8783448,23.3304407 26.8870345,17.6497627 C21.5391724,14.2694237 16.4668966,17.9548475 15.1783448,22.6543729 C11.8638621,20.0611525 6.12372414,23.9418305 8.7057931,28.2044746 C8.80013793,28.3594576 8.89696552,28.515661 8.9937931,28.6718644 C6.4017931,28.6621017 -1.85834483,28.6364746 0.454344828,28.6743051 C3.18786207,28.720678 9.74731034,35.9524068 9.74731034,35.9524068 L9.74731034,29.8507119 C11.762069,32.8795932 14.337931,35.7132203 18.1713103,36.1415593 C19.9191724,36.3380339 21.3628966,35.8059661 22.5496552,34.8748475 C24.048,36.6772881 24.8114483,38.7006102 24.9604138,41.1290847 C23.6482759,41.1095593 22.3324138,41.1620339 21.0041379,41.3145763 C16.4222069,41.8454237 13.5943448,42.8375593 12.6682759,47.5492881 C11.2754483,54.6565424 15.0355862,59.8478644 19.0911724,65.2808136 C22.3907586,69.699661 29.9855172,65.4174915 26.6424828,60.9364068 C23.9089655,57.2753898 21.1593103,54.2672542 21.2722759,50.0131525 C23.9437241,49.6141017 26.6002759,49.7214915 29.3126897,49.9765424 C30.6397241,50.5378983 32.1368276,50.7648814 33.6190345,50.6513898 C35.829931,57.9185085 40.0282759,64.3911864 45.4655172,69.912 C49.3957241,73.9037288 55.574069,67.8105763 51.650069,63.8359322 C46.2587586,58.3541695 42.6475862,52.0120678 41.1355862,44.632678 L41.1355862,44.632678 Z" id="Shape"></path>
                        <path d="M8.0342069,9.74684746 C8.04537931,9.86888136 8.04910345,9.99091525 8.06648276,10.1141695 C8.62386207,14.0924746 12.3542069,16.8736271 16.3986207,16.3256949 C20.4455172,15.7789831 23.2708966,12.1130847 22.7172414,8.13477966 C22.6030345,7.30738983 22.3448276,6.53735593 21.9798621,5.83444068 C22.2293793,5.7160678 22.3423448,5.43416949 22.257931,4.84718644 L22.0171034,3.11064407 C21.744,1.16908475 19.9228966,-0.190372881 17.9503448,0.0781016949 L10.0775172,1.13979661 C8.09751724,1.40827119 6.71834483,3.19850847 6.9902069,5.14250847 L7.18262069,6.54711864 C6.07903448,7.41233898 5.14675862,8.50576271 5.34910345,9.66508475 C5.52537931,10.6938305 6.68482759,10.4387797 8.0342069,9.74684746 L8.0342069,9.74684746 Z" id="Shape"></path>
                        <path d="M28.0067586,16.3952542 C28.0067586,16.3952542 45.7336552,25.7381695 43.6394483,39.5084746 C39.0488276,50.9894237 59.0933793,62.8145085 69.9926897,36.3355932 C69.9914483,36.3355932 83.870069,0.0451525424 28.0067586,16.3952542 L28.0067586,16.3952542 Z M58.0195862,38.0025763 L58.0195862,40.2162712 L55.6237241,40.2162712 L55.6237241,38.1331525 C54.513931,38.0306441 53.4103448,37.6706441 52.6965517,37.1727458 L52.3601379,36.9347797 L53.2291034,34.5453559 L53.8125517,34.927322 C54.5685517,35.424 55.5455172,35.7107797 56.4815172,35.7107797 C57.6273103,35.7107797 58.392,35.1262373 58.392,34.2585763 C58.392,33.6728136 58.1548966,33.0370169 56.4008276,32.3389831 C54.5486897,31.6263051 52.6506207,30.5877966 52.6506207,28.3277288 C52.6506207,26.5106441 53.865931,25.0938305 55.7714483,24.6215593 L55.7714483,22.4701017 L58.1462069,22.4701017 L58.1462069,24.4751186 C59.0536552,24.5654237 59.8468966,24.8131525 60.5606897,25.2244068 L60.9591724,25.4562712 L60.0529655,27.8090847 L59.4943448,27.496678 C59.1666207,27.3124068 58.3932414,26.8767458 57.1655172,26.8767458 C55.9551724,26.8767458 55.5244138,27.5015593 55.5244138,28.0861017 C55.5244138,28.7194576 55.8446897,29.1294915 57.7477241,29.9056271 C59.3937931,30.5646102 61.2893793,31.6409492 61.2893793,34.1170169 C61.2856552,35.992678 59.9908966,37.508339 58.0195862,38.0025763 L58.0195862,38.0025763 Z" id="Shape"></path>
                    </g>
                </g>
            </g>
        </g>
    </g>
</svg>