<?xml version="1.0" encoding="UTF-8" standalone="no"?>
<svg width="601px" height="625px" viewBox="0 0 601 625" version="1.1" xmlns="http://www.w3.org/2000/svg" xmlns:xlink="http://www.w3.org/1999/xlink">
    <!-- Generator: Sketch 40.3 (33839) - http://www.bohemiancoding.com/sketch -->
    <title>马桶</title>
    <desc>Created with Sketch.</desc>
    <defs></defs>
    <g id="Page-1" stroke="none" stroke-width="1" fill="none" fill-rule="evenodd">
        <g id="Artboard-2" transform="translate(-285.000000, -4124.000000)" fill="#E4C04E">
            <g id="马桶" transform="translate(285.000000, 4124.000000)">
                <path d="M90.885,297.255 L559.948,297.255 C576.273,297.255 597.989,321.534 597.989,321.534 C608.744,344.696 583.988,372.57 572.022,379.363 C534.039,400.923 481.854,391.737 420.259,465.896 C365.41,531.934 358.59,604.538 358.59,604.538 C351.66,619.207 338.962,624.713 322.738,624.713 L165.942,624.713 C148.255,624.713 132.469,613.618 126.479,596.976 L47.033,376.253 C44.483,369.169 43.887,361.529 45.308,354.135 L49.698,331.283 C53.492,311.532 70.774,297.255 90.885,297.255" id="Fill-1"></path>
                <path d="M558.065,289.888 L133.799,289.888 C125.469,289.888 118.654,283.073 118.654,274.743 C118.654,266.413 125.469,259.598 133.799,259.598 L558.065,259.598 C566.394,259.598 573.21,266.413 573.21,274.743 C573.21,283.073 566.394,289.888 558.065,289.888" id="Fill-2"></path>
                <path d="M130.68,56.754 C130.432,56.754 130.185,56.765 129.939,56.773 L133.33,17.44 C134.134,8.107 126.775,0.087 117.409,0.087 L16.547,0.087 C7.722,0.087 0.567,7.242 0.567,16.068 L0.567,268.995 C0.567,277.821 7.722,284.975 16.547,284.975 L95.604,284.975 C103.898,284.975 110.813,278.631 111.525,270.368 L125.066,113.293 C126.857,113.789 128.737,114.06 130.68,114.06 C142.32,114.06 151.843,104.537 151.843,92.897 L151.843,77.919 C151.843,66.279 142.319,56.754 130.68,56.754" id="Fill-3"></path>
            </g>
        </g>
    </g>
</svg>