<?xml version="1.0" encoding="UTF-8" standalone="no"?>
<svg width="622px" height="738px" viewBox="0 0 622 738" version="1.1" xmlns="http://www.w3.org/2000/svg" xmlns:xlink="http://www.w3.org/1999/xlink">
    <!-- Generator: Sketch 40.3 (33839) - http://www.bohemiancoding.com/sketch -->
    <title>跟踪</title>
    <desc>Created with Sketch.</desc>
    <defs></defs>
    <g id="Page-1" stroke="none" stroke-width="1" fill="none" fill-rule="evenodd">
        <g id="Artboard-2" transform="translate(-84.000000, -4262.000000)" fill="#3EC1AF">
            <g id="跟踪" transform="translate(84.000000, 4262.000000)">
                <path d="M101.116,164.703 C54.586,175.414 16.415,228.17 7.802,266.514 C-0.811,304.858 -3.683,352.458 12.109,418.306 C17.15,439.323 32.592,492.615 49.435,521.702 C66.278,550.791 83.663,590.923 83.663,590.923 L209.143,555.84 C209.143,555.84 207.352,484.681 215.965,462.202 C224.578,439.725 237.499,389.479 237.499,345.846 C237.499,302.213 208.048,248.401 198.738,224.202 C188.741,198.219 175.222,183.233 157.105,171.314 C135.156,156.875 101.116,164.703 101.116,164.703" id="Fill-1"></path>
                <path d="M92.128,625.476 L218.461,593.742 C237.605,631.532 238.033,631.385 247.175,666.479 C255.789,699.533 260.609,746.389 215.591,769.611 C176.742,789.65 132.713,765.643 119.406,743.168 C102.774,715.067 100.919,673.729 96.437,657.223 C92.132,641.357 92.128,625.476 92.128,625.476" id="Fill-2"></path>
                <path d="M540.132,5.464 C583.982,20.256 615.22,76.144 619.419,115.065 C623.62,153.985 621.266,201.604 598.896,265.724 C591.756,286.189 571.08,337.844 551.652,365.293 C532.225,392.742 511.088,431.13 511.088,431.13 L393.495,385.07 C393.495,385.07 402.895,314.42 396.986,291.289 C391.079,268.155 383.993,217.011 388.697,173.594 C393.396,130.176 426.742,78.66 439.298,55.995 C452.762,31.687 473.033,15.081 485.264,7.067 C506.741,-7.006 540.132,5.464 540.132,5.464" id="Fill-3"></path>
                <path d="M496.664,463.29 L377.89,420.49 C355.296,456.392 354.899,456.21 342.273,490.312 C330.382,522.439 320.671,568.638 361.71,595.743 C397.13,619.136 442.303,599.163 457.595,577.977 C476.715,551.492 482.961,510.525 489.076,494.499 C494.949,479.092 496.664,463.29 496.664,463.29" id="Fill-4"></path>
            </g>
        </g>
    </g>
</svg>