<?xml version="1.0" encoding="UTF-8" standalone="no"?>
<svg width="820px" height="815px" viewBox="0 0 820 815" version="1.1" xmlns="http://www.w3.org/2000/svg" xmlns:xlink="http://www.w3.org/1999/xlink">
    <!-- Generator: Sketch 40.3 (33839) - http://www.bohemiancoding.com/sketch -->
    <title>翻</title>
    <desc>Created with Sketch.</desc>
    <defs></defs>
    <g id="Page-1" stroke="none" stroke-width="1" fill="none" fill-rule="evenodd">
        <g id="Artboard-2" transform="translate(-185.000000, -4175.000000)" fill="#3EC1AF">
            <g id="翻" transform="translate(185.000000, 4175.000000)">
                <path d="M0,761.925 L265.263,522.435 L0,270.247 L0,761.925 L0,761.925 Z M55.107,398.704 L184.194,521.426 L55.107,637.942 L55.107,398.704 L55.107,398.704 Z" id="Fill-1"></path>
                <polyline id="Fill-2" points="553.937 509.768 819.2 761.925 819.2 270.247 553.937 509.768"></polyline>
                <polygon id="Fill-3" points="381.401 277.273 436.161 277.273 436.161 222.513 381.401 222.513"></polygon>
                <polygon id="Fill-4" points="381.401 663.022 436.161 663.022 436.161 566.577 381.401 566.577"></polygon>
                <polygon id="Fill-5" points="381.401 470.163 436.161 470.163 436.161 373.718 381.401 373.718"></polygon>
                <polygon id="Fill-6" points="381.401 814.195 436.161 814.195 436.161 759.435 381.401 759.435"></polygon>
                <path d="M765.511,219.929 L626.877,1.675 L587.902,64.628 C540.987,29.654 473.151,0.604 375.887,0.604 C132.616,0.604 85.89,198.094 85.417,200.079 L138.886,211.958 C139.232,210.383 176.033,55.365 375.855,55.365 C461.525,55.365 519.845,81.327 558.915,111.448 L491.205,220.843 L765.511,219.929" id="Fill-7"></path>
            </g>
        </g>
    </g>
</svg>