<?xml version="1.0" encoding="UTF-8" standalone="no"?>
<svg width="112px" height="117px" viewBox="0 0 112 117" version="1.1" xmlns="http://www.w3.org/2000/svg" xmlns:xlink="http://www.w3.org/1999/xlink">
    <!-- Generator: Sketch 40.3 (33839) - http://www.bohemiancoding.com/sketch -->
    <title>Group</title>
    <desc>Created with Sketch.</desc>
    <defs></defs>
    <g id="Page-1" stroke="none" stroke-width="1" fill="none" fill-rule="evenodd">
        <g id="Artboard-2" transform="translate(-1134.000000, -2901.000000)" fill="#3EC1AF">
            <g id="muscle_1161786_easyicon.net" transform="translate(1134.000000, 2859.000000)">
                <g id="Layer_1">
                    <g id="skipping_rope_1205562_easyicon.net" transform="translate(0.000000, 42.000000)">
                        <g id="Слой_3">
                            <g id="Group">
                                <path d="M50.906,116.856 C45.244,116.856 39.976,114.697 36.028,110.748 C31.985,106.705 29.872,101.257 30.078,95.406 C30.279,89.718 32.631,84.345 36.7,80.276 L83.793,33.184 C86.647,30.33 88.137,26.463 87.99,22.296 C87.843,18.131 86.113,14.189 83.121,11.196 C77.045,5.122 67.883,5.121 61.806,11.196 L31.454,41.55 C30.283,42.723 30.222,41.337 29.052,40.166 C27.88,38.995 26.04,38.478 27.212,37.308 L57.565,6.955 C65.92,-1.399 79.01,-1.399 87.364,6.955 C91.434,11.024 93.786,16.397 93.987,22.085 C94.193,27.935 92.08,33.383 88.036,37.427 L40.944,84.519 C37.952,87.512 36.223,91.454 36.075,95.619 C35.928,99.787 37.418,103.653 40.271,106.507 C43.156,109.392 47.048,110.966 51.225,110.853 C55.403,110.772 59.334,109.096 62.295,106.136 L81.211,87.22 C82.382,86.048 81.223,88.433 82.395,89.605 C83.566,90.777 86.626,90.291 85.454,91.462 L66.538,110.378 C62.475,114.441 57.079,116.74 51.342,116.852 C51.197,116.854 51.051,116.856 50.906,116.856 L50.906,116.856 Z" id="Shape"></path>
                                <path d="M12.488,69.256 C9.738,69.256 6.606,67.766 4.11,65.269 C-0.192,60.967 -1.156,55.444 1.868,52.42 C1.909,52.378 1.951,52.338 1.995,52.3 L20.649,35.706 C21.984,34.406 23.716,33.691 25.537,33.691 C27.163,33.691 29.672,34.262 32.394,36.985 C36.853,41.443 36.254,46.078 33.673,48.73 L17.079,67.384 C17.04,67.428 17,67.47 16.959,67.512 C15.818,68.652 14.272,69.256 12.488,69.256 L12.488,69.256 Z M6.106,56.673 C5.971,57.071 6.348,59.022 8.352,61.027 C9.892,62.567 11.539,63.256 12.488,63.256 C12.618,63.256 12.699,63.242 12.743,63.232 L29.24,44.685 C29.279,44.642 29.319,44.599 29.36,44.558 C30.318,43.6 28.833,41.91 28.151,41.227 C27.189,40.265 26.211,39.691 25.536,39.691 C25.355,39.691 25.11,39.728 24.82,40.017 C24.779,40.059 24.737,40.099 24.693,40.137 L6.106,56.673 L6.106,56.673 Z" id="Shape"></path>
                                <path d="M14.838,67.39 C14.326,67.39 13.815,67.195 13.424,66.804 C12.643,66.024 12.643,64.757 13.424,63.976 C14.128,63.272 13.593,60.609 11.182,58.198 C8.772,55.788 6.109,55.253 5.404,55.955 C4.624,56.736 3.356,56.736 2.576,55.955 C1.795,55.174 1.795,53.908 2.576,53.127 C5.153,50.549 10.176,51.535 14.011,55.37 C17.845,59.204 18.831,64.227 16.254,66.805 C15.862,67.195 15.349,67.39 14.838,67.39 L14.838,67.39 Z" id="Shape"></path>
                                <path d="M85.92,95.88 C84.294,95.88 81.785,95.309 79.063,92.586 C74.604,88.128 75.203,83.493 77.784,80.841 L94.378,62.187 C94.417,62.143 94.457,62.101 94.499,62.059 C95.64,60.919 97.186,60.316 98.97,60.316 C101.72,60.316 104.852,61.806 107.348,64.303 C111.65,68.605 112.614,74.128 109.59,77.152 C109.549,77.194 109.506,77.234 109.463,77.272 L90.809,93.866 C89.473,95.165 87.741,95.88 85.92,95.88 L85.92,95.88 Z M98.713,66.34 L82.216,84.885 C82.177,84.928 82.137,84.971 82.096,85.012 C81.139,85.97 82.623,87.66 83.305,88.343 C84.267,89.305 85.245,89.879 85.92,89.879 C86.101,89.879 86.346,89.842 86.636,89.553 C86.677,89.511 86.72,89.471 86.763,89.433 L105.35,72.898 C105.485,72.5 105.108,70.549 103.104,68.544 C101.564,67.004 99.917,66.315 98.968,66.315 C98.838,66.315 98.757,66.329 98.713,66.34 L98.713,66.34 Z" id="Shape"></path>
                                <path d="M105.133,77.879 C102.697,77.879 99.841,76.595 97.447,74.201 C93.613,70.367 92.627,65.344 95.204,62.766 C95.985,61.985 97.251,61.985 98.033,62.766 C98.814,63.546 98.814,64.813 98.033,65.594 C97.329,66.298 97.865,68.961 100.275,71.372 C102.685,73.782 105.349,74.318 106.053,73.615 C106.833,72.834 108.101,72.834 108.881,73.615 C109.662,74.396 109.662,75.662 108.881,76.443 C107.913,77.413 106.599,77.879 105.133,77.879 L105.133,77.879 Z" id="Shape"></path>
                            </g>
                        </g>
                    </g>
                </g>
            </g>
        </g>
    </g>
</svg>