<?xml version="1.0" encoding="UTF-8" standalone="no"?>
<svg width="300px" height="283px" viewBox="0 0 300 283" version="1.1" xmlns="http://www.w3.org/2000/svg" xmlns:xlink="http://www.w3.org/1999/xlink">
    <!-- Generator: Sketch 39.1 (31720) - http://www.bohemiancoding.com/sketch -->
    <title>Group</title>
    <desc>Created with Sketch.</desc>
    <defs></defs>
    <g id="Page-1" stroke="none" stroke-width="1" fill="none" fill-rule="evenodd">
        <g id="Artboard-2" transform="translate(-1596.000000, -1163.000000)" fill="#CA7CAC">
            <g id="building_1195974_easyicon.net" transform="translate(1596.000000, 1163.000000)">
                <g id="Capa_1">
                    <g id="Group">
                        <path d="M298.32,106.389 L230.152,4.389 C228.668,2.167 226.172,0.834 223.501,0.834 L223.482,0.834 C220.804,0.84 218.307,2.019 216.829,4.252 L207.068,18.834 L62.705,18.834 C60.005,18.834 57.487,20.363 56.01,22.623 L1.305,106.373 C-0.303,108.832 -0.434,112.015 0.964,114.599 C2.361,117.182 5.063,118.834 8,118.834 L16.501,118.834 L16.501,274.834 C16.501,279.252 20.416,282.834 24.834,282.834 L272.834,282.834 C277.252,282.834 280.501,279.252 280.501,274.834 L280.501,118.834 L291.668,118.834 C294.62,118.834 297.332,117.208 298.724,114.605 C300.116,112.001 299.96,108.843 298.32,106.389 L298.32,106.389 Z M248.834,102.834 C244.416,102.834 240.834,106.416 240.834,110.834 C240.834,115.252 244.416,118.834 248.834,118.834 L264.501,118.834 L264.501,134.834 L181.501,134.834 L181.501,118.834 L198.834,118.834 C203.252,118.834 206.834,115.252 206.834,110.834 C206.834,106.416 203.252,102.834 198.834,102.834 L170.888,102.834 L223.533,23.28 L276.699,102.834 L248.834,102.834 L248.834,102.834 Z M264.501,150.834 L264.501,185.834 L246.501,185.834 L246.501,150.834 L264.501,150.834 L264.501,150.834 Z M246.501,233.834 L264.501,233.834 L264.501,266.834 L246.501,266.834 L246.501,233.834 L246.501,233.834 Z M181.501,217.834 L181.501,201.834 L264.501,201.834 L264.501,217.834 L181.501,217.834 L181.501,217.834 Z M230.501,185.834 L214.501,185.834 L214.501,150.834 L230.501,150.834 L230.501,185.834 L230.501,185.834 Z M198.501,185.834 L181.501,185.834 L181.501,150.834 L198.501,150.834 L198.501,185.834 L198.501,185.834 Z M151.7,102.834 L22.789,102.834 L67.032,34.834 L196.48,34.834 L151.7,102.834 L151.7,102.834 Z M165.501,118.834 L165.501,134.834 L32.501,134.834 L32.501,118.834 L165.501,118.834 L165.501,118.834 Z M72.501,233.834 L124.501,233.834 L124.501,266.834 L72.501,266.834 L72.501,233.834 L72.501,233.834 Z M32.501,217.834 L32.501,201.834 L165.501,201.834 L165.501,217.834 L32.501,217.834 L32.501,217.834 Z M106.501,185.834 L90.501,185.834 L90.501,150.834 L106.501,150.834 L106.501,185.834 L106.501,185.834 Z M74.501,185.834 L32.501,185.834 L32.501,150.834 L74.501,150.834 L74.501,185.834 L74.501,185.834 Z M122.501,185.834 L122.501,150.834 L165.501,150.834 L165.501,185.834 L122.501,185.834 L122.501,185.834 Z M32.501,233.834 L56.501,233.834 L56.501,266.834 L32.501,266.834 L32.501,233.834 L32.501,233.834 Z M140.501,233.834 L165.501,233.834 L165.501,266.834 L140.501,266.834 L140.501,233.834 L140.501,233.834 Z M181.501,233.834 L198.501,233.834 L198.501,266.834 L181.501,266.834 L181.501,233.834 L181.501,233.834 Z M214.501,266.834 L214.501,233.834 L230.501,233.834 L230.501,266.834 L214.501,266.834 L214.501,266.834 Z" id="Shape"></path>
                        <circle id="Oval" cx="223.501" cy="80.334" r="16"></circle>
                    </g>
                </g>
            </g>
        </g>
    </g>
</svg>