<?xml version="1.0" encoding="UTF-8" standalone="no"?>
<svg width="636px" height="717px" viewBox="0 0 636 717" version="1.1" xmlns="http://www.w3.org/2000/svg" xmlns:xlink="http://www.w3.org/1999/xlink">
    <!-- Generator: Sketch 40.3 (33839) - http://www.bohemiancoding.com/sketch -->
    <title>祭拜</title>
    <desc>Created with Sketch.</desc>
    <defs></defs>
    <g id="Page-1" stroke="none" stroke-width="1" fill="none" fill-rule="evenodd">
        <g id="Artboard-2" transform="translate(-135.000000, -4124.000000)" fill="#3EC1AF">
            <g id="祭拜" transform="translate(135.000000, 4124.000000)">
                <path d="M397.277,190.435 C397.277,151.725 366.194,120.348 327.853,120.348 C289.513,120.348 258.403,151.725 258.403,190.435 C258.403,229.144 289.513,260.502 327.853,260.502 C366.194,260.502 397.277,229.144 397.277,190.435" id="Fill-1"></path>
                <path d="M462.775,646.732 C454.171,604.669 409.64,584.991 374.845,566.53 C369.087,563.453 363.265,560.56 357.416,557.686 L356.761,504.201 C386.646,457.845 448.57,356.401 448.57,356.401 C448.726,356.106 448.772,355.775 448.671,355.443 C448.57,355.13 448.303,354.872 448.016,354.761 L414.844,341.625 L413.656,341.883 C413.582,341.957 387.484,368.34 355.822,399.312 C356.357,391.831 356.633,384.609 356.633,377.903 C356.624,351.74 354.311,321.689 338.789,299.729 C325.634,281.139 303.267,268.241 280.255,269.863 C242.034,272.572 222.245,301.11 212.195,335.914 C194.747,396.383 189.956,460.334 190.472,523.088 C190.74,554.298 195.032,588.77 212.057,615.67 C221.361,630.409 234.176,643.638 250.895,649.553 L124.191,666.574 L123.352,667.127 L97.324,714.422 C97.13,714.736 97.139,715.178 97.351,715.509 C97.531,715.84 97.914,716.062 98.3,716.062 L366.959,714.127 C402.38,714.091 468.293,704.382 463.927,654.801 C463.687,652.038 463.309,649.347 462.775,646.732" id="Fill-2"></path>
                <path d="M482.553,47.867 C413.73,3.575 345.826,0.774 328.342,0.737 C326.574,0.737 325.292,0.774 324.547,0.792 C322.842,0.755 321.248,0.755 319.775,0.755 C167.23,0.276 84.312,84.328 43.847,166.169 C2.83,248.047 0.182,328.082 0.062,329.354 C-0.256,338.252 6.686,345.732 15.603,346.046 C24.516,346.359 31.992,339.394 32.304,330.477 C32.304,330.477 32.457,326.258 33.299,318.096 C36.109,289.557 47.629,216.78 88.406,152.866 C129.497,89.062 197.022,27.558 319.775,27.189 C321.414,27.171 322.934,21.344 324.39,21.344 L325.634,21.344 C325.634,21.344 326.306,27.152 328.343,27.152 C342.28,27.079 404.195,32.673 465.06,72.045 C525.824,111.51 587.508,188.096 602.957,340.779 C603.786,349.088 610.806,356.035 618.986,356.035 C619.52,356.035 620.064,356.393 620.626,356.319 C629.47,355.453 635.936,347.748 635.071,338.868 C619.437,178.614 551.506,92.012 482.553,47.867" id="Fill-3"></path>
            </g>
        </g>
    </g>
</svg>