<?xml version="1.0" encoding="UTF-8" standalone="no"?>
<svg width="816px" height="374px" viewBox="0 0 816 374" version="1.1" xmlns="http://www.w3.org/2000/svg" xmlns:xlink="http://www.w3.org/1999/xlink">
    <!-- Generator: Sketch 40.3 (33839) - http://www.bohemiancoding.com/sketch -->
    <title>空调</title>
    <desc>Created with Sketch.</desc>
    <defs></defs>
    <g id="Page-1" stroke="none" stroke-width="1" fill="none" fill-rule="evenodd">
        <g id="Artboard-2" transform="translate(-121.000000, -4455.000000)" fill="#E4C04E">
            <g id="空调" transform="translate(121.000000, 4455.000000)">
                <path d="M737.942,373.866 L77.258,373.866 C34.659,373.866 0.048,339.254 0.048,296.656 L0.048,77.93 C0.048,35.331 34.659,0.72 77.258,0.72 L738.147,0.72 C780.746,0.72 815.357,35.331 815.357,77.93 L815.357,296.656 C815.152,339.254 780.541,373.866 737.942,373.866 L737.942,373.866 Z M77.258,36.355 C54.32,36.355 35.683,54.992 35.683,77.93 L35.683,296.656 C35.683,319.594 54.32,338.23 77.258,338.23 L738.147,338.23 C761.085,338.23 779.722,319.594 779.722,296.656 L779.722,77.93 C779.722,54.992 761.085,36.355 738.147,36.355 L77.258,36.355 L77.258,36.355 Z" id="Fill-1"></path>
                <path d="M722.173,245.456 L87.498,245.456 C80.944,245.456 75.619,239.722 75.619,233.168 C75.619,226.614 80.944,220.88 87.498,220.88 L722.173,220.88 C728.726,220.88 734.051,226.614 734.051,233.168 C734.051,239.722 728.726,245.456 722.173,245.456" id="Fill-2"></path>
                <path d="M720.125,300.752 L85.45,300.752 C78.896,300.752 73.571,295.018 73.571,288.464 C73.571,281.91 78.896,276.176 85.45,276.176 L720.125,276.176 C726.678,276.176 732.003,281.91 732.003,288.464 C732.003,295.018 726.678,300.752 720.125,300.752" id="Fill-3"></path>
                <path d="M615.062,138.755 L421.936,138.755 C409.648,138.755 399.818,128.72 399.818,116.637 L399.818,105.987 C399.818,93.699 409.853,83.869 421.936,83.869 L615.062,83.869 C627.35,83.869 637.181,93.904 637.181,105.987 L637.181,116.637 C637.181,128.72 627.35,138.755 615.062,138.755 L615.062,138.755 Z M421.936,103.325 C420.707,103.325 419.478,104.349 419.478,105.782 L419.478,116.432 C419.478,117.661 420.502,118.89 421.936,118.89 L615.062,118.89 C616.291,118.89 617.52,117.866 617.52,116.432 L617.52,105.782 C617.52,104.554 616.496,103.325 615.062,103.325 L421.936,103.325 L421.936,103.325 Z" id="Fill-4"></path>
                <path d="M712.752,138.755 L669.539,138.755 C657.251,138.755 647.421,128.72 647.421,116.637 L647.421,105.987 C647.421,93.699 657.456,83.869 669.539,83.869 L712.752,83.869 C725.04,83.869 734.87,93.904 734.87,105.987 L734.87,116.637 C734.87,128.72 725.04,138.755 712.752,138.755 L712.752,138.755 Z M669.334,103.325 C668.106,103.325 666.877,104.349 666.877,105.782 L666.877,116.432 C666.877,117.661 667.901,118.89 669.334,118.89 L712.752,118.89 C713.981,118.89 715.21,117.866 715.21,116.432 L715.21,105.782 C715.21,104.554 714.186,103.325 712.752,103.325 L669.334,103.325 L669.334,103.325 Z" id="Fill-5"></path>
            </g>
        </g>
    </g>
</svg>