<?xml version="1.0" encoding="UTF-8" standalone="no"?>
<svg width="788px" height="717px" viewBox="0 0 788 717" version="1.1" xmlns="http://www.w3.org/2000/svg" xmlns:xlink="http://www.w3.org/1999/xlink">
    <!-- Generator: Sketch 40.3 (33839) - http://www.bohemiancoding.com/sketch -->
    <title>发怒</title>
    <desc>Created with Sketch.</desc>
    <defs></defs>
    <g id="Page-1" stroke="none" stroke-width="1" fill="none" fill-rule="evenodd">
        <g id="Artboard-2" transform="translate(-215.000000, -4177.000000)" fill="#3EC1AF">
            <path d="M973.201491,4186.212 C986.854491,4217.341 995.866491,4246.832 1000.23549,4274.685 C1001.87349,4286.7 1002.69249,4298.852 1002.69249,4311.14 C1002.69249,4323.428 1001.19049,4335.306 998.187491,4346.775 C995.183491,4358.244 990.131491,4369.03 983.031491,4379.133 C975.932491,4389.237 966.374491,4397.565 954.359491,4404.119 C953.267491,4405.211 951.902491,4406.03 950.263491,4406.576 C948.625491,4407.122 947.260491,4407.942 946.167491,4409.034 C953.813491,4428.695 959.548491,4449.038 963.371491,4470.064 C967.193491,4491.09 969.105491,4513.072 969.105491,4536.01 C969.105491,4585.162 959.684491,4631.583 940.843491,4675.274 C922.001491,4718.965 896.333491,4756.921 863.838491,4789.143 C831.343491,4821.365 793.386491,4846.896 749.969491,4865.738 C706.551491,4884.58 659.994491,4894 610.295491,4894 C561.143491,4894 514.722491,4884.58 471.031491,4865.738 C427.341491,4846.896 389.384491,4821.365 357.163491,4789.143 C324.941491,4756.921 299.409491,4718.965 280.567491,4675.274 C261.726491,4631.583 252.305491,4585.162 252.305491,4536.01 C252.305491,4513.618 254.216491,4491.91 258.039491,4470.884 C261.862491,4449.857 267.597491,4429.514 275.242491,4409.853 C271.420491,4408.215 267.597491,4406.303 263.774491,4404.119 C251.213491,4397.565 241.519491,4389.237 234.692491,4379.133 C227.865491,4369.03 222.814491,4358.244 219.537491,4346.775 C216.260491,4335.306 214.758491,4323.428 215.031491,4311.14 C215.304491,4298.852 216.260491,4286.7 217.898491,4274.685 C222.268491,4246.832 231.279491,4217.341 244.932491,4186.212 C250.940491,4205.326 257.766491,4223.622 265.412491,4241.098 C271.966491,4256.39 279.885491,4271.818 289.169491,4287.383 C298.453491,4302.948 308.557491,4315.918 319.479491,4326.295 C352.247491,4280.966 393.890491,4244.784 444.407491,4217.751 C494.925491,4190.717 550.221491,4177.2 610.295491,4177.2 C670.370491,4177.2 725.529491,4190.581 775.774491,4217.341 C826.018491,4244.102 867.524491,4279.873 900.292491,4324.656 C911.215491,4314.28 921.045491,4301.173 929.783491,4285.335 C938.521491,4269.497 946.167491,4254.205 952.721491,4239.46 C960.367491,4221.983 967.194491,4204.234 973.201491,4186.212 L973.201491,4186.212 Z M398.942491,4345.956 C406.042491,4369.439 413.687491,4390.738 421.879491,4409.853 C428.979491,4426.237 436.898491,4442.075 445.636491,4457.367 C454.374491,4472.659 463.386491,4482.762 472.670491,4487.677 C481.954491,4492.592 491.784491,4492.865 502.161491,4488.496 C512.538491,4484.127 522.095491,4478.393 530.833491,4471.293 C540.663491,4463.101 550.767491,4452.998 561.143491,4440.983 L398.942491,4345.956 L398.942491,4345.956 Z M800.350491,4776.036 C804.719491,4774.397 808.132491,4772.213 810.590491,4769.482 C813.047491,4766.751 814.686491,4763.748 815.505491,4760.471 C816.324491,4757.194 816.734491,4754.19 816.734491,4751.46 C816.734491,4748.729 816.461491,4746.544 815.915491,4744.906 C814.822491,4742.175 814.003491,4740.264 813.457491,4739.172 C812.911491,4738.079 812.638491,4736.987 812.638491,4735.895 C799.531491,4705.857 774.818491,4681.555 738.500491,4662.986 C702.182491,4644.417 658.901491,4635.133 608.657491,4635.133 C583.535491,4635.133 559.642491,4637.864 536.977491,4643.325 C514.312491,4648.786 493.969491,4656.296 475.947491,4665.853 C457.924491,4675.411 442.496491,4686.879 429.662491,4700.26 C416.828491,4713.64 407.953491,4727.976 403.038491,4743.268 C403.038491,4743.814 402.765491,4744.36 402.219491,4744.906 C401.126491,4748.183 401.399491,4753.781 403.038491,4761.7 C404.676491,4769.618 409.591491,4774.397 417.783491,4776.036 C430.345491,4760.744 445.636491,4746.817 463.659491,4734.256 C479.496491,4723.334 499.157491,4713.503 522.641491,4704.765 C546.125491,4696.027 574.251491,4691.658 607.019491,4691.658 C639.787491,4691.658 668.322491,4696.027 692.625491,4704.765 C716.928491,4713.503 736.998491,4723.334 752.836491,4734.256 C771.405491,4746.817 787.243491,4760.744 800.350491,4776.036 L800.350491,4776.036 Z M745.463491,4487.677 C754.748491,4482.762 763.759491,4472.659 772.497491,4457.367 C781.235491,4442.075 789.154491,4426.237 796.254491,4409.853 C804.446491,4390.739 812.092491,4369.439 819.191491,4345.956 L656.990491,4440.983 C667.366491,4452.998 677.470491,4463.101 687.300491,4471.293 C696.038491,4478.393 705.596491,4484.127 715.972491,4488.496 C726.349491,4492.865 736.179491,4492.592 745.463491,4487.677 L745.463491,4487.677 Z" id="发怒"></path>
        </g>
    </g>
</svg>