<?xml version="1.0" encoding="UTF-8" standalone="no"?>
<svg width="740px" height="723px" viewBox="0 0 740 723" version="1.1" xmlns="http://www.w3.org/2000/svg" xmlns:xlink="http://www.w3.org/1999/xlink">
    <!-- Generator: Sketch 40.3 (33839) - http://www.bohemiancoding.com/sketch -->
    <title>整理</title>
    <desc>Created with Sketch.</desc>
    <defs></defs>
    <g id="Page-1" stroke="none" stroke-width="1" fill="none" fill-rule="evenodd">
        <g id="Artboard-2" transform="translate(-116.000000, -4200.000000)" fill="#3EC1AF">
            <g id="整理" transform="translate(116.000000, 4200.000000)">
                <path d="M739.015,360.975 C739.015,315.108 716.212,274.446 681.281,249.456 C716.215,224.466 739.015,183.804 739.015,137.937 C739.015,62.126 676.787,0.451 600.294,0.451 L139.099,0.451 C62.61,0.451 0.379,62.126 0.379,137.937 C0.379,183.804 23.181,224.466 58.116,249.456 C23.181,274.446 0.379,315.108 0.379,360.975 C0.379,407.285 23.623,448.285 59.13,473.212 C23.623,498.135 0.379,539.138 0.379,585.448 C0.379,661.258 62.61,722.934 139.099,722.934 L600.294,722.934 C676.787,722.934 739.015,661.258 739.015,585.448 C739.015,539.138 715.77,498.138 680.264,473.212 C715.773,448.288 739.015,407.285 739.015,360.975 L739.015,360.975 Z M52.399,137.94 C52.399,90.558 91.293,52.011 139.099,52.011 L600.294,52.011 C648.101,52.011 686.995,90.558 686.995,137.94 C686.995,183.336 651.283,220.599 606.245,223.643 C604.271,223.559 602.291,223.492 600.294,223.492 L139.099,223.492 C137.105,223.492 135.125,223.559 133.149,223.643 C88.111,220.596 52.399,183.336 52.399,137.94 L52.399,137.94 Z M600.294,671.373 L139.099,671.373 C91.293,671.373 52.399,632.826 52.399,585.445 C52.399,538.063 91.293,499.516 139.099,499.516 L600.294,499.516 C648.101,499.516 686.995,538.063 686.995,585.445 C686.995,632.826 648.101,671.373 600.294,671.373 L600.294,671.373 Z M600.294,446.904 L139.099,446.904 C91.293,446.904 52.399,408.357 52.399,360.975 C52.399,315.579 88.111,278.316 133.149,275.272 C135.125,275.356 137.105,275.423 139.099,275.423 L600.294,275.423 C602.291,275.423 604.271,275.356 606.245,275.272 C651.283,278.316 686.995,315.579 686.995,360.975 C686.995,408.357 648.101,446.904 600.294,446.904 L600.294,446.904 Z" id="Fill-1"></path>
                <path d="M335.498,170.692 L403.896,170.692 C419.857,170.692 432.796,157.753 432.796,141.792 C432.796,125.83 419.857,112.892 403.896,112.892 L335.498,112.892 C319.536,112.892 306.598,125.83 306.598,141.792 C306.598,157.753 319.536,170.692 335.498,170.692" id="Fill-2"></path>
                <path d="M403.896,328.68 L335.498,328.68 C319.536,328.68 306.598,341.618 306.598,357.58 C306.598,373.541 319.536,386.48 335.498,386.48 L403.896,386.48 C419.857,386.48 432.796,373.541 432.796,357.58 C432.796,341.618 419.857,328.68 403.896,328.68" id="Fill-3"></path>
                <path d="M403.896,552.172 L335.498,552.172 C319.536,552.172 306.598,565.111 306.598,581.072 C306.598,597.034 319.536,609.972 335.498,609.972 L403.896,609.972 C419.857,609.972 432.796,597.034 432.796,581.072 C432.796,565.111 419.857,552.172 403.896,552.172" id="Fill-4"></path>
            </g>
        </g>
    </g>
</svg>