<?xml version="1.0" encoding="UTF-8" standalone="no"?>
<svg width="598px" height="513px" viewBox="0 0 598 513" version="1.1" xmlns="http://www.w3.org/2000/svg" xmlns:xlink="http://www.w3.org/1999/xlink">
    <!-- Generator: Sketch 40.3 (33839) - http://www.bohemiancoding.com/sketch -->
    <title>背包</title>
    <desc>Created with Sketch.</desc>
    <defs></defs>
    <g id="Page-1" stroke="none" stroke-width="1" fill="none" fill-rule="evenodd">
        <g id="Artboard-2" transform="translate(-706.000000, -4117.000000)" fill="#E4C04E">
            <g id="背包" transform="translate(706.000000, 4117.000000)">
                <path d="M597.068,401.807 C595.663,356.641 574.843,272.14 556.182,222.992 C546.736,198.138 538.868,175.29 534.207,157.706 L534.207,157.293 C541.203,138.39 544.135,118.135 544.135,96.557 C544.135,91.245 543.5,85.551 542.964,79.493 C542.919,71.875 536.545,65.501 528.915,65.501 L69.249,65.493 C62.175,65.489 55.827,71.15 55.179,78.326 C54.573,84.822 54.581,90.905 54.581,96.561 C54.581,118.151 58.583,138.41 65.579,157.317 L65.579,157.514 C60.918,175.127 51.956,198.044 42.474,222.996 C23.808,272.144 2.079,356.641 0.674,401.811 C-0.69,446.048 14.396,478.517 65.702,484.248 C70.707,499.89 86.456,512.551 103.721,512.551 L492.706,512.551 C509.979,512.551 524.679,499.89 529.681,484.239 C580.946,478.493 598.432,446.024 597.068,401.807 L597.068,401.807 Z M503.954,473.5 C503.954,479.57 498.772,485.222 492.702,485.222 L103.492,485.149 C100.461,485.149 96.537,483.891 94.526,481.876 C92.514,479.865 91.228,477.096 91.228,474.061 L91.228,472.848 L91.474,204.401 C116.218,232.991 154.176,253.446 198.478,257.948 L198.478,279.226 C198.478,288.34 205.965,295.713 215.116,295.713 L228.485,295.713 C237.632,295.713 245.107,288.373 245.107,279.226 L245.107,258.41 L352.357,258.41 L352.357,279.226 C352.357,288.303 357.567,295.713 366.717,295.713 L380.099,295.713 C389.245,295.713 398.985,288.373 398.985,279.226 L398.985,257.948 C443.284,253.446 480.135,233.015 504.871,204.454 C504.863,293.894 503.954,384.072 503.954,473.5 L503.954,473.5 Z M485.227,186.161 C465.447,209.025 433.949,225.958 398.977,230.177 L398.977,215.243 C398.977,206.096 389.167,200.129 380.09,200.129 L366.709,200.129 C357.632,200.129 352.348,206.166 352.348,215.243 L352.348,232.77 L245.103,232.77 L245.103,215.243 C245.103,206.096 237.595,200.129 228.481,200.129 L215.112,200.129 C205.998,200.129 198.474,206.129 198.474,215.243 L198.474,230.177 C163.498,225.958 133.294,209.16 113.515,186.296 C93.018,162.605 81.947,131.09 81.947,96.287 C81.947,95.23 81.951,95.218 81.971,92.883 L515.631,92.883 C515.648,95.214 515.656,95.23 515.656,96.287 C515.66,131.086 505.727,162.47 485.227,186.161 L485.227,186.161 Z" id="Fill-1"></path>
                <path d="M420.375,240.384 L420.375,359.086 C420.375,387.5 397.343,410.532 368.929,410.532 L228.801,410.532 C200.387,410.532 177.355,387.5 177.355,359.086 L177.355,240.384 L153.746,240.384 L153.746,372.701 C153.746,406.632 181.254,434.141 215.186,434.141 L382.54,434.141 C416.471,434.141 443.98,406.632 443.98,372.701 L443.98,240.384 L420.375,240.384" id="Fill-2"></path>
                <path d="M333.224,69.589 L333.224,27.924 C333.224,21.207 327.76,15.739 321.038,15.739 L276.695,15.739 C269.978,15.739 264.51,21.203 264.51,27.924 L264.51,69.585 L248.846,69.585 L248.846,23.62 C248.846,10.643 259.406,0.08 272.386,0.08 L325.347,0.08 C338.328,0.08 348.887,10.639 348.887,23.62 L348.887,69.589 L333.224,69.589" id="Fill-3"></path>
            </g>
        </g>
    </g>
</svg>