<?xml version="1.0" encoding="UTF-8" standalone="no"?>
<svg width="289px" height="466px" viewBox="0 0 289 466" version="1.1" xmlns="http://www.w3.org/2000/svg" xmlns:xlink="http://www.w3.org/1999/xlink">
    <!-- Generator: Sketch 40.3 (33839) - http://www.bohemiancoding.com/sketch -->
    <title>仙人掌</title>
    <desc>Created with Sketch.</desc>
    <defs></defs>
    <g id="Page-1" stroke="none" stroke-width="1" fill="none" fill-rule="evenodd">
        <g id="Artboard-2" transform="translate(-1169.000000, -3466.000000)" fill="#E4C04E">
            <g id="Group-7" transform="translate(928.000000, 3071.000000)">
                <g id="Group-3">
                    <g id="Group-25" transform="translate(0.000000, 395.138537)">
                        <g id="仙人掌" transform="translate(241.154949, 0.000000)">
                            <path d="M107.909662,364.291197 L183.509586,364.291197 L183.509586,45.3147169 C183.509586,24.4562786 166.584958,7.54635721 145.709983,7.54635721 C124.833572,7.54635721 107.909662,24.4562786 107.909662,45.3147169 L107.909662,364.291197" id="Fill-1"></path>
                            <path d="M241.355911,173.036257 L182.616738,182.92476 L182.889473,127.258991 L217.029406,122.427688 L264.718515,140.332268 C264.718515,140.331551 256.367807,170.347737 241.355911,173.036257" id="Fill-2"></path>
                            <path d="M267.425766,31.9251858 C281.219686,35.610516 288.532566,53.0511135 283.761861,70.8775269 L266.211379,136.443273 C261.440674,154.268252 246.390739,165.733007 232.596819,162.046959 C218.803617,158.362346 211.490737,140.921032 216.261442,123.096053 L233.811924,57.5295893 C238.582629,39.7046102 253.633282,28.2412899 267.425766,31.9251858" id="Fill-3"></path>
                            <polyline id="Fill-4" points="108.173785 305.756192 30.3761932 294.471437 64.0668314 246.344137 107.786214 255.280292 108.173785 305.756192"></polyline>
                            <path d="M68.0975642,269.90472 C69.8954604,281.853538 59.3865593,293.336938 44.6251491,295.55502 C29.8637389,297.771668 16.4408822,289.884675 14.6429859,277.934423 L2.46824961,197.037875 C0.669635617,185.089058 11.177819,173.604941 25.9392292,171.388293 C40.7006394,169.170927 54.1242139,177.058638 55.9221101,189.008173 L68.0975642,269.90472" id="Fill-5"></path>
                            <path d="M110.260205,464.877262 C110.260205,464.877262 58.3580622,383.860953 70.6476342,372.119387 C72.4598849,361.551761 207.904275,359.203878 217.152137,372.119387 C226.400716,385.034895 193.423494,464.877262 185.859411,464.877262" id="Fill-6"></path>
                            <polygon id="Fill-7" points="131.517009 363.3661 133.998896 363.3661 133.998896 62.1436027 131.517009 62.1436027"></polygon>
                            <polygon id="Fill-8" points="159.651753 361.872318 162.132922 361.872318 162.132922 41.8043664 159.651753 41.8043664"></polygon>
                            <polyline id="Fill-9" points="10.0646305 193.164657 7.59494545 194.144974 1.52157289 178.869391 3.99125795 177.889075 10.0646305 193.16394 10.0646305 193.164657"></polyline>
                            <polyline id="Fill-10" points="48.9795749 200.695237 46.8041563 199.169902 56.2558513 185.715112 58.4305522 187.241165 48.9795749 200.695237"></polyline>
                            <polyline id="Fill-11" points="26.7315955 181.565799 24.5561769 180.040464 34.0078719 166.585674 36.1832905 168.111726 26.7315955 181.565799"></polyline>
                            <polyline id="Fill-12" points="60.6052531 239.926542 58.4305522 238.401207 67.8815295 224.946417 70.0569481 226.471752 60.6052531 239.926542"></polyline>
                            <polyline id="Fill-13" points="249.697289 47.801006 247.51254 49.31415 238.139794 35.803424 240.324543 34.29028 249.697289 47.801006"></polyline>
                            <polyline id="Fill-14" points="13.2441437 230.730069 11.1971975 232.42393 0.70552177 219.761568 2.75246794 218.067708 13.2441437 230.730069"></polyline>
                            <polyline id="Fill-15" points="240.047502 155.322433 239.130252 154.55367 247.847716 144.17465 248.764967 144.942696 240.047502 155.322433"></polyline>
                            <polyline id="Fill-16" points="96.6026533 298.987203 95.4385065 299.261147 93.934159 292.868652 95.0983058 292.594708 96.6026533 298.987203"></polyline>
                            <polyline id="Fill-17" points="119.260453 340.261611 118.097024 340.534837 116.591958 334.143059 117.755387 333.869833 119.260453 340.261611"></polyline>
                            <polyline id="Fill-18" points="176.521834 165.807588 175.357687 166.081532 173.852622 159.689754 175.016769 159.41581 176.521834 165.807588"></polyline>
                            <polyline id="Fill-19" points="118.601583 173.795697 117.437436 174.068207 115.936677 167.675711 117.100824 167.403202 118.601583 173.795697"></polyline>
                            <polyline id="Fill-20" points="138.110731 28.822165 136.947302 29.0953915 135.442955 22.7036133 136.607101 22.4303869 138.110731 28.822165"></polyline>
                            <polyline id="Fill-21" points="175.159596 279.110516 173.995449 279.383742 172.49469 272.99053 173.658837 272.717304 175.159596 279.110516"></polyline>
                            <polyline id="Fill-22" points="120.588958 231.650147 119.424811 231.923373 117.924052 225.530161 119.088199 225.256934 120.588958 231.650147"></polyline>
                            <polyline id="Fill-23" points="164.052831 29.1348337 162.888684 29.407343 161.387208 23.0141305 162.551355 22.7416212 164.052831 29.1348337"></polyline>
                            <polyline id="Fill-24" points="152.35251 309.150367 151.189081 309.424311 149.684016 303.032533 150.847445 302.758589 152.35251 309.150367"></polyline>
                            <polyline id="Fill-25" points="114.687839 282.474572 113.52441 282.747798 112.019345 276.35602 113.182774 276.082794 114.687839 282.474572"></polyline>
                            <polyline id="Fill-26" points="145.103507 6.49647914 143.940078 6.76970561 142.43573 0.377210291 143.599159 0.103983826 145.103507 6.49647914"></polyline>
                            <polyline id="Fill-27" points="268.094684 101.402875 267.073364 102.024627 263.655567 96.4159544 264.676887 95.79492 268.094684 101.402875"></polyline>
                            <polyline id="Fill-28" points="200.526082 135.268614 199.361935 135.541124 197.861176 129.148628 199.025323 128.876119 200.526082 135.268614"></polyline>
                            <polyline id="Fill-29" points="214.778626 162.464329 213.61448 162.736838 212.113721 156.344343 213.277867 156.071834 214.778626 162.464329"></polyline>
                            <polyline id="Fill-30" points="149.640234 108.266525 148.476088 108.539751 146.975329 102.147256 148.139476 101.87403 149.640234 108.266525"></polyline>
                            <polyline id="Fill-31" points="145.10566 92.56927 143.941513 92.8417793 142.440754 86.449284 143.604901 86.1767747 145.10566 92.56927"></polyline>
                            <polyline id="Fill-32" points="114.695734 41.5490682 113.531587 41.8230118 112.026522 35.4319507 113.190669 35.1580071 114.695734 41.5490682"></polyline>
                            <polyline id="Fill-33" points="173.808841 44.8686621 172.644694 45.1411715 171.143217 38.7486762 172.307364 38.4761668 173.808841 44.8686621"></polyline>
                            <polyline id="Fill-34" points="251.355947 75.7705037 250.192518 76.0444473 248.687452 69.6526691 249.851599 69.3787255 251.355947 75.7705037"></polyline>
                            <polyline id="Fill-35" points="160.989589 6.51727591 159.82616 6.7912195 158.321095 0.399441316 159.483806 0.12549772 160.989589 6.51727591"></polyline>
                            <polyline id="Fill-36" points="230.053926 135.286543 228.890497 135.559052 227.388303 129.166557 228.551732 128.894047 230.053926 135.286543"></polyline>
                            <polyline id="Fill-37" points="275.335074 78.4317725 273.830727 76.2423751 287.394975 66.9404841 288.899322 69.1298815 275.335074 78.4317725"></polyline>
                            <polyline id="Fill-38" points="225.426766 59.6895844 226.604549 57.3094305 241.352323 64.5947524 240.173822 66.9749063 225.426766 59.6895844"></polyline>
                            <polyline id="Fill-39" points="179.913793 233.11596 177.579758 231.845923 185.448873 217.409382 187.782909 218.679419 179.913793 233.11596"></polyline>
                            <polyline id="Fill-40" points="113.345697 100.077619 111.638951 102.113551 99.0278395 91.5573998 100.734585 89.5214682 113.345697 100.077619"></polyline>
                            <polyline id="Fill-41" points="181.004732 333.844016 178.548684 332.82856 184.838091 317.636882 187.294857 318.652338 181.004732 333.844016"></polyline>
                            <polyline id="Fill-42" points="257.567122 124.390472 258.290587 121.835338 274.120687 126.310229 273.397222 128.865362 257.567122 124.390472"></polyline>
                            <polyline id="Fill-43" points="214.310671 168.615152 216.35044 166.912685 226.896663 179.529868 224.856894 181.231617 214.310671 168.615152"></polyline>
                            <polyline id="Fill-44" points="277.566475 45.8561499 275.429814 44.2777472 285.208791 31.0581759 287.345452 32.6365786 277.566475 45.8561499"></polyline>
                            <polygon id="Fill-45" points="176.233309 25.7456781 178.89032 25.7456781 178.89032 9.30691095 176.233309 9.30691095"></polygon>
                            <polyline id="Fill-46" points="228.718244 104.299363 226.218414 105.200795 220.634529 89.7387586 223.134358 88.8380435 228.718244 104.299363"></polyline>
                            <polyline id="Fill-47" points="70.9189335 259.347135 68.7636112 257.793115 78.3904306 244.461671 80.5457529 246.014974 70.9189335 259.347135"></polyline>
                            <polyline id="Fill-48" points="26.6275256 270.458345 24.4722033 268.904324 34.0990227 255.572881 36.2536273 257.126184 26.6275256 270.458345"></polyline>
                            <polyline id="Fill-49" points="60.5004655 310.162955 58.3451432 308.608934 67.9712449 295.277491 70.1265673 296.830794 60.5004655 310.162955"></polyline>
                            <polyline id="Fill-50" points="6.3051971 274.230447 4.14987475 272.676427 13.7759765 259.344984 15.9312988 260.898287 6.3051971 274.230447"></polyline>
                            <polyline id="Fill-51" points="37.4235159 302.720581 35.2681936 301.167278 44.895013 287.835117 47.0503354 289.389138 37.4235159 302.720581"></polyline>
                            <polyline id="Fill-52" points="126.631469 24.9568353 124.098624 25.7607378 119.119061 10.0936024 121.651906 9.28969983 126.631469 24.9568353"></polyline>
                        </g>
                    </g>
                </g>
            </g>
        </g>
    </g>
</svg>