<?xml version="1.0" encoding="UTF-8" standalone="no"?>
<svg width="820px" height="637px" viewBox="0 0 820 637" version="1.1" xmlns="http://www.w3.org/2000/svg" xmlns:xlink="http://www.w3.org/1999/xlink">
    <!-- Generator: Sketch 40.3 (33839) - http://www.bohemiancoding.com/sketch -->
    <title>相机</title>
    <desc>Created with Sketch.</desc>
    <defs></defs>
    <g id="Page-1" stroke="none" stroke-width="1" fill="none" fill-rule="evenodd">
        <g id="Artboard-2" transform="translate(-183.000000, -4243.000000)" fill="#E4C04E">
            <path d="M925.554,4341.376 L781.426,4341.376 L781.426,4339.43 C781.426,4286.541 738.622,4243.635 686.091,4243.635 L499.262,4243.635 C446.629,4243.635 403.928,4286.49 403.928,4339.43 L403.928,4341.376 L259.8,4341.376 C224.677,4341.376 183,4409.165 183,4444.442 L183,4782.976 C183,4818.202 224.677,4880 259.8,4880 L925.554,4880 C960.574,4880 1002.2,4818.202 1002.2,4782.976 L1002.2,4444.442 C1002.2,4409.165 960.574,4341.376 925.554,4341.376 L925.554,4341.376 Z M593.266,4790.144 C503.614,4790.144 425.79,4717.133 425.79,4627.123 C425.79,4537.114 503.614,4464.154 593.266,4464.154 C682.712,4464.154 760.69,4537.062 760.69,4627.123 C760.638,4717.133 682.712,4790.144 593.266,4790.144 L593.266,4790.144 Z M845.835,4469.427 L913.982,4469.427 L913.982,4432.358 L845.835,4432.358 L845.835,4469.427 Z M593.266,4524.826 C541.81,4524.826 501.822,4570.189 501.822,4621.901 C501.822,4673.51 541.758,4724.096 593.266,4724.096 C644.619,4724.096 684.555,4673.51 684.555,4621.901 C684.555,4570.138 644.619,4524.826 593.266,4524.826 L593.266,4524.826 Z" id="相机"></path>
        </g>
    </g>
</svg>