<?xml version="1.0" encoding="UTF-8" standalone="no"?>
<svg width="686px" height="615px" viewBox="0 0 686 615" version="1.1" xmlns="http://www.w3.org/2000/svg" xmlns:xlink="http://www.w3.org/1999/xlink">
    <!-- Generator: Sketch 40.3 (33839) - http://www.bohemiancoding.com/sketch -->
    <title>外套</title>
    <desc>Created with Sketch.</desc>
    <defs></defs>
    <g id="Page-1" stroke="none" stroke-width="1" fill="none" fill-rule="evenodd">
        <g id="Artboard-2" transform="translate(-319.000000, -4385.000000)" fill="#E4C04E">
            <g id="外套" transform="translate(319.000000, 4385.000000)">
                <path d="M680.239,412.182 C677.246,400.016 650.702,321.99 634.928,271.807 C613.339,203.125 592.854,134.085 572.841,64.926 C567.458,46.322 556.751,37.857 538.267,33.445 C496.46,23.463 392.237,-2.218 384.118,2.49 C375.999,7.197 371.995,29.996 369.542,45.143 C361.74,93.327 353.475,141.436 340.808,189.577 C332.716,141.444 324.435,93.342 316.644,45.161 C314.194,30.012 307.844,6.827 302.126,2.49 C296.408,-1.847 284.945,2.49 269.842,5.287 C254.74,8.084 194.617,23.297 154.92,31.455 C129.326,36.714 117.345,49.532 110.259,73.956 C93.077,133.182 59.302,236.121 33.349,318.584 C-3.558,435.856 -2.759,441.738 3.1,446.208 C16.024,456.068 78.171,481.783 116.337,498.176 C128.594,503.441 145.323,494.583 153.173,478.022 C153.173,504.894 152.767,537.698 151.404,560.681 C150.126,582.23 160.24,594.276 179.469,599.294 C202.472,605.296 238.823,610.191 272.557,613.365 C301.953,616.131 325.693,611.779 338.264,596.948 C339.788,594.658 341.385,592.258 343.09,589.696 C346.663,595.043 349.757,599.675 352.646,604 C363.241,612.768 383.732,615.512 432.642,610.954 C463.517,608.076 477.865,606.447 500.106,601.887 C525.053,596.772 537.094,582.758 534.906,555.96 C533.164,534.624 534.555,513.031 534.555,484.888 C552.697,506.844 569.212,499.591 585.566,492.055 C618.206,477.016 678.301,453.908 683.147,446.209 C687.993,438.509 683.232,424.349 680.239,412.182 L680.239,412.182 Z M644.216,442.156 C622.604,450.84 600.999,459.69 580.051,469.832 C564.475,477.373 556.998,474.264 552.838,457.092 C545.47,426.672 536.578,396.617 528.128,366.464 C524.964,355.172 521.253,344.034 513.617,333.366 C513.617,380.348 513.621,427.331 513.615,474.313 C513.612,500.838 512.987,527.381 513.809,553.88 C514.305,569.915 506.797,577.695 492.172,580.45 C457.383,587.003 422.359,590.836 386.888,591.26 C374.556,591.408 363.301,591.657 343.995,539.362 C318.683,592.563 311.163,595.542 258.036,589.667 C237.31,587.375 216.722,583.82 196.069,580.863 C178.876,578.402 172.002,569.151 172.213,551.237 C172.976,486.14 172.487,421.028 172.47,355.922 C172.469,348.319 172.47,340.716 167.833,332.625 C156.407,373.314 144.04,413.771 133.965,454.792 C129.149,474.402 121.082,477.795 103.762,469.285 C83.591,459.372 62.811,450.63 41.981,442.154 C30.02,437.287 27.017,430.941 30.954,418.031 C65.866,303.562 100.122,188.895 134.526,74.272 C137.498,64.371 142.502,57.911 153.799,55.568 C193.102,47.422 232.32,38.765 271.292,29.173 C285.951,25.565 290.87,29.192 293.274,44.251 C306.939,129.869 321.657,215.318 336.121,300.807 C337.707,310.187 339.955,319.455 345.015,328.835 C357.986,252.184 370.959,175.534 383.926,98.884 C387.14,79.893 391.043,60.983 393.297,41.879 C394.831,28.877 400.34,25.775 412.548,28.637 C453.192,38.167 493.938,47.279 534.749,56.068 C545.223,58.323 548.969,65.515 551.604,74.271 C586.078,188.872 620.333,303.538 655.238,418.007 C659.161,430.861 656.234,437.326 644.216,442.156 L644.216,442.156 Z" id="Fill-1"></path>
                <path id="Fill-2"></path>
                <path id="Fill-3"></path>
            </g>
        </g>
    </g>
</svg>