<?xml version="1.0" encoding="UTF-8" standalone="no"?>
<svg width="626px" height="799px" viewBox="0 0 626 799" version="1.1" xmlns="http://www.w3.org/2000/svg" xmlns:xlink="http://www.w3.org/1999/xlink">
    <!-- Generator: Sketch 40.3 (33839) - http://www.bohemiancoding.com/sketch -->
    <title>舞蹈</title>
    <desc>Created with Sketch.</desc>
    <defs></defs>
    <g id="Page-1" stroke="none" stroke-width="1" fill="none" fill-rule="evenodd">
        <g id="Artboard-2" transform="translate(-90.000000, -4078.000000)" fill="#3EC1AF">
            <path d="M652.897838,4078.338 C650.979838,4078.338 650.598838,4086.136 648.218838,4089.648 C645.684838,4093.384 640.617838,4102.104 646.950838,4125.77 C648.218838,4129.506 646.950838,4139.47 644.417838,4150.68 C641.883838,4161.89 639.349838,4185.556 639.349838,4202.994 C639.349838,4220.432 626.680838,4229.151 621.612838,4235.378 C619.078838,4226.66 611.476838,4212.958 611.476838,4211.713 C614.010838,4207.976 614.869838,4204.322 614.010838,4199.258 C612.744838,4191.784 608.942838,4176.836 598.808838,4171.855 C597.949838,4165.104 586.623838,4153.211 571.137838,4153.208 C563.762838,4153.208 555.446838,4155.903 546.863838,4163.135 C520.259838,4185.557 541.796838,4225.414 576.003838,4246.589 C574.397838,4248.956 573.299838,4249.825 571.420838,4249.825 C570.336838,4249.825 568.990838,4249.535 567.133838,4249.079 C565.052838,4248.567 561.473838,4246.584 555.256838,4246.584 C546.337838,4246.584 531.994838,4250.661 508.856838,4269.008 C494.920838,4278.971 467.048838,4291.426 459.446838,4292.673 C451.844838,4293.919 439.175838,4292.673 427.774838,4296.41 C416.371838,4300.146 350.492838,4326.303 337.823838,4331.286 C330.221838,4332.531 307.416838,4333.776 301.081838,4335.022 C294.746838,4336.267 274.477838,4337.512 270.676838,4337.512 C267.219838,4337.512 273.188838,4342.661 280.012838,4342.661 C280.696838,4342.661 281.386838,4342.609 282.077838,4342.495 C282.594838,4342.411 283.069838,4342.372 283.513838,4342.372 C285.812838,4342.372 287.221838,4343.414 288.854838,4344.457 C290.487838,4345.496 292.344838,4346.538 295.540838,4346.538 C297.587838,4346.538 300.180838,4346.112 303.614838,4344.986 C305.759838,4344.286 307.474838,4344.004 308.934838,4344.004 C311.868838,4344.004 313.758838,4345.144 315.996838,4346.283 C318.233838,4347.425 320.819838,4348.565 325.143838,4348.565 C329.575838,4348.565 335.835838,4347.368 345.424838,4343.741 C368.227838,4338.758 442.975838,4326.304 450.577838,4325.059 C458.177838,4323.812 468.313838,4315.093 475.914838,4313.848 C483.516838,4312.603 530.393838,4295.166 540.528838,4291.428 C541.100838,4291.241 541.665838,4291.151 542.222838,4291.151 C549.070838,4291.151 554.751838,4304.541 558.265838,4312.603 C562.066838,4321.322 574.735838,4354.952 565.865838,4362.426 C563.146838,4364.718 557.682838,4365.488 550.830838,4365.488 C543.855838,4365.488 535.443838,4364.692 527.018838,4363.895 C518.593838,4363.097 510.155838,4362.302 503.134838,4362.302 C501.589838,4362.302 500.113838,4362.34 498.721838,4362.426 C497.555838,4362.497 496.099838,4362.528 494.380838,4362.528 C489.445838,4362.528 482.343838,4362.277 473.764838,4362.027 C465.187838,4361.776 455.129838,4361.525 444.294838,4361.525 C403.980838,4361.525 352.825838,4364.994 326.420838,4384.847 C283.345838,4417.231 392.300838,4414.741 340.356838,4424.704 C288.413838,4434.67 297.281838,4434.67 292.214838,4435.915 C287.146838,4437.16 275.743838,4435.915 258.006838,4440.896 C240.270838,4445.879 218.733838,4453.353 203.530838,4455.843 C200.490838,4456.342 197.904838,4456.54 195.664838,4456.54 C186.703838,4456.54 183.258838,4453.353 178.191838,4453.353 C175.656838,4453.353 170.892838,4453.153 164.467838,4453.153 C154.829838,4453.153 141.451838,4453.601 126.247838,4455.843 C100.909838,4459.58 71.7708384,4481.999 104.709838,4491.965 C106.945838,4492.623 110.088838,4492.895 113.805838,4492.895 C131.148838,4492.895 160.974838,4486.982 169.322838,4486.982 C179.457838,4486.982 192.127838,4477.018 204.797838,4477.018 C214.010838,4477.018 257.399838,4474.383 285.253838,4474.383 C295.702838,4474.383 303.960838,4474.754 307.416838,4475.773 C320.085838,4479.509 337.823838,4484.49 340.356838,4503.175 C342.889838,4521.857 337.822838,4541.787 364.426838,4549.26 C391.032838,4556.734 402.433838,4557.979 410.035838,4575.418 C416.027838,4589.16 425.166838,4602.132 449.859838,4602.132 C456.497838,4602.132 464.256838,4601.194 473.383838,4599.084 C480.889838,4597.346 486.819838,4596.594 491.535838,4596.594 C513.869838,4596.594 508.913838,4613.493 515.191838,4622.749 C522.791838,4633.96 535.461838,4631.468 549.397838,4640.186 C563.332838,4648.905 592.472838,4667.589 587.405838,4682.536 C585.714838,4687.517 586.277838,4689.179 587.826838,4689.179 C590.923838,4689.179 597.962838,4682.536 598.808838,4682.536 C600.073838,4682.536 596.272838,4713.673 621.611838,4747.304 C631.746838,4763.496 650.751838,4809.583 640.616838,4818.301 C630.478838,4827.02 625.412838,4838.23 641.882838,4845.703 C658.352838,4853.177 672.289838,4854.422 673.555838,4863.14 C674.713838,4871.111 687.519838,4877 704.228838,4877 C705.795838,4877 707.398838,4876.948 709.028838,4876.842 C728.032838,4875.597 702.694838,4865.632 695.092838,4853.177 C687.491838,4840.722 678.621838,4817.056 673.555838,4795.882 C668.487838,4774.707 653.283838,4708.692 658.352838,4688.763 C663.420838,4668.835 667.221838,4681.291 676.088838,4665.098 C684.958838,4648.906 668.028838,4549.954 667.220838,4500.685 C665.954838,4423.461 641.882838,4427.198 645.683838,4413.497 C653.466838,4385.444 657.084838,4364.92 664.687838,4351.218 C672.289838,4337.516 682.212838,4324.7 663.420838,4292.677 C644.416838,4260.292 649.485838,4247.837 654.551838,4236.627 C659.920838,4224.751 668.188838,4205.322 667.221838,4196.769 C665.954838,4185.559 659.621838,4150.684 662.153838,4138.228 C664.687838,4125.773 669.754838,4122.036 665.954838,4107.089 C664.733838,4101.09 669.390838,4085.849 666.337838,4085.848 C666.222838,4085.848 666.094838,4085.87 665.954838,4085.916 C663.549838,4086.704 660.886838,4087.161 659.620838,4097.125 C659.112838,4101.111 658.200838,4102.705 657.287838,4102.705 C655.919838,4102.705 654.551838,4099.119 654.551838,4094.634 C654.551838,4087.161 658.352838,4080.932 653.284838,4078.442 C653.148838,4078.372 653.020838,4078.338 652.897838,4078.338" id="舞蹈"></path>
        </g>
    </g>
</svg>