<?xml version="1.0" encoding="UTF-8" standalone="no"?>
<svg width="819px" height="819px" viewBox="0 0 819 819" version="1.1" xmlns="http://www.w3.org/2000/svg" xmlns:xlink="http://www.w3.org/1999/xlink">
    <!-- Generator: Sketch 40.3 (33839) - http://www.bohemiancoding.com/sketch -->
    <title>吃</title>
    <desc>Created with Sketch.</desc>
    <defs></defs>
    <g id="Page-1" stroke="none" stroke-width="1" fill="none" fill-rule="evenodd">
        <g id="Artboard-2" transform="translate(-449.000000, -3956.000000)" fill="#3EC1AF">
            <g id="吃" transform="translate(449.000000, 3956.000000)">
                <path d="M792.745,345.765 L254.338,345.765 L254.338,205.17 L791.184,205.17 C805.344,205.17 816.717,193.688 816.717,179.639 C816.717,165.479 805.233,154.106 791.184,154.106 L247.201,154.106 L230.143,102.93 L791.185,102.93 C805.345,102.93 816.716,91.445 816.716,77.397 C816.716,63.236 805.234,51.864 791.185,51.864 L213.085,51.864 L201.935,18.193 C201.712,17.635 201.263,17.189 201.044,16.632 C200.372,14.959 199.482,13.622 198.479,12.062 C197.587,10.724 196.696,9.497 195.581,8.271 C194.466,7.157 193.239,6.376 191.902,5.374 C190.45,4.37 189.001,3.475 187.328,2.698 C186.771,2.472 186.325,2.026 185.768,1.807 C184.764,1.469 183.873,1.695 182.981,1.469 C181.197,1.135 179.525,0.8 177.63,0.8 C175.955,0.8 174.282,1.023 172.722,1.357 C171.718,1.58 170.715,1.357 169.6,1.695 C169.043,1.917 168.597,2.364 167.928,2.583 C166.367,3.255 165.029,4.144 163.58,5.039 C162.131,6.043 160.793,6.823 159.679,8.048 C158.564,9.163 157.784,10.39 156.889,11.727 C155.886,13.176 154.883,14.626 154.214,16.298 C153.991,16.858 153.545,17.301 153.322,17.858 L142.172,51.532 L25.55,51.532 C11.39,51.532 0.017,63.015 0.017,77.063 C0.017,91.223 11.502,102.596 25.55,102.596 L125.114,102.596 L108.167,153.995 L25.55,153.995 C11.39,153.995 0.017,165.477 0.017,179.527 C0.017,193.688 11.499,205.058 25.55,205.058 L101.03,205.058 L101.03,345.653 L27.111,345.653 C12.951,345.653 1.578,357.136 1.578,371.187 L1.578,520.477 C1.578,527.388 4.03,685.044 211.859,751.494 L211.859,793.192 C211.859,807.352 223.341,818.725 237.39,818.725 L582.354,818.725 C596.515,818.725 607.887,807.243 607.887,793.192 L607.887,751.494 C815.935,685.044 818.28,527.391 818.28,520.477 L818.28,371.295 C818.279,357.246 806.906,345.765 792.745,345.765 L792.745,345.765 Z M177.63,107.167 L193.239,153.995 L162.021,153.995 L177.63,107.167 L177.63,107.167 Z M152.208,345.765 L203.161,345.765 L203.161,205.17 L152.208,205.17 L152.208,345.765 Z M767.213,520.365 C767.101,525.827 763.2,655.944 575.665,707.899 C564.627,711.02 556.935,721.056 556.935,732.54 L556.935,767.772 L263.034,767.772 L263.034,732.54 C263.034,721.058 255.342,710.908 244.302,707.899 C56.769,655.832 52.867,525.83 52.756,520.477 L52.756,396.94 L767.212,396.94 L767.212,520.365 L767.213,520.365 L767.213,520.365 Z" id="Fill-1"></path>
                <path d="M101.033,473.648 C101.033,487.809 112.515,499.182 126.563,499.182 L687.943,499.182 C702.103,499.182 713.474,487.7 713.474,473.648 C713.474,459.488 701.991,448.118 687.943,448.118 L126.678,448.118 C112.518,448.007 101.033,459.488 101.033,473.648" id="Fill-2"></path>
            </g>
        </g>
    </g>
</svg>