<?xml version="1.0" encoding="UTF-8" standalone="no"?>
<svg width="820px" height="564px" viewBox="0 0 820 564" version="1.1" xmlns="http://www.w3.org/2000/svg" xmlns:xlink="http://www.w3.org/1999/xlink">
    <!-- Generator: Sketch 40.3 (33839) - http://www.bohemiancoding.com/sketch -->
    <title>逃亡</title>
    <desc>Created with Sketch.</desc>
    <defs>
        <filter x="-50%" y="-50%" width="200%" height="200%" filterUnits="objectBoundingBox" id="filter-1">
            <feGaussianBlur stdDeviation="0" in="SourceGraphic"></feGaussianBlur>
        </filter>
    </defs>
    <g id="Page-1" stroke="none" stroke-width="1" fill="none" fill-rule="evenodd">
        <g id="Artboard-2" transform="translate(-183.000000, -4333.000000)" fill="#3EC1AF">
            <path d="M734.987,4386.45167 C698.994,4386.45167 664.741,4388.34667 633.355,4401.14667 C601.56,4360.33967 551.998,4333.97167 496.344,4333.97167 C400.498,4333.97167 322.776,4411.64267 322.776,4507.43767 C322.776,4511.07267 322.93,4514.70767 323.186,4518.24067 C228.466,4535.18767 183,4595.70667 183,4695.44367 C183,4807.36667 297.739,4891.69367 409.714,4891.69367 L467.57,4891.69367 C528.805,4891.69367 550.36,4884.57667 571.25,4855.34167 C594.699,4822.41967 589.477,4778.54167 584.254,4768.65967 C575.141,4751.71267 538.277,4707.27067 538.277,4707.27067 L484.21,4799.12367 L349.81,4763.13067 C339.467,4760.10967 333.477,4749.10167 336.395,4738.65667 C339.467,4728.41667 350.322,4722.83567 360.613,4726.01067 L458.61,4750.58667 C458.61,4750.58667 505.355,4660.73067 510.014,4655.96867 C514.725,4651.30967 567,4581.67767 567,4581.67767 L526.654,4573.12667 L448.984,4630.06167 C446.014,4632.41667 442.43,4633.54267 438.898,4633.54267 C433.829,4633.54267 428.914,4631.29067 425.586,4627.04067 C420.005,4619.66767 421.387,4609.17167 428.658,4603.59067 L516.978,4535.90467 L522.507,4535.95567 L595.57,4550.29167 C596.082,4550.39467 596.645,4550.49667 597.106,4550.65067 C597.618,4550.49667 598.181,4550.29167 598.642,4550.18967 C596.389,4544.86467 595.058,4539.23267 595.058,4533.29367 C595.058,4510.15067 613.746,4491.36067 636.888,4491.36067 C659.877,4491.36067 678.718,4510.09967 678.718,4533.29367 C678.718,4554.33667 662.949,4571.79567 642.571,4574.61167 C643.749,4578.81067 659.109,4633.74767 659.109,4633.74767 L739.442,4617.31267 C748.504,4615.46967 757.31,4621.30667 759.205,4630.31767 C761.048,4639.37967 755.262,4648.28867 746.149,4650.13167 L648.101,4670.15067 C648.101,4670.15067 642.52,4669.79267 639.755,4669.79267 C635.915,4669.79267 634.277,4664.26267 634.277,4664.26267 L621.528,4626.47767 L583.845,4685.97167 L635.915,4756.26967 C638.782,4759.13667 636.171,4759.85367 636.171,4764.56367 L636.171,4778.64367 L636.171,4816.37867 C636.171,4891.74467 707.851,4897.53067 730.379,4896.96667 C857.202,4893.89467 1002.2,4794.05467 1002.2,4645.16567 C1002.2,4496.22467 883.979,4386.45167 734.987,4386.45167" id="逃亡" filter="url(#filter-1)"></path>
        </g>
    </g>
</svg>