<?xml version="1.0" encoding="UTF-8" standalone="no"?>
<svg width="578px" height="632px" viewBox="0 0 578 632" version="1.1" xmlns="http://www.w3.org/2000/svg" xmlns:xlink="http://www.w3.org/1999/xlink">
    <!-- Generator: Sketch 40.3 (33839) - http://www.bohemiancoding.com/sketch -->
    <title>陷入爱河</title>
    <desc>Created with Sketch.</desc>
    <defs></defs>
    <g id="Page-1" stroke="none" stroke-width="1" fill="none" fill-rule="evenodd">
        <g id="Artboard-2" transform="translate(-148.000000, -4263.000000)" fill="#3EC1AF">
            <g id="陷入爱河" transform="translate(148.000000, 4263.000000)">
                <path d="M396.408,56.256 C396.408,70.771 402.382,85.196 412.643,95.458 C422.908,105.724 437.33,111.696 451.846,111.696 C466.361,111.696 480.783,105.724 491.048,95.458 C501.31,85.196 507.287,70.771 507.287,56.256 C507.287,41.744 501.31,27.319 491.048,17.057 C480.783,6.792 466.361,0.818 451.846,0.818 C437.33,0.818 422.908,6.792 412.643,17.057 C402.382,27.319 396.408,41.744 396.408,56.256" id="Fill-1"></path>
                <path d="M577.031,311.546 L571.665,226.15 C571.442,222.128 570.102,218.105 568.09,214.526 L540.816,168.925 L540.816,147.465 C540.816,136.957 532.099,128.239 521.591,128.239 L405.797,128.239 C395.289,128.239 386.572,136.957 386.572,147.465 L386.572,180.994 L319.507,228.833 L253.113,178.314 L253.113,152.383 C253.113,142.323 244.842,134.05 234.782,134.05 L124.576,134.05 C114.516,134.05 106.246,142.323 106.246,152.383 L106.246,184.124 L3.417,237.551 C0.51,239.118 -0.833,242.693 0.734,245.823 L17.721,278.46 C19.288,281.367 22.863,282.707 25.993,281.144 L106.246,239.341 L106.246,345.524 L76.96,413.483 L106.246,413.483 L106.246,557.889 C106.246,561.246 108.929,563.927 112.28,563.927 L148.944,563.927 C152.295,563.927 154.978,561.246 154.978,557.889 L154.978,413.483 L199.015,413.483 L199.015,557.889 C199.015,561.246 201.697,563.927 205.053,563.927 L241.712,563.927 C245.068,563.927 247.749,561.246 247.749,557.889 L247.749,413.483 L281.95,413.483 L253.112,346.194 L253.112,239.566 L300.728,276.002 L309.448,288.297 C311.46,290.98 315.259,291.649 317.942,289.637 L318.389,289.413 L322.86,292.768 C325.543,294.779 329.342,294.331 331.353,291.649 L350.579,266.388 L386.346,240.905 L386.346,625.18 C386.346,628.532 389.029,631.214 392.38,631.214 L429.491,631.214 C432.843,631.214 435.525,628.532 435.525,625.18 L435.525,444.557 L492.53,444.557 L492.53,625.18 C492.53,628.532 495.213,631.214 498.564,631.214 L535.227,631.214 C538.579,631.214 541.261,628.532 541.261,625.18 L541.261,353.57 C541.261,352.455 541.038,351.559 540.59,350.664 L540.59,337.252 C543.721,338.595 547.076,339.263 550.651,339.263 L552.214,339.263 C566.971,338.148 577.926,325.852 577.031,311.546" id="Fill-2"></path>
                <path d="M127.707,75.481 C127.707,89.117 133.319,102.669 142.96,112.314 C152.604,121.956 166.153,127.568 179.792,127.568 C193.427,127.568 206.98,121.956 216.621,112.314 C226.262,102.669 231.878,89.117 231.878,75.481 C231.878,61.846 226.263,48.293 216.621,38.652 C206.979,29.011 193.427,23.395 179.792,23.395 C166.153,23.395 152.604,29.011 142.96,38.652 C133.319,48.293 127.707,61.846 127.707,75.481" id="Fill-3"></path>
                <path d="M325.901,84.923 C313.249,55.745 277.29,62.552 277.054,96.419 C276.923,115.018 294.176,121.971 305.665,129.405 C316.804,136.618 324.732,146.482 325.975,150.682 C327.039,146.568 335.87,136.423 346.181,129.205 C357.455,121.312 374.923,114.816 374.792,96.217 C374.554,62.267 337.969,56.909 325.901,84.923" id="Fill-4"></path>
            </g>
        </g>
    </g>
</svg>