<?xml version="1.0" encoding="UTF-8" standalone="no"?>
<svg width="370px" height="552px" viewBox="0 0 370 552" version="1.1" xmlns="http://www.w3.org/2000/svg" xmlns:xlink="http://www.w3.org/1999/xlink">
    <!-- Generator: Sketch 40.3 (33839) - http://www.bohemiancoding.com/sketch -->
    <title>闪光</title>
    <desc>Created with Sketch.</desc>
    <defs></defs>
    <g id="Page-1" stroke="none" stroke-width="1" fill="none" fill-rule="evenodd">
        <g id="Artboard-2" transform="translate(-1414.000000, -3069.000000)" fill="#3EC1AF">
            <g id="Aurora" transform="translate(1414.000000, 3069.000000)">
                <g id="闪光">
                    <g id="Page-1">
                        <g id="Artboard-2">
                            <path d="M110.747,552 L97.271,552 C92.102,552 87.241,549.574 84.125,545.448 C81.019,541.322 80.02,535.978 81.436,531.018 L131.048,357.402 L11.018,315.406 C4.411,313.09 0,306.868 0,299.867 L0,284.153 C0,280.224 1.405,276.427 3.961,273.431 L232.917,6.32 C236.045,2.666 240.61,0.57 245.416,0.57 L258.892,0.57 C263.995,0.57 268.812,2.94 271.929,6.978 C275.035,11.027 276.11,16.284 274.804,21.222 L224.918,210.354 L358.15,252.757 C364.975,254.93 369.617,261.272 369.617,268.438 L369.617,284.153 C369.617,288.421 367.971,292.515 365.008,295.576 L122.598,546.962 C119.493,550.178 115.213,552 110.747,552 L110.747,552 L110.747,552 Z M34.282,288.663 L156.595,331.45 C164.825,334.336 169.379,343.126 166.987,351.509 L125.572,496.462 L334.523,279.774 L200.029,236.977 C191.667,234.321 186.872,225.575 189.11,217.092 L230.679,59.531 L34.282,288.663 L34.282,288.663 L34.282,288.663 Z" id="闪光"></path>
                        </g>
                    </g>
                </g>
            </g>
        </g>
    </g>
</svg>