<?xml version="1.0" encoding="UTF-8" standalone="no"?>
<svg width="596px" height="680px" viewBox="0 0 596 680" version="1.1" xmlns="http://www.w3.org/2000/svg" xmlns:xlink="http://www.w3.org/1999/xlink">
    <!-- Generator: Sketch 40.3 (33839) - http://www.bohemiancoding.com/sketch -->
    <title>花</title>
    <desc>Created with Sketch.</desc>
    <defs></defs>
    <g id="Page-1" stroke="none" stroke-width="1" fill="none" fill-rule="evenodd">
        <g id="Artboard-2" transform="translate(-232.000000, -4162.000000)" fill="#E4C04E">
            <path d="M446.502895,4820.826 C439.684895,4820.826 432.904895,4818.1 427.991895,4812.711 C363.547895,4741.904 259.311895,4741.219 257.159895,4741.219 L257.006895,4741.219 C243.408895,4741.219 232.306895,4730.453 232.209895,4717.105 C232.102895,4703.69 243.059895,4692.755 256.708895,4692.606 C261.859895,4692.338 384.979895,4692.461 464.958895,4780.333 C474.081895,4790.342 473.188895,4805.705 462.980895,4814.654 C458.272895,4818.784 452.372895,4820.826 446.502895,4820.826 M612.655895,4820.779 C606.636895,4820.779 600.588895,4818.64 595.811895,4814.288 C585.769895,4805.173 585.152895,4789.783 594.467895,4779.941 C677.294895,4692.193 797.914895,4692.291 802.669895,4692.486 C816.374895,4692.631 827.348895,4703.617 827.199895,4717.037 C827.050895,4730.381 816.000895,4741.099 802.423895,4741.099 L802.227895,4741.099 C800.168895,4741.099 698.039895,4741.758 630.817895,4812.978 C625.960895,4818.176 619.294895,4820.779 612.655895,4820.779 M568.976895,4697.153 L490.458895,4697.153 C487.957895,4697.153 485.528895,4696.787 483.218895,4696.081 C399.400895,4685.533 328.167895,4637.817 282.256895,4561.306 C228.960895,4472.439 216.744895,4357.293 251.903895,4274.772 C255.692895,4265.899 264.463895,4260.042 274.280895,4259.846 L281.737895,4259.774 C328.933895,4259.774 373.016895,4268.524 413.130895,4285.831 C442.117895,4233.841 475.218895,4194.39 511.716895,4168.333 C513.647895,4166.679 515.850895,4165.292 518.305895,4164.271 C525.961895,4161.017 534.859895,4161.719 541.864895,4166.193 C543.081895,4166.972 544.220895,4167.848 545.263895,4168.818 C581.855895,4195.164 614.041895,4234.032 643.182895,4287.119 C684.087895,4268.987 729.182895,4259.8 777.620895,4259.8 L785.200895,4259.872 C795.017895,4260.067 803.787895,4265.92 807.574895,4274.797 C842.737895,4357.34 830.542895,4472.485 777.199895,4561.348 C731.287895,4637.817 660.081895,4685.562 576.283895,4696.128 C573.932895,4696.765 571.503895,4697.153 568.976895,4697.153 M494.864895,4648.54 L564.565895,4648.54 C565.084895,4648.438 565.625895,4648.37 566.173895,4648.298 C655.768895,4638.523 707.154895,4582.157 734.487895,4536.632 C776.332895,4466.842 789.020895,4375.643 767.412895,4308.507 C722.317895,4309.944 680.991895,4320.786 644.445895,4340.816 C638.473895,4344.07 631.408895,4344.755 624.948895,4342.807 C618.453895,4340.816 613.072895,4336.269 610.078895,4330.268 C584.957895,4279.856 558.020895,4242.761 528.140895,4217.483 C498.238895,4242.711 470.709895,4280.073 446.129895,4328.83 C443.134895,4334.76 437.830895,4339.235 431.391895,4341.225 C424.946895,4343.241 418.009895,4342.565 412.063895,4339.404 C376.288895,4320.323 335.927895,4309.944 292.043895,4308.532 C270.440895,4375.672 283.124895,4466.867 324.969895,4536.632 C352.302895,4582.157 403.658895,4638.502 493.232895,4648.297 C493.775895,4648.37 494.319895,4648.438 494.864895,4648.54 M529.530895,4842 C515.851895,4842 504.754895,4831.132 504.754895,4817.691 L504.754895,4672.844 C504.754895,4659.402 515.851895,4648.54 529.530895,4648.54 C543.204895,4648.54 554.306895,4659.403 554.306895,4672.844 L554.306895,4817.691 C554.285895,4831.132 543.204895,4842 529.530895,4842" id="花"></path>
        </g>
    </g>
</svg>