<?xml version="1.0" encoding="UTF-8" standalone="no"?>
<svg width="769px" height="716px" viewBox="0 0 769 716" version="1.1" xmlns="http://www.w3.org/2000/svg" xmlns:xlink="http://www.w3.org/1999/xlink">
    <!-- Generator: Sketch 40.3 (33839) - http://www.bohemiancoding.com/sketch -->
    <title>游戏机</title>
    <desc>Created with Sketch.</desc>
    <defs></defs>
    <g id="Page-1" stroke="none" stroke-width="1" fill="none" fill-rule="evenodd">
        <g id="Artboard-2" transform="translate(0.000000, -4156.000000)" fill="#E4C04E">
            <g id="游戏机" transform="translate(0.000000, 4156.000000)">
                <path d="M626.222,715.605 C562.31,715.605 471.84,644.773 435.085,567.894 L334.104,567.894 C297.562,644.773 207.136,714.017 142.977,714.017 C26.433,714.017 0.199,486.236 0.199,406.512 C0.199,301.81 83.954,216.436 186.908,216.436 L582.29,216.436 C685.244,216.436 768.998,301.404 768.998,405.611 C769,485.978 742.766,715.605 626.222,715.605 L626.222,715.605 Z M319.753,523.962 L449.445,523.962 C458.498,523.962 466.616,529.904 469.91,538.335 C496.691,606.999 580.672,671.844 626.221,671.844 C692.033,671.844 725.067,501.122 725.067,405.708 C725.067,325.729 661.015,260.368 582.29,260.368 L186.908,260.368 C109.513,260.368 44.131,327.595 44.131,406.706 C44.131,514.346 79.332,670.257 142.977,670.257 C188.795,670.257 272.829,606.097 299.289,538.227 C302.582,529.796 310.701,523.962 319.753,523.962 L319.753,523.962 Z" id="Fill-1"></path>
                <path d="M368.125,501.991 L357.142,501.991 C351.071,501.991 346.159,497.078 346.159,491.008 C346.159,484.937 351.071,480.025 357.142,480.025 L368.125,480.025 C374.196,480.025 379.108,484.937 379.108,491.008 C379.108,497.078 374.196,501.991 368.125,501.991" id="Fill-2"></path>
                <path d="M144.028,641.041 C137.957,641.041 133.045,636.3 133.045,630.229 C133.045,624.16 137.957,619.354 144.028,619.354 C175.561,619.354 252.988,540.286 273.462,487.373 C275.103,483.147 279.168,480.025 283.705,480.025 L324.193,480.025 C330.264,480.025 335.176,484.937 335.176,491.008 C335.176,497.078 330.264,501.991 324.193,501.991 L290.988,501.991 C266.341,556.911 189.332,641.041 144.028,641.041" id="Fill-3"></path>
                <path d="M384.396,257.88 C378.068,257.88 371.783,255.156 367.439,249.9 C359.728,240.536 361.046,226.69 370.399,218.968 C388.772,203.813 400.87,183.52 401.213,167.282 C401.406,158.252 398.082,150.969 390.734,144.362 C366.152,122.235 315.013,76.191 363.085,9.918 C370.217,0.115 383.936,-2.062 393.77,5.038 C403.584,12.171 405.771,25.899 398.65,35.724 C378.894,62.944 383.313,78.572 420.122,111.714 C436.951,126.859 445.607,146.389 445.145,168.216 C444.512,197.561 427.029,229.201 398.372,252.861 C394.274,256.228 389.319,257.88 384.396,257.88" id="Fill-4"></path>
                <path d="M185.599,502.752 C179.528,502.752 174.616,497.841 174.616,491.77 L174.616,338.01 C174.616,331.939 179.528,327.027 185.599,327.027 C191.67,327.027 196.582,331.939 196.582,338.01 L196.582,491.77 C196.582,497.841 191.67,502.752 185.599,502.752" id="Fill-5"></path>
                <path d="M258.297,425.111 L104.537,425.111 C98.466,425.111 93.554,420.199 93.554,414.128 C93.554,408.057 98.466,403.145 104.537,403.145 L258.297,403.145 C264.368,403.145 269.28,408.057 269.28,414.128 C269.28,420.199 264.368,425.111 258.297,425.111" id="Fill-6"></path>
                <path d="M589.895,415.898 C579.835,415.898 570.386,411.972 563.274,404.851 C556.174,397.761 552.259,388.312 552.259,378.251 C552.259,368.191 556.174,358.742 563.285,351.631 C577.486,337.408 602.304,337.408 616.505,351.631 C623.627,358.742 627.541,368.191 627.541,378.251 C627.541,388.312 623.627,397.761 616.516,404.861 C609.404,411.973 599.956,415.898 589.895,415.898 L589.895,415.898 Z M589.895,362.582 C585.713,362.582 581.776,364.202 578.816,367.161 C575.856,370.121 574.226,374.057 574.226,378.251 C574.226,382.434 575.856,386.371 578.816,389.33 C584.736,395.273 595.043,395.273 600.985,389.33 C603.946,386.371 605.576,382.434 605.576,378.251 C605.576,374.069 603.946,370.133 600.975,367.161 C598.015,364.202 594.079,362.582 589.895,362.582 L589.895,362.582 Z" id="Fill-7"></path>
                <path d="M650.12,476.11 C640.059,476.11 630.598,472.184 623.488,465.063 C616.387,457.973 612.473,448.525 612.473,438.463 C612.473,428.403 616.387,418.955 623.499,411.854 C637.7,397.632 662.507,397.632 676.729,411.854 C691.412,426.516 691.412,450.391 676.74,465.085 C669.618,472.196 660.169,476.11 650.12,476.11 L650.12,476.11 Z M650.108,422.794 C645.926,422.794 641.989,424.425 639.029,427.384 C636.069,430.345 634.439,434.28 634.439,438.463 C634.439,442.647 636.069,446.582 639.029,449.543 C644.96,455.473 655.278,455.473 661.21,449.553 C667.312,443.44 667.312,433.498 661.198,427.384 C658.238,424.425 654.302,422.794 650.108,422.794 L650.108,422.794 Z" id="Fill-8"></path>
                <path d="M529.682,476.11 C519.622,476.11 510.172,472.196 503.062,465.074 C495.95,457.964 492.035,448.514 492.047,438.463 C492.047,428.403 495.961,418.955 503.073,411.854 C517.273,397.632 542.091,397.632 556.292,411.854 C563.404,418.944 567.328,428.393 567.328,438.454 C567.34,448.514 563.424,457.973 556.302,465.085 C549.193,472.196 539.743,476.11 529.682,476.11 L529.682,476.11 Z M529.682,422.794 C525.5,422.794 521.563,424.425 518.604,427.384 C515.643,430.345 514.013,434.28 514.013,438.463 C514.013,442.647 515.634,446.582 518.593,449.543 C524.535,455.495 534.852,455.463 540.773,449.553 C543.734,446.593 545.363,442.647 545.363,438.463 C545.363,434.28 543.734,430.345 540.773,427.395 C537.802,424.425 533.866,422.794 529.682,422.794 L529.682,422.794 Z" id="Fill-9"></path>
                <path d="M589.895,536.317 C579.835,536.317 570.386,532.414 563.285,525.292 C556.174,518.191 552.259,508.737 552.259,498.676 C552.259,488.616 556.174,479.167 563.285,472.066 C577.486,457.845 602.304,457.845 616.505,472.066 C623.616,479.155 627.541,488.605 627.541,498.665 C627.552,508.725 623.637,518.191 616.516,525.291 C609.404,532.414 599.956,536.317 589.895,536.317 L589.895,536.317 Z M589.895,483.008 C585.713,483.008 581.776,484.637 578.816,487.598 C575.856,490.557 574.226,494.494 574.226,498.676 C574.226,502.87 575.856,506.807 578.816,509.767 C584.748,515.703 595.076,515.681 600.985,509.767 C603.946,506.807 605.576,502.859 605.576,498.676 C605.576,494.494 603.946,490.557 600.985,487.608 C598.015,484.637 594.079,483.008 589.895,483.008 L589.895,483.008 Z" id="Fill-10"></path>
            </g>
        </g>
    </g>
</svg>