<?xml version="1.0" encoding="UTF-8" standalone="no"?>
<svg width="687px" height="634px" viewBox="0 0 687 634" version="1.1" xmlns="http://www.w3.org/2000/svg" xmlns:xlink="http://www.w3.org/1999/xlink">
    <!-- Generator: Sketch 40.3 (33839) - http://www.bohemiancoding.com/sketch -->
    <title>猜</title>
    <desc>Created with Sketch.</desc>
    <defs></defs>
    <g id="Page-1" stroke="none" stroke-width="1" fill="none" fill-rule="evenodd">
        <g id="Artboard-2" transform="translate(-440.000000, -4218.000000)" fill="#3EC1AF">
            <g id="猜" transform="translate(440.000000, 4218.000000)">
                <path d="M686.548,190.953 C686.548,167.674 667.367,148.798 643.694,148.798 L570.732,148.798 C589.613,130.446 601.603,106.304 601.603,76.708 C601.603,40.193 580.27,0.527 520.43,0.527 C441.67,0.527 375.9,82.998 344.965,129.259 C314.094,82.999 246.233,0.527 167.536,0.527 C107.696,0.527 86.333,40.192 86.333,76.708 C86.333,106.304 98.647,130.446 117.912,148.798 L43.702,148.798 C20.058,148.798 0.85,167.674 0.85,190.953 L0.85,317.132 L44.053,317.132 L44.053,591.504 C44.053,614.783 63.261,633.642 86.968,633.642 L601.007,633.642 C624.68,633.642 643.859,614.784 643.859,591.504 L643.859,317.132 L686.549,317.132 L686.548,190.953 L686.548,190.953 Z M520.43,42.682 C546.897,42.682 558.752,53.634 558.752,76.708 C558.752,123.536 505.598,148.767 455.645,148.767 L383.098,148.767 C413.555,104.298 467.119,42.682 520.43,42.682 L520.43,42.682 Z M167.537,42.682 C220.784,42.682 276.441,104.298 306.87,148.767 L234.286,148.767 C184.333,148.767 129.213,122.871 129.213,76.04 C129.214,52.966 141.005,42.682 167.537,42.682 L167.537,42.682 Z M643.696,274.979 L601.006,274.979 L601.007,591.504 L86.968,591.504 L86.968,274.979 L43.7,274.979 L43.7,274.38 L43.681,274.38 L43.681,225.774 L43.7,225.774 L43.7,190.953 L643.695,190.953 L643.695,274.979 L643.696,274.979 L643.696,274.979 Z" id="Fill-1"></path>
                <path d="M323.366,479.585 C323.216,474.277 323.14,470.324 323.14,467.689 C323.14,452.102 325.361,438.66 329.767,427.329 C333.005,418.784 338.238,410.199 345.429,401.502 C350.738,395.176 360.263,385.953 374.004,373.829 C387.746,361.705 396.706,352.031 400.81,344.802 C404.914,337.574 406.984,329.742 406.984,321.196 C406.984,305.761 400.962,292.169 388.913,280.498 C376.866,268.827 362.069,262.954 344.564,262.954 C327.659,262.954 313.539,268.262 302.208,278.842 C290.876,289.421 283.459,305.987 279.92,328.462 L239.108,323.643 C242.797,293.487 253.716,270.407 271.863,254.369 C290.008,238.33 314.029,230.311 343.885,230.311 C375.509,230.311 400.735,238.933 419.559,256.138 C438.383,273.344 447.795,294.164 447.795,318.561 C447.795,332.678 444.483,345.706 437.856,357.601 C431.267,369.499 418.316,383.994 399.039,401.048 C386.088,412.532 377.656,420.965 373.665,426.424 C369.675,431.883 366.775,438.132 364.855,445.173 C362.935,452.214 361.843,463.696 361.541,479.583 L323.366,479.583 L323.366,479.585 L323.366,479.585 Z M320.958,559.213 L366.173,559.213 L366.173,513.997 L320.958,513.997 L320.958,559.213 Z" id="Fill-2"></path>
            </g>
        </g>
    </g>
</svg>