<?xml version="1.0" encoding="UTF-8" standalone="no"?>
<svg width="156px" height="197px" viewBox="0 0 156 197" version="1.1" xmlns="http://www.w3.org/2000/svg" xmlns:xlink="http://www.w3.org/1999/xlink">
    <!-- Generator: Sketch 40.3 (33839) - http://www.bohemiancoding.com/sketch -->
    <title>Shape</title>
    <desc>Created with Sketch.</desc>
    <defs></defs>
    <g id="Page-1" stroke="none" stroke-width="1" fill="none" fill-rule="evenodd">
        <g id="Artboard-2" transform="translate(-847.000000, -3423.000000)" fill="#3EC1AF">
            <g id="question_1159802_easyicon.net" transform="translate(847.000000, 3423.000000)">
                <g id="Capa_1">
                    <g id="Group">
                        <path d="M146.618233,142.083636 C145.196093,140.669091 143.530884,138.090909 143.077395,136.134545 C142.228465,132.487273 141.172744,127.978182 139.86307,122.392727 C135.618419,104.312727 121.614698,95.6436364 112.185767,91.7527273 C110.331907,90.9890909 109.976372,89.3636364 111.333209,87.8836364 C119.844279,78.5927273 125.068465,66.2363636 125.068465,52.6545455 C125.068465,23.8618182 101.701116,0.44 72.9753488,0.44 C44.2495814,0.44 20.8822326,23.8618182 20.8822326,52.6545455 C20.8822326,66.1309091 26.0229767,78.4072727 34.4179535,87.6763636 C35.763907,89.1636364 35.3974884,90.7818182 33.5363721,91.5272727 C24.1074419,95.3090909 9.63572093,103.978182 5.31488372,122.392727 C3.38483721,130.618182 2.00260465,136.534545 1.01944186,140.781818 C0.170511628,144.44 0.874325581,147.927273 2.99302326,150.596364 C5.11897674,153.28 8.36232558,154.763636 12.128093,154.763636 L17.1164651,154.763636 C19.1190698,154.763636 20.6609302,156.389091 20.5593488,158.396364 L19.7067907,175.203636 C19.5217674,178.869091 20.7806512,182.32 23.2512558,184.927273 C25.7218605,187.527273 29.095814,188.96 32.7563721,188.96 L100.928372,188.96 C102.930977,188.96 105.804279,190.014545 107.491256,191.101818 C112.367163,194.24 118.208093,196.083636 124.473488,196.083636 C141.851163,196.083636 155.992744,181.909091 155.992744,164.490909 C155.98186,155.734545 152.390233,147.810909 146.618233,142.083636 L146.618233,142.083636 Z M72.9717209,5.89818182 C98.6972093,5.89818182 119.622977,26.8763636 119.622977,52.6581818 C119.622977,53.6909091 119.579442,54.7090909 119.499628,55.7163636 C119.369023,57.4036364 117.551442,58.68 115.57786,58.3418182 C101.153302,55.8618182 93.1573953,44.7090909 89.504093,37.72 C88.1291163,35.0909091 86.3623256,33.6727273 84.2545116,33.5163636 C82.1140465,33.3672727 80.1368372,34.5309091 78.3555349,36.9745455 C66.7063256,52.9527273 42.2578605,57.2727273 30.3728372,58.44 C28.3774884,58.6363636 26.5671628,57.3818182 26.440186,55.7018182 C26.364,54.6945455 26.3204651,53.68 26.3204651,52.6545455 C26.3204651,26.8763636 47.2462326,5.89818182 72.9717209,5.89818182 L72.9717209,5.89818182 Z M31.4213023,63.8509091 C44.3330233,62.5709091 69.9097674,57.8145455 82.7525581,40.1963636 C82.9412093,39.9418182 83.108093,39.7381818 83.2532093,39.5745455 C83.5470698,39.2472727 84.0803721,39.2690909 84.3089302,39.6145455 C84.4250233,39.7890909 84.552,40.0036364 84.6862326,40.2618182 C88.8329302,48.2 97.9317209,60.8727273 114.536651,63.7309091 C116.510233,64.0727273 117.747349,65.7636364 117.105209,67.6654545 C114.681767,74.84 110.582233,81.2509091 105.252837,86.3927273 C103.80893,87.7854545 102.481116,88.7963636 102.40493,88.7818182 C102.328744,88.7672727 102.252558,88.8218182 102.238047,88.9018182 C102.223535,88.9818182 100.953767,90.0836364 99.3030698,91.2218182 C91.804186,96.3890909 82.7380465,99.4254545 72.9717209,99.4254545 C52.4776744,99.4254545 35.0782326,86.0981818 28.8346047,67.6436364 C28.1924651,65.7381818 29.4295814,64.0472727 31.4213023,63.8509091 L31.4213023,63.8509091 Z M67.6205581,104.567273 C69.380093,104.763636 71.1613953,104.872727 72.9717209,104.872727 C74.4990698,104.872727 76.0046512,104.789091 77.492093,104.643636 C79.4874419,104.447273 80.4524651,105.676364 79.6688372,107.523636 L74.0056744,120.865455 C73.2220465,122.712727 71.9486512,122.712727 71.1650233,120.865455 L65.4474419,107.396364 C64.6674419,105.549091 65.6288372,104.345455 67.6205581,104.567273 L67.6205581,104.567273 Z M65.2297674,129.363636 L44.1733953,129.363636 C42.1671628,129.363636 40.5817674,128.687273 39.7110698,127.472727 C38.8403721,126.250909 38.7133953,124.530909 39.3555349,122.629091 L46.4335814,101.661818 C47.0757209,99.76 49.0093953,99.0290909 50.816093,99.8945455 C51.871814,100.4 52.9493023,100.869091 54.0413023,101.301818 C55.9060465,102.04 58.0973023,104.010909 58.8809302,105.861818 L67.4355349,126.014545 C68.2227907,127.865455 67.236,129.363636 65.2297674,129.363636 L65.2297674,129.363636 Z M91.0568372,101.603636 C92.2068837,101.178182 93.3387907,100.72 94.4489302,100.218182 C96.2773953,99.3927273 98.2219535,100.149091 98.864093,102.050909 L105.811535,122.632727 C106.453674,124.538182 106.326698,126.254545 105.456,127.476364 C104.585302,128.690909 102.999907,129.367273 100.993674,129.367273 L79.9373023,129.367273 C77.9346977,129.367273 76.9442791,127.869091 77.7315349,126.021818 L86.188186,106.094545 C86.9754419,104.243636 89.1775814,102.294545 91.0568372,101.603636 L91.0568372,101.603636 Z M27.183907,181.174545 C25.7508837,179.661818 25.0253023,177.636364 25.1305116,175.487273 L26.2733023,152.945455 C26.3748837,150.938182 24.8330233,149.312727 22.8304186,149.312727 L12.1172093,149.312727 C10.0493023,149.312727 8.3187907,148.567273 7.24493023,147.210909 C6.17832558,145.861818 5.84455814,144.021818 6.30893023,142.018182 C7.29209302,137.770909 8.67432558,131.861818 10.6007442,123.643636 C14.8453953,105.552727 30.6304186,98.1345455 38.4594419,95.5163636 C40.3604651,94.88 42.1453953,94.6618182 42.4029767,94.8545455 C42.6569302,95.0472727 42.3485581,96.7381818 41.7064186,98.6436364 L34.2002791,120.88 C32.9813023,124.494545 33.3658605,127.967273 35.2886512,130.647273 C37.2114419,133.330909 40.364093,134.814545 44.1733953,134.814545 L68.0849302,134.814545 L77.0821395,134.814545 L100.993674,134.814545 C104.799349,134.814545 107.955628,133.330909 109.878419,130.647273 C111.801209,127.970909 112.189395,124.498182 110.966791,120.88 L103.616651,99.1054545 C102.974512,97.2036364 102.760465,95.4436364 103.130512,95.1636364 C103.500558,94.88 105.376186,95.0581818 107.269953,95.7163636 C115.273116,98.4945455 130.416,105.978182 134.562698,123.64 C135.310047,126.829091 135.970326,129.654545 136.561674,132.178182 C137.018791,134.134545 135.915907,135.025455 134.011256,134.410909 C131.000093,133.44 127.793023,132.909091 124.462605,132.909091 C107.08493,132.909091 92.9433488,147.076364 92.9433488,164.501818 C92.9433488,170.345455 94.5541395,175.803636 97.3294884,180.498182 C98.3525581,182.225455 97.7285581,183.516364 95.7259535,183.516364 L32.7454884,183.516364 C30.5941395,183.512727 28.6169302,182.68 27.183907,181.174545 L27.183907,181.174545 Z M100.079442,164.498182 C100.079442,151.018182 111.017581,140.058182 124.462605,140.058182 C137.907628,140.058182 148.845767,151.018182 148.845767,164.498182 C148.845767,177.970909 137.907628,188.938182 124.462605,188.938182 C111.017581,188.938182 100.079442,177.970909 100.079442,164.498182 L100.079442,164.498182 Z" id="Shape"></path>
                    </g>
                </g>
            </g>
        </g>
    </g>
</svg>