<?xml version="1.0" encoding="UTF-8" standalone="no"?>
<svg width="715px" height="619px" viewBox="0 0 715 619" version="1.1" xmlns="http://www.w3.org/2000/svg" xmlns:xlink="http://www.w3.org/1999/xlink">
    <!-- Generator: Sketch 40.3 (33839) - http://www.bohemiancoding.com/sketch -->
    <title>踢</title>
    <desc>Created with Sketch.</desc>
    <defs></defs>
    <g id="Page-1" stroke="none" stroke-width="1" fill="none" fill-rule="evenodd">
        <g id="Artboard-2" transform="translate(-91.000000, -4162.000000)" fill="#3EC1AF">
            <path d="M783.359,4162.424 L519.997,4162.424 C507.858,4162.424 498.017,4172.265 498.017,4184.404 L498.017,4334.043 C498.017,4437.439 413.898,4521.558 310.502,4521.558 C309.482,4521.558 308.488,4521.651 307.505,4521.786 C187.323,4526.524 91,4625.724 91,4747.046 C91,4750.086 91.084,4753.135 91.205,4756.172 C91.084,4757.105 91,4758.049 91,4759.015 C91,4771.153 100.84,4780.995 112.98,4780.995 L519.484,4780.995 C519.546,4780.996 519.608,4781 519.669,4781 C519.707,4781 519.742,4780.995 519.78,4780.995 L783.358,4780.995 C795.496,4780.995 805.338,4771.153 805.338,4759.015 C805.338,4756.938 805.029,4754.935 804.491,4753.031 C805.029,4751.126 805.338,4749.124 805.338,4747.046 L805.338,4184.404 C805.339,4172.264 795.497,4162.424 783.359,4162.424 L783.359,4162.424 Z M761.379,4737.034 L541.752,4737.034 C540.783,4714.885 536.611,4693.458 529.646,4673.255 L761.379,4673.255 L761.379,4737.034 L761.379,4737.034 Z M495.275,4473.284 L574.552,4473.284 C586.691,4473.284 596.532,4463.444 596.532,4451.304 C596.532,4439.165 586.69,4429.325 574.552,4429.325 L521.372,4429.325 C533.396,4402.822 540.571,4373.688 541.749,4343.026 C541.822,4342.492 541.873,4341.952 541.907,4341.406 L607.521,4341.406 C619.66,4341.406 629.501,4331.566 629.501,4319.427 C629.501,4307.287 619.659,4297.447 607.521,4297.447 L541.977,4297.447 L541.977,4206.384 L761.379,4206.384 L761.379,4629.296 L508.918,4629.296 C485.989,4591.77 452.247,4561.285 411.29,4542.388 C444.469,4526.272 473.236,4502.457 495.275,4473.284 L495.275,4473.284 Z M316.488,4565.517 C331.369,4565.517 346.159,4567.317 360.442,4570.867 C411.014,4583.439 452.061,4616.402 475.767,4659.737 C476.218,4660.818 476.769,4661.842 477.38,4662.826 C489.14,4685.342 496.272,4710.525 497.713,4737.035 L135.248,4737.035 C140.465,4641.579 219.754,4565.517 316.488,4565.517 L316.488,4565.517 Z" id="踢"></path>
        </g>
    </g>
</svg>