<?xml version="1.0" encoding="UTF-8" standalone="no"?>
<svg width="234px" height="234px" viewBox="0 0 234 234" version="1.1" xmlns="http://www.w3.org/2000/svg" xmlns:xlink="http://www.w3.org/1999/xlink">
    <!-- Generator: Sketch 40.3 (33839) - http://www.bohemiancoding.com/sketch -->
    <title>Shape</title>
    <desc>Created with Sketch.</desc>
    <defs></defs>
    <g id="Page-1" stroke="none" stroke-width="1" fill="none" fill-rule="evenodd">
        <g id="Artboard-2" transform="translate(-297.000000, -3498.000000)" fill="#3EC1AF">
            <g id="question_1159802_easyicon.net" transform="translate(297.000000, 3423.000000)">
                <g id="Capa_1">
                    <g id="Group">
                        <g id="disappointed_1165587_easyicon.net" transform="translate(0.000000, 75.000000)">
                            <g id="Layer_1_copy_2">
                                <path d="M174.6945,165.852 C175.11075,166.84875 174.99825,167.98725 174.39975,168.88275 C173.799,169.77825 172.79325,170.316 171.71775,170.316 L171.71325,170.316 L62.27775,170.181 C61.19325,170.181 60.18075,169.632 59.58675,168.72525 C58.99275,167.8185 58.88925,166.671 59.32125,165.67425 C68.9625,143.3925 91.53675,128.9925 116.838,128.9925 C142.68375,128.9925 165.393,143.46225 174.6945,165.852 L174.6945,165.852 Z M72.47475,84.69225 C72.47475,76.9905 78.723,70.74 86.42475,70.74 C94.1265,70.74 100.37475,76.98825 100.37475,84.69225 C100.37475,92.40075 94.1265,98.649 86.42475,98.649 C78.723,98.649 72.47475,92.40075 72.47475,84.69225 L72.47475,84.69225 Z M135.738,84.69225 C135.738,76.9905 141.993,70.74 149.69475,70.74 C157.3965,70.74 163.64475,76.98825 163.64475,84.69225 C163.64475,92.40075 157.3965,98.649 149.69475,98.649 C141.993,98.649 135.738,92.40075 135.738,84.69225 L135.738,84.69225 Z M192.6405,233.658 L41.3595,233.658 C18.7425,233.658 0.342,215.2575 0.342,192.6405 L0.342,41.3595 C0.342,18.7425 18.7425,0.342 41.3595,0.342 L192.63825,0.342 C215.25525,0.342 233.65575,18.7425 233.65575,41.3595 L233.65575,192.63825 C233.658,215.2575 215.2575,233.658 192.6405,233.658 L192.6405,233.658 Z M41.3595,19.64475 C29.38725,19.64475 19.64475,29.38725 19.64475,41.3595 L19.64475,192.63825 C19.64475,204.6105 29.38725,214.353 41.3595,214.353 L192.63825,214.353 C204.6105,214.353 214.353,204.6105 214.353,192.63825 L214.353,41.3595 C214.353,29.38725 204.6105,19.64475 192.63825,19.64475 L41.3595,19.64475 L41.3595,19.64475 Z" id="Shape"></path>
                            </g>
                        </g>
                    </g>
                </g>
            </g>
        </g>
    </g>
</svg>