<?xml version="1.0" encoding="UTF-8" standalone="no"?>
<svg width="594px" height="732px" viewBox="0 0 594 732" version="1.1" xmlns="http://www.w3.org/2000/svg" xmlns:xlink="http://www.w3.org/1999/xlink">
    <!-- Generator: Sketch 40.3 (33839) - http://www.bohemiancoding.com/sketch -->
    <title>灯</title>
    <desc>Created with Sketch.</desc>
    <defs></defs>
    <g id="Page-1" stroke="none" stroke-width="1" fill="none" fill-rule="evenodd">
        <g id="Artboard-2" transform="translate(-670.000000, -3443.000000)" fill="#E4C04E">
            <g id="灯" transform="translate(670.000000, 3443.000000)">
                <path d="M297.07,150.109 C191.898,150.109 106.64,235.362 106.64,340.539 C106.64,383.437 120.831,423.01 144.763,454.853 C165.97,494.312 199.355,564.354 211.651,634.031 C211.941,635.613 212.222,637.106 212.507,638.65 L382.611,638.65 C382.894,637.106 383.176,635.606 383.467,634.031 C396.38,560.878 432.53,487.325 453.433,449.178 C474.886,418.36 487.498,380.93 487.498,340.538 C487.498,235.366 402.241,150.105 297.065,150.105 L297.07,150.109" id="Fill-1"></path>
                <path d="M57.828,287.502 L11.381,287.502 C5.632,287.502 0.931,292.208 0.931,297.952 C0.931,303.696 5.637,308.402 11.381,308.402 L57.828,308.402 C63.577,308.402 68.278,303.696 68.278,297.952 C68.278,292.208 63.572,287.502 57.828,287.502" id="Fill-2"></path>
                <path d="M101.247,88.048 C97.181,83.982 90.531,83.982 86.466,88.048 C82.4,92.114 82.4,98.764 86.466,102.829 L119.311,135.674 C123.378,139.74 130.027,139.74 134.092,135.674 C138.157,131.607 138.158,124.958 134.092,120.893 L101.247,88.048" id="Fill-3"></path>
                <path d="M295.374,67.46 L295.374,67.46 C301.123,67.46 305.824,62.754 305.824,57.01 L305.824,10.563 C305.824,4.814 301.118,0.114 295.374,0.114 C289.626,0.114 284.925,4.819 284.925,10.563 L284.925,57.01 C284.925,62.757 289.63,67.46 295.374,67.46" id="Fill-4"></path>
                <path d="M490.495,85.645 L457.65,118.49 C453.584,122.556 453.584,129.206 457.65,133.27 C461.717,137.335 468.367,137.337 472.431,133.27 L505.276,100.426 C509.342,96.359 509.342,89.71 505.276,85.645 C501.21,81.58 494.56,81.578 490.495,85.645" id="Fill-5"></path>
                <path d="M582.762,284.102 L536.314,284.102 C530.566,284.102 525.865,288.808 525.865,294.552 C525.865,300.296 530.57,305.002 536.314,305.002 L582.762,305.002 C588.51,305.002 593.211,300.296 593.211,294.552 C593.211,288.808 588.506,284.102 582.762,284.102" id="Fill-6"></path>
                <path d="M233.182,700.24 L364.656,700.24 C372.327,689.766 377.39,677.021 377.39,661.83 L214.341,661.83 C214.341,675.17 222.222,688.508 233.181,700.24 L233.182,700.24" id="Fill-7"></path>
                <path d="M235.31,714.05 C240.548,716.07 280.393,731.196 300.462,731.196 C328.503,731.197 359.55,716.489 365.658,713.826 L234.973,713.826 C235.086,713.902 235.202,713.971 235.31,714.054 L235.31,714.05" id="Fill-8"></path>
            </g>
        </g>
    </g>
</svg>