<?xml version="1.0" encoding="UTF-8" standalone="no"?>
<svg width="228px" height="715px" viewBox="0 0 228 715" version="1.1" xmlns="http://www.w3.org/2000/svg" xmlns:xlink="http://www.w3.org/1999/xlink">
    <!-- Generator: Sketch 40.3 (33839) - http://www.bohemiancoding.com/sketch -->
    <title>口红</title>
    <desc>Created with Sketch.</desc>
    <defs></defs>
    <g id="Page-1" stroke="none" stroke-width="1" fill="none" fill-rule="evenodd">
        <g id="Artboard-2" transform="translate(-343.000000, -3998.000000)" fill="#E4C04E">
            <path d="M550.28,4476.44 C550.28,4478.92 548.28,4481 545.88,4481 L365.72,4481 C363.32,4481 361.32,4478.92 361.32,4476.44 L361.32,4207.16 C361.32,4204.68 363.32,4202.6 365.72,4202.6 L545.88,4202.6 C548.28,4202.6 550.28,4204.68 550.28,4207.16 L550.28,4476.44 L550.28,4476.44 Z M500.52,3998.92 C494.92,3997.16 395.8,4057.08 389.96,4076.52 C384.84,4093.72 385.96,4167.96 386.28,4185.24 C386.28,4187.24 387.96,4188.84 389.96,4188.84 L515.48,4188.84 C517.56,4188.84 519.16,4187.16 519.16,4185.16 L519.16,4037.08 C519.16,4036.6 519.08,4036.2 518.92,4035.8 C517.24,4031 505.72,4000.52 500.52,3998.92 L500.52,3998.92 Z M416.52,4101.8 C406.52,4096.52 401.96,4091.16 400.04,4086.68 C398.52,4083.08 402.84,4079.88 405.88,4082.44 C411.08,4086.92 418.2,4092.28 421.96,4092.28 C432.84,4092.36 451.64,4080.28 468.68,4067.24 C472.44,4064.36 476.92,4069.72 473.48,4072.92 C453.24,4091.4 428.92,4108.28 416.52,4101.8 L416.52,4101.8 Z M565.24,4481.96 L348.12,4481.96 C345.32,4481.96 343,4484.76 343,4488.28 L343,4706.68 C343,4710.12 345.32,4713 348.12,4713 L565.24,4713 C568.04,4713 570.36,4710.2 570.36,4706.68 L570.36,4488.28 C570.36,4484.76 568.04,4481.96 565.24,4481.96 L565.24,4481.96 Z M545.72,4674.52 C545.72,4677.8 543.96,4680.44 541.8,4680.44 L531.16,4680.44 C529,4680.44 527.24,4677.8 527.24,4674.52 L527.24,4521.8 C527.24,4518.52 529,4515.88 531.16,4515.88 L541.8,4515.88 C543.96,4515.88 545.72,4518.52 545.72,4521.8 L545.72,4674.52 L545.72,4674.52 Z" id="口红"></path>
        </g>
    </g>
</svg>