<?xml version="1.0" encoding="UTF-8" standalone="no"?>
<svg width="787px" height="729px" viewBox="0 0 787 729" version="1.1" xmlns="http://www.w3.org/2000/svg" xmlns:xlink="http://www.w3.org/1999/xlink">
    <!-- Generator: Sketch 40.3 (33839) - http://www.bohemiancoding.com/sketch -->
    <title>极限运动</title>
    <desc>Created with Sketch.</desc>
    <defs></defs>
    <g id="Page-1" stroke="none" stroke-width="1" fill="none" fill-rule="evenodd">
        <g id="Artboard-2" transform="translate(-120.000000, -4161.000000)" fill="#3EC1AF">
            <path d="M703.851509,4474.65299 C754.068509,4474.65299 794.782509,4433.93799 794.782509,4383.72099 C794.782509,4333.50399 754.068509,4292.78999 703.851509,4292.78999 C653.634509,4292.78999 612.920509,4333.50399 612.920509,4383.72099 C612.920509,4433.93799 653.634509,4474.65299 703.851509,4474.65299 L703.851509,4474.65299 Z M422.784509,4589.66799 C429.173509,4602.85699 436.710509,4600.72699 447.523509,4590.48799 C465.300509,4573.61199 513.633509,4524.37799 513.633509,4524.37799 C513.633509,4524.37799 523.463509,4503.73399 513.633509,4491.28199 C503.802509,4478.91199 501.263509,4454.09099 480.537509,4474.73499 L414.428509,4540.84399 C400.993509,4553.78699 408.775509,4564.60099 414.428509,4573.93999 C416.722509,4577.62599 419.834509,4583.68799 422.784509,4589.66799 L422.784509,4589.66799 Z M898.985509,4438.85399 C887.598509,4425.09099 867.200509,4423.20699 853.437509,4434.67599 L761.195509,4512.00799 L684.600509,4537.73099 L610.217509,4484.56499 L559.754509,4367.66499 L544.271509,4191.86499 C542.633509,4173.75999 527.232509,4160.32599 509.537509,4162.04599 C491.924509,4163.68399 478.981509,4179.74099 480.537509,4197.84499 L497.003509,4384.54099 L555.494509,4520.03599 L461.204509,4624.81199 L315.223509,4656.59699 L164.981509,4618.09499 C147.532509,4612.35999 129.838509,4622.19099 122.711509,4639.14799 C112.716509,4662.74099 132.295509,4683.87599 149.826509,4689.69299 L331.689509,4755.80199 L463.989509,4706.15899 L364.866509,4805.44599 L217.001509,4751.70599 C199.879509,4744.90699 173.337509,4755.31099 166.456509,4772.43199 C159.575509,4789.47099 165.883509,4815.19399 183.004509,4822.07499 C183.004509,4822.07499 326.200509,4872.78399 364.866509,4888.18499 C377.072509,4893.01799 397.634509,4888.42999 414.510509,4871.63699 C434.170509,4852.05799 498.723509,4806.91999 546.810509,4755.88399 C595.225509,4704.43799 639.708509,4648.32299 667.151509,4612.19599 L793.308509,4569.92599 L894.970509,4484.72899 C908.569509,4473.17799 910.371509,4452.69799 898.985509,4438.85399 L898.985509,4438.85399 Z" id="极限运动"></path>
        </g>
    </g>
</svg>