<?xml version="1.0" encoding="UTF-8" standalone="no"?>
<svg width="605px" height="672px" viewBox="0 0 605 672" version="1.1" xmlns="http://www.w3.org/2000/svg" xmlns:xlink="http://www.w3.org/1999/xlink">
    <!-- Generator: Sketch 40.3 (33839) - http://www.bohemiancoding.com/sketch -->
    <title>话筒</title>
    <desc>Created with Sketch.</desc>
    <defs></defs>
    <g id="Page-1" stroke="none" stroke-width="1" fill="none" fill-rule="evenodd">
        <g id="Artboard-2" transform="translate(-1333.000000, -3048.000000)" fill="#E4C04E">
            <g id="话筒" transform="translate(1333.000000, 3048.000000)">
                <path d="M79.265,671.491 C75.491,671.035 71.707,670.641 67.943,670.111 C56.694,668.531 45.081,667.187 35.242,661.494 C12.631,648.412 -3.162,624.829 1.08,596.1 C3.422,580.235 10.238,566.28 20.049,553.934 C26.74,545.515 34.347,537.763 42.086,530.273 C44.688,527.756 45.79,526.023 45.378,522.311 C43.917,509.128 48.446,498.076 57.002,487.82 C91.684,446.256 125.938,404.334 160.342,362.539 C205.36,307.852 250.372,253.158 295.391,198.471 C296.075,197.64 296.817,196.858 297.77,195.785 C320.7,247.782 357.978,285.175 410.043,308.103 C409.136,308.922 408.468,309.577 407.748,310.17 C311.353,389.527 214.94,468.864 118.589,548.275 C112.811,553.037 107.003,557.463 99.649,559.519 C91.776,561.719 83.94,561.879 76.109,559.54 C74.108,558.943 72.922,559.215 71.427,560.927 C65.843,567.329 59.677,573.24 54.295,579.799 C49.155,586.06 45.367,593.199 43.654,601.288 C42.538,606.555 43.905,611.148 46.774,615.546 C51.418,622.668 58.584,624.906 66.381,626.453 C93.108,631.76 117.387,625.334 140.243,611.573 C159.234,600.138 175.765,585.535 192.452,571.132 C211.618,554.589 230.5,537.694 251.725,523.73 C273.445,509.439 296.633,498.71 322.521,494.509 C337.71,492.044 352.947,492.06 368.194,493.708 C412.022,498.445 450.933,515.799 486.705,540.708 C521.992,565.281 552.537,594.9 578.378,629.3 C588.195,642.371 582.584,659.65 567.112,663.688 C558.975,665.811 551.662,663.628 546.092,657.195 C538.381,648.287 531.237,638.874 523.301,630.177 C497.457,601.854 468.465,577.369 434.536,559.126 C413.326,547.723 390.889,539.959 366.969,536.597 C335.547,532.181 306.795,539.313 280.203,556.231 C261.437,568.17 244.61,582.567 227.905,597.127 C209.802,612.904 191.767,628.771 171.794,642.209 C151.68,655.741 130.123,665.908 105.947,669.74 C101.44,670.454 96.892,670.912 92.363,671.488 C87.998,671.491 83.632,671.491 79.265,671.491" id="Fill-1"></path>
                <path d="M449.325,0.8 C454.505,1.427 459.705,1.934 464.864,2.7 C487.094,6.001 507.546,14.072 526.429,26.125 C548.091,39.952 565.908,57.722 579.714,79.397 C592.846,100.015 601.215,122.403 603.893,146.805 C606.104,166.942 604.46,186.696 597.329,205.733 C594.744,212.638 591.176,219.186 587.829,225.782 C587.413,226.604 585.504,227.285 584.466,227.089 C549.42,220.444 516.889,207.488 487.439,187.312 C433.957,150.672 399.025,100.841 382.441,38.173 C381.02,32.805 380,27.333 378.733,21.922 C378.257,19.893 378.615,18.656 380.671,17.469 C397.412,7.802 415.406,2.475 434.675,1.325 C435.634,1.268 436.581,0.98 437.534,0.8 L449.325,0.8" id="Fill-2"></path>
                <path d="M550.605,264.145 C543.619,267.329 536.824,271.046 529.616,273.602 C498.072,284.792 466.498,283.441 435.465,271.855 C389.731,254.779 357.135,223.339 337.246,178.903 C327.278,156.635 323.211,133.071 325.111,108.705 C326.555,90.216 331.792,72.762 341.341,56.729 C341.616,56.269 341.944,55.84 342.366,55.222 C375.096,161.237 444.364,230.475 550.605,264.145" id="Fill-3"></path>
            </g>
        </g>
    </g>
</svg>