<?xml version="1.0" encoding="UTF-8" standalone="no"?>
<svg width="715px" height="495px" viewBox="0 0 715 495" version="1.1" xmlns="http://www.w3.org/2000/svg" xmlns:xlink="http://www.w3.org/1999/xlink">
    <!-- Generator: Sketch 40.3 (33839) - http://www.bohemiancoding.com/sketch -->
    <title>微波炉</title>
    <desc>Created with Sketch.</desc>
    <defs></defs>
    <g id="Page-1" stroke="none" stroke-width="1" fill="none" fill-rule="evenodd">
        <g id="Artboard-2" transform="translate(-290.000000, -4385.000000)" fill="#E4C04E">
            <g id="微波炉" transform="translate(290.000000, 4385.000000)">
                <path d="M696.682,494.679 L18.518,494.679 C8.603,494.679 0.58,486.656 0.58,476.743 L0.58,18.058 C0.58,8.179 8.603,0.122 18.518,0.122 L696.682,0.122 C706.595,0.122 714.618,8.179 714.618,18.058 L714.618,476.743 C714.618,486.656 706.595,494.679 696.682,494.679 L696.682,494.679 Z M36.455,458.804 L678.744,458.804 L678.744,35.995 L36.455,35.995 L36.455,458.804 Z" id="Fill-1"></path>
                <path d="M465.711,433.371 L82.067,433.371 C72.153,433.371 64.13,425.348 64.13,415.435 L64.13,86.88 C64.13,76.984 72.153,68.944 82.067,68.944 L465.711,68.944 C475.624,68.944 483.647,76.984 483.647,86.88 L483.647,281.506 C483.647,291.384 475.624,299.441 465.711,299.441 C455.797,299.441 447.774,291.384 447.774,281.506 L447.774,104.818 L100.004,104.817 L100.004,397.499 L447.774,397.499 L447.774,387.059 C447.774,377.145 455.797,369.122 465.711,369.122 C475.624,369.122 483.647,377.145 483.647,387.059 L483.647,415.436 C483.647,425.348 475.624,433.371 465.711,433.371" id="Fill-2"></path>
                <path d="M610.432,433.371 L548.861,433.371 C538.947,433.371 530.925,425.348 530.925,415.435 C530.925,405.556 538.947,397.499 548.861,397.499 L610.432,397.499 C620.344,397.499 628.367,405.556 628.367,415.435 C628.367,425.348 620.344,433.371 610.432,433.371" id="Fill-3"></path>
                <path d="M580.127,245.578 C544.919,245.578 516.263,216.939 516.263,181.732 C516.263,146.522 544.919,117.866 580.127,117.866 C615.336,117.866 643.992,146.522 643.992,181.732 C643.992,216.939 615.336,245.578 580.127,245.578 L580.127,245.578 Z M580.127,153.74 C564.695,153.74 552.137,166.298 552.137,181.732 C552.137,197.145 564.695,209.705 580.127,209.705 C595.558,209.705 608.118,197.145 608.118,181.732 C608.118,166.299 595.559,153.74 580.127,153.74 L580.127,153.74 Z" id="Fill-4"></path>
                <path d="M557.882,221.424 C553.293,221.424 548.703,219.671 545.2,216.168 C538.193,209.162 538.193,197.811 545.2,190.805 L588.728,147.277 C595.735,140.288 607.085,140.288 614.092,147.277 C621.08,154.301 621.08,165.652 614.092,172.641 L570.563,216.169 C567.061,219.671 562.472,221.424 557.882,221.424" id="Fill-5"></path>
                <path d="M580.127,388.285 C544.919,388.285 516.263,359.645 516.263,324.438 C516.263,289.229 544.919,260.59 580.127,260.59 C615.336,260.59 643.992,289.229 643.992,324.438 C643.992,359.644 615.336,388.285 580.127,388.285 L580.127,388.285 Z M580.127,296.464 C564.695,296.464 552.137,309.005 552.137,324.438 C552.137,339.87 564.695,352.411 580.127,352.411 C595.558,352.411 608.118,339.87 608.118,324.438 C608.118,309.005 595.559,296.464 580.127,296.464 L580.127,296.464 Z" id="Fill-6"></path>
                <path d="M557.882,364.147 C553.293,364.147 548.703,362.394 545.2,358.891 C538.193,351.884 538.193,340.534 545.2,333.527 L588.728,289.983 C595.735,282.975 607.085,282.975 614.092,289.983 C621.08,296.989 621.08,308.34 614.092,315.346 L570.563,358.891 C567.061,362.395 562.472,364.147 557.882,364.147" id="Fill-7"></path>
                <path d="M152.956,347.541 C148.366,347.541 143.777,345.79 140.274,342.286 C133.267,335.279 133.267,323.929 140.274,316.923 L162.747,294.466 L141.57,257.332 C137.576,250.307 138.768,241.461 144.478,235.751 L161.731,218.514 L140.764,181.573 C135.877,172.972 138.908,162.007 147.525,157.137 C156.143,152.215 167.074,155.262 171.978,163.863 L199.654,212.681 C203.648,219.705 202.457,228.516 196.729,234.209 L179.494,251.446 L200.688,288.579 C204.682,295.622 203.491,304.451 197.78,310.161 L165.638,342.285 C162.134,345.79 157.545,347.541 152.956,347.541" id="Fill-8"></path>
                <path d="M252.343,347.541 C247.754,347.541 243.164,345.79 239.661,342.286 C232.656,335.279 232.656,323.929 239.661,316.923 L262.135,294.466 L240.957,257.332 C236.964,250.307 238.155,241.461 243.865,235.751 L261.119,218.514 L240.152,181.573 C235.265,172.972 238.295,162.007 246.913,157.137 C255.514,152.215 266.479,155.262 271.383,163.863 L299.059,212.681 C303.035,219.705 301.844,228.516 296.133,234.209 L278.898,251.446 L300.075,288.579 C304.069,295.622 302.878,304.451 297.168,310.161 L265.025,342.285 C261.522,345.79 256.932,347.541 252.343,347.541" id="Fill-9"></path>
                <path d="M351.732,347.541 C347.143,347.541 342.554,345.79 339.05,342.286 C332.043,335.279 332.043,323.929 339.05,316.923 L361.523,294.466 L340.347,257.332 C336.353,250.307 337.544,241.461 343.254,235.751 L360.507,218.514 L339.54,181.573 C334.654,172.972 337.684,162.007 346.302,157.137 C354.902,152.215 365.85,155.262 370.773,163.863 L398.448,212.681 C402.425,219.705 401.233,228.516 395.523,234.209 L378.287,251.446 L399.465,288.579 C403.458,295.622 402.267,304.451 396.556,310.161 L364.415,342.285 C360.911,345.79 356.321,347.541 351.732,347.541" id="Fill-10"></path>
            </g>
        </g>
    </g>
</svg>