<?xml version="1.0" encoding="UTF-8" standalone="no"?>
<svg width="379px" height="386px" viewBox="0 0 379 386" version="1.1" xmlns="http://www.w3.org/2000/svg" xmlns:xlink="http://www.w3.org/1999/xlink">
    <!-- Generator: Sketch 40.3 (33839) - http://www.bohemiancoding.com/sketch -->
    <title>XMLID_1713_</title>
    <desc>Created with Sketch.</desc>
    <defs></defs>
    <g id="Page-1" stroke="none" stroke-width="1" fill="none" fill-rule="evenodd">
        <g id="Artboard-2" transform="translate(-86.000000, -2812.000000)" fill="#E4C04E">
            <g id="mirror_1194343_easyicon.net" transform="translate(86.000000, 2812.000000)">
                <g id="Capa_1">
                    <path d="M259.189,174.014 C259.772,169.673 260.067,165.232 260.067,160.814 C260.067,106.585 215.948,62.466 161.718,62.466 C107.489,62.466 63.371,106.585 63.371,160.814 C63.371,215.043 107.489,259.161 161.718,259.161 C166.689,259.161 170.718,263.19 170.718,268.161 C170.718,273.132 166.689,277.161 161.718,277.161 C97.564,277.161 45.371,224.968 45.371,160.814 C45.371,96.659 97.564,44.466 161.718,44.466 C225.873,44.466 278.067,96.659 278.067,160.814 C278.067,166.03 277.718,171.276 277.029,176.408 C276.368,181.335 271.838,184.791 266.912,184.131 C261.985,183.47 258.528,178.94 259.189,174.014 L259.189,174.014 Z M186.576,357.769 L170.718,357.769 L170.718,312.627 C170.718,307.656 166.689,303.627 161.718,303.627 C82.97,303.627 18.905,239.562 18.905,160.814 C18.905,82.066 82.97,18 161.718,18 C240.466,18 304.532,82.066 304.532,160.814 C304.532,175.443 302.331,189.862 297.991,203.671 C296.501,208.413 299.137,213.465 303.879,214.955 C308.62,216.445 313.673,213.809 315.163,209.067 C320.053,193.51 322.532,177.275 322.532,160.813 C322.532,72.141 250.391,0 161.718,0 C73.045,0 0.905,72.141 0.905,160.814 C0.905,246.466 68.216,316.694 152.718,321.378 L152.718,357.768 L118.768,357.768 C113.797,357.768 109.768,361.797 109.768,366.768 C109.768,371.739 113.797,375.768 118.768,375.768 L161.509,375.768 C161.579,375.769 161.648,375.77 161.718,375.77 C161.788,375.77 161.858,375.769 161.927,375.768 L186.576,375.768 C191.547,375.768 195.576,371.739 195.576,366.768 C195.576,361.797 191.547,357.769 186.576,357.769 L186.576,357.769 Z M200.298,208.392 C202.601,208.392 204.904,207.513 206.662,205.756 C210.177,202.241 210.177,196.543 206.662,193.028 L129.502,115.868 C125.987,112.353 120.289,112.354 116.774,115.868 C113.259,119.383 113.259,125.081 116.774,128.596 L193.934,205.756 C195.692,207.514 197.995,208.392 200.298,208.392 L200.298,208.392 Z M117.761,167.594 C114.246,171.109 114.246,176.807 117.761,180.322 L160.209,222.772 C161.967,224.53 164.27,225.408 166.573,225.408 C168.876,225.408 171.179,224.529 172.937,222.772 C176.452,219.257 176.452,213.559 172.937,210.044 L130.489,167.594 C126.974,164.08 121.276,164.081 117.761,167.594 L117.761,167.594 Z M333.758,363.991 C313.986,378.42 291.066,385.752 268.941,385.752 C252.965,385.752 237.405,381.93 223.739,374.199 L220.254,376.742 C216.241,379.672 210.609,378.793 207.679,374.777 C204.749,370.762 205.629,365.132 209.644,362.202 L213.129,359.659 C212.796,358.058 212.51,356.45 212.27,354.837 C190.513,335.775 180.299,304.97 185.529,273.444 C191.7,236.236 218.153,207.042 251.352,200.799 C253.438,200.405 255.597,200.764 257.445,201.81 C272.363,210.246 283.999,223.884 290.868,240.777 C318.964,232.32 348.683,235.613 371.864,251.139 C373.628,252.32 374.918,254.087 375.505,256.128 C386.515,294.388 369.739,337.735 333.758,363.991 L333.758,363.991 Z M231.844,282.279 L237.218,249.874 C238.032,244.971 242.666,241.657 247.57,242.468 C251.975,243.199 255.099,247.014 255.099,251.338 C255.099,251.827 255.059,252.322 254.976,252.82 L253.791,259.961 C254.653,259.295 255.523,258.641 256.408,257.995 C262.078,253.857 268.009,250.303 274.103,247.337 C269.207,235.419 261.366,225.666 251.426,219.203 C227.155,225.322 208.015,247.87 203.285,276.389 C200.257,294.64 203.799,312.971 212.5,327.302 C215.055,311.447 221.693,295.949 231.844,282.279 L231.844,282.279 Z M359.046,264.315 C338.932,252.24 313.164,251.077 289.32,260.311 C288.889,260.523 288.437,260.704 287.963,260.849 C280.718,263.785 273.667,267.684 267.019,272.536 C259.658,277.908 253.253,284.111 247.916,290.871 C247.634,291.309 247.314,291.719 246.964,292.097 C234.286,308.715 227.963,328.546 229.547,347.678 L320.541,281.276 C324.556,278.346 330.187,279.226 333.116,283.241 C336.046,287.256 335.166,292.886 331.151,295.816 L240.158,362.218 C265.621,372.762 297.424,368.224 323.147,349.452 C352.018,328.383 366.148,294.551 359.046,264.315 L359.046,264.315 Z M186.83,145.46 C189.133,145.46 191.436,144.581 193.194,142.824 C196.709,139.309 196.709,133.611 193.194,130.096 L161.852,98.753 C158.337,95.238 152.639,95.239 149.124,98.753 C145.609,102.268 145.609,107.966 149.124,111.481 L180.466,142.824 C182.224,144.582 184.527,145.46 186.83,145.46 L186.83,145.46 Z" id="XMLID_1713_"></path>
                </g>
            </g>
        </g>
    </g>
</svg>