<?xml version="1.0" encoding="UTF-8" standalone="no"?>
<svg width="695px" height="719px" viewBox="0 0 695 719" version="1.1" xmlns="http://www.w3.org/2000/svg" xmlns:xlink="http://www.w3.org/1999/xlink">
    <!-- Generator: Sketch 40.3 (33839) - http://www.bohemiancoding.com/sketch -->
    <title>电影</title>
    <desc>Created with Sketch.</desc>
    <defs></defs>
    <g id="Page-1" stroke="none" stroke-width="1" fill="none" fill-rule="evenodd">
        <g id="Artboard-2" transform="translate(-670.000000, -3443.000000)" fill="#E4C04E">
            <g id="电影" transform="translate(670.000000, 3443.000000)">
                <polyline id="Fill-1" points="273.7 190.069 186.069 123.714 110.853 142.834 198.485 209.188 273.7 190.069"></polyline>
                <polyline id="Fill-2" points="691.53 83.859 670.37 0.61 595.477 19.647 683.107 86.001 691.53 83.859"></polyline>
                <polyline id="Fill-3" points="435.823 148.858 348.194 82.504 272.697 101.694 360.327 168.049 435.823 148.858"></polyline>
                <polyline id="Fill-4" points="596.478 108.021 508.848 41.667 434.822 60.484 522.453 126.838 596.478 108.021"></polyline>
                <path d="M693.999,236.737 L693.797,236.737 L693.797,236.726 L670.201,236.737 L602.313,321.401 L512.685,321.401 L580.544,236.776 L502.7,236.809 L434.871,321.401 L345.246,321.401 L413.045,236.848 L334.909,236.881 L267.133,321.401 L177.508,321.401 L245.252,236.919 L168.64,236.951 L100.924,321.401 L11.297,321.401 L76.39,240.224 L111.855,231.209 L24.225,164.855 L2.517,170.373 L0.211,170.373 L0.211,718.796 L694.471,718.796 L694.471,236.737 L693.999,236.737 L693.999,236.737 Z M373.752,497.916 L525.622,497.916 L525.622,440.336 L373.752,440.336 L373.752,497.916 Z M74.731,496.972 L346.397,496.972 L346.397,439.392 L74.731,439.392 L74.731,496.972 Z M73.788,580.037 L404.881,580.037 L404.881,522.457 L73.788,522.457 L73.788,580.037 Z M437.896,580.982 L622.78,580.982 L622.78,523.402 L437.896,523.402 L437.896,580.982 Z" id="Fill-5"></path>
            </g>
        </g>
    </g>
</svg>