<?xml version="1.0" encoding="UTF-8" standalone="no"?>
<svg width="813px" height="813px" viewBox="0 0 813 813" version="1.1" xmlns="http://www.w3.org/2000/svg" xmlns:xlink="http://www.w3.org/1999/xlink">
    <!-- Generator: Sketch 40.3 (33839) - http://www.bohemiancoding.com/sketch -->
    <title>画板</title>
    <desc>Created with Sketch.</desc>
    <defs></defs>
    <g id="Page-1" stroke="none" stroke-width="1" fill="none" fill-rule="evenodd">
        <g id="Artboard-2" transform="translate(-453.000000, -4176.000000)" fill="#E4C04E">
            <path d="M757.434146,4650.12535 C757.765146,4687.49635 727.661146,4718.06335 690.239146,4718.29335 C652.833146,4718.59135 622.383146,4688.52135 622.184146,4651.15035 C621.852146,4613.75935 651.940146,4583.30935 689.248146,4582.96335 C726.668146,4582.71235 757.235146,4612.81535 757.434146,4650.12535 L757.434146,4650.12535 Z M724.341146,4515.23635 C686.968146,4515.50135 656.384146,4485.44635 656.154146,4447.99135 C655.856146,4410.68535 685.845146,4380.20035 723.282146,4379.95335 C760.573146,4379.60635 791.240146,4409.62735 791.372146,4447.03335 C791.768146,4484.47335 761.597146,4514.89235 724.341146,4515.23635 L724.341146,4515.23635 Z M994.395146,4379.40735 C994.525146,4416.71535 964.591146,4447.36435 927.217146,4447.61035 C889.810146,4447.92435 859.277146,4417.83835 859.046146,4380.48235 C858.682146,4343.06035 888.753146,4312.60935 926.227146,4312.31135 C963.468146,4312.09735 994.064146,4342.11735 994.395146,4379.40735 L994.395146,4379.40735 Z M588.346146,4915.63435 C743.555146,4928.48735 687.975146,4763.63135 831.585146,4762.10935 L893.777146,4813.99035 C909.271146,5001.35535 680.077146,5043.18735 588.346146,4915.63435 L588.346146,4915.63435 Z M1064.28315,4674.87735 C1112.56215,4599.12035 1262.12115,4345.04235 1262.12115,4345.04235 C1274.01715,4323.97735 1247.58015,4301.96935 1229.10815,4317.51535 C1229.10815,4317.51535 1006.72015,4510.85935 941.129146,4572.13935 C889.280146,4620.59835 889.067146,4642.73935 872.277146,4722.62235 L929.096146,4769.97535 C1004.43915,4739.04535 1026.11815,4734.81735 1064.28315,4674.87735 L1064.28315,4674.87735 Z M637.185146,4837.51935 C566.669146,4775.92435 521.463146,4685.91035 520.687146,4585.52135 C519.200146,4399.08535 669.783146,4246.13935 856.368146,4244.61835 C986.233146,4243.92435 1075.61715,4309.07335 1076.18015,4361.24935 C1096.70215,4343.25735 1115.90015,4326.47135 1132.45615,4311.99935 C1098.28715,4236.78735 990.957146,4175.12835 855.805146,4176.93035 C631.650146,4178.76235 451.227146,4361.84435 453.013146,4586.06735 C453.790146,4684.58835 489.643146,4774.53535 548.529146,4844.39335 C580.944146,4861.04735 620.365146,4855.52835 637.185146,4837.51935 L637.185146,4837.51935 Z M1070.19915,4773.01635 C1106.01915,4839.70035 1024.46615,4887.02035 950.249146,4908.10135 C939.940146,4938.96435 923.085146,4966.32635 903.754146,4986.28635 C1081.56615,4966.32635 1210.37315,4840.65835 1115.76815,4719.35235 C1100.23515,4742.51735 1085.43415,4759.86435 1070.19915,4773.01635 L1070.19915,4773.01635 Z" id="画板"></path>
        </g>
    </g>
</svg>