<?xml version="1.0" encoding="UTF-8" standalone="no"?>
<svg width="605px" height="606px" viewBox="0 0 605 606" version="1.1" xmlns="http://www.w3.org/2000/svg" xmlns:xlink="http://www.w3.org/1999/xlink">
    <!-- Generator: Sketch 40.3 (33839) - http://www.bohemiancoding.com/sketch -->
    <title>游行</title>
    <desc>Created with Sketch.</desc>
    <defs></defs>
    <g id="Page-1" stroke="none" stroke-width="1" fill="none" fill-rule="evenodd">
        <g id="Artboard-2" transform="translate(0.000000, -3999.000000)" fill="#3EC1AF">
            <path d="M63.798495,4067.88163 C59.040495,4049.64463 40.944495,4038.94263 23.373495,4043.81563 C5.80549497,4048.67463 -4.59750503,4067.28263 0.14749497,4085.56463 L128.090495,4579.70563 C132.835495,4597.90163 150.989495,4608.70363 168.499495,4603.83063 C186.154495,4598.98663 196.485495,4580.23463 191.797495,4561.99663 L63.798495,4067.88163 L63.798495,4067.88163 Z M319.014495,4030.50563 C181.995495,3941.79163 102.200495,4067.78263 93.637495,4082.94363 C100.147495,4106.63963 175.696495,4386.81763 175.696495,4386.81763 C202.998495,4302.45063 270.038495,4264.57563 361.192495,4289.14063 C459.712495,4315.68763 539.277495,4253.36263 564.640495,4207.83863 C590.061495,4162.32663 604.851495,4076.44663 604.851495,4076.44663 C545.632495,4182.52963 456.291495,4119.16463 319.014495,4030.50563 L319.014495,4030.50563 Z" id="游行"></path>
        </g>
    </g>
</svg>