<?xml version="1.0" encoding="UTF-8" standalone="no"?>
<svg width="151px" height="137px" viewBox="0 0 151 137" version="1.1" xmlns="http://www.w3.org/2000/svg" xmlns:xlink="http://www.w3.org/1999/xlink">
    <!-- Generator: Sketch 40.3 (33839) - http://www.bohemiancoding.com/sketch -->
    <title>Group 26</title>
    <desc>Created with Sketch.</desc>
    <defs></defs>
    <g id="Page-1" stroke="none" stroke-width="1" fill="none" fill-rule="evenodd">
        <g id="Artboard-2" transform="translate(-933.000000, -3307.000000)">
            <g id="Group-26" transform="translate(937.000000, 3307.000000)">
                <path d="M23.7800449,33.1244867 C15.5002561,26.0645 0.49466493,31.7485323 0.49466493,31.7485323 C0.49466493,31.7485323 13.7972436,13.3463982 26.1648958,12.8975008 C38.5325481,12.4486034 48.4116514,23.5090806 48.4116514,31.7485323 C48.4116514,39.987984 30.3481206,60.1479333 31.0903129,73.1507839 C31.8325052,86.1536346 48.4116514,90.1299449 48.4116514,90.1299449 L14.6911445,94.9166606 C14.6911445,94.9166606 8.45067361,82.9022524 9.12780484,75.6465969 C9.93357972,67.0124878 23.7800449,53.900461 23.7800449,53.900461 C23.7800449,53.900461 32.0598338,40.1844733 23.7800449,33.1244867 Z" id="Path-51" stroke="#E4C04E" stroke-width="3"></path>
                <ellipse id="Oval-26" fill="#E4C04E" cx="24.4631902" cy="23.3490566" rx="2.22392638" ry="2.12264151"></ellipse>
                <path d="M74.3295678,101.463279 C74.3295678,101.463279 52.9850027,38.2964286 55.5978453,21.4044623 C58.2106878,4.51249608 78.8935535,1.45097064 80.9695724,19.3553422 C83.0455913,37.2597137 74.3295678,101.463279 74.3295678,101.463279 Z" id="Path-53" stroke="#E4C04E" stroke-width="3"></path>
                <path d="M75.1799743,100.999464 C75.1799743,100.999464 82.682,83.9875245 83.9554864,62.2948228 C84.6347629,50.7239548 83.0465985,37.5097551 83.9554864,31.633816 C86.568329,14.7418497 109.48541,17.1137857 111.561429,35.0181572 C113.637448,52.9225287 75.1799743,100.999464 75.1799743,100.999464 Z" id="Path-53" stroke="#E4C04E" stroke-width="3"></path>
                <path d="M70.8232365,101.577421 C70.8232365,101.577421 114.146799,53.5342074 120.587205,48.8691949 C127.027611,44.2041824 134.991338,42.4853977 139.783993,51.62672 C144.576649,60.7680423 139.783993,70.4076038 135.302275,73.3203113 C133.429853,74.5372146 119.129203,82.2641429 106.300153,87.8278428 C88.4223477,95.5810859 70.8232365,101.577421 70.8232365,101.577421 Z" id="Path-54" stroke="#E4C04E" stroke-width="3"></path>
                <path d="M74.6180986,97.2575281 C74.6180986,97.2575281 87.0010658,94.748476 102.153794,91.2721373 C113.769663,88.6072249 128.403148,84.8179346 131.944883,84.5100688 C140.10676,83.8005966 145.171299,88.1112981 144.882438,94.6081969 C144.593576,101.105096 136.508452,104.782558 131.043538,104.782558 C128.16722,104.782558 112.15741,106.757373 98.138341,104.782558 C85.521622,103.005287 74.6180986,97.2575281 74.6180986,97.2575281 Z" id="Path-55" stroke="#E4C04E" stroke-width="3"></path>
                <path d="M13.2464609,94.1509457 C13.2464609,94.1509457 42.8774903,79.9868779 71.751773,87.4002634 C100.626056,94.8136489 106.003415,121.468924 106.003415,121.468924 C106.003415,121.468924 78.5019576,139.886819 51.7102725,133.008134 C24.9185874,126.129449 13.2464609,94.1509457 13.2464609,94.1509457 Z" id="Path-52" stroke="#E4C04E" stroke-width="3" fill="#FFFFFF"></path>
                <path d="M17.6997058,4.58935692 L21.0329957,13.2677703" id="Path-56" stroke="#E4C04E"></path>
                <path d="M27.3427085,2.99318109 L27.3616908,11.8328427" id="Path-57" stroke="#E4C04E"></path>
                <path d="M37.9746884,1.7478231 L32.5932095,12.6619697" id="Path-58" stroke="#E4C04E"></path>
                <ellipse id="Oval-26" fill="#E4C04E" cx="17.3466258" cy="3.82075472" rx="1.33435583" ry="1.27358491"></ellipse>
                <ellipse id="Oval-26" fill="#E4C04E" cx="27.1319018" cy="2.12264151" rx="1.33435583" ry="1.27358491"></ellipse>
                <ellipse id="Oval-26" fill="#E4C04E" cx="38.696319" cy="1.27358491" rx="1.33435583" ry="1.27358491"></ellipse>
                <path d="M61.8251534,101.363094 C61.8251534,101.363094 60.9373694,113.086066 69.8443483,119.512899 C78.7513272,125.939732 96.3603271,126.281956 96.3603271,126.281956" id="Path-59" stroke="#E4C04E" stroke-width="3"></path>
                <path d="M117.795887,118.498055 C117.795887,118.498055 117.164309,113.368223 115.161887,102.519011 C113.159465,91.6697991 110.845019,82.2213596 110.845019,80.893952 C110.845019,78.4413325 113.365365,74.4980553 115.32038,74.4980553 C117.275395,74.4980553 119.550278,79.7098577 119.550278,81.7495391 C119.550278,83.7892205 118.630055,91.850429 118.579757,100.820831 C118.532794,109.196354 117.795887,118.498055 117.795887,118.498055 Z" id="Path-60" fill="#E4C04E" transform="translate(115.197649, 96.498055) rotate(87.000000) translate(-115.197649, -96.498055) "></path>
                <path d="M109.384516,102.145004 C109.384516,102.145004 108.4292,96.0227392 105.400362,83.0746062 C102.371524,70.1264732 98.8707244,58.8501105 98.8707244,57.2658986 C98.8707244,54.3387881 102.682966,49.6326327 105.640097,49.6326327 C108.597228,49.6326327 112.038187,55.852726 112.038187,58.2870102 C112.038187,60.7212945 110.646268,70.3420484 110.570188,81.0478907 C110.499154,91.0437673 109.384516,102.145004 109.384516,102.145004 Z" id="Path-60" fill="#E4C04E" transform="translate(105.454455, 75.888818) rotate(58.000000) translate(-105.454455, -75.888818) "></path>
                <path d="M93.4689903,91.8344557 C93.4689903,91.8344557 91.1051321,82.2328922 88.971477,72.5399866 C86.4544131,61.1053065 83.4174163,47.6392699 83.4174163,46.055058 C83.4174163,43.1279475 85.5376112,40.6055098 88.4947421,40.6055098 C91.4518731,40.6055098 94.4386781,46.055058 94.4386781,48.4893422 C94.4386781,50.9236265 93.7864849,60.5315906 93.710405,71.237433 C93.6393704,81.2333096 93.4689903,91.8344557 93.4689903,91.8344557 Z" id="Path-60" fill="#E4C04E" transform="translate(88.928047, 66.219983) rotate(29.000000) translate(-88.928047, -66.219983) "></path>
                <path d="M74.0915552,88.4453519 C74.0915552,88.4453519 71.2509621,78.3592643 69.117307,68.6663587 C66.6002431,57.2316787 64.0399812,44.2501661 64.0399812,42.6659542 C64.0399812,39.7388437 66.1601761,37.216406 69.117307,37.216406 C72.074438,37.216406 75.061243,42.6659542 75.061243,45.1002384 C75.061243,47.5345227 73.0612053,56.5653321 72.9851255,67.2711744 C72.9140909,77.267051 74.0915552,88.4453519 74.0915552,88.4453519 Z" id="Path-60" fill="#E4C04E"></path>
            </g>
        </g>
    </g>
</svg>