<?xml version="1.0" encoding="UTF-8" standalone="no"?>
<svg width="820px" height="820px" viewBox="0 0 820 820" version="1.1" xmlns="http://www.w3.org/2000/svg" xmlns:xlink="http://www.w3.org/1999/xlink">
    <!-- Generator: Sketch 40.3 (33839) - http://www.bohemiancoding.com/sketch -->
    <title>飞船</title>
    <desc>Created with Sketch.</desc>
    <defs></defs>
    <g id="Page-1" stroke="none" stroke-width="1" fill="none" fill-rule="evenodd">
        <g id="Artboard-2" transform="translate(-1073.000000, -3853.000000)" fill="#E4C04E">
            <g id="飞船" transform="translate(1073.000000, 3853.000000)">
                <path d="M518.819,342.132 C518.819,357.187 531.062,369.431 546.118,369.431 C561.173,369.431 573.417,357.188 573.417,342.132 C573.417,327.077 561.175,314.833 546.118,314.833 C531.062,314.833 518.819,327.076 518.819,342.132" id="Fill-1"></path>
                <path d="M816.262,220.271 C795.078,161.975 661.971,172.513 584.499,183.964 C577.059,185.069 571.901,192.003 573.006,199.469 C574.099,206.922 581.004,212.054 588.498,210.976 C715.845,192.126 782.535,207.4 790.616,229.607 C797.126,247.488 777.867,285.543 704.258,338.664 C637.854,386.587 543.893,434.413 446.478,469.86 C349.05,505.334 246.313,529.083 164.635,535.062 C74.072,541.683 34.873,524.921 28.362,507.04 C18.616,480.247 79.368,412.602 211.057,339.565 C211.303,339.496 211.535,339.429 211.78,339.333 C218.699,336.863 222.276,329.081 220.105,322.122 L220.036,321.932 C220.009,321.836 219.968,321.74 219.955,321.658 C219.886,321.468 219.819,321.29 219.736,321.098 L192.355,245.878 C177.545,205.177 179.471,161.143 197.774,121.875 C216.078,82.62 248.576,52.837 289.292,38.029 C373.289,7.454 466.527,50.942 497.143,134.951 L522.311,204.167 C494.072,239.397 449.151,267.417 381.698,291.958 C333.626,309.443 293.441,318.206 258.855,318.71 C251.307,318.819 245.301,325.03 245.411,332.564 C245.52,340.097 251.24,346.131 259.252,346.007 C296.951,345.448 340.042,336.153 391.034,317.618 C467.374,289.815 517.481,257.097 548.682,214.607 C551.398,210.936 552.081,206.144 550.511,201.859 L522.789,125.615 C487.043,27.45 378.096,-23.326 279.957,12.366 C232.404,29.687 194.418,64.478 173.03,110.34 C151.641,156.201 149.403,207.659 166.71,255.213 L190.269,319.937 C128.52,354.92 -21.99,448.5 2.715,516.377 C16.351,553.829 71.67,563.822 126.813,563.822 C140.299,563.822 153.77,563.222 166.614,562.28 C250.707,556.137 356.105,531.801 455.813,495.521 C555.493,459.24 651.87,410.13 720.226,360.803 C773.403,322.408 833.243,266.87 816.262,220.271" id="Fill-2"></path>
                <path d="M595.391,484.41 C591.255,478.105 582.794,476.371 576.487,480.508 C570.194,484.644 568.448,493.105 572.57,499.398 L698.498,690.855 C701.118,694.854 705.486,697.012 709.922,697.012 C712.487,697.012 715.094,696.289 717.415,694.76 C723.708,690.623 725.454,682.162 721.318,675.869 L595.391,484.41" id="Fill-3"></path>
                <path d="M368.814,573.567 C367.94,566.088 361.238,560.642 353.663,561.597 C346.184,562.484 340.819,569.253 341.692,576.733 L368.772,807.786 C369.577,814.734 375.474,819.851 382.312,819.851 C382.83,819.851 383.377,819.824 383.908,819.755 C391.402,818.882 396.765,812.098 395.879,804.617 L368.814,573.567" id="Fill-4"></path>
                <path d="M482.43,528.866 C479.865,521.796 471.989,518.111 464.946,520.703 C457.849,523.283 454.204,531.118 456.784,538.202 L530.817,741.534 C532.823,747.062 538.065,750.515 543.634,750.515 C545.191,750.515 546.774,750.242 548.302,749.682 C555.399,747.102 559.044,739.268 556.464,732.183 L482.43,528.866" id="Fill-5"></path>
                <path d="M395.977,396.728 C395.977,411.783 408.219,424.027 423.276,424.027 C438.33,424.027 450.574,411.784 450.574,396.728 C450.574,381.672 438.332,369.429 423.276,369.429 C408.219,369.429 395.977,381.673 395.977,396.728" id="Fill-6"></path>
                <path d="M682.61,273.885 C682.61,258.831 670.367,246.586 655.311,246.586 C640.256,246.586 628.012,258.829 628.012,273.885 C628.012,288.94 640.255,301.184 655.311,301.184 C670.365,301.184 682.61,288.94 682.61,273.885" id="Fill-7"></path>
                <path d="M136.641,451.324 C136.641,466.379 148.883,478.623 163.94,478.623 C178.994,478.623 191.239,466.381 191.239,451.324 C191.239,436.27 178.996,424.025 163.94,424.025 C148.885,424.027 136.641,436.27 136.641,451.324" id="Fill-8"></path>
                <path d="M273.134,437.676 C273.134,452.73 285.376,464.975 300.433,464.975 C315.489,464.975 327.732,452.732 327.732,437.676 C327.732,422.621 315.489,410.377 300.433,410.377 C285.376,410.377 273.134,422.621 273.134,437.676" id="Fill-9"></path>
                <path d="M401.954,133.026 C404.601,135.687 408.096,137.024 411.591,137.024 C415.072,137.024 418.579,135.687 421.255,133.011 C426.564,127.675 426.564,119.035 421.228,113.711 C403.429,95.926 379.775,84.858 354.674,82.537 C346.839,81.827 340.52,87.369 339.81,94.863 C339.114,102.369 344.627,109.017 352.135,109.713 C370.944,111.459 388.633,119.745 401.954,133.026" id="Fill-10"></path>
            </g>
        </g>
    </g>
</svg>