<?xml version="1.0" encoding="UTF-8" standalone="no"?>
<svg width="261px" height="161px" viewBox="0 0 261 161" version="1.1" xmlns="http://www.w3.org/2000/svg" xmlns:xlink="http://www.w3.org/1999/xlink">
    <!-- Generator: Sketch 40.3 (33839) - http://www.bohemiancoding.com/sketch -->
    <title>Combined Shape</title>
    <desc>Created with Sketch.</desc>
    <defs></defs>
    <g id="Page-1" stroke="none" stroke-width="1" fill="none" fill-rule="evenodd">
        <g id="Artboard-2" transform="translate(-898.000000, -4087.000000)" fill="#E4C04E">
            <g id="Group-7" transform="translate(898.000000, 3025.000000)">
                <g id="Group-3">
                    <g id="Group-25" transform="translate(0.000000, 1062.000000)">
                        <path d="M224.621948,0 L243.008956,0 C252.945135,0 261,8.06670367 261,18.0001056 L261,116.165917 C255.324573,117.118073 251,122.054007 251,128 C251,133.945993 255.324573,138.881927 261,139.834083 L261,142.999894 C261,152.941078 252.938619,161 243.008956,161 L188.998714,161 C190.909924,157.600553 192,153.677577 192,149.5 C192,136.521308 181.478692,126 168.5,126 C155.521308,126 145,136.521308 145,149.5 C145,153.677577 146.090076,157.600553 148.001306,161.000005 L17.9910437,161 C8.05486463,161 2.84217094e-14,152.933296 2.84217094e-14,142.999894 L2.84217094e-14,39.9119181 C1.52211309,40.6105132 3.21557179,41 5,41 C11.627417,41 17,35.627417 17,29 C17,22.372583 11.627417,17 5,17 C3.21557179,17 1.52211309,17.3894868 -5.08359445e-07,18.0880847 L2.84217094e-14,18.0001056 C2.84217094e-14,8.05892178 8.06138056,0 17.9910437,0 L201.378052,0 C202.710181,5.17568164 207.408482,9 213,9 C218.591518,9 223.289819,5.17568164 224.621948,8.08242362e-14 Z M156.5,89 C169.478692,89 180,78.4786916 180,65.5 C180,52.5213084 169.478692,42 156.5,42 C143.521308,42 133,52.5213084 133,65.5 C133,78.4786916 143.521308,89 156.5,89 Z M235.5,68 C245.164983,68 253,60.1649831 253,50.5 C253,40.8350169 245.164983,33 235.5,33 C225.835017,33 218,40.8350169 218,50.5 C218,60.1649831 225.835017,68 235.5,68 Z M52,149 C58.627417,149 64,143.627417 64,137 C64,130.372583 58.627417,125 52,125 C45.372583,125 40,130.372583 40,137 C40,143.627417 45.372583,149 52,149 Z M95,115 C101.627417,115 107,109.627417 107,103 C107,96.372583 101.627417,91 95,91 C88.372583,91 83,96.372583 83,103 C83,109.627417 88.372583,115 95,115 Z M28,81 C31.8659932,81 35,77.8659932 35,74 C35,70.1340068 31.8659932,67 28,67 C24.1340068,67 21,70.1340068 21,74 C21,77.8659932 24.1340068,81 28,81 Z M71,47 C77.627417,47 83,41.627417 83,35 C83,28.372583 77.627417,23 71,23 C64.372583,23 59,28.372583 59,35 C59,41.627417 64.372583,47 71,47 Z" id="Combined-Shape"></path>
                    </g>
                </g>
            </g>
        </g>
    </g>
</svg>