<?xml version="1.0" encoding="UTF-8" standalone="no"?>
<svg width="811px" height="779px" viewBox="0 0 811 779" version="1.1" xmlns="http://www.w3.org/2000/svg" xmlns:xlink="http://www.w3.org/1999/xlink">
    <!-- Generator: Sketch 40.3 (33839) - http://www.bohemiancoding.com/sketch -->
    <title>雷</title>
    <desc>Created with Sketch.</desc>
    <defs></defs>
    <g id="Page-1" stroke="none" stroke-width="1" fill="none" fill-rule="evenodd">
        <g id="Artboard-2" transform="translate(-94.000000, -4156.000000)" fill="#E4C04E">
            <g id="雷" transform="translate(94.000000, 4156.000000)">
                <path d="M636.244,218.686 C622.24,218.686 608.423,220.344 594.98,223.612 C593.146,164.826 569.401,109.825 527.621,68.046 C484.101,24.526 426.24,0.558 364.693,0.558 C303.147,0.558 245.285,24.526 201.765,68.046 C158.245,111.565 134.278,169.427 134.278,230.974 C134.278,237.419 134.55,243.889 135.083,250.317 C100.015,255.852 67.816,272.938 43.367,299.236 C15.876,328.806 0.736,367.34 0.736,407.738 C0.736,495.625 72.237,567.126 160.124,567.126 L192.073,567.126 C198.86,567.126 204.361,561.625 204.361,554.838 C204.361,548.052 198.86,542.55 192.073,542.55 L160.124,542.55 C85.788,542.55 25.312,482.074 25.312,407.738 C25.312,337.77 79.884,278.732 149.55,273.333 C156.316,272.809 161.376,266.898 160.852,260.132 C160.844,260.04 160.826,259.951 160.816,259.859 C160.798,259.567 160.782,259.276 160.742,258.982 C159.489,249.764 158.854,240.341 158.854,230.974 C158.854,117.474 251.193,25.134 364.693,25.134 C478.193,25.134 570.532,117.474 570.532,230.974 C570.532,231.152 570.527,231.333 570.527,231.512 C529.787,248.143 496.303,280.085 477.848,320.261 C475.016,326.427 477.719,333.723 483.886,336.556 C490.052,339.388 497.348,336.687 500.181,330.518 C517.093,293.701 548.69,264.934 586.869,251.594 C602.696,246.066 619.308,243.262 636.244,243.262 C718.758,243.262 785.888,310.392 785.888,392.906 C785.888,475.42 718.758,542.55 636.244,542.55 L512.668,542.55 C505.882,542.55 500.38,548.052 500.38,554.838 C500.38,561.625 505.882,567.126 512.668,567.126 L636.244,567.126 C732.309,567.126 810.464,488.971 810.464,392.906 C810.464,296.84 732.309,218.686 636.244,218.686" id="Fill-1"></path>
                <path d="M481.884,684.991 C481.884,711.529 503.397,733.042 529.935,733.042 C556.473,733.042 577.986,711.529 577.986,684.991 C577.986,658.453 529.935,605.706 529.935,605.706 C529.935,605.706 481.884,658.453 481.884,684.991" id="Fill-2"></path>
                <polyline id="Fill-3" points="491.538 518.209 370.918 518.209 459.112 346.185 228.928 572.273 342.914 572.273 236.778 778.703 491.538 518.209"></polyline>
            </g>
        </g>
    </g>
</svg>