<?xml version="1.0" encoding="UTF-8" standalone="no"?>
<svg width="90px" height="102px" viewBox="0 0 90 102" version="1.1" xmlns="http://www.w3.org/2000/svg" xmlns:xlink="http://www.w3.org/1999/xlink">
    <!-- Generator: Sketch 40.3 (33839) - http://www.bohemiancoding.com/sketch -->
    <title>Group</title>
    <desc>Created with Sketch.</desc>
    <defs></defs>
    <g id="Page-1" stroke="none" stroke-width="1" fill="none" fill-rule="evenodd">
        <g id="Artboard-2" transform="translate(-1314.000000, -2859.000000)" fill="#3EC1AF">
            <g id="muscle_1161786_easyicon.net" transform="translate(1314.000000, 2859.000000)">
                <g id="Layer_1">
                    <g id="Group">
                        <path d="M1.28625,57.8034 C4.149375,58.18692 8.11875,59.52924 8.11875,61.04088 C8.11875,61.46316 8.35875,61.84056 8.720625,61.99152 C9.075,62.14248 9.493125,62.03436 9.75375,61.72224 C9.8025,61.66512 14.79375,55.77156 24.525,55.77156 C34.659375,55.77156 40.4625,60.98376 40.4625,62.40156 C40.4625,62.8932 40.785,63.31344 41.2275,63.4032 C41.6775,63.49296 42.110625,63.22572 42.275625,62.76672 C42.31125,62.66472 45.845625,52.87476 51.504375,52.87476 L51.556875,52.87476 C54.474375,52.90944 59.735625,52.96044 62.94375,57.24444 C63.305625,57.7932 63.54,58.13796 63.6075,58.23792 C63.9075,58.6908 64.48125,58.79076 64.8975,58.47456 C65.31375,58.15836 65.424375,57.54432 65.1525,57.07512 C64.93125,56.7018 64.696875,56.35296 64.455,56.02044 C61.34625,51.29784 48.4275,31.23036 48.4275,23.79864 C48.4275,23.40288 48.2175,23.0418 47.8875,22.87452 C47.559375,22.7052 47.169375,22.76028 46.891875,23.01324 C46.783125,23.10912 36.136875,32.5788 27.8625,25.13688 C27.765,25.02264 25.47375,22.32372 26.98875,20.16744 C27.165,19.91652 27.22125,19.59216 27.148125,19.28616 C27.075,18.98016 26.874375,18.73128 26.60625,18.60684 C26.59125,18.60072 25.08375,17.88468 24.615,16.37712 C24.3075,15.3918 24.49875,14.22492 25.185,12.90912 C27.7275,8.02944 32.124375,3.86988 32.270625,3.71688 C32.293125,3.68832 34.494375,0.98124 39.549375,3.95352 C40.2075,4.33908 40.989375,4.78788 41.866875,5.29176 C48.639375,9.1698 61.245,16.38732 66.103125,23.87412 C67.12875,25.45104 68.443125,27.25644 69.9675,29.3454 C76.783125,38.68452 87.054375,52.77684 87.64875,69.49872 C87.18,70.60236 84.433125,76.4592 77.1975,81.27768 C69.793125,86.2104 56.026875,91.04112 32.525625,86.03496 C32.281875,85.98192 32.015625,86.03904 31.80375,86.20224 C31.591875,86.3634 31.453125,86.61024 31.4175,86.89176 C31.40625,86.97132 30.309375,94.9824 26.33625,99.78048 C25.989375,100.19868 26.02125,100.84332 26.405625,101.22072 C26.585625,101.39616 26.810625,101.48184 27.03375,101.48184 C27.290625,101.48184 27.54375,101.3676 27.73125,101.1432 C31.231875,96.91224 32.655,90.69228 33.103125,88.22796 C39.789375,89.59476 45.72,90.1782 50.9775,90.1782 C81.646875,90.17616 89.375625,70.3086 89.46,70.07604 C89.50875,69.94548 89.53125,69.80268 89.5275,69.66192 C89.008125,52.1628 78.433125,37.6686 71.44125,28.07652 C69.931875,26.01204 68.63625,24.22704 67.644375,22.695 C62.5275,14.80836 49.659375,7.44192 42.748125,3.48432 C41.87625,2.98452 41.1,2.5398 40.445625,2.15628 C34.07625,-1.5912 30.975,2.22972 30.9525,2.28276 C30.76125,2.46024 26.266875,6.70752 23.563125,11.90136 C22.5975,13.75368 22.3575,15.48768 22.854375,17.05236 C23.29875,18.45792 24.24375,19.38612 24.965625,19.91856 C23.919375,22.50936 25.44375,25.31232 26.593125,26.61996 C34.246875,33.507 43.3575,28.1214 46.7475,25.64892 C47.97,32.6094 55.149375,44.89836 59.754375,52.24236 C56.701875,50.87964 53.465625,50.84496 51.42375,50.82456 C46.3125,50.75316 42.8625,56.79156 41.36625,60.03108 C38.98875,56.97924 32.54625,53.71524 24.54,53.71524 C16.520625,53.71524 11.514375,57.34848 9.45,59.23956 C7.755,56.7324 2.701875,55.92048 1.528125,55.7634 C1.025625,55.692 0.549375,56.09184 0.48375,56.65284 C0.40875,57.222 0.7725,57.73404 1.28625,57.8034 L1.28625,57.8034 Z" id="Shape"></path>
                        <path d="M56.233125,81.15528 C58.175625,81.15528 60.196875,80.84928 62.131875,80.03124 C65.758125,78.50124 68.42625,75.44124 70.081875,70.93896 C70.276875,70.41672 70.0425,69.82308 69.5625,69.61296 C69.0825,69.40284 68.536875,69.6558 68.349375,70.18212 C66.901875,74.13564 64.575,76.80804 61.46625,78.12792 C54.70875,80.988 46.27125,76.65708 46.1925,76.61016 C45.72375,76.3674 45.163125,76.5816 44.94,77.08752 C44.715,77.59548 44.91,78.2034 45.376875,78.4482 C45.646875,78.59304 50.61,81.15528 56.233125,81.15528 L56.233125,81.15528 Z" id="Shape"></path>
                    </g>
                </g>
            </g>
        </g>
    </g>
</svg>