<?xml version="1.0" encoding="UTF-8" standalone="no"?>
<svg width="593px" height="511px" viewBox="0 0 593 511" version="1.1" xmlns="http://www.w3.org/2000/svg" xmlns:xlink="http://www.w3.org/1999/xlink">
    <!-- Generator: Sketch 40.3 (33839) - http://www.bohemiancoding.com/sketch -->
    <title>打字</title>
    <desc>Created with Sketch.</desc>
    <defs></defs>
    <g id="Page-1" stroke="none" stroke-width="1" fill="none" fill-rule="evenodd">
        <g id="Artboard-2" transform="translate(-1414.000000, -3546.000000)" fill="#3EC1AF">
            <g id="打字" transform="translate(1414.000000, 3546.000000)">
                <polygon id="Fill-1" points="101.471 408.836 160.46 408.836 160.46 357.731 101.471 357.731"></polygon>
                <polygon id="Fill-2" points="191.544 408.789 521.466 408.789 521.466 357.731 191.544 357.731"></polygon>
                <polygon id="Fill-3" points="553.374 408.789 612.347 408.789 612.347 357.731 553.374 357.731"></polygon>
                <polyline id="Fill-4" points="611.903 186.942 528.404 186.942 528.783 238.022 612.297 238.022 611.918 186.942 611.903 186.942"></polyline>
                <polyline id="Fill-5" points="227.945 186.942 101.092 186.942 101.471 238.057 228.324 238.057 227.945 186.942"></polyline>
                <polyline id="Fill-6" points="497.312 186.942 438.444 186.942 438.823 238.069 497.691 238.069 497.312 186.942"></polyline>
                <polyline id="Fill-7" points="406.442 186.942 347.492 186.942 347.871 238.069 406.821 238.069 406.442 186.942"></polyline>
                <polyline id="Fill-8" points="316.407 186.942 257.466 186.942 257.845 238.069 316.786 238.069 316.407 186.942"></polyline>
                <polyline id="Fill-9" points="101.485 271.906 101.471 271.906 101.471 323.825 184.922 323.825 184.922 271.906 101.485 271.906"></polyline>
                <polygon id="Fill-10" points="485.408 323.854 612.347 323.854 612.347 271.906 485.408 271.906"></polygon>
                <polygon id="Fill-11" points="214.492 323.858 273.428 323.858 273.428 271.906 214.492 271.906"></polygon>
                <polygon id="Fill-12" points="304.495 323.825 363.461 323.825 363.461 271.906 304.495 271.906"></polygon>
                <polygon id="Fill-13" points="395.362 323.834 454.318 323.834 454.318 271.906 395.362 271.906"></polygon>
                <polygon id="Fill-14" points="101.603 153.053 160.651 153.053 160.651 101.695 101.603 101.695"></polygon>
                <polygon id="Fill-15" points="191.742 153.053 250.768 153.053 250.768 101.918 191.742 101.918"></polygon>
                <polygon id="Fill-16" points="372.823 153.053 431.606 153.053 431.606 101.845 372.823 101.845"></polygon>
                <polygon id="Fill-17" points="462.769 153.053 521.679 153.053 521.679 101.918 462.769 101.918"></polygon>
                <polygon id="Fill-18" points="553.625 153.053 612.59 153.053 612.59 101.8 553.625 101.8"></polygon>
                <polygon id="Fill-19" points="281.978 153.053 340.762 153.053 340.762 101.68 281.978 101.68"></polygon>
                <path d="M663.915,0.138 L51.285,0.138 C23.089,0.138 0.233,22.995 0.233,51.19 L0.233,459.61 C0.233,487.806 23.09,510.662 51.285,510.662 L663.915,510.662 C692.111,510.662 714.967,487.805 714.967,459.61 L714.967,51.19 C714.967,22.994 692.111,0.138 663.915,0.138 L663.915,0.138 Z M50.712,460.823 L664.487,460.823 L664.487,49.977 L50.712,49.977 L50.712,460.823 Z" id="Fill-20"></path>
            </g>
        </g>
    </g>
</svg>