<?xml version="1.0" encoding="UTF-8" standalone="no"?>
<svg width="749px" height="778px" viewBox="0 0 749 778" version="1.1" xmlns="http://www.w3.org/2000/svg" xmlns:xlink="http://www.w3.org/1999/xlink">
    <!-- Generator: Sketch 40.3 (33839) - http://www.bohemiancoding.com/sketch -->
    <title>假发</title>
    <desc>Created with Sketch.</desc>
    <defs></defs>
    <g id="Page-1" stroke="none" stroke-width="1" fill="none" fill-rule="evenodd">
        <g id="Artboard-2" transform="translate(0.000000, -4222.000000)" fill="#E4C04E">
            <path d="M621.773,4838.0209 C616.858,4838.5679 611.67,4839.5229 606.209,4840.8889 C600.747,4842.2539 595.832,4843.7559 591.463,4845.3939 C586.002,4847.5789 580.813,4850.0359 575.898,4852.7669 C574.806,4846.7599 575.079,4840.7519 576.717,4834.7449 C577.81,4829.2829 579.994,4823.5489 583.271,4817.5409 C586.548,4811.5339 592.009,4805.5259 599.655,4799.5189 C613.308,4790.2349 629.556,4784.4999 648.397,4782.3159 C667.239,4780.1309 684.852,4782.3159 701.236,4788.8689 C717.62,4795.4229 730.454,4806.7549 739.738,4822.8659 C749.022,4838.9769 750.661,4860.9589 744.653,4888.8119 C739.738,4911.2029 729.635,4931.5469 714.343,4949.8419 C699.051,4968.1379 678.708,4982.2009 653.312,4992.0309 C627.917,5001.8609 598.016,5006.5029 563.61,5005.9569 C529.204,5005.4109 490.701,4997.7649 448.103,4983.0199 C418.612,4972.6429 395.401,4959.6729 378.471,4944.1079 C361.541,4928.5429 348.843,4912.5689 340.378,4896.1849 C331.913,4879.8009 326.861,4864.3719 325.223,4849.8999 C323.584,4835.4269 323.311,4824.0949 324.404,4815.9029 C325.496,4807.7109 328.909,4797.6079 334.644,4785.5929 C340.378,4773.5779 346.249,4762.1089 352.256,4751.1859 C359.356,4738.0789 367.275,4724.6989 376.013,4711.0449 C380.382,4703.9459 384.205,4697.1189 387.482,4690.5649 C390.213,4684.5579 392.397,4678.5499 394.036,4672.5429 C395.674,4666.5359 395.674,4660.8009 394.036,4655.3399 C388.574,4641.1399 381.748,4630.2179 373.556,4622.5719 C365.364,4614.9259 357.445,4609.1919 349.799,4605.3689 C340.515,4601.5459 330.957,4599.3609 321.127,4598.8149 C307.473,4598.2689 294.912,4596.6309 283.444,4593.8999 C273.613,4591.1689 263.919,4587.6189 254.362,4583.2499 C244.805,4578.8809 237.841,4572.0549 233.472,4562.7699 C228.557,4553.4859 226.509,4543.9289 227.328,4534.0979 C228.148,4524.2679 230.059,4514.5739 233.063,4505.0169 C236.067,4495.4589 239.207,4486.3119 242.484,4477.5739 C245.76,4468.8349 247.399,4461.1899 247.399,4454.6359 C247.399,4437.1599 238.115,4424.8719 219.546,4417.7719 C195.516,4411.7639 177.494,4409.3069 165.479,4410.3989 C153.464,4411.4909 144.999,4413.8119 140.084,4417.3619 C135.168,4420.9119 132.711,4424.1889 132.711,4427.1929 L132.711,4428.4209 C132.711,4436.0669 133.667,4445.8979 135.578,4457.9129 C137.489,4469.9279 136.534,4481.3959 132.711,4492.3189 C129.98,4498.8729 126.294,4505.0169 121.652,4510.7509 C117.009,4516.4849 113.05,4521.8099 109.773,4526.7249 C105.404,4533.8249 101.718,4539.9689 98.714,4545.1569 C95.71,4550.3459 94.481,4553.7589 95.028,4555.3969 C96.12,4557.5819 98.714,4559.0839 102.81,4559.9029 C106.906,4560.7219 110.046,4561.6779 112.231,4562.7699 C114.961,4564.4089 116.736,4567.0029 117.556,4570.5529 C118.375,4574.1029 120.423,4577.2429 123.7,4579.9729 C129.161,4585.4349 132.438,4590.0769 133.53,4593.8999 C134.076,4596.0839 134.076,4597.9959 133.53,4599.6339 C133.53,4604.0029 133.803,4609.1919 134.349,4615.1989 C134.895,4620.1139 135.578,4625.7119 136.397,4631.9929 C137.216,4638.2729 138.445,4644.4169 140.084,4650.4249 C143.36,4664.6239 147.183,4674.5909 151.552,4680.3249 C155.921,4686.0599 161.246,4689.6099 167.527,4690.9749 C173.807,4692.3399 181.317,4692.4769 190.055,4691.3849 C198.793,4690.2919 209.442,4689.7459 222.004,4689.7459 C231.288,4690.2919 240.845,4690.5659 250.676,4690.5659 C260.506,4690.5659 269.244,4692.7499 276.89,4697.1189 C284.536,4701.4879 290.543,4707.4959 294.912,4715.1409 C299.281,4722.7869 302.831,4730.4329 305.562,4738.0789 C307.746,4747.3629 309.385,4756.9209 310.477,4766.7509 C312.116,4779.3119 312.935,4791.8729 312.935,4804.4339 C312.935,4815.3569 312.389,4827.2349 311.296,4840.0689 C310.204,4852.9039 307.473,4865.6009 303.104,4878.1619 C293.82,4903.8309 280.167,4922.9449 262.144,4935.5059 C244.122,4948.0669 224.734,4956.2589 203.981,4960.0819 C182.136,4964.4509 161.383,4964.9969 141.722,4961.7209 C122.061,4958.4439 104.312,4952.9819 88.474,4945.3369 C72.636,4937.6909 59.665,4928.4069 49.562,4917.4839 C39.458,4906.5609 33.314,4895.6389 31.13,4884.7159 C29.492,4875.9779 29.355,4867.3759 30.72,4858.9109 C32.086,4850.4459 34.134,4842.2539 36.864,4834.3349 C39.595,4826.4159 42.872,4818.9069 46.695,4811.8069 C50.518,4804.7069 53.794,4797.8809 56.525,4791.3269 C61.44,4780.9509 64.444,4771.8029 65.536,4763.8839 C66.629,4755.9649 66.629,4749.2749 65.536,4743.8129 C64.444,4737.8059 62.26,4732.3449 58.983,4727.4289 C54.068,4721.9679 48.879,4716.2339 43.418,4710.2259 C39.049,4704.7649 34.407,4698.8939 29.492,4692.6129 C24.576,4686.3329 20.48,4679.3699 17.204,4671.7239 C6.281,4649.3319 0.546,4628.5789 0,4609.4649 C0,4601.2729 0.137,4591.3059 0.41,4579.5639 C0.683,4567.8219 2.731,4556.7629 6.554,4546.3859 C9.831,4537.6479 17.886,4526.0429 30.72,4511.5699 C43.554,4497.0979 57.89,4478.3929 73.728,4455.4549 C77.005,4448.9019 79.872,4442.0749 82.33,4434.9749 C84.788,4427.8749 86.699,4421.3219 88.064,4415.3139 C89.43,4409.3069 90.385,4404.1189 90.932,4399.7489 C91.478,4395.3799 91.751,4392.3769 91.751,4390.7379 C91.751,4385.2769 91.478,4379.2689 90.932,4372.7159 C90.385,4366.1619 89.839,4359.3359 89.293,4352.2359 C89.293,4348.9589 89.02,4343.4979 88.474,4335.8519 C87.928,4328.2059 88.61,4319.7409 90.522,4310.4569 C92.433,4301.1719 95.847,4291.7519 100.762,4282.1939 C105.677,4272.6369 113.323,4264.0349 123.7,4256.3899 C131.892,4250.3819 141.585,4246.1499 152.781,4243.6919 C163.977,4241.2339 174.49,4239.7329 184.32,4239.1859 C195.789,4238.6399 207.804,4238.9129 220.365,4240.0059 C230.742,4236.1829 241.664,4233.1789 253.133,4230.9939 C262.964,4228.8099 274.432,4226.8979 287.54,4225.2599 C300.647,4223.6219 314.3,4222.8019 328.5,4222.8019 C376.013,4223.8949 415.881,4231.1309 448.103,4244.5109 C480.325,4257.8909 506.812,4274.2749 527.565,4293.6629 C548.318,4313.0509 564.156,4334.0769 575.079,4356.7419 C586.001,4379.4059 593.92,4400.4319 598.836,4419.8199 C603.751,4439.2079 606.618,4455.5919 607.437,4468.9719 C608.256,4482.3519 608.666,4489.3149 608.666,4489.8619 C609.212,4499.1459 612.489,4507.6109 618.496,4515.2569 C624.504,4522.9029 631.467,4530.6849 639.386,4538.6039 C647.305,4546.5229 655.497,4554.5779 663.962,4562.7699 C672.427,4570.9619 679.663,4579.9739 685.671,4589.8039 C697.14,4610.5569 703.42,4629.1259 704.512,4645.5099 C705.605,4661.8939 703.42,4676.3659 697.959,4688.9269 C692.497,4701.4879 684.852,4712.2739 675.021,4721.2859 C665.191,4730.2969 655.224,4737.8059 645.12,4743.8139 C635.017,4749.8209 625.733,4754.4629 617.268,4757.7399 C608.802,4761.0169 603.478,4763.2009 601.293,4764.2939 C583.271,4772.4859 569.481,4781.4969 559.924,4791.3269 C550.366,4801.1579 543.949,4810.9879 540.672,4820.8179 C537.395,4830.6489 536.713,4840.2059 538.624,4849.4899 C540.536,4858.7749 544.495,4866.6939 550.503,4873.2469 C554.326,4878.1619 559.241,4882.2579 565.248,4885.5349 C571.256,4888.8119 577.4,4891.2699 583.68,4892.9079 C589.961,4894.5459 595.968,4895.5019 601.703,4895.7749 C607.437,4896.0479 612.216,4895.6389 616.039,4894.5459 C624.777,4892.9079 632.013,4888.9479 637.748,4882.6679 C643.482,4876.3869 646.895,4869.6969 647.988,4862.5979 C649.08,4855.4979 647.578,4849.4899 643.482,4844.5749 C639.386,4839.6599 632.15,4837.4749 621.773,4838.0219 L621.773,4838.0209" id="假发"></path>
        </g>
    </g>
</svg>