<?xml version="1.0" encoding="UTF-8" standalone="no"?>
<svg width="541px" height="549px" viewBox="0 0 541 549" version="1.1" xmlns="http://www.w3.org/2000/svg" xmlns:xlink="http://www.w3.org/1999/xlink">
    <!-- Generator: Sketch 40.3 (33839) - http://www.bohemiancoding.com/sketch -->
    <title>写</title>
    <desc>Created with Sketch.</desc>
    <defs></defs>
    <g id="Page-1" stroke="none" stroke-width="1" fill="none" fill-rule="evenodd">
        <g id="Artboard-2" transform="translate(-138.000000, -4371.000000)" fill="#3EC1AF">
            <g id="写" transform="translate(138.000000, 4371.000000)">
                <path d="M492.816,119.64 C496.913,115.623 496.976,109.046 492.958,104.95 L393.841,3.894 C389.823,-0.203 383.246,-0.266 379.149,3.751 L315.177,66.492 L428.844,182.381 L492.816,119.64" id="Fill-1"></path>
                <path d="M135.085,455.931 C139.103,460.027 136.156,457.263 142.36,463.348 L414.01,196.93 L300.343,81.04 L28.693,347.458 C35.968,354.876 31.951,350.778 35.968,354.876 L135.085,455.931" id="Fill-2"></path>
                <polyline id="Fill-3" points="13.085 361.324 0.926 488.375 128.192 478.682 13.085 361.324"></polyline>
                <polygon id="Fill-4" points="0.926 548.903 540.947 548.903 540.947 520.334 0.926 520.334"></polygon>
            </g>
        </g>
    </g>
</svg>